                                                                        S      1
,,19H1598BB EndPlate.ipt,27HNo Iges File Name specified,23HAutoDesk InveG      1
ntor R11.0,37HAutoDesk Inventor Iges Exporter R11.0,32,38,6,99,15,19H159G      2
8BB EndPlate.ipt,1.0D0,2,2HMM,1,.08D0,15H20061013.140615,.01D0,         G      3
10000.0D0,19HNo Author specified,25HNo Organization specified,11,0,,33HNG      4
o Application Protocol specified;                                       G      5
     116       1       0       0       0       0       0       000010000D      1
     116       0       0       1       0                               0D      2
     123       2       0       0       0       0       0       000010200D      3
     123       0       0       1       0                               0D      4
     190       3       0       0       0       0       0       000010000D      5
     190       0       0       1       1                               0D      6
     123       4       0       0       0       0       0       000010200D      7
     123       0       0       1       0                               0D      8
     502       5       0       0       0       0       0       000010000D      9
     502       0       0       4       1                               0D     10
     110       9       0       0       0       0       0       000010000D     11
     110       0       0       1       0                               0D     12
     504      10       0       0       0       0       0       000010001D     13
     504       0       0       3       1                               0D     14
     110      13       0       0       0       0       0       000010000D     15
     110       0       0       1       0                               0D     16
     110      14       0       0       0       0       0       000010000D     17
     110       0       0       1       0                               0D     18
     110      15       0       0       0       0       0       000010000D     19
     110       0       0       1       0                               0D     20
     508      16       0       0       0       0       0       000010000D     21
     508       0       0       1       1                               0D     22
     510      17       0       0       0       0       0       000010001D     23
     510       0       0       1       1                               0D     24
     116      18       0       0       0       0       0       000010000D     25
     116       0       0       1       0                               0D     26
     123      19       0       0       0       0       0       000010200D     27
     123       0       0       1       0                               0D     28
     190      20       0       0       0       0       0       000010000D     29
     190       0       0       1       1                               0D     30
     123      21       0       0       0       0       0       000010200D     31
     123       0       0       1       0                               0D     32
     110      22       0       0       0       0       0       000010000D     33
     110       0       0       1       0                               0D     34
     110      23       0       0       0       0       0       000010000D     35
     110       0       0       1       0                               0D     36
     110      24       0       0       0       0       0       000010000D     37
     110       0       0       2       0                               0D     38
     508      26       0       0       0       0       0       000010000D     39
     508       0       0       1       1                               0D     40
     510      27       0       0       0       0       0       000010001D     41
     510       0       0       1       1                               0D     42
     116      28       0       0       0       0       0       000010000D     43
     116       0       0       1       0                               0D     44
     123      29       0       0       0       0       0       000010200D     45
     123       0       0       1       0                               0D     46
     190      30       0       0       0       0       0       000010000D     47
     190       0       0       1       1                               0D     48
     123      31       0       0       0       0       0       000010200D     49
     123       0       0       1       0                               0D     50
     110      32       0       0       0       0       0       000010000D     51
     110       0       0       1       0                               0D     52
     110      33       0       0       0       0       0       000010000D     53
     110       0       0       1       0                               0D     54
     508      34       0       0       0       0       0       000010000D     55
     508       0       0       1       1                               0D     56
     510      35       0       0       0       0       0       000010001D     57
     510       0       0       1       1                               0D     58
     116      36       0       0       0       0       0       000010000D     59
     116       0       0       1       0                               0D     60
     123      37       0       0       0       0       0       000010200D     61
     123       0       0       1       0                               0D     62
     190      38       0       0       0       0       0       000010000D     63
     190       0       0       1       1                               0D     64
     123      39       0       0       0       0       0       000010200D     65
     123       0       0       1       0                               0D     66
     110      40       0       0       0       0       0       000010000D     67
     110       0       0       1       0                               0D     68
     110      41       0       0       0       0       0       000010000D     69
     110       0       0       1       0                               0D     70
     508      42       0       0       0       0       0       000010000D     71
     508       0       0       1       1                               0D     72
     510      43       0       0       0       0       0       000010001D     73
     510       0       0       1       1                               0D     74
     116      44       0       0       0       0       0       000010000D     75
     116       0       0       1       0                               0D     76
     123      45       0       0       0       0       0       000010200D     77
     123       0       0       1       0                               0D     78
     190      46       0       0       0       0       0       000010000D     79
     190       0       0       1       1                               0D     80
     123      47       0       0       0       0       0       000010200D     81
     123       0       0       1       0                               0D     82
     110      48       0       0       0       0       0       000010000D     83
     110       0       0       1       0                               0D     84
     508      49       0       0       0       0       0       000010000D     85
     508       0       0       1       1                               0D     86
     510      50       0       0       0       0       0       000010001D     87
     510       0       0       1       1                               0D     88
     116      51       0       0       0       0       0       000010000D     89
     116       0       0       1       0                               0D     90
     123      52       0       0       0       0       0       000010200D     91
     123       0       0       1       0                               0D     92
     190      53       0       0       0       0       0       000010000D     93
     190       0       0       1       1                               0D     94
     123      54       0       0       0       0       0       000010200D     95
     123       0       0       1       0                               0D     96
     508      55       0       0       0       0       0       000010000D     97
     508       0       0       1       1                               0D     98
     510      56       0       0       0       0       0       000010001D     99
     510       0       0       1       1                               0D    100
     514      57       0       0       0       0       0       000010000D    101
     514       0       0       1       1                               0D    102
     186      58       0       0       1       0       0       000000000D    103
     186       0    -105       1       0                               0D    104
     314      59       0       0       0       0       0       000000200D    105
     314       0       0       2       0                               0D    106
116,3.53022084869121D-15,-7.7715611723761D-15,-.825D0,0;               1P      1
123,0.0D0,0.0D0,-1.0D0;                                                3P      2
190,1,3,7;                                                             5P      3
123,-1.0D0,0.0D0,0.0D0;                                                7P      4
502,8,-73.0D0,-14.5D0,-.825D0,73.0D0,-14.5D0,-.825D0,                  9P      5
-72.9999999999999D0,14.5D0,-.825D0,73.0D0,14.5D0,-.825D0,              9P      6
-72.9999999999999D0,14.5D0,.825D0,73.0D0,14.5D0,.825D0,73.0D0,         9P      7
-14.5D0,.825D0,-73.0D0,-14.5D0,.825D0;                                 9P      8
110,-73.0D0,-14.5D0,-.825D0,73.0D0,-14.5D0,-.825D0;                   11P      9
504,12,11,9,1,9,2,15,9,3,9,1,17,9,4,9,3,19,9,2,9,4,33,9,5,9,6,        13P     10
35,9,6,9,4,37,9,5,9,3,51,9,6,9,7,53,9,7,9,2,67,9,7,9,8,69,9,1,9,      13P     11
8,83,9,8,9,5;                                                         13P     12
110,-72.9999999999999D0,14.5D0,-.825D0,-73.0D0,-14.5D0,-.825D0;       15P     13
110,73.0D0,14.5D0,-.825D0,-72.9999999999999D0,14.5D0,-.825D0;         17P     14
110,73.0D0,-14.5D0,-.825D0,73.0D0,14.5D0,-.825D0;                     19P     15
508,4,0,13,1,0,0,0,13,2,0,0,0,13,3,0,0,0,13,4,0,0;                    21P     16
510,5,1,1,21;                                                         23P     17
116,-72.9999999999999D0,14.5D0,0.0D0,0;                               25P     18
123,0.0D0,1.0D0,0.0D0;                                                27P     19
190,25,27,31;                                                         29P     20
123,0.0D0,0.0D0,1.0D0;                                                31P     21
110,-72.9999999999999D0,14.5D0,.825D0,73.0D0,14.5D0,.825D0;           33P     22
110,73.0D0,14.5D0,.825D0,73.0D0,14.5D0,-.825D0;                       35P     23
110,-72.9999999999999D0,14.5D0,.825D0,-72.9999999999999D0,            37P     24
14.5D0,-.825D0;                                                       37P     25
508,4,0,13,5,1,0,0,13,6,1,0,0,13,3,1,0,0,13,7,0,0;                    39P     26
510,29,1,1,39;                                                        41P     27
116,73.0D0,14.5D0,0.0D0,0;                                            43P     28
123,1.0D0,0.0D0,0.0D0;                                                45P     29
190,43,45,49;                                                         47P     30
123,0.0D0,0.0D0,-1.0D0;                                               49P     31
110,73.0D0,14.5D0,.825D0,73.0D0,-14.5D0,.825D0;                       51P     32
110,73.0D0,-14.5D0,.825D0,73.0D0,-14.5D0,-.825D0;                     53P     33
508,4,0,13,8,1,0,0,13,9,1,0,0,13,4,1,0,0,13,6,0,0;                    55P     34
510,47,1,1,55;                                                        57P     35
116,73.0D0,-14.5D0,0.0D0,0;                                           59P     36
123,0.0D0,-1.0D0,0.0D0;                                               61P     37
190,59,61,65;                                                         63P     38
123,0.0D0,0.0D0,-1.0D0;                                               65P     39
110,73.0D0,-14.5D0,.825D0,-73.0D0,-14.5D0,.825D0;                     67P     40
110,-73.0D0,-14.5D0,-.825D0,-73.0D0,-14.5D0,.825D0;                   69P     41
508,4,0,13,10,1,0,0,13,11,0,0,0,13,1,1,0,0,13,9,0,0;                  71P     42
510,63,1,1,71;                                                        73P     43
116,-73.0D0,-14.5D0,0.0D0,0;                                          75P     44
123,-1.0D0,0.0D0,0.0D0;                                               77P     45
190,75,77,81;                                                         79P     46
123,0.0D0,0.0D0,1.0D0;                                                81P     47
110,-73.0D0,-14.5D0,.825D0,-72.9999999999999D0,14.5D0,.825D0;         83P     48
508,4,0,13,12,1,0,0,13,7,1,0,0,13,2,1,0,0,13,11,1,0;                  85P     49
510,79,1,1,85;                                                        87P     50
116,3.44313322442191D-15,-6.66133814775094D-15,.825D0,0;              89P     51
123,0.0D0,0.0D0,1.0D0;                                                91P     52
190,89,91,95;                                                         93P     53
123,1.0D0,0.0D0,0.0D0;                                                95P     54
508,4,0,13,5,0,0,0,13,12,0,0,0,13,10,0,0,0,13,8,0,0;                  97P     55
510,93,1,1,97;                                                        99P     56
514,6,23,1,41,1,57,1,73,1,87,1,99,1;                                 101P     57
186,101,1,0;                                                         103P     58
314,94.9020028114319D0,92.5490021705627D0,93.3332979679108D0,        105P     59
19HAluminum (Polished);                                              105P     60
S      1G      5D    106P     60                                        T      1
