G04 Layer_Physical_Order=1*
G04 Layer_Color=25308*
%FSAX43Y43*%
%MOMM*%
G71*
G01*
G75*
%ADD10C,0.381*%
%ADD11C,0.635*%
%ADD12C,2.000*%
%ADD13R,2.000X2.000*%
%ADD14C,1.350*%
%ADD15R,1.350X1.350*%
%ADD16C,6.000*%
%ADD17O,1.524X3.048*%
%ADD18C,1.524*%
%ADD19C,1.651*%
%ADD20R,1.651X1.651*%
%ADD21C,2.032*%
%ADD22C,2.500*%
%ADD23R,1.524X1.524*%
%ADD24R,3.000X5.000*%
%ADD25O,1.676X3.353*%
%ADD26R,2.000X2.000*%
%ADD27O,1.800X1.600*%
G36*
X0219313Y0251064D02*
X0219925Y0250917D01*
X0220507Y0250676D01*
X0221043Y0250347D01*
X0221522Y0249938D01*
X0221931Y0249459D01*
X0222260Y0248923D01*
X0222501Y0248341D01*
X0222648Y0247729D01*
X0222696Y0247113D01*
X0222685Y0247101D01*
X0222685D01*
Y0206101D01*
X0222685D01*
X0222696Y0206089D01*
X0222648Y0205473D01*
X0222501Y0204861D01*
X0222260Y0204279D01*
X0221931Y0203743D01*
X0221522Y0203264D01*
X0221043Y0202855D01*
X0220507Y0202526D01*
X0219925Y0202285D01*
X0219313Y0202138D01*
X0218697Y0202090D01*
X0218685Y0202101D01*
Y0202101D01*
X0146685Y0202089D01*
X0146057Y0202138D01*
X0145445Y0202285D01*
X0144863Y0202526D01*
X0144327Y0202855D01*
X0143848Y0203264D01*
X0143439Y0203743D01*
X0143110Y0204279D01*
X0142869Y0204861D01*
X0142722Y0205473D01*
X0142683Y0205975D01*
X0142685Y0206101D01*
X0142685Y0206101D01*
X0142685Y0206228D01*
X0142673Y0247101D01*
X0142722Y0247729D01*
X0142869Y0248341D01*
X0143110Y0248923D01*
X0143439Y0249459D01*
X0143848Y0249938D01*
X0144327Y0250347D01*
X0144863Y0250676D01*
X0145445Y0250917D01*
X0146057Y0251064D01*
X0146673Y0251112D01*
X0146685Y0251101D01*
Y0251101D01*
X0218685Y0251113D01*
X0219313Y0251064D01*
D02*
G37*
%LPC*%
G36*
X0173287Y0212623D02*
Y0211488D01*
X0174185D01*
Y0211615D01*
X0174150Y0211880D01*
X0174047Y0212127D01*
X0173885Y0212339D01*
X0173672Y0212502D01*
X0173425Y0212605D01*
X0173287Y0212623D01*
D02*
G37*
G36*
X0173033D02*
X0172895Y0212605D01*
X0172648Y0212502D01*
X0172435Y0212339D01*
X0172273Y0212127D01*
X0172170Y0211880D01*
X0172135Y0211615D01*
Y0211488D01*
X0173033D01*
Y0212623D01*
D02*
G37*
G36*
X0169985Y0215182D02*
X0169653Y0215138D01*
X0169345Y0215010D01*
X0169079Y0214807D01*
X0168876Y0214541D01*
X0168748Y0214233D01*
X0168704Y0213901D01*
X0168748Y0213569D01*
X0168876Y0213261D01*
X0169079Y0212995D01*
X0169345Y0212792D01*
X0169653Y0212664D01*
X0169985Y0212620D01*
X0170317Y0212664D01*
X0170625Y0212792D01*
X0170891Y0212995D01*
X0171094Y0213261D01*
X0171222Y0213569D01*
X0171266Y0213901D01*
X0171222Y0214233D01*
X0171094Y0214541D01*
X0170891Y0214807D01*
X0170625Y0215010D01*
X0170317Y0215138D01*
X0169985Y0215182D01*
D02*
G37*
G36*
X0166874Y0218165D02*
X0166592Y0218128D01*
X0166329Y0218019D01*
X0166104Y0217846D01*
X0165931Y0217620D01*
X0165822Y0217358D01*
X0165785Y0217076D01*
X0165822Y0216794D01*
X0165931Y0216532D01*
X0166104Y0216306D01*
X0166329Y0216133D01*
X0166592Y0216024D01*
X0166874Y0215987D01*
X0167155Y0216024D01*
X0167418Y0216133D01*
X0167643Y0216306D01*
X0167816Y0216532D01*
X0167925Y0216794D01*
X0167962Y0217076D01*
X0167925Y0217358D01*
X0167816Y0217620D01*
X0167643Y0217846D01*
X0167418Y0218019D01*
X0167155Y0218128D01*
X0166874Y0218165D01*
D02*
G37*
G36*
X0148685Y0215561D02*
X0148420Y0215526D01*
X0148173Y0215423D01*
X0147960Y0215261D01*
X0147798Y0215048D01*
X0147695Y0214801D01*
X0147660Y0214536D01*
X0147695Y0214271D01*
X0147798Y0214024D01*
X0147960Y0213811D01*
X0148173Y0213649D01*
X0148420Y0213546D01*
X0148685Y0213511D01*
X0148950Y0213546D01*
X0149197Y0213649D01*
X0149410Y0213811D01*
X0149572Y0214024D01*
X0149675Y0214271D01*
X0149710Y0214536D01*
X0149675Y0214801D01*
X0149572Y0215048D01*
X0149410Y0215261D01*
X0149197Y0215423D01*
X0148950Y0215526D01*
X0148685Y0215561D01*
D02*
G37*
G36*
X0174185Y0211234D02*
X0173287D01*
Y0210980D01*
X0174185D01*
Y0211234D01*
D02*
G37*
G36*
X0173033Y0210726D02*
X0172135D01*
Y0210091D01*
X0172170Y0209826D01*
X0172273Y0209578D01*
X0172435Y0209366D01*
X0172648Y0209203D01*
X0172895Y0209101D01*
X0173033Y0209083D01*
Y0210726D01*
D02*
G37*
G36*
X0196020Y0212640D02*
X0195755Y0212605D01*
X0195508Y0212503D01*
X0195295Y0212340D01*
X0195133Y0212128D01*
X0195030Y0211880D01*
X0194995Y0211615D01*
Y0210091D01*
X0195030Y0209826D01*
X0195133Y0209579D01*
X0195295Y0209367D01*
X0195508Y0209204D01*
X0195755Y0209101D01*
X0196020Y0209066D01*
X0196285Y0209101D01*
X0196532Y0209204D01*
X0196745Y0209367D01*
X0196907Y0209579D01*
X0197010Y0209826D01*
X0197045Y0210091D01*
Y0211615D01*
X0197010Y0211880D01*
X0196907Y0212128D01*
X0196745Y0212340D01*
X0196532Y0212503D01*
X0196285Y0212605D01*
X0196020Y0212640D01*
D02*
G37*
G36*
X0174185Y0210726D02*
X0173287D01*
Y0209083D01*
X0173425Y0209101D01*
X0173672Y0209203D01*
X0173885Y0209366D01*
X0174047Y0209578D01*
X0174150Y0209826D01*
X0174185Y0210091D01*
Y0210726D01*
D02*
G37*
G36*
X0173033Y0211234D02*
X0172135D01*
Y0210980D01*
X0173033D01*
Y0211234D01*
D02*
G37*
G36*
X0145220Y0212007D02*
X0144888Y0211963D01*
X0144580Y0211835D01*
X0144314Y0211632D01*
X0144111Y0211366D01*
X0143983Y0211058D01*
X0143939Y0210726D01*
X0143983Y0210394D01*
X0144111Y0210086D01*
X0144314Y0209820D01*
X0144580Y0209617D01*
X0144888Y0209489D01*
X0145220Y0209445D01*
X0145552Y0209489D01*
X0145860Y0209617D01*
X0146126Y0209820D01*
X0146329Y0210086D01*
X0146457Y0210394D01*
X0146501Y0210726D01*
X0146457Y0211058D01*
X0146329Y0211366D01*
X0146126Y0211632D01*
X0145860Y0211835D01*
X0145552Y0211963D01*
X0145220Y0212007D01*
D02*
G37*
G36*
X0198509Y0220705D02*
X0198227Y0220668D01*
X0197965Y0220559D01*
X0197739Y0220386D01*
X0197566Y0220160D01*
X0197457Y0219898D01*
X0197420Y0219616D01*
X0197457Y0219334D01*
X0197566Y0219072D01*
X0197739Y0218846D01*
X0197965Y0218673D01*
X0198227Y0218564D01*
X0198509Y0218527D01*
X0198791Y0218564D01*
X0199054Y0218673D01*
X0199279Y0218846D01*
X0199452Y0219072D01*
X0199561Y0219334D01*
X0199598Y0219616D01*
X0199561Y0219898D01*
X0199452Y0220160D01*
X0199279Y0220386D01*
X0199054Y0220559D01*
X0198791Y0220668D01*
X0198509Y0220705D01*
D02*
G37*
G36*
X0186495Y0221911D02*
X0186230Y0221876D01*
X0185983Y0221773D01*
X0185770Y0221610D01*
X0185608Y0221398D01*
X0185505Y0221151D01*
X0185470Y0220886D01*
Y0219362D01*
X0185505Y0219097D01*
X0185608Y0218849D01*
X0185770Y0218637D01*
X0185983Y0218474D01*
X0186230Y0218372D01*
X0186495Y0218337D01*
X0186760Y0218372D01*
X0187007Y0218474D01*
X0187220Y0218637D01*
X0187382Y0218849D01*
X0187485Y0219097D01*
X0187520Y0219362D01*
Y0220886D01*
X0187485Y0221151D01*
X0187382Y0221398D01*
X0187220Y0221610D01*
X0187007Y0221773D01*
X0186760Y0221876D01*
X0186495Y0221911D01*
D02*
G37*
G36*
X0145220Y0222167D02*
X0144888Y0222123D01*
X0144580Y0221995D01*
X0144314Y0221792D01*
X0144111Y0221526D01*
X0143983Y0221218D01*
X0143939Y0220886D01*
X0143983Y0220554D01*
X0144111Y0220246D01*
X0144314Y0219980D01*
X0144580Y0219777D01*
X0144888Y0219649D01*
X0145220Y0219605D01*
X0145552Y0219649D01*
X0145860Y0219777D01*
X0146126Y0219980D01*
X0146329Y0220246D01*
X0146457Y0220554D01*
X0146501Y0220886D01*
X0146457Y0221218D01*
X0146329Y0221526D01*
X0146126Y0221792D01*
X0145860Y0221995D01*
X0145552Y0222123D01*
X0145220Y0222167D01*
D02*
G37*
G36*
X0175649Y0223245D02*
X0175367Y0223208D01*
X0175105Y0223099D01*
X0174879Y0222926D01*
X0174706Y0222700D01*
X0174597Y0222438D01*
X0174560Y0222156D01*
X0174597Y0221874D01*
X0174706Y0221612D01*
X0174879Y0221386D01*
X0175105Y0221213D01*
X0175367Y0221104D01*
X0175649Y0221067D01*
X0175931Y0221104D01*
X0176194Y0221213D01*
X0176419Y0221386D01*
X0176592Y0221612D01*
X0176701Y0221874D01*
X0176738Y0222156D01*
X0176701Y0222438D01*
X0176592Y0222700D01*
X0176419Y0222926D01*
X0176194Y0223099D01*
X0175931Y0223208D01*
X0175649Y0223245D01*
D02*
G37*
G36*
X0166874D02*
X0166592Y0223208D01*
X0166329Y0223099D01*
X0166104Y0222926D01*
X0165931Y0222700D01*
X0165822Y0222438D01*
X0165785Y0222156D01*
X0165822Y0221874D01*
X0165931Y0221612D01*
X0166104Y0221386D01*
X0166329Y0221213D01*
X0166592Y0221104D01*
X0166874Y0221067D01*
X0167155Y0221104D01*
X0167418Y0221213D01*
X0167643Y0221386D01*
X0167816Y0221612D01*
X0167925Y0221874D01*
X0167962Y0222156D01*
X0167925Y0222438D01*
X0167816Y0222700D01*
X0167643Y0222926D01*
X0167418Y0223099D01*
X0167155Y0223208D01*
X0166874Y0223245D01*
D02*
G37*
G36*
X0163635Y0221911D02*
X0163370Y0221876D01*
X0163123Y0221773D01*
X0162910Y0221610D01*
X0162748Y0221398D01*
X0162645Y0221151D01*
X0162610Y0220886D01*
Y0219362D01*
X0162645Y0219097D01*
X0162748Y0218849D01*
X0162910Y0218637D01*
X0163123Y0218474D01*
X0163370Y0218372D01*
X0163635Y0218337D01*
X0163900Y0218372D01*
X0164147Y0218474D01*
X0164360Y0218637D01*
X0164522Y0218849D01*
X0164625Y0219097D01*
X0164660Y0219362D01*
Y0220886D01*
X0164625Y0221151D01*
X0164522Y0221398D01*
X0164360Y0221610D01*
X0164147Y0221773D01*
X0163900Y0221876D01*
X0163635Y0221911D01*
D02*
G37*
G36*
X0148558Y0216949D02*
X0147669D01*
Y0216060D01*
X0148558D01*
Y0216949D01*
D02*
G37*
G36*
X0198509Y0218165D02*
X0198227Y0218128D01*
X0197965Y0218019D01*
X0197739Y0217846D01*
X0197566Y0217620D01*
X0197457Y0217358D01*
X0197420Y0217076D01*
X0197457Y0216794D01*
X0197566Y0216532D01*
X0197739Y0216306D01*
X0197965Y0216133D01*
X0198227Y0216024D01*
X0198509Y0215987D01*
X0198791Y0216024D01*
X0199054Y0216133D01*
X0199279Y0216306D01*
X0199452Y0216532D01*
X0199561Y0216794D01*
X0199598Y0217076D01*
X0199561Y0217358D01*
X0199452Y0217620D01*
X0199279Y0217846D01*
X0199054Y0218019D01*
X0198791Y0218128D01*
X0198509Y0218165D01*
D02*
G37*
G36*
X0149701Y0216949D02*
X0148812D01*
Y0216060D01*
X0149701D01*
Y0216949D01*
D02*
G37*
G36*
Y0218092D02*
X0148812D01*
Y0217203D01*
X0149701D01*
Y0218092D01*
D02*
G37*
G36*
X0148558D02*
X0147669D01*
Y0217203D01*
X0148558D01*
Y0218092D01*
D02*
G37*
G36*
X0189189Y0214130D02*
X0185681D01*
Y0208622D01*
X0189189D01*
Y0214130D01*
D02*
G37*
G36*
X0169985Y0205022D02*
X0169653Y0204978D01*
X0169345Y0204850D01*
X0169079Y0204647D01*
X0168876Y0204381D01*
X0168748Y0204073D01*
X0168704Y0203741D01*
X0168748Y0203409D01*
X0168876Y0203101D01*
X0169079Y0202835D01*
X0169345Y0202632D01*
X0169653Y0202504D01*
X0169985Y0202460D01*
X0170317Y0202504D01*
X0170625Y0202632D01*
X0170891Y0202835D01*
X0171094Y0203101D01*
X0171222Y0203409D01*
X0171266Y0203741D01*
X0171222Y0204073D01*
X0171094Y0204381D01*
X0170891Y0204647D01*
X0170625Y0204850D01*
X0170317Y0204978D01*
X0169985Y0205022D01*
D02*
G37*
G36*
X0180185Y0206316D02*
X0179900Y0206278D01*
X0179634Y0206168D01*
X0179406Y0205993D01*
X0179231Y0205765D01*
X0179121Y0205499D01*
X0179083Y0205214D01*
Y0203538D01*
X0179121Y0203253D01*
X0179231Y0202987D01*
X0179406Y0202759D01*
X0179634Y0202584D01*
X0179900Y0202474D01*
X0180185Y0202436D01*
X0180470Y0202474D01*
X0180736Y0202584D01*
X0180964Y0202759D01*
X0181139Y0202987D01*
X0181249Y0203253D01*
X0181287Y0203538D01*
Y0205214D01*
X0181249Y0205499D01*
X0181139Y0205765D01*
X0180964Y0205993D01*
X0180736Y0206168D01*
X0180470Y0206278D01*
X0180185Y0206316D01*
D02*
G37*
G36*
X0146685Y0209365D02*
X0146174Y0209325D01*
X0145676Y0209205D01*
X0145203Y0209009D01*
X0144766Y0208742D01*
X0144377Y0208409D01*
X0144044Y0208020D01*
X0143777Y0207583D01*
X0143581Y0207110D01*
X0143461Y0206612D01*
X0143421Y0206101D01*
X0143461Y0205590D01*
X0143581Y0205092D01*
X0143777Y0204619D01*
X0144044Y0204182D01*
X0144377Y0203793D01*
X0144766Y0203460D01*
X0145203Y0203193D01*
X0145676Y0202997D01*
X0146174Y0202877D01*
X0146685Y0202837D01*
X0147196Y0202877D01*
X0147694Y0202997D01*
X0148167Y0203193D01*
X0148604Y0203460D01*
X0148993Y0203793D01*
X0149326Y0204182D01*
X0149593Y0204619D01*
X0149789Y0205092D01*
X0149909Y0205590D01*
X0149949Y0206101D01*
X0149909Y0206612D01*
X0149789Y0207110D01*
X0149593Y0207583D01*
X0149326Y0208020D01*
X0148993Y0208409D01*
X0148604Y0208742D01*
X0148167Y0209009D01*
X0147694Y0209205D01*
X0147196Y0209325D01*
X0146685Y0209365D01*
D02*
G37*
G36*
X0173160Y0208576D02*
X0172895Y0208541D01*
X0172648Y0208438D01*
X0172435Y0208275D01*
X0172273Y0208063D01*
X0172170Y0207816D01*
X0172135Y0207551D01*
Y0206027D01*
X0172170Y0205762D01*
X0172273Y0205514D01*
X0172435Y0205302D01*
X0172648Y0205139D01*
X0172895Y0205037D01*
X0173160Y0205002D01*
X0173425Y0205037D01*
X0173672Y0205139D01*
X0173885Y0205302D01*
X0174047Y0205514D01*
X0174150Y0205762D01*
X0174185Y0206027D01*
Y0207551D01*
X0174150Y0207816D01*
X0174047Y0208063D01*
X0173885Y0208275D01*
X0173672Y0208438D01*
X0173425Y0208541D01*
X0173160Y0208576D01*
D02*
G37*
G36*
X0218685Y0209365D02*
X0218174Y0209325D01*
X0217676Y0209205D01*
X0217203Y0209009D01*
X0216766Y0208742D01*
X0216377Y0208409D01*
X0216044Y0208020D01*
X0215777Y0207583D01*
X0215581Y0207110D01*
X0215461Y0206612D01*
X0215421Y0206101D01*
X0215461Y0205590D01*
X0215581Y0205092D01*
X0215777Y0204619D01*
X0216044Y0204182D01*
X0216377Y0203793D01*
X0216766Y0203460D01*
X0217203Y0203193D01*
X0217676Y0202997D01*
X0218174Y0202877D01*
X0218685Y0202837D01*
X0219196Y0202877D01*
X0219694Y0202997D01*
X0220167Y0203193D01*
X0220604Y0203460D01*
X0220993Y0203793D01*
X0221326Y0204182D01*
X0221593Y0204619D01*
X0221789Y0205092D01*
X0221909Y0205590D01*
X0221949Y0206101D01*
X0221909Y0206612D01*
X0221789Y0207110D01*
X0221593Y0207583D01*
X0221326Y0208020D01*
X0220993Y0208409D01*
X0220604Y0208742D01*
X0220167Y0209009D01*
X0219694Y0209205D01*
X0219196Y0209325D01*
X0218685Y0209365D01*
D02*
G37*
G36*
X0162340Y0206316D02*
X0162054Y0206278D01*
X0161789Y0206168D01*
X0161561Y0205993D01*
X0161386Y0205765D01*
X0161276Y0205499D01*
X0161238Y0205214D01*
Y0203538D01*
X0161276Y0203253D01*
X0161386Y0202987D01*
X0161561Y0202759D01*
X0161789Y0202584D01*
X0162054Y0202474D01*
X0162340Y0202436D01*
X0162625Y0202474D01*
X0162890Y0202584D01*
X0163119Y0202759D01*
X0163294Y0202987D01*
X0163404Y0203253D01*
X0163441Y0203538D01*
Y0205214D01*
X0163404Y0205499D01*
X0163294Y0205765D01*
X0163119Y0205993D01*
X0162890Y0206168D01*
X0162625Y0206278D01*
X0162340Y0206316D01*
D02*
G37*
G36*
X0205545Y0206301D02*
X0205260Y0206263D01*
X0204994Y0206153D01*
X0204766Y0205978D01*
X0204591Y0205750D01*
X0204481Y0205484D01*
X0204443Y0205199D01*
Y0203523D01*
X0204481Y0203238D01*
X0204591Y0202972D01*
X0204766Y0202744D01*
X0204994Y0202569D01*
X0205260Y0202459D01*
X0205545Y0202421D01*
X0205830Y0202459D01*
X0206096Y0202569D01*
X0206324Y0202744D01*
X0206499Y0202972D01*
X0206609Y0203238D01*
X0206647Y0203523D01*
Y0205199D01*
X0206609Y0205484D01*
X0206499Y0205750D01*
X0206324Y0205978D01*
X0206096Y0206153D01*
X0205830Y0206263D01*
X0205545Y0206301D01*
D02*
G37*
G36*
X0203045D02*
X0202760Y0206263D01*
X0202494Y0206153D01*
X0202266Y0205978D01*
X0202091Y0205750D01*
X0201981Y0205484D01*
X0201943Y0205199D01*
Y0203523D01*
X0201981Y0203238D01*
X0202091Y0202972D01*
X0202266Y0202744D01*
X0202494Y0202569D01*
X0202760Y0202459D01*
X0203045Y0202421D01*
X0203330Y0202459D01*
X0203596Y0202569D01*
X0203824Y0202744D01*
X0203999Y0202972D01*
X0204109Y0203238D01*
X0204147Y0203523D01*
Y0205199D01*
X0204109Y0205484D01*
X0203999Y0205750D01*
X0203824Y0205978D01*
X0203596Y0206153D01*
X0203330Y0206263D01*
X0203045Y0206301D01*
D02*
G37*
G36*
X0208060D02*
X0207774Y0206263D01*
X0207509Y0206153D01*
X0207281Y0205978D01*
X0207106Y0205750D01*
X0206996Y0205484D01*
X0206958Y0205199D01*
Y0203523D01*
X0206996Y0203238D01*
X0207106Y0202972D01*
X0207281Y0202744D01*
X0207509Y0202569D01*
X0207774Y0202459D01*
X0208060Y0202421D01*
X0208345Y0202459D01*
X0208610Y0202569D01*
X0208839Y0202744D01*
X0209014Y0202972D01*
X0209124Y0203238D01*
X0209161Y0203523D01*
Y0205199D01*
X0209124Y0205484D01*
X0209014Y0205750D01*
X0208839Y0205978D01*
X0208610Y0206153D01*
X0208345Y0206263D01*
X0208060Y0206301D01*
D02*
G37*
G36*
X0159825Y0206316D02*
X0159540Y0206278D01*
X0159274Y0206168D01*
X0159046Y0205993D01*
X0158871Y0205765D01*
X0158761Y0205499D01*
X0158723Y0205214D01*
Y0203538D01*
X0158761Y0203253D01*
X0158871Y0202987D01*
X0159046Y0202759D01*
X0159274Y0202584D01*
X0159540Y0202474D01*
X0159825Y0202436D01*
X0160110Y0202474D01*
X0160376Y0202584D01*
X0160604Y0202759D01*
X0160779Y0202987D01*
X0160889Y0203253D01*
X0160927Y0203538D01*
Y0205214D01*
X0160889Y0205499D01*
X0160779Y0205765D01*
X0160604Y0205993D01*
X0160376Y0206168D01*
X0160110Y0206278D01*
X0159825Y0206316D01*
D02*
G37*
G36*
X0157325D02*
X0157040Y0206278D01*
X0156774Y0206168D01*
X0156546Y0205993D01*
X0156371Y0205765D01*
X0156261Y0205499D01*
X0156223Y0205214D01*
Y0203538D01*
X0156261Y0203253D01*
X0156371Y0202987D01*
X0156546Y0202759D01*
X0156774Y0202584D01*
X0157040Y0202474D01*
X0157325Y0202436D01*
X0157610Y0202474D01*
X0157876Y0202584D01*
X0158104Y0202759D01*
X0158279Y0202987D01*
X0158389Y0203253D01*
X0158427Y0203538D01*
Y0205214D01*
X0158389Y0205499D01*
X0158279Y0205765D01*
X0158104Y0205993D01*
X0157876Y0206168D01*
X0157610Y0206278D01*
X0157325Y0206316D01*
D02*
G37*
G36*
X0212049Y0214115D02*
X0208541D01*
Y0208607D01*
X0212049D01*
Y0214115D01*
D02*
G37*
G36*
X0202549D02*
X0199041D01*
Y0208607D01*
X0202549D01*
Y0214115D01*
D02*
G37*
G36*
X0156829Y0214130D02*
X0153321D01*
Y0208622D01*
X0156829D01*
Y0214130D01*
D02*
G37*
G36*
X0179689D02*
X0176181D01*
Y0208622D01*
X0179689D01*
Y0214130D01*
D02*
G37*
G36*
X0166329D02*
X0162821D01*
Y0208622D01*
X0166329D01*
Y0214130D01*
D02*
G37*
G36*
X0196147Y0208559D02*
Y0206916D01*
X0197045D01*
Y0207551D01*
X0197010Y0207816D01*
X0196907Y0208064D01*
X0196745Y0208276D01*
X0196532Y0208439D01*
X0196285Y0208541D01*
X0196147Y0208559D01*
D02*
G37*
G36*
X0197045Y0206154D02*
X0196147D01*
Y0205019D01*
X0196285Y0205037D01*
X0196532Y0205140D01*
X0196745Y0205303D01*
X0196907Y0205515D01*
X0197010Y0205762D01*
X0197045Y0206027D01*
Y0206154D01*
D02*
G37*
G36*
X0195893D02*
X0194995D01*
Y0206027D01*
X0195030Y0205762D01*
X0195133Y0205515D01*
X0195295Y0205303D01*
X0195508Y0205140D01*
X0195755Y0205037D01*
X0195893Y0205019D01*
Y0206154D01*
D02*
G37*
G36*
Y0206662D02*
X0194995D01*
Y0206408D01*
X0195893D01*
Y0206662D01*
D02*
G37*
G36*
Y0208559D02*
X0195755Y0208541D01*
X0195508Y0208439D01*
X0195295Y0208276D01*
X0195133Y0208064D01*
X0195030Y0207816D01*
X0194995Y0207551D01*
Y0206916D01*
X0195893D01*
Y0208559D01*
D02*
G37*
G36*
X0197045Y0206662D02*
X0196147D01*
Y0206408D01*
X0197045D01*
Y0206662D01*
D02*
G37*
G36*
X0193115Y0230713D02*
X0192872Y0230681D01*
X0192646Y0230587D01*
X0192452Y0230439D01*
X0192304Y0230245D01*
X0192210Y0230019D01*
X0192178Y0229776D01*
X0192210Y0229533D01*
X0192304Y0229307D01*
X0192452Y0229113D01*
X0192646Y0228965D01*
X0192662Y0228958D01*
Y0215883D01*
X0192022Y0215243D01*
X0191311D01*
X0191262Y0215361D01*
X0191768Y0215867D01*
X0191768Y0215867D01*
X0191867Y0216014D01*
X0191901Y0216187D01*
Y0217902D01*
X0191867Y0218075D01*
X0191768Y0218222D01*
X0190747Y0219243D01*
X0190785Y0219334D01*
X0190822Y0219616D01*
X0190785Y0219898D01*
X0190676Y0220160D01*
X0190503Y0220386D01*
X0190278Y0220559D01*
X0190015Y0220668D01*
X0189734Y0220705D01*
X0189452Y0220668D01*
X0189189Y0220559D01*
X0188980Y0220399D01*
X0188853Y0220429D01*
Y0220635D01*
X0189361Y0221142D01*
X0189452Y0221104D01*
X0189734Y0221067D01*
X0190015Y0221104D01*
X0190278Y0221213D01*
X0190503Y0221386D01*
X0190676Y0221612D01*
X0190785Y0221874D01*
X0190822Y0222156D01*
X0190785Y0222438D01*
X0190676Y0222700D01*
X0190503Y0222926D01*
X0190278Y0223099D01*
X0190015Y0223208D01*
X0189734Y0223245D01*
X0189452Y0223208D01*
X0189189Y0223099D01*
X0188964Y0222926D01*
X0188791Y0222700D01*
X0188682Y0222438D01*
X0188645Y0222156D01*
X0188682Y0221874D01*
X0188720Y0221783D01*
X0188080Y0221143D01*
X0187981Y0220996D01*
X0187947Y0220822D01*
Y0218534D01*
X0187577Y0218164D01*
X0183508D01*
X0183005Y0218666D01*
X0182858Y0218765D01*
X0182685Y0218799D01*
X0176543D01*
X0176481Y0218926D01*
X0176592Y0219072D01*
X0176701Y0219334D01*
X0176738Y0219616D01*
X0176701Y0219898D01*
X0176592Y0220160D01*
X0176419Y0220386D01*
X0176194Y0220559D01*
X0175931Y0220668D01*
X0175649Y0220705D01*
X0175367Y0220668D01*
X0175105Y0220559D01*
X0174879Y0220386D01*
X0174706Y0220160D01*
X0174597Y0219898D01*
X0174560Y0219616D01*
X0174597Y0219334D01*
X0174706Y0219072D01*
X0174818Y0218926D01*
X0174755Y0218799D01*
X0173983D01*
X0172845Y0219936D01*
X0172698Y0220035D01*
X0172525Y0220069D01*
X0167854D01*
X0167816Y0220160D01*
X0167643Y0220386D01*
X0167418Y0220559D01*
X0167155Y0220668D01*
X0166874Y0220705D01*
X0166592Y0220668D01*
X0166329Y0220559D01*
X0166104Y0220386D01*
X0165931Y0220160D01*
X0165822Y0219898D01*
X0165785Y0219616D01*
X0165822Y0219334D01*
X0165931Y0219072D01*
X0166104Y0218846D01*
X0166329Y0218673D01*
X0166592Y0218564D01*
X0166874Y0218527D01*
X0167155Y0218564D01*
X0167418Y0218673D01*
X0167643Y0218846D01*
X0167816Y0219072D01*
X0167854Y0219163D01*
X0172337D01*
X0173475Y0218026D01*
X0173475Y0218026D01*
X0173548Y0217976D01*
X0173622Y0217927D01*
X0173795Y0217893D01*
X0173795Y0217893D01*
X0174755D01*
X0174818Y0217766D01*
X0174706Y0217620D01*
X0174597Y0217358D01*
X0174560Y0217076D01*
X0174597Y0216794D01*
X0174706Y0216532D01*
X0174879Y0216306D01*
X0175105Y0216133D01*
X0175367Y0216024D01*
X0175649Y0215987D01*
X0175931Y0216024D01*
X0176194Y0216133D01*
X0176419Y0216306D01*
X0176592Y0216532D01*
X0176701Y0216794D01*
X0176738Y0217076D01*
X0176701Y0217358D01*
X0176592Y0217620D01*
X0176481Y0217766D01*
X0176543Y0217893D01*
X0182497D01*
X0183000Y0217391D01*
X0183000Y0217391D01*
X0183147Y0217292D01*
X0183320Y0217258D01*
X0187765D01*
X0187938Y0217292D01*
X0188085Y0217391D01*
X0188720Y0218026D01*
X0188720Y0218026D01*
X0188819Y0218173D01*
X0188853Y0218346D01*
Y0218803D01*
X0188980Y0218833D01*
X0189189Y0218673D01*
X0189452Y0218564D01*
X0189734Y0218527D01*
X0190015Y0218564D01*
X0190107Y0218602D01*
X0190995Y0217714D01*
Y0216375D01*
X0190625Y0216005D01*
X0190301D01*
X0190276Y0216132D01*
X0190278Y0216133D01*
X0190503Y0216306D01*
X0190676Y0216532D01*
X0190785Y0216794D01*
X0190822Y0217076D01*
X0190785Y0217358D01*
X0190676Y0217620D01*
X0190503Y0217846D01*
X0190278Y0218019D01*
X0190015Y0218128D01*
X0189734Y0218165D01*
X0189452Y0218128D01*
X0189189Y0218019D01*
X0188964Y0217846D01*
X0188791Y0217620D01*
X0188682Y0217358D01*
X0188645Y0217076D01*
X0188682Y0216794D01*
X0188791Y0216532D01*
X0188964Y0216306D01*
X0189189Y0216133D01*
X0189191Y0216132D01*
X0189166Y0216005D01*
X0183701D01*
X0183528Y0215971D01*
X0183381Y0215872D01*
X0183381Y0215872D01*
X0182365Y0214856D01*
X0182266Y0214709D01*
X0182232Y0214536D01*
Y0206209D01*
X0182134Y0206168D01*
X0181906Y0205993D01*
X0181731Y0205765D01*
X0181621Y0205499D01*
X0181583Y0205214D01*
Y0203538D01*
X0181621Y0203253D01*
X0181731Y0202987D01*
X0181906Y0202759D01*
X0182134Y0202584D01*
X0182400Y0202474D01*
X0182685Y0202436D01*
X0182970Y0202474D01*
X0183236Y0202584D01*
X0183464Y0202759D01*
X0183639Y0202987D01*
X0183749Y0203253D01*
X0183787Y0203538D01*
Y0205214D01*
X0183749Y0205499D01*
X0183639Y0205765D01*
X0183464Y0205993D01*
X0183236Y0206168D01*
X0183138Y0206209D01*
Y0214348D01*
X0183889Y0215099D01*
X0184219D01*
X0184268Y0214981D01*
X0183635Y0214348D01*
X0183536Y0214201D01*
X0183502Y0214028D01*
Y0207551D01*
X0183536Y0207378D01*
X0183635Y0207231D01*
X0184591Y0206274D01*
X0184574Y0206111D01*
X0184421Y0205993D01*
X0184246Y0205765D01*
X0184136Y0205499D01*
X0184098Y0205214D01*
Y0203538D01*
X0184136Y0203253D01*
X0184246Y0202987D01*
X0184421Y0202759D01*
X0184649Y0202584D01*
X0184914Y0202474D01*
X0185200Y0202436D01*
X0185485Y0202474D01*
X0185750Y0202584D01*
X0185979Y0202759D01*
X0186154Y0202987D01*
X0186264Y0203253D01*
X0186301Y0203538D01*
Y0205214D01*
X0186264Y0205499D01*
X0186154Y0205765D01*
X0185979Y0205993D01*
X0185750Y0206168D01*
X0185653Y0206209D01*
Y0206306D01*
X0185653Y0206306D01*
X0185618Y0206480D01*
X0185569Y0206553D01*
X0185520Y0206627D01*
X0185520Y0206627D01*
X0184408Y0207739D01*
Y0213840D01*
X0184905Y0214337D01*
X0192210D01*
X0192383Y0214371D01*
X0192530Y0214470D01*
X0193435Y0215375D01*
X0193534Y0215522D01*
X0193568Y0215695D01*
X0193568Y0215695D01*
Y0228958D01*
X0193584Y0228965D01*
X0193778Y0229113D01*
X0193926Y0229307D01*
X0194020Y0229533D01*
X0194052Y0229776D01*
X0194020Y0230019D01*
X0193926Y0230245D01*
X0193778Y0230439D01*
X0193584Y0230587D01*
X0193358Y0230681D01*
X0193115Y0230713D01*
D02*
G37*
G36*
X0173184Y0230705D02*
X0171326D01*
Y0228847D01*
X0173184D01*
Y0230705D01*
D02*
G37*
G36*
X0151785Y0230164D02*
X0151585D01*
X0151310Y0230128D01*
X0151053Y0230022D01*
X0150833Y0229853D01*
X0150704Y0229684D01*
X0149625D01*
X0149402Y0229639D01*
X0149213Y0229513D01*
X0148273Y0228573D01*
X0148147Y0228384D01*
X0148102Y0228161D01*
Y0225227D01*
X0147559Y0224684D01*
X0146666D01*
X0146537Y0224853D01*
X0146317Y0225022D01*
X0146060Y0225128D01*
X0145785Y0225164D01*
X0145585D01*
X0145310Y0225128D01*
X0145053Y0225022D01*
X0144833Y0224853D01*
X0144664Y0224633D01*
X0144558Y0224376D01*
X0144522Y0224101D01*
X0144558Y0223826D01*
X0144664Y0223569D01*
X0144833Y0223349D01*
X0145053Y0223180D01*
X0145310Y0223074D01*
X0145585Y0223038D01*
X0145785D01*
X0146060Y0223074D01*
X0146317Y0223180D01*
X0146537Y0223349D01*
X0146666Y0223518D01*
X0147800D01*
X0148023Y0223563D01*
X0148212Y0223689D01*
X0149097Y0224574D01*
X0149223Y0224763D01*
X0149268Y0224986D01*
Y0227920D01*
X0149866Y0228518D01*
X0150704D01*
X0150833Y0228349D01*
X0151053Y0228180D01*
X0151310Y0228074D01*
X0151585Y0228038D01*
X0151785D01*
X0152060Y0228074D01*
X0152317Y0228180D01*
X0152537Y0228349D01*
X0152706Y0228569D01*
X0152812Y0228826D01*
X0152848Y0229101D01*
X0152812Y0229376D01*
X0152706Y0229633D01*
X0152537Y0229853D01*
X0152317Y0230022D01*
X0152060Y0230128D01*
X0151785Y0230164D01*
D02*
G37*
G36*
X0196044Y0230705D02*
X0194186D01*
Y0228847D01*
X0196044D01*
Y0230705D01*
D02*
G37*
G36*
X0171175Y0229649D02*
X0170382D01*
Y0228856D01*
X0170498Y0228871D01*
X0170724Y0228965D01*
X0170918Y0229113D01*
X0171066Y0229307D01*
X0171160Y0229533D01*
X0171175Y0229649D01*
D02*
G37*
G36*
X0170128D02*
X0169335D01*
X0169350Y0229533D01*
X0169444Y0229307D01*
X0169592Y0229113D01*
X0169786Y0228965D01*
X0170012Y0228871D01*
X0170128Y0228856D01*
Y0229649D01*
D02*
G37*
G36*
X0145785Y0230164D02*
X0145585D01*
X0145310Y0230128D01*
X0145053Y0230022D01*
X0144833Y0229853D01*
X0144664Y0229633D01*
X0144558Y0229376D01*
X0144522Y0229101D01*
X0144558Y0228826D01*
X0144664Y0228569D01*
X0144833Y0228349D01*
X0145053Y0228180D01*
X0145310Y0228074D01*
X0145585Y0228038D01*
X0145785D01*
X0146060Y0228074D01*
X0146317Y0228180D01*
X0146537Y0228349D01*
X0146706Y0228569D01*
X0146812Y0228826D01*
X0146848Y0229101D01*
X0146812Y0229376D01*
X0146706Y0229633D01*
X0146537Y0229853D01*
X0146317Y0230022D01*
X0146060Y0230128D01*
X0145785Y0230164D01*
D02*
G37*
G36*
Y0227664D02*
X0145585D01*
X0145310Y0227628D01*
X0145053Y0227522D01*
X0144833Y0227353D01*
X0144664Y0227133D01*
X0144558Y0226876D01*
X0144522Y0226601D01*
X0144558Y0226326D01*
X0144664Y0226069D01*
X0144833Y0225849D01*
X0145053Y0225680D01*
X0145310Y0225574D01*
X0145585Y0225538D01*
X0145785D01*
X0146060Y0225574D01*
X0146317Y0225680D01*
X0146537Y0225849D01*
X0146706Y0226069D01*
X0146812Y0226326D01*
X0146848Y0226601D01*
X0146812Y0226876D01*
X0146706Y0227133D01*
X0146537Y0227353D01*
X0146317Y0227522D01*
X0146060Y0227628D01*
X0145785Y0227664D01*
D02*
G37*
G36*
X0190813Y0225775D02*
X0189861D01*
Y0224823D01*
X0190813D01*
Y0225775D01*
D02*
G37*
G36*
X0151785Y0227664D02*
X0151585D01*
X0151310Y0227628D01*
X0151053Y0227522D01*
X0150833Y0227353D01*
X0150664Y0227133D01*
X0150558Y0226876D01*
X0150522Y0226601D01*
X0150558Y0226326D01*
X0150664Y0226069D01*
X0150833Y0225849D01*
X0151053Y0225680D01*
X0151310Y0225574D01*
X0151585Y0225538D01*
X0151785D01*
X0152060Y0225574D01*
X0152317Y0225680D01*
X0152537Y0225849D01*
X0152706Y0226069D01*
X0152812Y0226326D01*
X0152848Y0226601D01*
X0152812Y0226876D01*
X0152706Y0227133D01*
X0152537Y0227353D01*
X0152317Y0227522D01*
X0152060Y0227628D01*
X0151785Y0227664D01*
D02*
G37*
G36*
X0205685Y0229062D02*
X0205390Y0229033D01*
X0205107Y0228947D01*
X0204845Y0228808D01*
X0204616Y0228620D01*
X0204428Y0228391D01*
X0204289Y0228129D01*
X0204203Y0227846D01*
X0204174Y0227551D01*
X0204203Y0227256D01*
X0204289Y0226973D01*
X0204428Y0226711D01*
X0204616Y0226482D01*
X0204845Y0226294D01*
X0205107Y0226155D01*
X0205390Y0226069D01*
X0205685Y0226040D01*
X0205980Y0226069D01*
X0206263Y0226155D01*
X0206525Y0226294D01*
X0206754Y0226482D01*
X0206942Y0226711D01*
X0207081Y0226973D01*
X0207167Y0227256D01*
X0207196Y0227551D01*
X0207167Y0227846D01*
X0207081Y0228129D01*
X0206942Y0228391D01*
X0206754Y0228620D01*
X0206525Y0228808D01*
X0206263Y0228947D01*
X0205980Y0229033D01*
X0205685Y0229062D01*
D02*
G37*
G36*
X0159685D02*
X0159390Y0229033D01*
X0159107Y0228947D01*
X0158845Y0228808D01*
X0158616Y0228620D01*
X0158428Y0228391D01*
X0158289Y0228129D01*
X0158203Y0227846D01*
X0158174Y0227551D01*
X0158203Y0227256D01*
X0158289Y0226973D01*
X0158428Y0226711D01*
X0158616Y0226482D01*
X0158845Y0226294D01*
X0159107Y0226155D01*
X0159390Y0226069D01*
X0159685Y0226040D01*
X0159980Y0226069D01*
X0160263Y0226155D01*
X0160525Y0226294D01*
X0160754Y0226482D01*
X0160942Y0226711D01*
X0161081Y0226973D01*
X0161167Y0227256D01*
X0161196Y0227551D01*
X0161167Y0227846D01*
X0161081Y0228129D01*
X0160942Y0228391D01*
X0160754Y0228620D01*
X0160525Y0228808D01*
X0160263Y0228947D01*
X0159980Y0229033D01*
X0159685Y0229062D01*
D02*
G37*
G36*
X0205558Y0247509D02*
X0204186D01*
X0204203Y0247341D01*
X0204289Y0247058D01*
X0204428Y0246796D01*
X0204616Y0246567D01*
X0204845Y0246379D01*
X0205107Y0246240D01*
X0205390Y0246154D01*
X0205558Y0246137D01*
Y0247509D01*
D02*
G37*
G36*
X0159685Y0249147D02*
X0159390Y0249118D01*
X0159107Y0249032D01*
X0158845Y0248893D01*
X0158616Y0248705D01*
X0158428Y0248476D01*
X0158289Y0248214D01*
X0158203Y0247931D01*
X0158174Y0247636D01*
X0158203Y0247341D01*
X0158289Y0247058D01*
X0158428Y0246796D01*
X0158616Y0246567D01*
X0158845Y0246379D01*
X0159107Y0246240D01*
X0159390Y0246154D01*
X0159685Y0246125D01*
X0159980Y0246154D01*
X0160263Y0246240D01*
X0160525Y0246379D01*
X0160754Y0246567D01*
X0160942Y0246796D01*
X0161081Y0247058D01*
X0161167Y0247341D01*
X0161196Y0247636D01*
X0161167Y0247931D01*
X0161081Y0248214D01*
X0160942Y0248476D01*
X0160754Y0248705D01*
X0160525Y0248893D01*
X0160263Y0249032D01*
X0159980Y0249118D01*
X0159685Y0249147D01*
D02*
G37*
G36*
X0207184Y0247509D02*
X0205812D01*
Y0246137D01*
X0205980Y0246154D01*
X0206263Y0246240D01*
X0206525Y0246379D01*
X0206754Y0246567D01*
X0206942Y0246796D01*
X0207081Y0247058D01*
X0207167Y0247341D01*
X0207184Y0247509D01*
D02*
G37*
G36*
X0205812Y0249135D02*
Y0247763D01*
X0207184D01*
X0207167Y0247931D01*
X0207081Y0248214D01*
X0206942Y0248476D01*
X0206754Y0248705D01*
X0206525Y0248893D01*
X0206263Y0249032D01*
X0205980Y0249118D01*
X0205812Y0249135D01*
D02*
G37*
G36*
X0205558D02*
X0205390Y0249118D01*
X0205107Y0249032D01*
X0204845Y0248893D01*
X0204616Y0248705D01*
X0204428Y0248476D01*
X0204289Y0248214D01*
X0204203Y0247931D01*
X0204186Y0247763D01*
X0205558D01*
Y0249135D01*
D02*
G37*
G36*
X0218685Y0250365D02*
X0218174Y0250325D01*
X0217676Y0250205D01*
X0217203Y0250009D01*
X0216766Y0249742D01*
X0216377Y0249409D01*
X0216044Y0249020D01*
X0215777Y0248583D01*
X0215581Y0248110D01*
X0215461Y0247612D01*
X0215421Y0247101D01*
X0215461Y0246590D01*
X0215581Y0246092D01*
X0215777Y0245619D01*
X0216044Y0245182D01*
X0216377Y0244793D01*
X0216766Y0244460D01*
X0217203Y0244193D01*
X0217676Y0243997D01*
X0218174Y0243877D01*
X0218685Y0243837D01*
X0219196Y0243877D01*
X0219694Y0243997D01*
X0220167Y0244193D01*
X0220604Y0244460D01*
X0220993Y0244793D01*
X0221326Y0245182D01*
X0221593Y0245619D01*
X0221789Y0246092D01*
X0221909Y0246590D01*
X0221949Y0247101D01*
X0221909Y0247612D01*
X0221789Y0248110D01*
X0221593Y0248583D01*
X0221326Y0249020D01*
X0220993Y0249409D01*
X0220604Y0249742D01*
X0220167Y0250009D01*
X0219694Y0250205D01*
X0219196Y0250325D01*
X0218685Y0250365D01*
D02*
G37*
G36*
X0170382Y0230696D02*
Y0229903D01*
X0171175D01*
X0171160Y0230019D01*
X0171066Y0230245D01*
X0170918Y0230439D01*
X0170724Y0230587D01*
X0170498Y0230681D01*
X0170382Y0230696D01*
D02*
G37*
G36*
X0170128D02*
X0170012Y0230681D01*
X0169786Y0230587D01*
X0169592Y0230439D01*
X0169444Y0230245D01*
X0169350Y0230019D01*
X0169335Y0229903D01*
X0170128D01*
Y0230696D01*
D02*
G37*
G36*
X0182685Y0235565D02*
X0182358Y0235522D01*
X0182053Y0235396D01*
X0181791Y0235195D01*
X0181590Y0234933D01*
X0181463Y0234628D01*
X0181420Y0234301D01*
X0181463Y0233973D01*
X0181590Y0233668D01*
X0181791Y0233406D01*
X0182053Y0233205D01*
X0182260Y0233119D01*
Y0232982D01*
X0182053Y0232896D01*
X0181791Y0232695D01*
X0181590Y0232433D01*
X0181463Y0232128D01*
X0181420Y0231801D01*
X0181463Y0231473D01*
X0181590Y0231168D01*
X0181791Y0230906D01*
X0182053Y0230705D01*
X0182358Y0230579D01*
X0182685Y0230536D01*
X0183013Y0230579D01*
X0183318Y0230705D01*
X0183580Y0230906D01*
X0183781Y0231168D01*
X0183907Y0231473D01*
X0183950Y0231801D01*
X0183907Y0232128D01*
X0183781Y0232433D01*
X0183580Y0232695D01*
X0183318Y0232896D01*
X0183110Y0232982D01*
Y0233119D01*
X0183318Y0233205D01*
X0183580Y0233406D01*
X0183781Y0233668D01*
X0183907Y0233973D01*
X0183950Y0234301D01*
X0183907Y0234628D01*
X0183781Y0234933D01*
X0183580Y0235195D01*
X0183318Y0235396D01*
X0183013Y0235522D01*
X0182685Y0235565D01*
D02*
G37*
G36*
X0146685Y0250365D02*
X0146174Y0250325D01*
X0145676Y0250205D01*
X0145203Y0250009D01*
X0144766Y0249742D01*
X0144377Y0249409D01*
X0144044Y0249020D01*
X0143777Y0248583D01*
X0143581Y0248110D01*
X0143461Y0247612D01*
X0143421Y0247101D01*
X0143461Y0246590D01*
X0143581Y0246092D01*
X0143777Y0245619D01*
X0144044Y0245182D01*
X0144377Y0244793D01*
X0144766Y0244460D01*
X0145203Y0244193D01*
X0145676Y0243997D01*
X0146174Y0243877D01*
X0146685Y0243837D01*
X0147196Y0243877D01*
X0147694Y0243997D01*
X0148167Y0244193D01*
X0148604Y0244460D01*
X0148993Y0244793D01*
X0149326Y0245182D01*
X0149593Y0245619D01*
X0149789Y0246092D01*
X0149909Y0246590D01*
X0149949Y0247101D01*
X0149909Y0247612D01*
X0149789Y0248110D01*
X0149593Y0248583D01*
X0149326Y0249020D01*
X0148993Y0249409D01*
X0148604Y0249742D01*
X0148167Y0250009D01*
X0147694Y0250205D01*
X0147196Y0250325D01*
X0146685Y0250365D01*
D02*
G37*
G36*
X0183939Y0248055D02*
X0181431D01*
Y0245547D01*
Y0243047D01*
X0183939D01*
Y0245547D01*
Y0248055D01*
D02*
G37*
G36*
X0189607Y0225775D02*
X0188654D01*
Y0224823D01*
X0189607D01*
Y0225775D01*
D02*
G37*
G36*
X0198509Y0225785D02*
X0198227Y0225748D01*
X0197965Y0225639D01*
X0197739Y0225466D01*
X0197566Y0225240D01*
X0197457Y0224978D01*
X0197420Y0224696D01*
X0197457Y0224414D01*
X0197566Y0224152D01*
X0197739Y0223926D01*
X0197965Y0223753D01*
X0198227Y0223644D01*
X0198509Y0223607D01*
X0198791Y0223644D01*
X0199054Y0223753D01*
X0199279Y0223926D01*
X0199452Y0224152D01*
X0199561Y0224414D01*
X0199598Y0224696D01*
X0199561Y0224978D01*
X0199452Y0225240D01*
X0199279Y0225466D01*
X0199054Y0225639D01*
X0198791Y0225748D01*
X0198509Y0225785D01*
D02*
G37*
G36*
X0175649D02*
X0175367Y0225748D01*
X0175105Y0225639D01*
X0174879Y0225466D01*
X0174706Y0225240D01*
X0174597Y0224978D01*
X0174560Y0224696D01*
X0174597Y0224414D01*
X0174706Y0224152D01*
X0174879Y0223926D01*
X0175105Y0223753D01*
X0175367Y0223644D01*
X0175649Y0223607D01*
X0175931Y0223644D01*
X0176194Y0223753D01*
X0176419Y0223926D01*
X0176592Y0224152D01*
X0176701Y0224414D01*
X0176738Y0224696D01*
X0176701Y0224978D01*
X0176592Y0225240D01*
X0176419Y0225466D01*
X0176194Y0225639D01*
X0175931Y0225748D01*
X0175649Y0225785D01*
D02*
G37*
G36*
X0166747Y0224569D02*
X0165794D01*
Y0223617D01*
X0166747D01*
Y0224569D01*
D02*
G37*
G36*
X0189607D02*
X0188654D01*
Y0223617D01*
X0189607D01*
Y0224569D01*
D02*
G37*
G36*
X0167953D02*
X0167001D01*
Y0223617D01*
X0167953D01*
Y0224569D01*
D02*
G37*
G36*
X0151785Y0225164D02*
X0151585D01*
X0151310Y0225128D01*
X0151053Y0225022D01*
X0150833Y0224853D01*
X0150664Y0224633D01*
X0150558Y0224376D01*
X0150522Y0224101D01*
X0150558Y0223826D01*
X0150664Y0223569D01*
X0150833Y0223349D01*
X0151053Y0223180D01*
X0151310Y0223074D01*
X0151585Y0223038D01*
X0151785D01*
X0152060Y0223074D01*
X0152317Y0223180D01*
X0152537Y0223349D01*
X0152706Y0223569D01*
X0152812Y0223826D01*
X0152848Y0224101D01*
X0152812Y0224376D01*
X0152706Y0224633D01*
X0152537Y0224853D01*
X0152317Y0225022D01*
X0152060Y0225128D01*
X0151785Y0225164D01*
D02*
G37*
G36*
X0163508Y0224061D02*
X0162610D01*
Y0223426D01*
X0162645Y0223161D01*
X0162748Y0222913D01*
X0162910Y0222701D01*
X0163123Y0222538D01*
X0163370Y0222436D01*
X0163508Y0222418D01*
Y0224061D01*
D02*
G37*
G36*
X0198509Y0223245D02*
X0198227Y0223208D01*
X0197965Y0223099D01*
X0197739Y0222926D01*
X0197566Y0222700D01*
X0197457Y0222438D01*
X0197420Y0222156D01*
X0197457Y0221874D01*
X0197566Y0221612D01*
X0197739Y0221386D01*
X0197965Y0221213D01*
X0198227Y0221104D01*
X0198509Y0221067D01*
X0198791Y0221104D01*
X0199054Y0221213D01*
X0199279Y0221386D01*
X0199452Y0221612D01*
X0199561Y0221874D01*
X0199598Y0222156D01*
X0199561Y0222438D01*
X0199452Y0222700D01*
X0199279Y0222926D01*
X0199054Y0223099D01*
X0198791Y0223208D01*
X0198509Y0223245D01*
D02*
G37*
G36*
X0164660Y0224061D02*
X0163762D01*
Y0222418D01*
X0163900Y0222436D01*
X0164147Y0222538D01*
X0164360Y0222701D01*
X0164522Y0222913D01*
X0164625Y0223161D01*
X0164660Y0223426D01*
Y0224061D01*
D02*
G37*
G36*
X0187520D02*
X0186622D01*
Y0222418D01*
X0186760Y0222436D01*
X0187007Y0222538D01*
X0187220Y0222701D01*
X0187382Y0222913D01*
X0187485Y0223161D01*
X0187520Y0223426D01*
Y0224061D01*
D02*
G37*
G36*
X0186368D02*
X0185470D01*
Y0223426D01*
X0185505Y0223161D01*
X0185608Y0222913D01*
X0185770Y0222701D01*
X0185983Y0222538D01*
X0186230Y0222436D01*
X0186368Y0222418D01*
Y0224061D01*
D02*
G37*
G36*
Y0225958D02*
X0186230Y0225940D01*
X0185983Y0225837D01*
X0185770Y0225674D01*
X0185608Y0225462D01*
X0185505Y0225215D01*
X0185470Y0224950D01*
Y0224823D01*
X0186368D01*
Y0225958D01*
D02*
G37*
G36*
X0163762D02*
Y0224823D01*
X0164660D01*
Y0224950D01*
X0164625Y0225215D01*
X0164522Y0225462D01*
X0164360Y0225674D01*
X0164147Y0225837D01*
X0163900Y0225940D01*
X0163762Y0225958D01*
D02*
G37*
G36*
X0186622D02*
Y0224823D01*
X0187520D01*
Y0224950D01*
X0187485Y0225215D01*
X0187382Y0225462D01*
X0187220Y0225674D01*
X0187007Y0225837D01*
X0186760Y0225940D01*
X0186622Y0225958D01*
D02*
G37*
G36*
X0167953Y0225775D02*
X0167001D01*
Y0224823D01*
X0167953D01*
Y0225775D01*
D02*
G37*
G36*
X0166747D02*
X0165794D01*
Y0224823D01*
X0166747D01*
Y0225775D01*
D02*
G37*
G36*
X0163508Y0225958D02*
X0163370Y0225940D01*
X0163123Y0225837D01*
X0162910Y0225674D01*
X0162748Y0225462D01*
X0162645Y0225215D01*
X0162610Y0224950D01*
Y0224823D01*
X0163508D01*
Y0225958D01*
D02*
G37*
G36*
Y0224569D02*
X0162610D01*
Y0224315D01*
X0163508D01*
Y0224569D01*
D02*
G37*
G36*
X0190813Y0224569D02*
X0189861D01*
Y0223617D01*
X0190813D01*
Y0224569D01*
D02*
G37*
G36*
X0164660Y0224569D02*
X0163762D01*
Y0224315D01*
X0164660D01*
Y0224569D01*
D02*
G37*
G36*
X0187520D02*
X0186622D01*
Y0224315D01*
X0187520D01*
Y0224569D01*
D02*
G37*
G36*
X0186368D02*
X0185470D01*
Y0224315D01*
X0186368D01*
Y0224569D01*
D02*
G37*
%LPD*%
G54D10*
X0166874Y0219616D02*
X0172525D01*
X0173795Y0218346D01*
X0182685D01*
X0183320Y0217711D01*
X0187765D01*
X0188400Y0220822D02*
X0189734Y0222156D01*
X0188400Y0218346D02*
Y0220822D01*
X0187765Y0217711D02*
X0188400Y0218346D01*
X0185200Y0204376D02*
Y0206306D01*
X0183955Y0207551D02*
X0185200Y0206306D01*
X0192210Y0214790D02*
X0193115Y0215695D01*
X0184717Y0214790D02*
X0192210D01*
X0183955Y0214028D02*
X0184717Y0214790D01*
X0193115Y0215695D02*
Y0229776D01*
X0183955Y0207551D02*
Y0214028D01*
X0182685Y0214536D02*
X0183701Y0215552D01*
X0190813D01*
X0191448Y0216187D01*
Y0217902D01*
X0182685Y0204376D02*
Y0214536D01*
X0189734Y0219616D02*
X0191448Y0217902D01*
X0149665Y0222156D02*
X0160460D01*
Y0224696D01*
X0163635D01*
X0173160Y0211361D02*
Y0215806D01*
X0160460D02*
X0173160D01*
X0160460D02*
Y0222156D01*
X0166874Y0224696D02*
X0172525D01*
X0174430Y0226601D01*
X0186495Y0223426D02*
Y0224696D01*
Y0226601D01*
X0174430D02*
X0186495D01*
X0189670D01*
X0189734Y0226538D01*
X0193480Y0204376D02*
X0196020D01*
Y0206281D01*
Y0207551D01*
X0196592Y0216378D02*
Y0232887D01*
X0193480Y0204376D02*
Y0213266D01*
X0189734Y0224696D02*
Y0226538D01*
Y0232887D01*
X0193480Y0213266D02*
X0196592Y0216378D01*
X0205685Y0233726D02*
Y0247636D01*
X0204846Y0232887D02*
X0205685Y0233726D01*
X0189734Y0232887D02*
X0196592D01*
X0204846D01*
X0148685Y0217076D02*
Y0221176D01*
X0149665Y0222156D01*
G54D11*
X0149625Y0229101D02*
X0151685D01*
X0145685Y0224101D02*
X0147800D01*
X0148685Y0224986D01*
Y0228161D01*
X0149625Y0229101D01*
G54D12*
X0182685Y0234301D02*
D03*
Y0231801D02*
D03*
G54D13*
Y0244301D02*
D03*
G54D14*
X0193115Y0229776D02*
D03*
X0170255D02*
D03*
G54D15*
X0195115D02*
D03*
X0172255D02*
D03*
G54D16*
X0146685Y0247101D02*
D03*
X0218685D02*
D03*
Y0206101D02*
D03*
X0146685D02*
D03*
G54D17*
X0196020Y0206789D02*
D03*
Y0210853D02*
D03*
X0173160Y0210853D02*
D03*
Y0206789D02*
D03*
X0186495Y0224188D02*
D03*
Y0220124D02*
D03*
X0163635Y0224188D02*
D03*
Y0220124D02*
D03*
G54D18*
X0196020Y0206281D02*
D03*
Y0211361D02*
D03*
X0173160Y0211361D02*
D03*
Y0206281D02*
D03*
X0186495Y0224696D02*
D03*
Y0219616D02*
D03*
X0163635Y0224696D02*
D03*
Y0219616D02*
D03*
X0148685Y0214536D02*
D03*
G54D19*
X0189734Y0219616D02*
D03*
X0198509Y0224696D02*
D03*
Y0222156D02*
D03*
Y0219616D02*
D03*
Y0217076D02*
D03*
X0189734D02*
D03*
Y0222156D02*
D03*
X0166874Y0219616D02*
D03*
X0175649Y0224696D02*
D03*
Y0222156D02*
D03*
Y0219616D02*
D03*
Y0217076D02*
D03*
X0166874D02*
D03*
Y0222156D02*
D03*
G54D20*
X0189734Y0224696D02*
D03*
X0166874D02*
D03*
G54D21*
X0169985Y0203741D02*
D03*
Y0213901D02*
D03*
X0145220Y0220886D02*
D03*
Y0210726D02*
D03*
G54D22*
X0159685Y0247636D02*
D03*
Y0227551D02*
D03*
X0205685Y0247636D02*
D03*
Y0227551D02*
D03*
G54D23*
X0148685Y0217076D02*
D03*
G54D24*
X0155075Y0211376D02*
D03*
X0164575D02*
D03*
X0177935D02*
D03*
X0187435D02*
D03*
X0200795Y0211361D02*
D03*
X0210295D02*
D03*
G54D25*
X0162340Y0204376D02*
D03*
X0159825D02*
D03*
X0157325D02*
D03*
X0185200D02*
D03*
X0182685D02*
D03*
X0180185D02*
D03*
X0208060Y0204361D02*
D03*
X0205545D02*
D03*
X0203045D02*
D03*
G54D26*
X0182685Y0246801D02*
D03*
G54D27*
X0145685Y0226601D02*
D03*
Y0229101D02*
D03*
X0151685Y0224101D02*
D03*
Y0226601D02*
D03*
Y0229101D02*
D03*
X0145685Y0224101D02*
D03*
M02*
