G04 Layer_Color=8150272*
%FSAX43Y43*%
%MOMM*%
G71*
G01*
G75*
%ADD45C,2.203*%
%ADD46R,2.203X2.203*%
%ADD47C,1.553*%
%ADD48R,1.553X1.553*%
%ADD49C,6.203*%
%ADD50O,1.727X3.251*%
%ADD51C,1.727*%
%ADD52C,1.854*%
%ADD53R,1.854X1.854*%
%ADD54C,2.235*%
%ADD55C,2.703*%
%ADD56R,1.727X1.727*%
%ADD57R,3.203X5.203*%
%ADD58O,1.880X3.556*%
%ADD59R,2.203X2.203*%
%ADD60O,2.003X1.803*%
G54D45*
X0182685Y0234301D02*
D03*
Y0231801D02*
D03*
G54D46*
Y0244301D02*
D03*
G54D47*
X0193115Y0229776D02*
D03*
X0170255D02*
D03*
G54D48*
X0195115D02*
D03*
X0172255D02*
D03*
G54D49*
X0146685Y0247101D02*
D03*
X0218685D02*
D03*
Y0206101D02*
D03*
X0146685D02*
D03*
G54D50*
X0196020Y0206789D02*
D03*
Y0210853D02*
D03*
X0173160Y0210853D02*
D03*
Y0206789D02*
D03*
X0186495Y0224188D02*
D03*
Y0220124D02*
D03*
X0163635Y0224188D02*
D03*
Y0220124D02*
D03*
G54D51*
X0196020Y0206281D02*
D03*
Y0211361D02*
D03*
X0173160Y0211361D02*
D03*
Y0206281D02*
D03*
X0186495Y0224696D02*
D03*
Y0219616D02*
D03*
X0163635Y0224696D02*
D03*
Y0219616D02*
D03*
X0148685Y0214536D02*
D03*
G54D52*
X0189734Y0219616D02*
D03*
X0198509Y0224696D02*
D03*
Y0222156D02*
D03*
Y0219616D02*
D03*
Y0217076D02*
D03*
X0189734D02*
D03*
Y0222156D02*
D03*
X0166874Y0219616D02*
D03*
X0175649Y0224696D02*
D03*
Y0222156D02*
D03*
Y0219616D02*
D03*
Y0217076D02*
D03*
X0166874D02*
D03*
Y0222156D02*
D03*
G54D53*
X0189734Y0224696D02*
D03*
X0166874D02*
D03*
G54D54*
X0169985Y0203741D02*
D03*
Y0213901D02*
D03*
X0145220Y0220886D02*
D03*
Y0210726D02*
D03*
G54D55*
X0159685Y0247636D02*
D03*
Y0227551D02*
D03*
X0205685Y0247636D02*
D03*
Y0227551D02*
D03*
G54D56*
X0148685Y0217076D02*
D03*
G54D57*
X0155075Y0211376D02*
D03*
X0164575D02*
D03*
X0177935D02*
D03*
X0187435D02*
D03*
X0200795Y0211361D02*
D03*
X0210295D02*
D03*
G54D58*
X0162340Y0204376D02*
D03*
X0159825D02*
D03*
X0157325D02*
D03*
X0185200D02*
D03*
X0182685D02*
D03*
X0180185D02*
D03*
X0208060Y0204361D02*
D03*
X0205545D02*
D03*
X0203045D02*
D03*
G54D59*
X0182685Y0246801D02*
D03*
G54D60*
X0145685Y0226601D02*
D03*
Y0229101D02*
D03*
X0151685Y0224101D02*
D03*
Y0226601D02*
D03*
Y0229101D02*
D03*
X0145685Y0224101D02*
D03*
M02*
