G04 Layer_Physical_Order=2*
G04 Layer_Color=16711680*
%FSAX43Y43*%
%MOMM*%
G71*
G01*
G75*
%ADD10C,5.000*%
%ADD11C,0.254*%
D10*
X0075071Y0107300D02*
D03*
X0104280Y0107300D02*
D03*
Y0121300D02*
D03*
X0075071Y0121300D02*
D03*
D11*
X0151130Y0105410D02*
Y0107950D01*
X0148590D02*
X0151130D01*
X0148590D02*
Y0110490D01*
X0151130D01*
Y0113030D01*
X0153670D01*
Y0123190D01*
X0151130D02*
X0153670D01*
X0151130Y0118110D02*
Y0123190D01*
X0148590Y0118110D02*
X0151130D01*
X0148590D02*
Y0120650D01*
X0146050D02*
X0148590D01*
X0146050D02*
Y0123190D01*
X0148590D01*
Y0125730D01*
X0146050D02*
X0148590D01*
X0146050Y0123190D02*
Y0125730D01*
X0143510Y0123190D02*
X0146050D01*
X0143510Y0120650D02*
Y0123190D01*
X0138430Y0120650D02*
X0143510D01*
X0148590Y0105410D02*
X0151130D01*
X0148590D02*
Y0107950D01*
X0146050D02*
X0148590D01*
X0146050D02*
Y0110490D01*
X0138430D02*
X0146050D01*
Y0115570D02*
Y0118110D01*
X0143510Y0115570D02*
X0146050D01*
X0143510D02*
Y0118110D01*
X0146050D01*
X0133350D02*
X0135890D01*
Y0115570D02*
Y0118110D01*
X0133350Y0115570D02*
X0135890D01*
X0133350D02*
Y0118110D01*
Y0110490D02*
X0140970D01*
X0133350Y0107950D02*
Y0110490D01*
X0130810Y0107950D02*
X0133350D01*
X0130810Y0105410D02*
Y0107950D01*
X0128270Y0105410D02*
X0130810D01*
X0135890Y0120650D02*
X0140970D01*
X0135890D02*
Y0123190D01*
X0133350D02*
X0135890D01*
X0133350D02*
Y0125730D01*
X0130810D02*
X0133350D01*
X0130810Y0123190D02*
Y0125730D01*
Y0123190D02*
X0133350D01*
Y0120650D02*
Y0123190D01*
X0130810Y0120650D02*
X0133350D01*
X0130810Y0118110D02*
Y0120650D01*
X0128270Y0118110D02*
X0130810D01*
X0128270D02*
Y0123190D01*
X0125730D02*
X0128270D01*
X0125730Y0113030D02*
Y0123190D01*
Y0113030D02*
X0128270D01*
Y0110490D02*
Y0113030D01*
Y0110490D02*
X0130810D01*
Y0107950D02*
Y0110490D01*
X0128270Y0107950D02*
X0130810D01*
X0128270Y0105410D02*
Y0107950D01*
M02*
