0
SECTION
2
HEADER
9
$INSUNITS
70
4
9
$ACADVER
1
AC1014
9
$HANDSEED
5
FFFF
0
ENDSEC
0
SECTION
2
TABLES
0
TABLE
2
VPORT
5
8
100
AcDbSymbolTable
0
ENDTAB
0
TABLE
2
LTYPE
5
5
100
AcDbSymbolTable
0
LTYPE
5
14
100
AcDbSymbolTableRecord
100
AcDbLinetypeTableRecord
2
BYBLOCK
70
0
0
LTYPE
5
15
100
AcDbSymbolTableRecord
100
AcDbLinetypeTableRecord
2
BYLAYER
70
0
0
ENDTAB
0
TABLE
2
LAYER
5
2
100
AcDbSymbolTable
70
2
0
LAYER
5
50
100
AcDbSymbolTableRecord
100
AcDbLayerTableRecord
2
0
70
0
6
CONTINUOUS
0
ENDTAB
0
TABLE
2
STYLE
5
3
100
AcDbSymbolTable
70
1
0
STYLE
5
11
100
AcDbSymbolTableRecord
100
AcDbTextStyleTableRecord
2
STANDARD
70
0
0
ENDTAB
0
TABLE
2
VIEW
5
6
100
AcDbSymbolTable
70
0
0
ENDTAB
0
TABLE
2
UCS
5
7
100
AcDbSymbolTable
70
0
0
ENDTAB
0
TABLE
2
APPID
5
9
100
AcDbSymbolTable
70
2
0
APPID
5
12
100
AcDbSymbolTableRecord
100
AcDbRegAppTableRecord
2
ACAD
70
0
0
ENDTAB
0
TABLE
2
DIMSTYLE
5
A
100
AcDbSymbolTable
70
1
0
ENDTAB
0
TABLE
2
BLOCK_RECORD
5
1
100
AcDbSymbolTable
70
1
0
BLOCK_RECORD
5
1F
100
AcDbSymbolTableRecord
100
AcDbBlockTableRecord
2
*MODEL_SPACE
0
BLOCK_RECORD
5
1B
100
AcDbSymbolTableRecord
100
AcDbBlockTableRecord
2
*PAPER_SPACE
0
ENDTAB
0
ENDSEC
0
SECTION
2
BLOCKS
0
BLOCK
5
20
100
AcDbEntity
100
AcDbBlockBegin
2
*MODEL_SPACE
0
ENDBLK
5
21
100
AcDbEntity
100
AcDbBlockEnd
0
BLOCK
5
1C
100
AcDbEntity
100
AcDbBlockBegin
2
*PAPER_SPACE
0
ENDBLK
5
1D
100
AcDbEntity
100
AcDbBlockEnd
0
ENDSEC
0
SECTION
2
ENTITIES
0
LINE
5
100
100
AcDbEntity
8
0
100
AcDbLine
10
-176
20
53.500000000000007
30
0
11
176
21
53.500000000000007
31
0
0
LINE
5
101
100
AcDbEntity
8
0
100
AcDbLine
10
176
20
-53.500000000000007
30
0
11
-176
21
-53.500000000000007
31
0
0
LINE
5
102
100
AcDbEntity
8
0
100
AcDbLine
10
-176
20
-53.500000000000007
30
0
11
-176
21
53.500000000000007
31
0
0
LINE
5
103
100
AcDbEntity
8
0
100
AcDbLine
10
-176
20
0
30
0
11
176
21
0
31
0
0
LINE
5
104
100
AcDbEntity
8
0
100
AcDbLine
10
2.1684043449710089e-18
20
53.500000000000007
30
0
11
0
21
0
31
0
0
LINE
5
105
100
AcDbEntity
8
0
100
AcDbLine
10
176
20
-6.4999999999999947
30
0
11
254.71052584593485
21
-6.4999999999999947
31
0
0
LINE
5
106
100
AcDbEntity
8
0
100
AcDbLine
10
2.1684043449710089e-18
20
53.500000000000007
30
0
11
147.68048167256711
21
53.500000000000007
31
0
0
LINE
5
107
100
AcDbEntity
8
0
100
AcDbLine
10
149.00000000000009
20
-53.500000000000007
30
0
11
2.1684043449710089e-18
21
-53.500000000000007
31
0
0
LINE
5
108
100
AcDbEntity
8
0
100
AcDbLine
10
0
20
0
30
0
11
42.5
21
-2.6006518839888494e-15
31
0
0
LINE
5
109
100
AcDbEntity
8
0
100
AcDbLine
10
42.5
20
-2.6006518839888494e-15
30
0
11
154.5
21
-2.6924395975413968e-15
31
0
0
CIRCLE
5
110
100
AcDbEntity
8
0
100
AcDbCircle
10
42.5
20
-2.6006518839888494e-15
30
0
40
2.75
210
0
220
0
230
1
0
CIRCLE
5
111
100
AcDbEntity
8
0
100
AcDbCircle
10
154.5
20
-2.6924395975413968e-15
30
0
40
2.75
210
0
220
0
230
1
0
LINE
5
112
100
AcDbEntity
8
0
100
AcDbLine
10
0
20
0
30
0
11
48.500000000000007
21
6.3555688164778783e-32
31
0
0
LINE
5
113
100
AcDbEntity
8
0
100
AcDbLine
10
48.500000000000007
20
39.400000000000006
30
0
11
48.500000000000007
21
-39.400000000000006
31
0
0
LINE
5
114
100
AcDbEntity
8
0
100
AcDbLine
10
50.300000000000004
20
39.400000000000006
30
0
11
50.300000000000004
21
-39.400000000000006
31
0
0
LINE
5
115
100
AcDbEntity
8
0
100
AcDbLine
10
42.5
20
5.9999999999999947
30
0
11
48.500000000000007
21
6.0000000000000009
31
0
0
LINE
5
116
100
AcDbEntity
8
0
100
AcDbLine
10
42.5
20
-5.9999999999999982
30
0
11
48.500000000000007
21
-6.0000000000000053
31
0
0
ARC
5
117
100
AcDbEntity
8
0
100
AcDbCircle
10
42.5
20
-2.6006518839888494e-15
30
0
40
5.9999999999999964
210
0
220
-0
230
1
100
AcDbArc
50
90
51
270
0
ARC
5
118
100
AcDbEntity
8
0
100
AcDbCircle
10
154.5
20
-2.6924395975413968e-15
30
0
40
6
210
0
220
-0
230
1
100
AcDbArc
50
90
51
270
0
LINE
5
119
100
AcDbEntity
8
0
100
AcDbLine
10
154.5
20
5.9999999999999973
30
0
11
161.4051536307301
21
6.0000000000000009
31
0
0
LINE
5
120
100
AcDbEntity
8
0
100
AcDbLine
10
2.1684043449710089e-18
20
53.500000000000007
30
0
11
2.1684043449710089e-18
21
-53.500000000000007
31
0
0
ARC
5
121
100
AcDbEntity
8
0
100
AcDbCircle
10
3.7753452521835262
20
-6.4999979863273492
30
0
40
172.22465474781637
210
0
220
-0
230
1
100
AcDbArc
50
5.2985257474615324
51
14.886758368968602
0
ARC
5
122
100
AcDbEntity
8
0
100
AcDbCircle
10
147.68048167256711
20
29.499999999999986
30
0
40
24.000000000000021
210
0
220
-0
230
1
100
AcDbArc
50
20.095704232920678
51
90
0
LINE
5
123
100
AcDbEntity
8
0
100
AcDbLine
10
154.5
20
-6.0000000000000018
30
0
11
162.31269854069936
21
-5.9999999999999964
31
0
0
LINE
5
124
100
AcDbEntity
8
0
100
AcDbLine
10
176
20
-6.4999999999999947
30
0
11
176
21
-15
31
0
0
LINE
5
125
100
AcDbEntity
8
0
100
AcDbLine
10
176
20
-26.499999999999964
30
0
11
177.00000000000003
21
-26.499999999999964
31
0
0
LINE
5
126
100
AcDbEntity
8
0
100
AcDbLine
10
159.55343774486136
20
-53.500000000000007
30
0
11
150.00000000000003
21
-53.500000000000014
31
0
0
LINE
5
127
100
AcDbEntity
8
0
100
AcDbLine
10
177.00000000000003
20
-26.499999999999964
30
0
11
177.00000000000003
21
-26.500000000000007
31
0
0
ARC
5
128
100
AcDbEntity
8
0
100
AcDbCircle
10
150.00000000000003
20
-26.500000000000021
30
0
40
26.999999999999993
210
-0
220
0
230
1
100
AcDbArc
50
-90
51
0
0
ARC
5
129
100
AcDbEntity
8
0
100
AcDbCircle
10
-195.17413411244087
20
-26.500000000000149
30
0
40
372.17413411244087
210
0
220
-0
230
1
100
AcDbArc
50
0
51
5.5360018280229735
0
LINE
5
130
100
AcDbEntity
8
0
100
AcDbLine
10
176
20
-26.499999999999964
30
0
11
176
21
-53.500000000000007
31
0
0
LINE
5
131
100
AcDbEntity
8
0
100
AcDbLine
10
149.00000000000009
20
-53.500000000000007
30
0
11
150.00000000000003
21
-53.500000000000014
31
0
0
LINE
5
132
100
AcDbEntity
8
0
100
AcDbLine
10
2.1684043449710089e-18
20
40.799999999999997
30
0
11
147.68048167256711
21
40.799999999999997
31
0
0
ARC
5
133
100
AcDbEntity
8
0
100
AcDbCircle
10
147.68048167256711
20
29.499999999999986
30
0
40
11.300000000000024
210
0
220
-0
230
1
100
AcDbArc
50
22.535578742160627
51
90
0
ARC
5
134
100
AcDbEntity
8
0
100
AcDbCircle
10
3.7753452521835262
20
-6.4999979863273492
30
0
40
159.5246547478165
210
0
220
-0
230
1
100
AcDbArc
50
5.2891717896466073
51
14.644366373870175
0
ARC
5
135
100
AcDbEntity
8
0
100
AcDbCircle
10
-195.17413411244087
20
-26.500000000000149
30
0
40
359.47413411244088
210
0
220
-0
230
1
100
AcDbArc
50
0
51
5.5402406977562864
0
ARC
5
136
100
AcDbEntity
8
0
100
AcDbCircle
10
150.00000000000003
20
-26.500000000000021
30
0
40
14.299999999999988
210
0
220
0
230
1
100
AcDbArc
50
-90
51
0
0
LINE
5
137
100
AcDbEntity
8
0
100
AcDbLine
10
149.00000000000017
20
-40.799999999999997
30
0
11
150.00000000000003
21
-40.800000000000011
31
0
0
LINE
5
138
100
AcDbEntity
8
0
100
AcDbLine
10
149.00000000000017
20
-40.799999999999997
30
0
11
0
21
-40.799999999999997
31
0
0
LINE
5
139
100
AcDbEntity
8
0
100
AcDbLine
10
2.1684043449710089e-18
20
39.400000000000006
30
0
11
147.68048167256711
21
39.400000000000006
31
0
0
ARC
5
140
100
AcDbEntity
8
0
100
AcDbCircle
10
147.68048167256711
20
29.499999999999986
30
0
40
9.9000000000000217
210
0
220
-0
230
1
100
AcDbArc
50
23.077281121064832
51
90
0
ARC
5
141
100
AcDbEntity
8
0
100
AcDbCircle
10
3.7753452521835262
20
-6.4999979863273492
30
0
40
158.12465474781635
210
0
220
-0
230
1
100
AcDbArc
50
5.2880616990385683
51
14.60829171361439
0
ARC
5
142
100
AcDbEntity
8
0
100
AcDbCircle
10
-195.17413411244087
20
-26.500000000000149
30
0
40
358.07413411244085
210
0
220
-0
230
1
100
AcDbArc
50
0
51
5.5407321165109042
0
ARC
5
143
100
AcDbEntity
8
0
100
AcDbCircle
10
150.00000000000003
20
-26.500000000000021
30
0
40
12.899999999999991
210
0
220
0
230
1
100
AcDbArc
50
-90
51
0
0
LINE
5
144
100
AcDbEntity
8
0
100
AcDbLine
10
149.0000000000002
20
-39.400000000000006
30
0
11
150.00000000000003
21
-39.400000000000013
31
0
0
LINE
5
145
100
AcDbEntity
8
0
100
AcDbLine
10
149.0000000000002
20
-39.400000000000006
30
0
11
0
21
-39.400000000000006
31
0
0
LINE
5
146
100
AcDbEntity
8
0
100
AcDbLine
10
2.1684043449710089e-18
20
53.000000000000007
30
0
11
147.68048167256711
21
53.000000000000007
31
0
0
ARC
5
147
100
AcDbEntity
8
0
100
AcDbCircle
10
147.68048167256711
20
29.499999999999986
30
0
40
23.500000000000032
210
0
220
-0
230
1
100
AcDbArc
50
20.15090588252648
51
90
0
ARC
5
148
100
AcDbEntity
8
0
100
AcDbCircle
10
3.7753452521835262
20
-6.4999979863273492
30
0
40
171.72465474781663
210
0
220
-0
230
1
100
AcDbArc
50
5.2981801598641969
51
14.879135339401973
0
ARC
5
149
100
AcDbEntity
8
0
100
AcDbCircle
10
-195.17413411244087
20
-26.500000000000149
30
0
40
371.67413411244092
210
0
220
-0
230
1
100
AcDbArc
50
0
51
5.5361616247227072
0
ARC
5
150
100
AcDbEntity
8
0
100
AcDbCircle
10
150.00000000000003
20
-26.500000000000021
30
0
40
26.499999999999993
210
0
220
0
230
1
100
AcDbArc
50
-90
51
0
0
LINE
5
151
100
AcDbEntity
8
0
100
AcDbLine
10
149.00000000000009
20
-53.000000000000007
30
0
11
150.00000000000003
21
-53.000000000000014
31
0
0
LINE
5
152
100
AcDbEntity
8
0
100
AcDbLine
10
149.00000000000009
20
-53.000000000000007
30
0
11
0
21
-53.000000000000007
31
0
0
ENDSEC
0
SECTION
2
OBJECTS
0
DICTIONARY
5
C
100
AcDbDictionary
3
ACAD_GROUP
350
D
3
ACAD_MLINESTYLE
350
17
0
DICTIONARY
5
D
100
AcDbDictionary
0
DICTIONARY
5
1A
330
C
100
AcDbDictionary
0
DICTIONARY
5
17
100
AcDbDictionary
0
ENDSEC
0
EOF
