  0
SECTION
  2
HEADER
  9
$ACADVER
  1
AC1009
  9
$INSBASE
 10
0
 20
0
  9
$EXTMIN
 10
-6.700000000024397
 20
-28.14270480004882
  9
$EXTMAX
 10
70.33661440007361
 20
28.14270480004882
  9
$LIMMIN
 10
-6.700000000024397
 20
-28.14270480004882
  9
$LIMMAX
 10
70.33661440007361
 20
28.14270480004882
  9
$VIEWCTR
 10
10
 20
10
  9
$VIEWSIZE
 40
10
  9
$SNAPMODE
 70
0
  9
$SNAPUNIT
 10
1
 20
1
  9
$SNAPBASE
 10
0
 20
0
  9
$SNAPANG
 50
0
  9
$SNAPSTYLE
 70
0
  9
$SNAPISOPAIR
 70
0
  9
$GRIDMODE
 70
0
  9
$GRIDUNIT
 10
0
 20
0
  9
$ORTHOMODE
 70
0
  9
$REGENMODE
 70
1
  9
$FILLMODE
 70
1
  9
$QTEXTMODE
 70
0
  9
$DRAGMODE
 70
2
  9
$LTSCALE
 40
1
  9
$OSMODE
 70
0
  9
$ATTMODE
 70
1
  9
$TEXTSIZE
 40
3.5
  9
$TRACEWID
 40
0.5
  9
$TEXTSTYLE
  7
STANDARD
  9
$CLAYER
  8
0
  9
$CELTYPE
  6
BYLAYER
  9
$CECOLOR
 62
256
  9
$DIMSCALE
 40
1
  9
$DIMASZ
 40
0.18
  9
$DIMEXO
 40
0.0625
  9
$DIMDLI
 40
0.38
  9
$DIMRND
 40
0
  9
$DIMDLE
 40
0
  9
$DIMEXE
 40
0.18
  9
$DIMTP
 40
0
  9
$DIMTM
 40
0
  9
$DIMTXT
 40
0.18
  9
$DIMCEN
 40
0.09
  9
$DIMTSZ
 40
0
  9
$DIMTOL
 70
0
  9
$DIMLIM
 70
0
  9
$DIMTIH
 70
1
  9
$DIMTOH
 70
1
  9
$DIMSE1
 70
0
  9
$DIMSE2
 70
0
  9
$DIMTAD
 70
0
  9
$DIMZIN
 70
0
  9
$DIMBLK
  1

  9
$DIMASO
 70
1
  9
$DIMSHO
 70
1
  9
$DIMPOST
  1

  9
$DIMAPOST
  1

  9
$DIMALT
 70
0
  9
$DIMALTD
 70
2
  9
$DIMALTF
 40
25.4
  9
$DIMLFAC
 40
1
  9
$DIMTOFL
 70
0
  9
$DIMTVP
 40
0
  9
$DIMTIX
 70
0
  9
$DIMSOXD
 70
0
  9
$DIMSAH
 70
0
  9
$DIMBLK1
  1

  9
$DIMBLK2
  1

  9
$DIMSTYLE
  2
*UNNAMED
  9
$DIMCLRD
 70
0
  9
$DIMCLRE
 70
0
  9
$DIMCLRT
 70
0
  9
$DIMTFAC
 40
1
  9
$DIMGAP
 40
0.09
  9
$LUNITS
 70
2
  9
$LUPREC
 70
4
  9
$AXISMODE
 70
0
  9
$AXISUNIT
 10
0
 20
0
  9
$SKETCHINC
 40
0.1
  9
$FILLETRAD
 40
2
  9
$AUNITS
 70
0
  9
$AUPREC
 70
0
  9
$MENU
  1
ACAD
  9
$ELEVATION
 40
0
  9
$THICKNESS
 40
0
  9
$VIEWDIR
 10
0
 20
0
 30
1
  9
$LIMCHECK
 70
0
  9
$BLIPMODE
 70
1
  9
$CHAMFERA
 40
0
  9
$CHAMFERB
 40
0
  9
$FASTZOOM
 70
1
  9
$SKPOLY
 70
0
  9
$ANGBASE
 50
0
  9
$ANGDIR
 70
0
  9
$PDMODE
 70
0
  9
$PDSIZE
 40
0
  9
$PLINEWID
 40
0
  9
$COORDS
 70
2
  0
ENDSEC
  0
SECTION
  2
TABLES
  0
TABLE
  2
DIMSTYLE
 70
0
  0
ENDTAB
  0
TABLE
  2
LTYPE
 70
9
  0
LTYPE
  2
CONTINUOUS
 70
64
  3
Solid line
 72
65
 73
0
 40
0
  0
LTYPE
  2
BORDER
 70
64
  3
__ __ . __ __ .
 72
65
 73
6
 40
3.547738821057146
 49
1.013639663159184
 49
-0.5068198315795922
 49
1.013639663159184
 49
-0.5068198315795922
 49
0
 49
-0.5068198315795922
  0
LTYPE
  2
CENTER
 70
64
  3
____ _ ____ _
 72
65
 73
4
 40
4.054558652636738
 49
2.534099157897961
 49
-0.5068198315795922
 49
0.5068198315795922
 49
-0.5068198315795922
  0
LTYPE
  2
DASHDOT
 70
64
  3
__ . __ . __ .
 72
65
 73
4
 40
2.027279326318369
 49
1.013639663159184
 49
-0.5068198315795922
 49
0
 49
-0.5068198315795922
  0
LTYPE
  2
DASHED
 70
64
  3
__ __ __ __ __
 72
65
 73
2
 40
1.520459494738777
 49
1.013639663159184
 49
-0.5068198315795922
  0
LTYPE
  2
DIVIDE
 70
64
  3
__ . . __ . . 
 72
65
 73
6
 40
2.534099157897961
 49
1.013639663159184
 49
-0.5068198315795922
 49
0
 49
-0.5068198315795922
 49
0
 49
-0.5068198315795922
  0
LTYPE
  2
DOT
 70
64
  3
..............
 72
65
 73
4
 40
1.013639663159184
 49
0
 49
-0.5068198315795922
 49
0
 49
-0.5068198315795922
  0
LTYPE
  2
HIDDEN
 70
64
  3
_ _ _ _ _ _ _
 72
65
 73
2
 40
0.7602297473693883
 49
0.5068198315795922
 49
-0.2534099157897961
  0
LTYPE
  2
PHANTOM
 70
64
  3
_____ _ _ _____ _ _ 
 72
65
 73
6
 40
5.068198315795922
 49
2.534099157897961
 49
-0.5068198315795922
 49
0.5068198315795922
 49
-0.5068198315795922
 49
0.5068198315795922
 49
-0.5068198315795922
  0
ENDTAB
  0
TABLE
  2
LAYER
 70
2
  0
LAYER
  2
0
 70
0
 62
7
  6
CONTINUOUS
  0
ENDTAB
  0
TABLE
  2
STYLE
 70
4
  0
STYLE
  2
STANDARD
 70
0
 40
0
 41
1
 50
0
 71
0
 42
3.5
  3
txt
  4

  0
STYLE
  2
SIMPLEX
 70
0
 40
0
 41
1
 50
0
 71
0
 42
3.5
  3
simplex
  4

  0
STYLE
  2
COMPLEX
 70
0
 40
0
 41
1
 50
0
 71
0
 42
3.5
  3
complex
  4

  0
STYLE
  2
ITALIC
 70
0
 40
0
 41
1
 50
0
 71
0
 42
3.5
  3
italic
  4

  0
ENDTAB
  0
TABLE
  2
VIEW
 70
0
  0
ENDTAB
  0
ENDSEC
  0
SECTION
  2
BLOCKS
  0
BLOCK
  8
0
  2
SMKDSP_1_5-4-5_08__1
 70
0
 10
33.92440960002462
 20
-10.53049999999995
 30
0
  0
LINE
  8
0
 62
7
 10
35.0715624727267
 20
10.53049999999994
 30
0
 11
33.92440960002462
 21
10.53049999999994
 31
0
  0
LINE
  8
0
 62
7
 10
35.0715624727267
 20
-9.789500000000061
 30
0
 11
33.92440960002462
 21
-9.789500000000061
 31
0
  0
LINE
  8
0
 62
7
 10
36.45845824291283
 20
-10.53049999999995
 30
0
 11
38.36836809316369
 21
-10.53049999999995
 31
0
  0
LINE
  8
0
 62
7
 10
46.72569137090266
 20
-9.789500000000061
 30
0
 11
47.32440960007347
 21
-9.789500000000061
 31
0
  0
LINE
  8
0
 62
7
 10
46.12513238691797
 20
-10.18863339295296
 30
0
 11
46.28482374066632
 21
-9.956797909878745
 31
0
  0
LINE
  8
0
 62
7
 10
46.28482374066632
 20
-9.956797909878745
 30
0
 11
46.28482374066633
 21
-9.789500000000061
 31
0
  0
LINE
  8
0
 62
7
 10
46.72569137090266
 20
-9.789500000000061
 30
0
 11
46.72569137090268
 21
-9.956797909878741
 31
0
  0
LINE
  8
0
 62
7
 10
46.72569137090268
 20
-9.956797909878741
 30
0
 11
46.88538272465098
 21
-10.18863339295296
 31
0
  0
LINE
  8
0
 62
7
 10
47.32440960007347
 20
10.53049999999994
 30
0
 11
47.32440960007347
 21
-9.789500000000061
 31
0
  0
LINE
  8
0
 62
7
 10
46.28482374066631
 20
10.36320209012125
 30
0
 11
46.72569137090267
 21
10.36320209012124
 31
0
  0
LINE
  8
0
 62
7
 10
46.28482374066632
 20
10.53049999999994
 30
0
 11
46.72569137090269
 21
10.53049999999994
 31
0
  0
LINE
  8
0
 62
7
 10
46.12513238691797
 20
-10.53049999999995
 30
0
 11
42.11009733246072
 21
-10.53049999999995
 31
0
  0
LINE
  8
0
 62
7
 10
33.92440960002462
 20
-9.789500000000061
 30
0
 11
33.92440960002462
 21
10.53049999999994
 31
0
  0
LINE
  8
0
 62
7
 10
36.45845824291284
 20
-10.18863339295296
 30
0
 11
36.45845824291283
 21
-10.53049999999995
 31
0
  0
LINE
  8
0
 62
7
 10
38.36836809316368
 20
-10.18863339295297
 30
0
 11
36.45845824291284
 21
-10.18863339295296
 31
0
  0
LINE
  8
0
 62
7
 10
36.61814959666118
 20
-9.789500000000061
 30
0
 11
36.61814959666117
 21
-9.956797909878755
 31
0
  0
LINE
  8
0
 62
7
 10
36.45845824291284
 20
-10.18863339295296
 30
0
 11
36.61814959666117
 21
-9.956797909878755
 31
0
  0
LINE
  8
0
 62
7
 10
38.60635461600769
 20
-9.956797909878745
 30
0
 11
36.61814959666117
 21
-9.956797909878755
 31
0
  0
LINE
  8
0
 62
7
 10
46.88538272465098
 20
-10.18863339295296
 30
0
 11
46.88538272465099
 21
-10.53049999999994
 31
0
  0
LINE
  8
0
 62
7
 10
45.75289113607615
 20
-9.789500000000061
 30
0
 11
46.28482374066633
 21
-9.789500000000061
 31
0
  0
LINE
  8
0
 62
7
 10
46.12513238691797
 20
-10.53049999999995
 30
0
 11
46.12513238691797
 21
-10.18863339295296
 31
0
  0
LINE
  8
0
 62
7
 10
46.88538272465099
 20
-10.53049999999994
 30
0
 11
46.12513238691797
 21
-10.53049999999995
 31
0
  0
LINE
  8
0
 62
7
 10
42.26978868620906
 20
-9.95679790987875
 30
0
 11
46.28482374066632
 21
-9.956797909878745
 31
0
  0
LINE
  8
0
 62
7
 10
42.11009733246072
 20
-10.18863339295296
 30
0
 11
42.11009733246072
 21
-10.53049999999995
 31
0
  0
LINE
  8
0
 62
7
 10
39.50136202252308
 20
-10.18863339295296
 30
0
 11
39.50136202252308
 21
-10.53049999999994
 31
0
  0
LINE
  8
0
 62
7
 10
42.11009733246072
 20
-10.18863339295296
 30
0
 11
46.12513238691797
 21
-10.18863339295296
 31
0
  0
LINE
  8
0
 62
7
 10
38.36836809316368
 20
-10.18863339295297
 30
0
 11
38.60635461600769
 21
-9.956797909878745
 31
0
  0
LINE
  8
0
 62
7
 10
38.60635461600769
 20
-9.956797909878745
 30
0
 11
38.60635461600769
 21
-9.789500000000055
 31
0
  0
LINE
  8
0
 62
7
 10
42.26978868620906
 20
-9.789500000000061
 30
0
 11
39.26337549967911
 21
-9.789500000000061
 31
0
  0
LINE
  8
0
 62
7
 10
39.26337549967911
 20
-9.789500000000061
 30
0
 11
39.26337549967917
 21
-9.956797909878784
 31
0
  0
LINE
  8
0
 62
7
 10
39.26337549967917
 20
-9.956797909878784
 30
0
 11
39.50136202252308
 21
-10.18863339295296
 31
0
  0
LINE
  8
0
 62
7
 10
42.11009733246072
 20
-10.18863339295296
 30
0
 11
42.26978868620906
 21
-9.95679790987875
 31
0
  0
LINE
  8
0
 62
7
 10
45.75289113607615
 20
-9.789500000000061
 30
0
 11
44.75289113607611
 21
-9.789500000000061
 31
0
  0
LINE
  8
0
 62
7
 10
42.26978868620906
 20
-9.789500000000061
 30
0
 11
44.75289113607611
 21
-9.789500000000061
 31
0
  0
LINE
  8
0
 62
7
 10
42.26978868620906
 20
-9.95679790987875
 30
0
 11
42.26978868620906
 21
-9.789500000000061
 31
0
  0
LINE
  8
0
 62
7
 10
39.50136202252308
 20
-10.53049999999994
 30
0
 11
38.36836809316369
 21
-10.53049999999995
 31
0
  0
LINE
  8
0
 62
7
 10
38.36836809316369
 20
-10.53049999999995
 30
0
 11
38.36836809316368
 21
-10.18863339295297
 31
0
  0
LINE
  8
0
 62
7
 10
40.77440960007343
 20
-7.067449192431168
 30
0
 11
39.87440960007343
 21
-7.067449192431168
 31
0
  0
LINE
  8
0
 62
7
 10
39.87440960007343
 20
-7.249500000000044
 30
0
 11
39.87440960007343
 21
-7.067449192431168
 31
0
  0
LINE
  8
0
 62
7
 10
39.87440960007343
 20
-7.431550807568923
 30
0
 11
39.87440960007343
 21
-7.249500000000044
 31
0
  0
LINE
  8
0
 62
7
 10
40.77440960007344
 20
-7.249500000000044
 30
0
 11
40.77440960007343
 21
-7.431550807568923
 31
0
  0
LINE
  8
0
 62
7
 10
40.77440960007343
 20
-7.067449192431168
 30
0
 11
40.77440960007344
 21
-7.249500000000044
 31
0
  0
LINE
  8
0
 62
7
 10
39.87440960007343
 20
-7.431550807568923
 30
0
 11
40.77440960007343
 21
-7.431550807568923
 31
0
  0
LINE
  8
0
 62
7
 10
39.87440960007343
 20
-7.699500000000045
 30
0
 11
39.87440960007343
 21
-7.431550807568923
 31
0
  0
LINE
  8
0
 62
7
 10
40.77440960007344
 20
-7.699500000000045
 30
0
 11
39.87440960007343
 21
-7.699500000000045
 31
0
  0
LINE
  8
0
 62
7
 10
40.77440960007343
 20
-7.431550807568923
 30
0
 11
40.77440960007344
 21
-7.699500000000045
 31
0
  0
LINE
  8
0
 62
7
 10
39.87440960007343
 20
-6.799500000000045
 30
0
 11
40.77440960007343
 21
-6.799500000000046
 31
0
  0
LINE
  8
0
 62
7
 10
40.77440960007343
 20
-6.799500000000046
 30
0
 11
40.77440960007343
 21
-7.067449192431168
 31
0
  0
LINE
  8
0
 62
7
 10
39.87440960007343
 20
-7.067449192431168
 30
0
 11
39.87440960007343
 21
-6.799500000000045
 31
0
  0
LINE
  8
0
 62
7
 10
36.61814959666118
 20
-9.789500000000061
 30
0
 11
35.0715624727267
 21
-9.789500000000061
 31
0
  0
LINE
  8
0
 62
7
 10
38.60635461600769
 20
-9.789500000000055
 30
0
 11
36.61814959666118
 21
-9.789500000000061
 31
0
  0
LINE
  8
0
 62
7
 10
45.75289113607615
 20
-9.789500000000061
 30
0
 11
45.75289113607614
 21
10.53049999999994
 31
0
  0
LINE
  8
0
 62
7
 10
35.0715624727267
 20
-9.789500000000061
 30
0
 11
35.0715624727267
 21
10.53049999999994
 31
0
  0
LINE
  8
0
 62
7
 10
47.32440960007347
 20
10.53049999999994
 30
0
 11
46.72569137090269
 21
10.53049999999994
 31
0
  0
LINE
  8
0
 62
7
 10
46.28482374066632
 20
10.53049999999994
 30
0
 11
45.75289113607614
 21
10.53049999999994
 31
0
  0
LINE
  8
0
 62
7
 10
38.60635461600769
 20
10.53049999999994
 30
0
 11
38.60635461600768
 21
10.36320209012124
 31
0
  0
LINE
  8
0
 62
7
 10
46.88538272465098
 20
9.789500000000039
 30
0
 11
46.12513238691798
 21
9.789500000000039
 31
0
  0
LINE
  8
0
 62
7
 10
46.88538272465098
 20
10.13136660704704
 30
0
 11
46.72569137090267
 21
10.36320209012124
 31
0
  0
LINE
  8
0
 62
7
 10
46.12513238691797
 20
10.13136660704703
 30
0
 11
46.88538272465098
 21
10.13136660704704
 31
0
  0
LINE
  8
0
 62
7
 10
46.72569137090269
 20
10.53049999999994
 30
0
 11
46.72569137090267
 21
10.36320209012124
 31
0
  0
LINE
  8
0
 62
7
 10
46.12513238691797
 20
10.13136660704703
 30
0
 11
46.28482374066631
 21
10.36320209012125
 31
0
  0
LINE
  8
0
 62
7
 10
38.60635461600768
 20
10.36320209012124
 30
0
 11
38.36836809316368
 21
10.13136660704703
 31
0
  0
LINE
  8
0
 62
7
 10
39.50136202252308
 20
9.789500000000055
 30
0
 11
39.50136202252306
 21
10.13136660704704
 31
0
  0
LINE
  8
0
 62
7
 10
39.50136202252306
 20
10.13136660704704
 30
0
 11
38.36836809316368
 21
10.13136660704703
 31
0
  0
LINE
  8
0
 62
7
 10
39.87440960007343
 20
3.360499999999956
 30
0
 11
40.77440960007343
 21
3.360499999999954
 31
0
  0
LINE
  8
0
 62
7
 10
40.77440960007343
 20
3.092550807568832
 30
0
 11
39.87440960007343
 21
3.092550807568832
 31
0
  0
LINE
  8
0
 62
7
 10
40.77440960007343
 20
3.360499999999954
 30
0
 11
40.77440960007343
 21
3.092550807568832
 31
0
  0
LINE
  8
0
 62
7
 10
39.87440960007344
 20
2.910499999999952
 30
0
 11
39.87440960007343
 21
3.092550807568832
 31
0
  0
LINE
  8
0
 62
7
 10
39.87440960007343
 20
3.092550807568832
 30
0
 11
39.87440960007343
 21
3.360499999999956
 31
0
  0
LINE
  8
0
 62
7
 10
40.77440960007343
 20
3.092550807568832
 30
0
 11
40.77440960007344
 21
2.910499999999952
 31
0
  0
LINE
  8
0
 62
7
 10
39.87440960007343
 20
2.728449192431079
 30
0
 11
40.77440960007343
 21
2.728449192431079
 31
0
  0
LINE
  8
0
 62
7
 10
40.77440960007344
 20
2.910499999999952
 30
0
 11
40.77440960007343
 21
2.728449192431079
 31
0
  0
LINE
  8
0
 62
7
 10
39.87440960007343
 20
2.728449192431079
 30
0
 11
39.87440960007344
 21
2.910499999999952
 31
0
  0
LINE
  8
0
 62
7
 10
39.87440960007343
 20
2.460499999999956
 30
0
 11
39.87440960007343
 21
2.728449192431079
 31
0
  0
LINE
  8
0
 62
7
 10
40.77440960007343
 20
2.728449192431079
 30
0
 11
40.77440960007344
 21
2.460499999999955
 31
0
  0
LINE
  8
0
 62
7
 10
40.77440960007344
 20
2.460499999999955
 30
0
 11
39.87440960007343
 21
2.460499999999956
 31
0
  0
LINE
  8
0
 62
7
 10
40.77440960007344
 20
7.540499999999955
 30
0
 11
39.87440960007343
 21
7.540499999999955
 31
0
  0
LINE
  8
0
 62
7
 10
40.77440960007344
 20
7.990499999999953
 30
0
 11
40.77440960007343
 21
7.808449192431079
 31
0
  0
LINE
  8
0
 62
7
 10
39.87440960007343
 20
7.808449192431079
 30
0
 11
39.87440960007344
 21
7.990499999999953
 31
0
  0
LINE
  8
0
 62
7
 10
39.87440960007343
 20
7.808449192431079
 30
0
 11
40.77440960007343
 21
7.808449192431079
 31
0
  0
LINE
  8
0
 62
7
 10
39.87440960007343
 20
7.540499999999955
 30
0
 11
39.87440960007343
 21
7.808449192431079
 31
0
  0
LINE
  8
0
 62
7
 10
40.77440960007343
 20
7.808449192431079
 30
0
 11
40.77440960007344
 21
7.540499999999955
 31
0
  0
LINE
  8
0
 62
7
 10
39.87440960007343
 20
8.440499999999956
 30
0
 11
40.77440960007343
 21
8.440499999999956
 31
0
  0
LINE
  8
0
 62
7
 10
40.77440960007343
 20
8.172550807568832
 30
0
 11
39.87440960007343
 21
8.172550807568832
 31
0
  0
LINE
  8
0
 62
7
 10
40.77440960007343
 20
8.440499999999956
 30
0
 11
40.77440960007343
 21
8.172550807568832
 31
0
  0
LINE
  8
0
 62
7
 10
39.87440960007343
 20
8.172550807568832
 30
0
 11
39.87440960007343
 21
8.440499999999956
 31
0
  0
LINE
  8
0
 62
7
 10
40.77440960007343
 20
8.172550807568832
 30
0
 11
40.77440960007344
 21
7.990499999999953
 31
0
  0
LINE
  8
0
 62
7
 10
39.87440960007344
 20
7.990499999999953
 30
0
 11
39.87440960007343
 21
8.172550807568832
 31
0
  0
LINE
  8
0
 62
7
 10
38.36836809316369
 20
9.789500000000055
 30
0
 11
39.50136202252308
 21
9.789500000000055
 31
0
  0
LINE
  8
0
 62
7
 10
38.36836809316368
 20
10.13136660704703
 30
0
 11
38.36836809316369
 21
9.789500000000055
 31
0
  0
LINE
  8
0
 62
7
 10
39.50136202252306
 20
10.13136660704704
 30
0
 11
39.26337549967913
 21
10.36320209012126
 31
0
  0
LINE
  8
0
 62
7
 10
46.28482374066632
 20
10.53049999999994
 30
0
 11
46.28482374066631
 21
10.36320209012125
 31
0
  0
LINE
  8
0
 62
7
 10
46.12513238691797
 20
10.13136660704703
 30
0
 11
46.12513238691798
 21
9.789500000000039
 31
0
  0
LINE
  8
0
 62
7
 10
40.77440960007343
 20
-1.987449192431168
 30
0
 11
40.77440960007344
 21
-2.169500000000049
 31
0
  0
LINE
  8
0
 62
7
 10
40.77440960007343
 20
-2.351550807568922
 30
0
 11
40.77440960007344
 21
-2.619500000000045
 31
0
  0
LINE
  8
0
 62
7
 10
39.87440960007343
 20
-2.351550807568922
 30
0
 11
39.87440960007344
 21
-2.169500000000049
 31
0
  0
LINE
  8
0
 62
7
 10
39.87440960007343
 20
-2.619500000000045
 30
0
 11
39.87440960007343
 21
-2.351550807568922
 31
0
  0
LINE
  8
0
 62
7
 10
40.77440960007344
 20
-2.619500000000045
 30
0
 11
39.87440960007343
 21
-2.619500000000045
 31
0
  0
LINE
  8
0
 62
7
 10
40.77440960007343
 20
-1.987449192431168
 30
0
 11
39.87440960007343
 21
-1.987449192431168
 31
0
  0
LINE
  8
0
 62
7
 10
40.77440960007343
 20
-1.719500000000044
 30
0
 11
40.77440960007343
 21
-1.987449192431168
 31
0
  0
LINE
  8
0
 62
7
 10
39.87440960007343
 20
-1.719500000000045
 30
0
 11
40.77440960007343
 21
-1.719500000000044
 31
0
  0
LINE
  8
0
 62
7
 10
39.87440960007343
 20
-1.987449192431168
 30
0
 11
39.87440960007343
 21
-1.719500000000045
 31
0
  0
LINE
  8
0
 62
7
 10
39.87440960007343
 20
-2.351550807568922
 30
0
 11
40.77440960007343
 21
-2.351550807568922
 31
0
  0
LINE
  8
0
 62
7
 10
40.77440960007344
 20
-2.169500000000049
 30
0
 11
40.77440960007343
 21
-2.351550807568922
 31
0
  0
LINE
  8
0
 62
7
 10
39.87440960007344
 20
-2.169500000000049
 30
0
 11
39.87440960007343
 21
-1.987449192431168
 31
0
  0
LINE
  8
0
 62
7
 10
39.26337549967911
 20
10.53049999999994
 30
0
 11
44.75289113607611
 21
10.53049999999994
 31
0
  0
LINE
  8
0
 62
7
 10
44.75289113607611
 20
10.53049999999994
 30
0
 11
45.75289113607614
 21
10.53049999999994
 31
0
  0
LINE
  8
0
 62
7
 10
38.60635461600768
 20
10.36320209012124
 30
0
 11
39.26337549967913
 21
10.36320209012126
 31
0
  0
LINE
  8
0
 62
7
 10
39.26337549967913
 20
10.36320209012126
 30
0
 11
39.26337549967911
 21
10.53049999999994
 31
0
  0
LINE
  8
0
 62
7
 10
39.26337549967911
 20
10.53049999999994
 30
0
 11
38.60635461600769
 21
10.53049999999994
 31
0
  0
LINE
  8
0
 62
7
 10
38.60635461600769
 20
10.53049999999994
 30
0
 11
35.0715624727267
 21
10.53049999999994
 31
0
  0
LINE
  8
0
 62
7
 10
46.88538272465098
 20
10.13136660704704
 30
0
 11
46.88538272465098
 21
9.789500000000039
 31
0
  0
ARC
  8
0
 62
7
 10
40.32440960007342
 20
-7.249500000000044
 30
0
 40
0.6500000000000057
 50
180
 51
0
  0
ARC
  8
0
 62
7
 10
40.32440960007342
 20
-7.249500000000044
 30
0
 40
0.6499999999999986
 50
0
 51
180
  0
ARC
  8
0
 62
7
 10
40.32440960007342
 20
2.910499999999955
 30
0
 40
0.6499999999999986
 50
0
 51
180
  0
ARC
  8
0
 62
7
 10
40.32440960007342
 20
2.910499999999955
 30
0
 40
0.6500000000000057
 50
180
 51
0
  0
ARC
  8
0
 62
7
 10
40.32440960007342
 20
7.990499999999956
 30
0
 40
0.6500000000000057
 50
180
 51
0
  0
ARC
  8
0
 62
7
 10
40.32440960007342
 20
7.990499999999956
 30
0
 40
0.6499999999999986
 50
0
 51
180
  0
ARC
  8
0
 62
7
 10
40.32440960007342
 20
-2.169500000000044
 30
0
 40
0.6500000000000057
 50
180
 51
0
  0
ARC
  8
0
 62
7
 10
40.32440960007342
 20
-2.169500000000044
 30
0
 40
0.6499999999999986
 50
0
 51
180
  0
ENDBLK
  8
0
  0
BLOCK
  8
0
  2
SA_LINKS1
 70
0
 10
33.92440960002462
 20
-10.53049999999995
 30
0
  0
INSERT
  8
0
  2
SMKDSP_1_5-4-5_08__1
 10
33.92440960002462
 20
-10.53049999999995
 30
0
  0
ENDBLK
  8
0
  0
BLOCK
  8
0
  2
SMKDSP_1_5-4-5_08__2
 70
0
 10
-6.700000000024397
 20
-10.53049999999995
 30
0
  0
LINE
  8
0
 62
7
 10
-2.245938070144653
 20
-10.53049999999995
 30
0
 11
-1.48568773241165
 21
-10.53049999999994
 31
0
  0
LINE
  8
0
 62
7
 10
4.165951357136235
 20
-10.53049999999994
 30
0
 11
3.40570101940322
 21
-10.53049999999995
 31
0
  0
LINE
  8
0
 62
7
 10
-6.260973124601912
 20
-10.53049999999994
 30
0
 11
-2.245938070144653
 21
-10.53049999999995
 31
0
  0
LINE
  8
0
 62
7
 10
3.40570101940322
 20
-10.53049999999995
 30
0
 11
1.123047577525993
 21
-10.53049999999994
 31
0
  0
LINE
  8
0
 62
7
 10
2.49198995514411
 20
10.53049999999994
 30
0
 11
2.978535573559157
 21
10.53049999999994
 31
0
  0
LINE
  8
0
 62
7
 10
-6.260973124601912
 20
-10.18863339295296
 30
0
 11
-6.260973124601912
 21
-10.53049999999994
 31
0
  0
LINE
  8
0
 62
7
 10
-2.245938070144655
 20
-10.18863339295296
 30
0
 11
-2.245938070144653
 21
-10.53049999999995
 31
0
  0
LINE
  8
0
 62
7
 10
-2.245938070144655
 20
-10.18863339295296
 30
0
 11
-6.260973124601912
 21
-10.18863339295296
 31
0
  0
LINE
  8
0
 62
7
 10
1.361034100369903
 20
-9.956797909878784
 30
0
 11
1.123047577525993
 21
-10.18863339295296
 31
0
  0
LINE
  8
0
 62
7
 10
-1.48568773241165
 20
-10.18863339295296
 30
0
 11
-1.645379086159984
 21
-9.956797909878743
 31
0
  0
LINE
  8
0
 62
7
 10
1.123047577525993
 20
-10.18863339295296
 30
0
 11
3.40570101940322
 21
-10.18863339295296
 31
0
  0
LINE
  8
0
 62
7
 10
-2.086246716396346
 20
-9.956797909878746
 30
0
 11
-2.245938070144655
 21
-10.18863339295296
 31
0
  0
LINE
  8
0
 62
7
 10
-6.101281770853606
 20
-9.956797909878741
 30
0
 11
-6.260973124601912
 21
-10.18863339295296
 31
0
  0
LINE
  8
0
 62
7
 10
1.361034100369963
 20
-9.789500000000059
 30
0
 11
1.361034100369903
 21
-9.956797909878784
 31
0
  0
LINE
  8
0
 62
7
 10
4.006260003387888
 20
-9.789500000000059
 30
0
 11
4.006260003387899
 21
-9.956797909878752
 31
0
  0
LINE
  8
0
 62
7
 10
3.565392373151517
 20
-9.956797909878752
 30
0
 11
3.565392373151545
 21
-9.789500000000059
 31
0
  0
LINE
  8
0
 62
7
 10
-6.101281770853606
 20
-9.956797909878741
 30
0
 11
-2.086246716396346
 21
-9.956797909878746
 31
0
  0
LINE
  8
0
 62
7
 10
3.565392373151517
 20
-9.956797909878752
 30
0
 11
1.361034100369903
 21
-9.956797909878784
 31
0
  0
LINE
  8
0
 62
7
 10
-6.700000000024389
 20
10.53049999999994
 30
0
 11
-6.700000000024397
 21
-9.789500000000059
 31
0
  0
LINE
  8
0
 62
7
 10
-6.10128177085359
 20
-9.789500000000059
 30
0
 11
-6.101281770853606
 21
-9.956797909878741
 31
0
  0
LINE
  8
0
 62
7
 10
-6.011708276403141
 20
-5.433807806183511
 30
0
 11
-5.008943770342292
 21
-5.849500000000061
 31
0
  0
LINE
  8
0
 62
7
 10
-2.598928480114473
 20
1.094807806183429
 30
0
 11
-6.011708276403148
 21
1.094807806183415
 31
0
  0
LINE
  8
0
 62
7
 10
-2.598928480114473
 20
-3.985192193816571
 30
0
 11
-6.011708276403148
 21
-3.985192193816584
 31
0
  0
LINE
  8
0
 62
7
 10
-6.011708276403148
 20
-3.985192193816584
 30
0
 11
-6.011708276403141
 21
-0.3538078061835086
 31
0
  0
LINE
  8
0
 62
7
 10
-6.011708276403148
 20
1.094807806183415
 30
0
 11
-6.011708276403141
 21
4.726192193816489
 31
0
  0
LINE
  8
0
 62
7
 10
-3.546323857647114
 20
-3.569500000000039
 30
0
 11
-2.598928480114473
 21
-3.737179192247461
 31
0
  0
LINE
  8
0
 62
7
 10
3.085207500880116
 20
-1.949352335980775
 30
0
 11
4.544953051250966
 21
-3.731372609931102
 31
0
  0
LINE
  8
0
 62
7
 10
-3.546323857647114
 20
-3.569500000000039
 30
0
 11
-5.008943770342362
 21
-3.569500000000049
 31
0
  0
LINE
  8
0
 62
7
 10
-3.546323857647145
 20
-0.7695000000000598
 30
0
 11
-3.546323857647114
 21
-3.569500000000039
 31
0
  0
LINE
  8
0
 62
7
 10
4.95041262698868
 20
-3.236397863100513
 30
0
 11
3.281209969916216
 21
-1.198677675853353
 31
0
  0
LINE
  8
0
 62
7
 10
4.376836190637635
 20
-3.236397863100516
 30
0
 11
4.95041262698868
 21
-3.236397863100513
 31
0
  0
LINE
  8
0
 62
7
 10
-2.598928480114473
 20
-0.3538078061835233
 30
0
 11
-2.598928480114473
 21
-3.985192193816571
 31
0
  0
LINE
  8
0
 62
7
 10
-6.011708276403141
 20
4.726192193816489
 30
0
 11
-2.598928480114473
 21
4.726192193816475
 31
0
  0
LINE
  8
0
 62
7
 10
-2.598928480114473
 20
4.726192193816475
 30
0
 11
-2.598928480114473
 21
1.094807806183429
 31
0
  0
LINE
  8
0
 62
7
 10
-6.011708276403141
 20
-0.3538078061835086
 30
0
 11
-2.598928480114473
 21
-0.3538078061835233
 31
0
  0
LINE
  8
0
 62
7
 10
4.376836190637635
 20
-3.236397863100516
 30
0
 11
3.120501535424611
 21
-1.702696441036076
 31
0
  0
LINE
  8
0
 62
7
 10
4.376836190637636
 20
1.843602136899483
 30
0
 11
3.120501535424613
 21
3.377303558963923
 31
0
  0
LINE
  8
0
 62
7
 10
4.950412626988681
 20
1.843602136899487
 30
0
 11
3.281209969916217
 21
3.881322324146646
 31
0
  0
LINE
  8
0
 62
7
 10
3.085207500880121
 20
-7.029352335980781
 30
0
 11
4.544953051250967
 21
-8.811372609931102
 31
0
  0
LINE
  8
0
 62
7
 10
4.376836190637636
 20
-8.316397863100516
 30
0
 11
4.950412626988681
 21
-8.316397863100512
 31
0
  0
LINE
  8
0
 62
7
 10
4.950412626988681
 20
-8.316397863100512
 30
0
 11
3.281209969916217
 21
-6.278677675853354
 31
0
  0
LINE
  8
0
 62
7
 10
6.700000000024367
 20
-9.789500000000057
 30
0
 11
6.700000000024365
 21
10.53049999999994
 31
0
  0
LINE
  8
0
 62
7
 10
3.565392373151545
 20
-9.789500000000059
 30
0
 11
2.978535573559153
 21
-9.789500000000059
 31
0
  0
LINE
  8
0
 62
7
 10
4.006260003387888
 20
-9.789500000000059
 30
0
 11
3.565392373151545
 21
-9.789500000000059
 31
0
  0
LINE
  8
0
 62
7
 10
6.700000000024367
 20
-9.789500000000057
 30
0
 11
4.006260003387888
 21
-9.789500000000059
 31
0
  0
LINE
  8
0
 62
7
 10
-2.086246716396325
 20
-9.789500000000059
 30
0
 11
-2.086246716396346
 21
-9.956797909878746
 31
0
  0
LINE
  8
0
 62
7
 10
-1.645379086159984
 20
-9.956797909878743
 30
0
 11
-1.645379086159993
 21
-9.789500000000059
 31
0
  0
LINE
  8
0
 62
7
 10
6.700000000024365
 20
10.53049999999994
 30
0
 11
2.978535573559157
 21
10.53049999999994
 31
0
  0
LINE
  8
0
 62
7
 10
2.978535573559153
 20
-9.789500000000059
 30
0
 11
2.978535573559157
 21
10.53049999999994
 31
0
  0
LINE
  8
0
 62
7
 10
-2.05403086558099
 20
10.53049999999994
 30
0
 11
-1.601726848497662
 21
10.53049999999994
 31
0
  0
LINE
  8
0
 62
7
 10
2.491989955144109
 20
-9.789500000000059
 30
0
 11
2.49198995514411
 21
10.53049999999994
 31
0
  0
LINE
  8
0
 62
7
 10
-1.601726848497663
 20
-9.789500000000059
 30
0
 11
-1.601726848497662
 21
10.53049999999994
 31
0
  0
LINE
  8
0
 62
7
 10
2.49198995514411
 20
10.53049999999994
 30
0
 11
-1.601726848497662
 21
10.53049999999994
 31
0
  0
LINE
  8
0
 62
7
 10
-0.3500000000244525
 20
2.910499999999951
 30
0
 11
0.9499999999755475
 21
2.910499999999951
 31
0
  0
LINE
  8
0
 62
7
 10
-0.3500000000244531
 20
-7.249500000000049
 30
0
 11
0.949999999975547
 21
-7.249500000000046
 31
0
  0
LINE
  8
0
 62
7
 10
-0.3500000000244522
 20
7.99049999999995
 30
0
 11
0.9499999999755478
 21
7.99049999999995
 31
0
  0
LINE
  8
0
 62
7
 10
-0.3500000000244528
 20
-2.169500000000051
 30
0
 11
0.9499999999755473
 21
-2.169500000000051
 31
0
  0
LINE
  8
0
 62
7
 10
-2.086246716396325
 20
-9.789500000000059
 30
0
 11
-2.054030865580992
 21
-9.789500000000059
 31
0
  0
LINE
  8
0
 62
7
 10
-6.700000000024397
 20
-9.789500000000059
 30
0
 11
-6.10128177085359
 21
-9.789500000000059
 31
0
  0
LINE
  8
0
 62
7
 10
-6.10128177085359
 20
-9.789500000000059
 30
0
 11
-2.086246716396325
 21
-9.789500000000059
 31
0
  0
LINE
  8
0
 62
7
 10
-1.645379086159993
 20
-9.789500000000059
 30
0
 11
-1.601726848497663
 21
-9.789500000000059
 31
0
  0
LINE
  8
0
 62
7
 10
-2.054030865580992
 20
-9.789500000000059
 30
0
 11
-1.645379086159993
 21
-9.789500000000059
 31
0
  0
LINE
  8
0
 62
7
 10
-2.05403086558099
 20
10.53049999999994
 30
0
 11
-6.700000000024389
 21
10.53049999999994
 31
0
  0
LINE
  8
0
 62
7
 10
-6.011708276403141
 20
-9.065192193816584
 30
0
 11
-5.008943770342362
 21
-8.649500000000051
 31
0
  0
LINE
  8
0
 62
7
 10
-5.008943770342292
 20
-0.7695000000000596
 30
0
 11
-3.546323857647145
 21
-0.7695000000000598
 31
0
  0
LINE
  8
0
 62
7
 10
-2.598928480114473
 20
-0.6018208077526328
 30
0
 11
-3.546323857647145
 21
-0.7695000000000598
 31
0
  0
LINE
  8
0
 62
7
 10
-6.011708276403148
 20
-3.985192193816584
 30
0
 11
-5.008943770342362
 21
-3.569500000000049
 31
0
  0
LINE
  8
0
 62
7
 10
-2.598928480114474
 20
-9.06519219381657
 30
0
 11
-6.011708276403141
 21
-9.065192193816584
 31
0
  0
LINE
  8
0
 62
7
 10
-6.011708276403141
 20
-5.433807806183511
 30
0
 11
-2.598928480114473
 21
-5.433807806183525
 31
0
  0
LINE
  8
0
 62
7
 10
-6.011708276403141
 20
-9.065192193816584
 30
0
 11
-6.011708276403141
 21
-5.433807806183511
 31
0
  0
LINE
  8
0
 62
7
 10
-3.546323857647115
 20
-8.649500000000037
 30
0
 11
-5.008943770342362
 21
-8.649500000000051
 31
0
  0
LINE
  8
0
 62
7
 10
-3.546323857647177
 20
-5.849500000000054
 30
0
 11
-3.546323857647115
 21
-8.649500000000037
 31
0
  0
LINE
  8
0
 62
7
 10
-3.546323857647115
 20
-8.649500000000037
 30
0
 11
-2.598928480114473
 21
-8.817179192247458
 31
0
  0
LINE
  8
0
 62
7
 10
-5.008943770342292
 20
-5.849500000000061
 30
0
 11
-5.008943770342362
 21
-8.649500000000051
 31
0
  0
LINE
  8
0
 62
7
 10
-5.008943770342292
 20
-5.849500000000061
 30
0
 11
-3.546323857647177
 21
-5.849500000000054
 31
0
  0
LINE
  8
0
 62
7
 10
-2.598928480114473
 20
-5.433807806183525
 30
0
 11
-2.598928480114474
 21
-9.06519219381657
 31
0
  0
LINE
  8
0
 62
7
 10
-2.598928480114473
 20
-5.681820807752631
 30
0
 11
-3.546323857647177
 21
-5.849500000000054
 31
0
  0
LINE
  8
0
 62
7
 10
-2.598928480114473
 20
4.478179192247368
 30
0
 11
-3.546323857647166
 21
4.310499999999945
 31
0
  0
LINE
  8
0
 62
7
 10
-3.546323857647166
 20
4.310499999999945
 30
0
 11
-3.546323857647114
 21
1.51049999999996
 31
0
  0
LINE
  8
0
 62
7
 10
-5.008943770342292
 20
-0.7695000000000596
 30
0
 11
-5.008943770342362
 21
-3.569500000000049
 31
0
  0
LINE
  8
0
 62
7
 10
-6.011708276403141
 20
-0.3538078061835086
 30
0
 11
-5.008943770342292
 21
-0.7695000000000596
 31
0
  0
LINE
  8
0
 62
7
 10
-5.008943770342292
 20
4.310499999999939
 30
0
 11
-3.546323857647166
 21
4.310499999999945
 31
0
  0
LINE
  8
0
 62
7
 10
-3.546323857647114
 20
1.51049999999996
 30
0
 11
-5.008943770342363
 21
1.510499999999953
 31
0
  0
LINE
  8
0
 62
7
 10
-6.011708276403148
 20
1.094807806183415
 30
0
 11
-5.008943770342363
 21
1.510499999999953
 31
0
  0
LINE
  8
0
 62
7
 10
-5.008943770342292
 20
4.310499999999939
 30
0
 11
-5.008943770342363
 21
1.510499999999953
 31
0
  0
LINE
  8
0
 62
7
 10
-3.546323857647114
 20
1.51049999999996
 30
0
 11
-2.598928480114473
 21
1.342820807752539
 31
0
  0
LINE
  8
0
 62
7
 10
-2.598928480114472
 20
9.558179192247367
 30
0
 11
-3.546323857647145
 21
9.390499999999937
 31
0
  0
LINE
  8
0
 62
7
 10
-6.01170827640314
 20
9.806192193816489
 30
0
 11
-5.008943770342334
 21
9.390499999999923
 31
0
  0
LINE
  8
0
 62
7
 10
-6.01170827640314
 20
9.806192193816489
 30
0
 11
-2.598928480114473
 21
9.806192193816473
 31
0
  0
LINE
  8
0
 62
7
 10
-6.01170827640314
 20
6.174807806183415
 30
0
 11
-6.01170827640314
 21
9.806192193816489
 31
0
  0
LINE
  8
0
 62
7
 10
-6.01170827640314
 20
6.174807806183415
 30
0
 11
-5.008943770342363
 21
6.590499999999951
 31
0
  0
LINE
  8
0
 62
7
 10
-5.008943770342334
 20
9.390499999999923
 30
0
 11
-5.008943770342363
 21
6.590499999999951
 31
0
  0
LINE
  8
0
 62
7
 10
-3.546323857647114
 20
6.59049999999996
 30
0
 11
-5.008943770342363
 21
6.590499999999951
 31
0
  0
LINE
  8
0
 62
7
 10
-2.598928480114473
 20
9.806192193816473
 30
0
 11
-2.598928480114473
 21
6.174807806183429
 31
0
  0
LINE
  8
0
 62
7
 10
-3.546323857647145
 20
9.390499999999937
 30
0
 11
-3.546323857647114
 21
6.59049999999996
 31
0
  0
LINE
  8
0
 62
7
 10
-5.008943770342334
 20
9.390499999999923
 30
0
 11
-3.546323857647145
 21
9.390499999999937
 31
0
  0
LINE
  8
0
 62
7
 10
-3.546323857647114
 20
6.59049999999996
 30
0
 11
-2.598928480114473
 21
6.42282080775254
 31
0
  0
LINE
  8
0
 62
7
 10
-2.598928480114473
 20
6.174807806183429
 30
0
 11
-6.01170827640314
 21
6.174807806183415
 31
0
  0
LINE
  8
0
 62
7
 10
-6.011708276403141
 20
4.726192193816489
 30
0
 11
-5.008943770342292
 21
4.310499999999939
 31
0
  0
LINE
  8
0
 62
7
 10
4.95041262698868
 20
6.923602136899485
 30
0
 11
3.281209969916217
 21
8.961322324146645
 31
0
  0
LINE
  8
0
 62
7
 10
3.120501535424614
 20
8.457303558963924
 30
0
 11
4.376836190637637
 21
6.923602136899484
 31
0
  0
LINE
  8
0
 62
7
 10
3.085207500880121
 20
3.130647664019221
 30
0
 11
4.544953051250966
 21
1.348627390068897
 31
0
  0
LINE
  8
0
 62
7
 10
4.376836190637636
 20
1.843602136899483
 30
0
 11
4.950412626988681
 21
1.843602136899487
 31
0
  0
LINE
  8
0
 62
7
 10
3.085207500880121
 20
8.210647664019222
 30
0
 11
4.544953051250967
 21
6.428627390068897
 31
0
  0
LINE
  8
0
 62
7
 10
4.376836190637637
 20
6.923602136899484
 30
0
 11
4.95041262698868
 21
6.923602136899485
 31
0
  0
LINE
  8
0
 62
7
 10
4.376836190637636
 20
-8.316397863100516
 30
0
 11
3.120501535424611
 21
-6.782696441036075
 31
0
  0
LINE
  8
0
 62
7
 10
2.491989955144109
 20
-9.789500000000059
 30
0
 11
2.978535573559153
 21
-9.789500000000059
 31
0
  0
LINE
  8
0
 62
7
 10
1.361034100369963
 20
-9.789500000000059
 30
0
 11
-1.601726848497663
 21
-9.789500000000059
 31
0
  0
LINE
  8
0
 62
7
 10
2.491989955144109
 20
-9.789500000000059
 30
0
 11
1.361034100369963
 21
-9.789500000000059
 31
0
  0
LINE
  8
0
 62
7
 10
-2.05403086558099
 20
10.53049999999994
 30
0
 11
-2.054030865580992
 21
-9.789500000000059
 31
0
  0
LINE
  8
0
 62
7
 10
3.565392373151517
 20
-9.956797909878752
 30
0
 11
3.40570101940322
 21
-10.18863339295296
 31
0
  0
LINE
  8
0
 62
7
 10
4.165951357136235
 20
-10.18863339295294
 30
0
 11
4.006260003387899
 21
-9.956797909878752
 31
0
  0
LINE
  8
0
 62
7
 10
1.123047577525993
 20
-10.18863339295296
 30
0
 11
1.123047577525993
 21
-10.53049999999994
 31
0
  0
LINE
  8
0
 62
7
 10
3.40570101940322
 20
-10.18863339295296
 30
0
 11
3.40570101940322
 21
-10.53049999999995
 31
0
  0
LINE
  8
0
 62
7
 10
4.165951357136235
 20
-10.18863339295294
 30
0
 11
4.165951357136235
 21
-10.53049999999994
 31
0
  0
LINE
  8
0
 62
7
 10
-1.48568773241165
 20
-10.18863339295296
 30
0
 11
-1.48568773241165
 21
-10.53049999999994
 31
0
  0
ARC
  8
0
 62
7
 10
0.2999999999755478
 20
7.990499999999956
 30
0
 40
0.65
 50
180
 51
0
  0
ARC
  8
0
 62
7
 10
0.2999999999755478
 20
7.990499999999956
 30
0
 40
0.65
 50
0
 51
180
  0
ARC
  8
0
 62
7
 10
0.2999999999755475
 20
2.910499999999955
 30
0
 40
0.65
 50
0
 51
180
  0
ARC
  8
0
 62
7
 10
0.2999999999755469
 20
-7.249500000000042
 30
0
 40
0.6500000000000001
 50
0
 51
180
  0
ARC
  8
0
 62
7
 10
0.2999999999755469
 20
-7.249500000000042
 30
0
 40
0.6499999999999999
 50
180
 51
0
  0
ARC
  8
0
 62
7
 10
-2.275388923422625
 20
-2.169500000000049
 30
0
 40
0.5000000000000001
 50
130.3217398273549
 51
229.6782601726451
  0
ARC
  8
0
 62
7
 10
-2.275388923422625
 20
-7.249500000000049
 30
0
 40
0.5000000000000011
 50
130.321739827355
 51
229.6782601726451
  0
ARC
  8
0
 62
7
 10
-2.275388923422625
 20
2.910499999999955
 30
0
 40
0.5000000000000009
 50
130.3217398273549
 51
229.6782601726451
  0
ARC
  8
0
 62
7
 10
-2.275388923422625
 20
7.990499999999952
 30
0
 40
0.5000000000000004
 50
130.3217398273549
 51
229.6782601726451
  0
ARC
  8
0
 62
7
 10
0.2999999999755475
 20
2.910499999999955
 30
0
 40
0.6499999999999999
 50
180
 51
0
  0
ARC
  8
0
 62
7
 10
0.2999999999755473
 20
-2.169500000000044
 30
0
 40
0.6500000000000001
 50
180
 51
0
  0
ARC
  8
0
 62
7
 10
0.2999999999755473
 20
-2.169500000000044
 30
0
 40
0.6499999999999999
 50
0
 51
180
  0
POLYLINE
  8
0
 62
7
 66
1
  0
VERTEX
  8
0
 10
4.713556292623561
 20
-9.249500000000072
 30
0
 42
0.0530447305707126
  0
VERTEX
  8
0
 10
4.998397627566185
 20
-9.219039533074021
 30
0
 42
0.05162440903646248
  0
VERTEX
  8
0
 10
5.27355262792814
 20
-9.129034801163273
 30
0
 42
0.04944214807690044
  0
VERTEX
  8
0
 10
5.532708336912561
 20
-8.981550807568947
 30
0
 42
0.05507379670441763
  0
VERTEX
  8
0
 10
5.809967786353537
 20
-8.735600057775645
 30
0
 42
0.05067751117097567
  0
VERTEX
  8
0
 10
6.038698089504655
 20
-8.42553173581631
 30
0
 42
0.04720036174022155
  0
VERTEX
  8
0
 10
6.210411725039285
 20
-8.062452936011207
 30
0
 42
0.04435888244361024
  0
VERTEX
  8
0
 10
6.316011050278428
 20
-7.665600110810152
 30
0
 42
0.04321584174039145
  0
VERTEX
  8
0
 10
6.351860381201559
 20
-7.249500000000054
 30
0
  0
SEQEND
  8
0
  0
POLYLINE
  8
0
 62
7
 66
1
  0
VERTEX
  8
0
 10
4.713556292623561
 20
-4.16950000000007
 30
0
 42
0.06350802949868269
  0
VERTEX
  8
0
 10
5.054405549022529
 20
-4.12573604778501
 30
0
 42
0.06128186641247285
  0
VERTEX
  8
0
 10
5.379488352067836
 20
-3.996823074942709
 30
0
 42
0.07166595939091297
  0
VERTEX
  8
0
 10
5.711253577981192
 20
-3.755868986654817
 30
0
 42
0.06472963716644194
  0
VERTEX
  8
0
 10
6.013033691038466
 20
-3.38746349324094
 30
0
 42
0.05905618099983774
  0
VERTEX
  8
0
 10
6.227326186237494
 20
-2.934354095598418
 30
0
 42
0.05494441621945294
  0
VERTEX
  8
0
 10
6.337785373973396
 20
-2.43110283270132
 30
0
 42
0.05367365563437963
  0
VERTEX
  8
0
 10
6.337785373973397
 20
-1.907897167298801
 30
0
 42
0.05434628220252306
  0
VERTEX
  8
0
 10
6.227326186237496
 20
-1.404645904401703
 30
0
 42
0.05787086502519401
  0
VERTEX
  8
0
 10
6.013033691038467
 20
-0.9515365067591807
 30
0
 42
0.0630949544569752
  0
VERTEX
  8
0
 10
5.711253577981195
 20
-0.5831310133453025
 30
0
 42
0.05614918171044726
  0
VERTEX
  8
0
 10
5.379488352067838
 20
-0.3421769250574096
 30
0
 42
0.06033107431550082
  0
VERTEX
  8
0
 10
5.054405549022534
 20
-0.2132639522151089
 30
0
 42
0.06343070711771806
  0
VERTEX
  8
0
 10
4.713556292623565
 20
-0.1695000000000464
 30
0
  0
SEQEND
  8
0
  0
POLYLINE
  8
0
 62
7
 66
1
  0
VERTEX
  8
0
 10
3.075252204045563
 20
-2.16950000000005
 30
0
 42
0.04288548151062938
  0
VERTEX
  8
0
 10
3.111101534968696
 20
-2.585600110810152
 30
0
 42
0.04395830712289199
  0
VERTEX
  8
0
 10
3.216700860207838
 20
-2.982452936011208
 30
0
 42
0.04643935986292981
  0
VERTEX
  8
0
 10
3.388414495742468
 20
-3.345531735816312
 30
0
 42
0.04960861579206716
  0
VERTEX
  8
0
 10
3.617144798893586
 20
-3.655600057775644
 30
0
 42
0.05415978877949196
  0
VERTEX
  8
0
 10
3.894404248334562
 20
-3.901550807568945
 30
0
 42
0.0485201741301816
  0
VERTEX
  8
0
 10
4.153559957318983
 20
-4.049034801163272
 30
0
 42
0.05109587547002673
  0
VERTEX
  8
0
 10
4.428714957680937
 20
-4.139039533074018
 30
0
 42
0.05304948407090866
  0
VERTEX
  8
0
 10
4.713556292623561
 20
-4.16950000000007
 30
0
  0
SEQEND
  8
0
  0
POLYLINE
  8
0
 62
7
 66
1
  0
VERTEX
  8
0
 10
4.544953051250966
 20
-3.731372609931102
 30
0
 42
-0.02325896944801769
  0
VERTEX
  8
0
 10
4.430395917501241
 20
-3.818225746964482
 30
0
 42
-0.02400082758610053
  0
VERTEX
  8
0
 10
4.310317538256903
 20
-3.892461952335744
 30
0
 42
-0.02474153802847454
  0
VERTEX
  8
0
 10
4.185414612026415
 20
-3.953695964409305
 30
0
 42
-0.02545005273039767
  0
VERTEX
  8
0
 10
4.056383837318248
 20
-4.001542521549576
 30
0
  0
SEQEND
  8
0
  0
POLYLINE
  8
0
 62
7
 66
1
  0
VERTEX
  8
0
 10
4.713556292623561
 20
0.9104999999999279
 30
0
 42
0.06350802949868266
  0
VERTEX
  8
0
 10
5.054405549022529
 20
0.9542639522149896
 30
0
 42
0.06128186641247944
  0
VERTEX
  8
0
 10
5.379488352067836
 20
1.08317692505729
 30
0
 42
0.07166595939091153
  0
VERTEX
  8
0
 10
5.711253577981192
 20
1.324131013345181
 30
0
 42
0.06472963716644176
  0
VERTEX
  8
0
 10
6.013033691038466
 20
1.692536506759059
 30
0
 42
0.05905618099983754
  0
VERTEX
  8
0
 10
6.227326186237494
 20
2.14564590440158
 30
0
 42
0.05494441621945248
  0
VERTEX
  8
0
 10
6.337785373973396
 20
2.648897167298678
 30
0
 42
0.05367365563437953
  0
VERTEX
  8
0
 10
6.337785373973397
 20
3.172102832701198
 30
0
 42
0.05434628220252271
  0
VERTEX
  8
0
 10
6.227326186237496
 20
3.675354095598296
 30
0
 42
0.05787086502519398
  0
VERTEX
  8
0
 10
6.013033691038467
 20
4.128463493240818
 30
0
 42
0.06309495445697355
  0
VERTEX
  8
0
 10
5.711253577981195
 20
4.496868986654696
 30
0
 42
0.0561491817104498
  0
VERTEX
  8
0
 10
5.379488352067838
 20
4.737823074942588
 30
0
 42
0.06033107431551082
  0
VERTEX
  8
0
 10
5.054405549022534
 20
4.866736047784889
 30
0
 42
0.06343070711771868
  0
VERTEX
  8
0
 10
4.713556292623565
 20
4.910499999999952
 30
0
  0
SEQEND
  8
0
  0
POLYLINE
  8
0
 62
7
 66
1
  0
VERTEX
  8
0
 10
4.713556292623565
 20
-0.1695000000000464
 30
0
 42
0.05304473057071271
  0
VERTEX
  8
0
 10
4.428714957680941
 20
-0.1999604669260976
 30
0
 42
0.05162440903645316
  0
VERTEX
  8
0
 10
4.153559957318987
 20
-0.2899651988368431
 30
0
 42
0.04944214807688776
  0
VERTEX
  8
0
 10
3.894404248334566
 20
-0.437449192431168
 30
0
 42
0.05507379670441614
  0
VERTEX
  8
0
 10
3.617144798893591
 20
-0.6833999422244668
 30
0
 42
0.05067751117097374
  0
VERTEX
  8
0
 10
3.388414495742472
 20
-0.9934682641837982
 30
0
 42
0.04720036174021722
  0
VERTEX
  8
0
 10
3.21670086020784
 20
-1.356547063988901
 30
0
 42
0.04435888244360734
  0
VERTEX
  8
0
 10
3.111101534968698
 20
-1.753399889189954
 30
0
 42
0.04321584174039327
  0
VERTEX
  8
0
 10
3.075252204045563
 20
-2.16950000000005
 30
0
  0
SEQEND
  8
0
  0
POLYLINE
  8
0
 62
7
 66
1
  0
VERTEX
  8
0
 10
-2.598928480114473
 20
7.683906470536712
 30
0
 42
-0.04295515254490043
  0
VERTEX
  8
0
 10
-2.640372627730878
 20
7.763621122087208
 30
0
 42
-0.04044189386421754
  0
VERTEX
  8
0
 10
-2.668661092828577
 20
7.850833354622579
 30
0
 42
-0.03917008460141743
  0
VERTEX
  8
0
 10
-2.683125559894235
 20
7.94316160573262
 30
0
 42
-0.03880731379985829
  0
VERTEX
  8
0
 10
-2.683125559894234
 20
8.037838394267283
 30
0
 42
-0.03881910280328309
  0
VERTEX
  8
0
 10
-2.668661092828577
 20
8.130166645377322
 30
0
 42
-0.0400398572674989
  0
VERTEX
  8
0
 10
-2.640372627730877
 20
8.217378877912694
 30
0
 42
-0.04252963233654982
  0
VERTEX
  8
0
 10
-2.598928480114473
 20
8.29709352946319
 30
0
  0
SEQEND
  8
0
  0
POLYLINE
  8
0
 62
7
 66
1
  0
VERTEX
  8
0
 10
3.075252204045563
 20
2.91049999999995
 30
0
 42
0.04288548151062928
  0
VERTEX
  8
0
 10
3.111101534968696
 20
2.494399889189848
 30
0
 42
0.04395830712289253
  0
VERTEX
  8
0
 10
3.216700860207838
 20
2.097547063988793
 30
0
 42
0.04643935986293068
  0
VERTEX
  8
0
 10
3.388414495742468
 20
1.734468264183688
 30
0
 42
0.0496086157920692
  0
VERTEX
  8
0
 10
3.617144798893586
 20
1.424399942224354
 30
0
 42
0.05415978877948909
  0
VERTEX
  8
0
 10
3.894404248334561
 20
1.178449192431053
 30
0
 42
0.04852017413018654
  0
VERTEX
  8
0
 10
4.153559957318982
 20
1.030965198836727
 30
0
 42
0.0510958754700291
  0
VERTEX
  8
0
 10
4.428714957680937
 20
0.9409604669259801
 30
0
 42
0.05304948407090714
  0
VERTEX
  8
0
 10
4.713556292623561
 20
0.9104999999999279
 30
0
  0
SEQEND
  8
0
  0
POLYLINE
  8
0
 62
7
 66
1
  0
VERTEX
  8
0
 10
4.544953051250966
 20
1.348627390068897
 30
0
 42
-0.0232589694480176
  0
VERTEX
  8
0
 10
4.430395917501241
 20
1.261774253035517
 30
0
 42
-0.02400082758609658
  0
VERTEX
  8
0
 10
4.310317538256903
 20
1.187538047664253
 30
0
 42
-0.02474153802847187
  0
VERTEX
  8
0
 10
4.185414612026415
 20
1.126304035590693
 30
0
 42
-0.02545005273039475
  0
VERTEX
  8
0
 10
4.056383837318248
 20
1.078457478450423
 30
0
  0
SEQEND
  8
0
  0
POLYLINE
  8
0
 62
7
 66
1
  0
VERTEX
  8
0
 10
4.713556292623565
 20
4.910499999999952
 30
0
 42
0.05304473057071536
  0
VERTEX
  8
0
 10
4.428714957680942
 20
4.880039533073901
 30
0
 42
0.05162440903645008
  0
VERTEX
  8
0
 10
4.153559957318988
 20
4.790034801163156
 30
0
 42
0.0494421480768926
  0
VERTEX
  8
0
 10
3.894404248334567
 20
4.642550807568831
 30
0
 42
0.05507379670441061
  0
VERTEX
  8
0
 10
3.617144798893591
 20
4.396600057775533
 30
0
 42
0.05067751117097255
  0
VERTEX
  8
0
 10
3.388414495742473
 20
4.086531735816201
 30
0
 42
0.04720036174021779
  0
VERTEX
  8
0
 10
3.216700860207841
 20
3.723452936011099
 30
0
 42
0.04435888244360913
  0
VERTEX
  8
0
 10
3.111101534968699
 20
3.326600110810046
 30
0
 42
0.04321584174039338
  0
VERTEX
  8
0
 10
3.075252204045563
 20
2.91049999999995
 30
0
  0
SEQEND
  8
0
  0
POLYLINE
  8
0
 62
7
 66
1
  0
VERTEX
  8
0
 10
4.056383837318248
 20
-0.3374574784505404
 30
0
 42
-0.05564406942704676
  0
VERTEX
  8
0
 10
4.335646503752809
 20
-0.4608818123262559
 30
0
 42
-0.05219662945991897
  0
VERTEX
  8
0
 10
4.589942476127821
 20
-0.646595366510885
 30
0
 42
-0.06050229239345224
  0
VERTEX
  8
0
 10
4.83625088006685
 20
-0.9228275394015322
 30
0
 42
-0.05526298897646761
  0
VERTEX
  8
0
 10
5.045177099730828
 20
-1.295706619823895
 30
0
 42
-0.05159678523191196
  0
VERTEX
  8
0
 10
5.176029126568858
 20
-1.720001932678307
 30
0
 42
-0.04933507503082445
  0
VERTEX
  8
0
 10
5.220415607562749
 20
-2.168504027410886
 30
0
 42
-0.04927777676344111
  0
VERTEX
  8
0
 10
5.176102017288845
 20
-2.618634197379359
 30
0
 42
-0.05071534860951465
  0
VERTEX
  8
0
 10
5.045930122806297
 20
-3.041526239654985
 30
0
  0
VERTEX
  8
0
 10
4.95041262698868
 20
-3.236397863100513
 30
0
  0
SEQEND
  8
0
  0
POLYLINE
  8
0
 62
7
 66
1
  0
VERTEX
  8
0
 10
4.376836190637635
 20
-3.236397863100516
 30
0
 42
-0.01258845530283597
  0
VERTEX
  8
0
 10
4.327182165167192
 20
-3.320128875628445
 30
0
 42
-0.0128404790328929
  0
VERTEX
  8
0
 10
4.273855341241196
 20
-3.400423414479763
 30
0
  0
SEQEND
  8
0
  0
POLYLINE
  8
0
 62
7
 66
1
  0
VERTEX
  8
0
 10
6.351860381201559
 20
-7.249500000000054
 30
0
 42
0.0428854815106318
  0
VERTEX
  8
0
 10
6.316011050278424
 20
-6.833399889189957
 30
0
 42
0.04395830712289223
  0
VERTEX
  8
0
 10
6.210411725039283
 20
-6.436547063988904
 30
0
 42
0.04643935986293414
  0
VERTEX
  8
0
 10
6.038698089504651
 20
-6.073468264183802
 30
0
 42
0.04960861579207348
  0
VERTEX
  8
0
 10
5.809967786353534
 20
-5.76339994222447
 30
0
 42
0.05415978877949482
  0
VERTEX
  8
0
 10
5.53270833691256
 20
-5.517449192431171
 30
0
 42
0.04852017413018548
  0
VERTEX
  8
0
 10
5.27355262792814
 20
-5.369965198836845
 30
0
 42
0.05109587547002627
  0
VERTEX
  8
0
 10
4.998397627566185
 20
-5.2799604669261
 30
0
 42
0.05304948407090803
  0
VERTEX
  8
0
 10
4.713556292623561
 20
-5.249500000000047
 30
0
  0
SEQEND
  8
0
  0
POLYLINE
  8
0
 62
7
 66
1
  0
VERTEX
  8
0
 10
4.056383837318248
 20
-5.417457478450542
 30
0
 42
-0.05564406942704623
  0
VERTEX
  8
0
 10
4.335646503752808
 20
-5.540881812326258
 30
0
 42
-0.0521966294599237
  0
VERTEX
  8
0
 10
4.58994247612782
 20
-5.726595366510887
 30
0
 42
-0.06050229239344992
  0
VERTEX
  8
0
 10
4.836250880066849
 20
-6.002827539401534
 30
0
 42
-0.05526298897646746
  0
VERTEX
  8
0
 10
5.045177099730827
 20
-6.375706619823895
 30
0
 42
-0.05159678523191105
  0
VERTEX
  8
0
 10
5.176029126568857
 20
-6.800001932678308
 30
0
 42
-0.04933507503082621
  0
VERTEX
  8
0
 10
5.220415607562749
 20
-7.248504027410887
 30
0
 42
-0.04927777676344081
  0
VERTEX
  8
0
 10
5.176102017288845
 20
-7.698634197379359
 30
0
 42
-0.05071534860951668
  0
VERTEX
  8
0
 10
5.045930122806298
 20
-8.121526239654985
 30
0
  0
VERTEX
  8
0
 10
4.950412626988681
 20
-8.316397863100512
 30
0
  0
SEQEND
  8
0
  0
POLYLINE
  8
0
 62
7
 66
1
  0
VERTEX
  8
0
 10
4.376836190637636
 20
-8.316397863100516
 30
0
 42
-0.01258845530284508
  0
VERTEX
  8
0
 10
4.327182165167193
 20
-8.400128875628445
 30
0
 42
-0.01284047903288766
  0
VERTEX
  8
0
 10
4.273855341241197
 20
-8.480423414479764
 30
0
  0
SEQEND
  8
0
  0
POLYLINE
  8
0
 62
7
 66
1
  0
VERTEX
  8
0
 10
4.544953051250967
 20
-8.811372609931102
 30
0
 42
-0.02325896944802727
  0
VERTEX
  8
0
 10
4.430395917501242
 20
-8.898225746964481
 30
0
 42
-0.02400082758611156
  0
VERTEX
  8
0
 10
4.310317538256903
 20
-8.972461952335745
 30
0
 42
-0.02474153802847199
  0
VERTEX
  8
0
 10
4.185414612026416
 20
-9.033695964409306
 30
0
 42
-0.02545005273040105
  0
VERTEX
  8
0
 10
4.056383837318248
 20
-9.081542521549578
 30
0
  0
SEQEND
  8
0
  0
POLYLINE
  8
0
 62
7
 66
1
  0
VERTEX
  8
0
 10
4.713556292623561
 20
5.990499999999928
 30
0
 42
0.0635080294986801
  0
VERTEX
  8
0
 10
5.05440554902253
 20
6.03426395221499
 30
0
 42
0.0612818664124869
  0
VERTEX
  8
0
 10
5.379488352067836
 20
6.16317692505729
 30
0
 42
0.07166595939091591
  0
VERTEX
  8
0
 10
5.711253577981193
 20
6.404131013345181
 30
0
 42
0.06472963716644467
  0
VERTEX
  8
0
 10
6.013033691038467
 20
6.772536506759059
 30
0
 42
0.05905618099983925
  0
VERTEX
  8
0
 10
6.227326186237495
 20
7.225645904401581
 30
0
 42
0.05494441621945217
  0
VERTEX
  8
0
 10
6.337785373973397
 20
7.72889716729868
 30
0
 42
0.0536736556343799
  0
VERTEX
  8
0
 10
6.337785373973398
 20
8.252102832701198
 30
0
 42
0.05434628220252476
  0
VERTEX
  8
0
 10
6.227326186237496
 20
8.755354095598296
 30
0
 42
0.05787086502519296
  0
VERTEX
  8
0
 10
6.013033691038467
 20
9.208463493240819
 30
0
 42
0.06309495445697658
  0
VERTEX
  8
0
 10
5.711253577981195
 20
9.576868986654695
 30
0
 42
0.05614918171045098
  0
VERTEX
  8
0
 10
5.379488352067839
 20
9.817823074942588
 30
0
 42
0.06033107431551409
  0
VERTEX
  8
0
 10
5.054405549022534
 20
9.946736047784889
 30
0
 42
0.06343070711772331
  0
VERTEX
  8
0
 10
4.713556292623566
 20
9.990499999999953
 30
0
  0
SEQEND
  8
0
  0
POLYLINE
  8
0
 62
7
 66
1
  0
VERTEX
  8
0
 10
-2.598928480114473
 20
-7.55609352946329
 30
0
 42
-0.04295515254490501
  0
VERTEX
  8
0
 10
-2.640372627730878
 20
-7.476378877912794
 30
0
 42
-0.04044189386420617
  0
VERTEX
  8
0
 10
-2.668661092828578
 20
-7.389166645377422
 30
0
 42
-0.03917008460141182
  0
VERTEX
  8
0
 10
-2.683125559894235
 20
-7.296838394267381
 30
0
 42
-0.03880731379985753
  0
VERTEX
  8
0
 10
-2.683125559894235
 20
-7.202161605732718
 30
0
 42
-0.03881910280328527
  0
VERTEX
  8
0
 10
-2.668661092828577
 20
-7.109833354622676
 30
0
 42
-0.04003985726749294
  0
VERTEX
  8
0
 10
-2.640372627730878
 20
-7.022621122087303
 30
0
 42
-0.04252963233652952
  0
VERTEX
  8
0
 10
-2.598928480114473
 20
-6.942906470536808
 30
0
  0
SEQEND
  8
0
  0
POLYLINE
  8
0
 62
7
 66
1
  0
VERTEX
  8
0
 10
-2.598928480114473
 20
-2.476093529463286
 30
0
 42
-0.04295515254490803
  0
VERTEX
  8
0
 10
-2.640372627730878
 20
-2.396378877912791
 30
0
 42
-0.04044189386421151
  0
VERTEX
  8
0
 10
-2.668661092828577
 20
-2.30916664537742
 30
0
 42
-0.03917008460141796
  0
VERTEX
  8
0
 10
-2.683125559894235
 20
-2.21683839426738
 30
0
 42
-0.03880731379985789
  0
VERTEX
  8
0
 10
-2.683125559894235
 20
-2.122161605732719
 30
0
 42
-0.03881910280329539
  0
VERTEX
  8
0
 10
-2.668661092828578
 20
-2.029833354622678
 30
0
 42
-0.04003985726748428
  0
VERTEX
  8
0
 10
-2.640372627730879
 20
-1.942621122087306
 30
0
 42
-0.04252963233653756
  0
VERTEX
  8
0
 10
-2.598928480114475
 20
-1.862906470536811
 30
0
  0
SEQEND
  8
0
  0
POLYLINE
  8
0
 62
7
 66
1
  0
VERTEX
  8
0
 10
-2.598928480114473
 20
3.217093529463195
 30
0
 42
0.04295515254491299
  0
VERTEX
  8
0
 10
-2.640372627730878
 20
3.1373788779127
 30
0
 42
0.04044189386421112
  0
VERTEX
  8
0
 10
-2.668661092828577
 20
3.050166645377328
 30
0
 42
0.03917008460141796
  0
VERTEX
  8
0
 10
-2.683125559894235
 20
2.957838394267288
 30
0
 42
0.03880731379985754
  0
VERTEX
  8
0
 10
-2.683125559894235
 20
2.863161605732625
 30
0
 42
0.03881910280328527
  0
VERTEX
  8
0
 10
-2.668661092828578
 20
2.770833354622584
 30
0
 42
0.04003985726748664
  0
VERTEX
  8
0
 10
-2.640372627730878
 20
2.683621122087211
 30
0
 42
0.04252963233654179
  0
VERTEX
  8
0
 10
-2.598928480114473
 20
2.603906470536716
 30
0
  0
SEQEND
  8
0
  0
POLYLINE
  8
0
 62
7
 66
1
  0
VERTEX
  8
0
 10
4.713556292623566
 20
9.990499999999953
 30
0
 42
0.05304473057071812
  0
VERTEX
  8
0
 10
4.428714957680942
 20
9.960039533073903
 30
0
 42
0.05162440903644932
  0
VERTEX
  8
0
 10
4.153559957318989
 20
9.870034801163156
 30
0
 42
0.0494421480768926
  0
VERTEX
  8
0
 10
3.894404248334568
 20
9.722550807568831
 30
0
 42
0.05507379670441952
  0
VERTEX
  8
0
 10
3.617144798893593
 20
9.476600057775531
 30
0
 42
0.05067751117097424
  0
VERTEX
  8
0
 10
3.388414495742475
 20
9.166531735816202
 30
0
 42
0.04720036174021788
  0
VERTEX
  8
0
 10
3.216700860207842
 20
8.8034529360111
 30
0
 42
0.04435888244361176
  0
VERTEX
  8
0
 10
3.1111015349687
 20
8.406600110810047
 30
0
 42
0.04321584174039709
  0
VERTEX
  8
0
 10
3.075252204045564
 20
7.990499999999952
 30
0
  0
SEQEND
  8
0
  0
POLYLINE
  8
0
 62
7
 66
1
  0
VERTEX
  8
0
 10
4.376836190637636
 20
1.843602136899483
 30
0
 42
-0.0125884553028284
  0
VERTEX
  8
0
 10
4.327182165167194
 20
1.759871124371556
 30
0
 42
-0.01284047903289392
  0
VERTEX
  8
0
 10
4.273855341241198
 20
1.679576585520237
 30
0
  0
SEQEND
  8
0
  0
POLYLINE
  8
0
 62
7
 66
1
  0
VERTEX
  8
0
 10
4.056383837318249
 20
9.822542521549458
 30
0
 42
-0.05564406942704685
  0
VERTEX
  8
0
 10
4.335646503752809
 20
9.699118187673742
 30
0
 42
-0.05219662945993418
  0
VERTEX
  8
0
 10
4.589942476127821
 20
9.513404633489115
 30
0
 42
-0.0605022923934444
  0
VERTEX
  8
0
 10
4.83625088006685
 20
9.237172460598469
 30
0
 42
-0.0552629889764673
  0
VERTEX
  8
0
 10
5.045177099730828
 20
8.864293380176106
 30
0
 42
-0.05159678523191306
  0
VERTEX
  8
0
 10
5.176029126568858
 20
8.439998067321692
 30
0
 42
-0.04933507503082035
  0
VERTEX
  8
0
 10
5.220415607562751
 20
7.991495972589114
 30
0
 42
-0.04927777676344101
  0
VERTEX
  8
0
 10
5.176102017288845
 20
7.541365802620641
 30
0
 42
-0.05071534860951798
  0
VERTEX
  8
0
 10
5.045930122806297
 20
7.118473760345014
 30
0
  0
VERTEX
  8
0
 10
4.95041262698868
 20
6.923602136899485
 30
0
  0
SEQEND
  8
0
  0
POLYLINE
  8
0
 62
7
 66
1
  0
VERTEX
  8
0
 10
4.056383837318248
 20
4.742542521549458
 30
0
 42
-0.05564406942705054
  0
VERTEX
  8
0
 10
4.335646503752809
 20
4.619118187673743
 30
0
 42
-0.05219662945991582
  0
VERTEX
  8
0
 10
4.58994247612782
 20
4.433404633489113
 30
0
 42
-0.06050229239344992
  0
VERTEX
  8
0
 10
4.836250880066849
 20
4.157172460598466
 30
0
 42
-0.05526298897647149
  0
VERTEX
  8
0
 10
5.045177099730827
 20
3.784293380176104
 30
0
 42
-0.05159678523191358
  0
VERTEX
  8
0
 10
5.176029126568858
 20
3.359998067321692
 30
0
 42
-0.04933507503082426
  0
VERTEX
  8
0
 10
5.220415607562749
 20
2.911495972589113
 30
0
 42
-0.04927777676344092
  0
VERTEX
  8
0
 10
5.176102017288845
 20
2.46136580262064
 30
0
 42
-0.05071534860951668
  0
VERTEX
  8
0
 10
5.045930122806298
 20
2.038473760345015
 30
0
  0
VERTEX
  8
0
 10
4.950412626988681
 20
1.843602136899487
 30
0
  0
SEQEND
  8
0
  0
POLYLINE
  8
0
 62
7
 66
1
  0
VERTEX
  8
0
 10
3.075252204045564
 20
7.990499999999952
 30
0
 42
0.04288548151062947
  0
VERTEX
  8
0
 10
3.111101534968696
 20
7.574399889189852
 30
0
 42
0.04395830712288901
  0
VERTEX
  8
0
 10
3.216700860207836
 20
7.177547063988797
 30
0
 42
0.0464393598629297
  0
VERTEX
  8
0
 10
3.388414495742467
 20
6.814468264183692
 30
0
 42
0.04960861579207156
  0
VERTEX
  8
0
 10
3.617144798893585
 20
6.504399942224357
 30
0
 42
0.05415978877948765
  0
VERTEX
  8
0
 10
3.894404248334561
 20
6.258449192431055
 30
0
 42
0.04852017413019225
  0
VERTEX
  8
0
 10
4.153559957318983
 20
6.110965198836729
 30
0
 42
0.0510958754700352
  0
VERTEX
  8
0
 10
4.428714957680937
 20
6.020960466925981
 30
0
 42
0.05304948407091169
  0
VERTEX
  8
0
 10
4.713556292623561
 20
5.990499999999928
 30
0
  0
SEQEND
  8
0
  0
POLYLINE
  8
0
 62
7
 66
1
  0
VERTEX
  8
0
 10
4.544953051250967
 20
6.428627390068897
 30
0
 42
-0.02325896944802142
  0
VERTEX
  8
0
 10
4.430395917501241
 20
6.341774253035517
 30
0
 42
-0.02400082758611002
  0
VERTEX
  8
0
 10
4.310317538256903
 20
6.267538047664254
 30
0
 42
-0.02474153802847473
  0
VERTEX
  8
0
 10
4.185414612026417
 20
6.206304035590692
 30
0
 42
-0.02545005273038926
  0
VERTEX
  8
0
 10
4.056383837318249
 20
6.158457478450423
 30
0
  0
SEQEND
  8
0
  0
POLYLINE
  8
0
 62
7
 66
1
  0
VERTEX
  8
0
 10
4.376836190637637
 20
6.923602136899484
 30
0
 42
-0.01258845530281571
  0
VERTEX
  8
0
 10
4.327182165167194
 20
6.839871124371555
 30
0
 42
-0.01284047903290565
  0
VERTEX
  8
0
 10
4.273855341241199
 20
6.759576585520238
 30
0
  0
SEQEND
  8
0
  0
POLYLINE
  8
0
 62
7
 66
1
  0
VERTEX
  8
0
 10
4.713556292623561
 20
-5.249500000000047
 30
0
 42
0.06350802949868013
  0
VERTEX
  8
0
 10
4.372707036224593
 20
-5.293263952215109
 30
0
 42
0.06128186641247821
  0
VERTEX
  8
0
 10
4.047624233179287
 20
-5.42217692505741
 30
0
 42
0.07166595939090797
  0
VERTEX
  8
0
 10
3.71585900726593
 20
-5.663131013345301
 30
0
 42
0.06472963716643783
  0
VERTEX
  8
0
 10
3.414078894208656
 20
-6.03153650675918
 30
0
 42
0.05905618099983843
  0
VERTEX
  8
0
 10
3.199786399009628
 20
-6.484645904401702
 30
0
 42
0.05494441621945221
  0
VERTEX
  8
0
 10
3.089327211273725
 20
-6.987897167298799
 30
0
 42
0.05367365563438188
  0
VERTEX
  8
0
 10
3.089327211273726
 20
-7.511102832701319
 30
0
 42
0.05434628220252562
  0
VERTEX
  8
0
 10
3.199786399009627
 20
-8.014354095598417
 30
0
 42
0.05787086502519052
  0
VERTEX
  8
0
 10
3.414078894208656
 20
-8.46746349324094
 30
0
 42
0.06309495445697205
  0
VERTEX
  8
0
 10
3.71585900726593
 20
-8.835868986654818
 30
0
 42
0.05614918171044675
  0
VERTEX
  8
0
 10
4.047624233179287
 20
-9.076823074942709
 30
0
 42
0.06033107431551032
  0
VERTEX
  8
0
 10
4.372707036224593
 20
-9.205736047785011
 30
0
 42
0.06343070711772313
  0
VERTEX
  8
0
 10
4.713556292623561
 20
-9.249500000000072
 30
0
  0
SEQEND
  8
0
  0
ENDBLK
  8
0
  0
BLOCK
  8
0
  2
SA_RECHTS1
 70
0
 10
-6.700000000024397
 20
-10.53049999999995
 30
0
  0
INSERT
  8
0
  2
SMKDSP_1_5-4-5_08__2
 10
-6.700000000024397
 20
-10.53049999999995
 30
0
  0
ENDBLK
  8
0
  0
BLOCK
  8
0
  2
SMKDSP_1_5-4-5_08__3
 70
0
 10
10.91220480002455
 20
14.74270479999998
 30
0
  0
LINE
  8
0
 62
7
 10
14.41220480002454
 20
21.79270480004879
 30
0
 11
13.91220480002455
 21
21.79270480004879
 31
0
  0
LINE
  8
0
 62
7
 10
14.41220480002455
 20
20.49270480004879
 30
0
 11
13.91220480002455
 21
20.49270480004879
 31
0
  0
LINE
  8
0
 62
7
 10
14.41220480002454
 20
21.79270480004879
 30
0
 11
14.41220480002455
 21
20.49270480004879
 31
0
  0
LINE
  8
0
 62
7
 10
14.41220480002455
 20
20.31965722249843
 30
0
 11
14.41220480002456
 21
19.18666329313903
 31
0
  0
LINE
  8
0
 62
7
 10
14.41220480002455
 20
20.49270480004879
 30
0
 11
14.41220480002455
 21
20.31965722249843
 31
0
  0
LINE
  8
0
 62
7
 10
13.91220480002455
 20
20.49270480004879
 30
0
 11
13.91220480002455
 21
20.69270480004879
 31
0
  0
LINE
  8
0
 62
7
 10
11.91220480002455
 20
20.69270480004879
 30
0
 11
10.91220480002455
 21
20.69270480004879
 31
0
  0
LINE
  8
0
 62
7
 10
10.91220480002455
 20
21.59270480004879
 30
0
 11
11.91220480002455
 21
21.5927048000488
 31
0
  0
LINE
  8
0
 62
7
 10
10.91220480002455
 20
20.69270480004879
 30
0
 11
10.91220480002455
 21
21.59270480004879
 31
0
  0
LINE
  8
0
 62
7
 10
13.91220480002455
 20
21.5927048000488
 30
0
 11
13.91220480002455
 21
21.79270480004879
 31
0
  0
LINE
  8
0
 62
7
 10
15.4122048000245
 20
26.57118633605147
 30
0
 11
18.7647723658488
 21
26.57118633605151
 31
0
  0
LINE
  8
0
 62
7
 10
18.7647723658488
 20
26.57118633605151
 30
0
 11
19.02541849572085
 21
26.94342758689333
 31
0
  0
LINE
  8
0
 62
7
 10
13.91220480002455
 20
20.69270480004879
 30
0
 11
13.91220480002455
 21
21.5927048000488
 31
0
  0
LINE
  8
0
 62
7
 10
16.05050888860255
 20
14.74270479999998
 30
0
 11
27.03406817315003
 21
14.74270480000006
 31
0
  0
LINE
  8
0
 62
7
 10
14.41220480002456
 20
19.18666329313903
 30
0
 11
14.41220480002458
 21
15.88985767270205
 31
0
  0
LINE
  8
0
 62
7
 10
13.91220480002455
 20
21.5927048000488
 30
0
 11
11.91220480002455
 21
21.5927048000488
 31
0
  0
LINE
  8
0
 62
7
 10
13.91220480002455
 20
20.69270480004879
 30
0
 11
11.91220480002455
 21
20.69270480004879
 31
0
  0
LINE
  8
0
 62
7
 10
11.91220480002455
 20
21.5927048000488
 30
0
 11
11.91220480002455
 21
20.69270480004879
 31
0
  0
LINE
  8
0
 62
7
 10
14.41220480002458
 20
15.88985767270205
 30
0
 11
16.05050888860255
 21
14.74270479999998
 31
0
  0
LINE
  8
0
 62
7
 10
17.13983874571751
 20
17.2767534428882
 30
0
 11
17.67217176312463
 21
18.03700378062122
 31
0
  0
LINE
  8
0
 62
7
 10
17.13983874571751
 20
17.2767534428882
 30
0
 11
14.41220480002456
 21
19.18666329313903
 31
0
  0
LINE
  8
0
 62
7
 10
17.67217176312463
 20
18.03700378062122
 30
0
 11
14.41220480002455
 21
20.31965722249843
 31
0
  0
LINE
  8
0
 62
7
 10
19.02541849572085
 20
26.94342758689333
 30
0
 11
24.75948280574384
 21
22.92839253243608
 31
0
  0
LINE
  8
0
 62
7
 10
17.70140907602454
 20
26.07118667270207
 30
0
 11
15.12300070118038
 21
26.07118667270205
 31
0
  0
LINE
  8
0
 62
7
 10
25.29181582315096
 20
23.68864287016909
 30
0
 11
24.75948280574384
 21
22.92839253243608
 31
0
  0
LINE
  8
0
 62
7
 10
26.50029299951632
 20
23.49673566560541
 30
0
 11
26.18358631719204
 21
23.04443164852209
 31
0
  0
LINE
  8
0
 62
7
 10
17.91220488860248
 20
23.28198248528007
 30
0
 11
17.91220488860246
 21
25.86039086012408
 31
0
  0
LINE
  8
0
 62
7
 10
14.41220480002451
 20
25.57118633605146
 30
0
 11
14.41220480002454
 21
21.79270480004879
 31
0
  0
LINE
  8
0
 62
7
 10
15.12300070118041
 20
23.07118667270213
 30
0
 11
17.70140907602456
 21
23.07118667270207
 31
0
  0
LINE
  8
0
 62
7
 10
14.91220488860248
 20
23.28198248528005
 30
0
 11
14.91220488860246
 21
25.86039086012405
 31
0
  0
LINE
  8
0
 62
7
 10
17.4290995029884
 20
25.72946870169433
 30
0
 11
15.39531027422434
 21
25.72946870169437
 31
0
  0
LINE
  8
0
 62
7
 10
17.58719636242183
 20
24.89475239341978
 30
0
 11
17.58719636242185
 21
25.57137184226089
 31
0
  0
LINE
  8
0
 62
7
 10
16.08287502473781
 20
24.51603038560691
 30
0
 11
15.84292607376495
 21
24.51603038560686
 31
0
  0
LINE
  8
0
 62
7
 10
15.68482921433145
 20
24.35793352617347
 30
0
 11
15.68482921433145
 21
24.34528187635945
 31
0
  0
LINE
  8
0
 62
7
 10
16.08287502473781
 20
24.73665553398647
 30
0
 11
15.39531027422435
 21
24.73665553398633
 31
0
  0
LINE
  8
0
 62
7
 10
15.23721341479084
 20
25.57137184226087
 30
0
 11
15.23721341479091
 21
24.89475239341976
 31
0
  0
LINE
  8
0
 62
7
 10
17.18915055201558
 20
24.51603038560707
 30
0
 11
17.42909950298831
 21
24.51603038560692
 31
0
  0
LINE
  8
0
 62
7
 10
17.58719636242184
 20
24.35793352617349
 30
0
 11
17.58719636242185
 21
24.34528187635947
 31
0
  0
LINE
  8
0
 62
7
 10
17.42909950298831
 20
24.73665553398617
 30
0
 11
17.18915055201557
 21
24.73665553398636
 31
0
  0
LINE
  8
0
 62
7
 10
19.55775151312796
 20
27.70367792462634
 30
0
 11
19.86516144077543
 21
28.14270480004882
 31
0
  0
LINE
  8
0
 62
7
 10
19.02541849572085
 20
26.94342758689333
 30
0
 11
19.55775151312796
 21
27.70367792462634
 31
0
  0
LINE
  8
0
 62
7
 10
27.03406817315003
 20
14.74270480000006
 30
0
 11
29.63986561774016
 21
18.46416922646527
 31
0
  0
LINE
  8
0
 62
7
 10
19.55775151312796
 20
27.70367792462634
 30
0
 11
25.29181582315096
 21
23.68864287016909
 31
0
  0
LINE
  8
0
 62
7
 10
19.86516144077543
 20
28.14270480004882
 30
0
 11
26.50029299951632
 21
23.49673566560541
 31
0
  0
LINE
  8
0
 62
7
 10
29.61862257727216
 20
18.95071484488032
 30
0
 11
26.18358631719204
 21
23.04443164852209
 31
0
  0
ARC
  8
0
 62
7
 10
29.31220480002457
 20
18.6935998010057
 30
0
 40
0.4000000000000006
 50
324.999999999998
 51
40.00000000000072
  0
ARC
  8
0
 62
7
 10
15.41220480002451
 20
25.57118633605147
 30
0
 40
1
 50
90
 51
180
  0
ARC
  8
0
 62
7
 10
15.12300070118038
 20
25.86039086012406
 30
0
 40
0.2107958125779916
 50
90
 51
180
  0
ARC
  8
0
 62
7
 10
17.70140907602456
 20
23.28198248528007
 30
0
 40
0.2107958125780023
 50
270
 51
0
  0
ARC
  8
0
 62
7
 10
17.70140907602454
 20
25.86039086012407
 30
0
 40
0.2107958125779206
 50
0
 51
90
  0
ARC
  8
0
 62
7
 10
17.42909950298839
 20
24.89475239341978
 30
0
 40
0.1580968594336092
 50
270
 51
0
  0
ARC
  8
0
 62
7
 10
16.63601278837665
 20
24.62634295979667
 30
0
 40
0.4567242605854575
 50
205.8849244575769
 51
334.1150755424276
  0
ARC
  8
0
 62
7
 10
16.08287502473782
 20
24.35793352617348
 30
0
 40
0.1580968594334372
 50
25.88492445758473
 51
90
  0
ARC
  8
0
 62
7
 10
15.1230007011804
 20
23.28198248528005
 30
0
 40
0.2107958125779206
 50
180
 51
270
  0
ARC
  8
0
 62
7
 10
15.84292607376489
 20
24.35793352617347
 30
0
 40
0.1580968594333925
 50
90
 51
180
  0
ARC
  8
0
 62
7
 10
16.08287502473781
 20
24.89475239341977
 30
0
 40
0.1580968594332965
 50
270
 51
334.1150755424441
  0
ARC
  8
0
 62
7
 10
15.39531027422435
 20
24.89475239341976
 30
0
 40
0.1580968594334404
 50
180
 51
270
  0
ARC
  8
0
 62
7
 10
17.18915055201558
 20
24.35793352617348
 30
0
 40
0.1580968594335914
 50
90
 51
154.1150755424181
  0
ARC
  8
0
 62
7
 10
17.42909950298839
 20
24.35793352617348
 30
0
 40
0.1580968594334493
 50
0
 51
90
  0
ARC
  8
0
 62
7
 10
17.18915055201557
 20
24.89475239341978
 30
0
 40
0.1580968594334207
 50
205.8849244575547
 51
270
  0
ARC
  8
0
 62
7
 10
16.63601278837665
 20
24.62634295979667
 30
0
 40
0.4567242605855182
 50
25.8849244575732
 51
154.1150755424241
  0
ARC
  8
0
 62
7
 10
15.39531027422434
 20
25.57137184226087
 30
0
 40
0.158096859433499
 50
90
 51
180
  0
ARC
  8
0
 62
7
 10
16.63601278837665
 20
24.34528187635946
 30
0
 40
0.951183574045201
 50
180
 51
0
  0
ARC
  8
0
 62
7
 10
17.4290995029884
 20
25.57137184226089
 30
0
 40
0.1580968594334493
 50
0
 51
90
  0
CIRCLE
  8
0
 62
7
 10
16.63601278837665
 20
24.62634295979667
 30
0
 40
0.2283621302927905
  0
ENDBLK
  8
0
  0
BLOCK
  8
0
  2
UNTSICHT1
 70
0
 10
10.91220480002455
 20
14.74270479999998
 30
0
  0
INSERT
  8
0
  2
SMKDSP_1_5-4-5_08__3
 10
10.91220480002455
 20
14.74270479999998
 30
0
  0
ENDBLK
  8
0
  0
BLOCK
  8
0
  2
SMKDSP_1_5-4-5_08__4
 70
0
 10
51.5366144000736
 20
-10.53049999999994
 30
0
  0
LINE
  8
0
 62
7
 10
54.21475102694815
 20
0.9104999999999408
 30
0
 11
54.21475102694815
 21
4.91049999999994
 31
0
  0
LINE
  8
0
 62
7
 10
55.95700337694721
 20
-10.53049999999994
 30
0
 11
56.48933639435432
 21
-10.53049999999994
 31
0
  0
LINE
  8
0
 62
7
 10
64.10898045438066
 20
-10.53049999999994
 30
0
 11
66.8366144000736
 21
-10.53049999999994
 31
0
  0
LINE
  8
0
 62
7
 10
62.22340070437732
 20
-10.53049999999994
 30
0
 11
56.48933639435432
 21
-10.53049999999994
 31
0
  0
LINE
  8
0
 62
7
 10
66.83661440007361
 20
10.53049999999994
 30
0
 11
65.19831031149562
 21
10.53049999999994
 31
0
  0
LINE
  8
0
 62
7
 10
51.60895358235801
 20
-9.789500000000059
 30
0
 11
51.60895358235801
 21
10.53049999999994
 31
0
  0
LINE
  8
0
 62
7
 10
62.22340070437733
 20
-10.18863339295296
 30
0
 11
62.11158361469582
 21
-9.956797909878743
 31
0
  0
LINE
  8
0
 62
7
 10
59.20478831521059
 20
9.99049999999994
 30
0
 11
62.15826182671117
 21
9.99049999999994
 31
0
  0
LINE
  8
0
 62
7
 10
59.20478831521059
 20
5.990499999999941
 30
0
 11
62.15826182671117
 21
5.990499999999941
 31
0
  0
LINE
  8
0
 62
7
 10
59.20478831521059
 20
0.9104999999999412
 30
0
 11
62.15826182671117
 21
0.9104999999999412
 31
0
  0
LINE
  8
0
 62
7
 10
62.15826182671117
 20
9.99049999999994
 30
0
 11
62.15826182671117
 21
5.990499999999941
 31
0
  0
LINE
  8
0
 62
7
 10
59.24360477122524
 20
6.815499999999959
 30
0
 11
60.22723712250372
 21
6.815499999999941
 31
0
  0
LINE
  8
0
 62
7
 10
59.20478831521059
 20
6.81549999999996
 30
0
 11
59.24360477122524
 21
6.815499999999959
 31
0
  0
LINE
  8
0
 62
7
 10
59.24360477122524
 20
9.165499999999971
 30
0
 11
59.20478831521059
 21
9.16549999999997
 31
0
  0
LINE
  8
0
 62
7
 10
60.22723712250369
 20
9.165499999999962
 30
0
 11
59.24360477122524
 21
9.165499999999971
 31
0
  0
LINE
  8
0
 62
7
 10
59.20478831521059
 20
-0.9945000000000466
 30
0
 11
59.24360477122524
 21
-0.9945000000000466
 31
0
  0
LINE
  8
0
 62
7
 10
59.24360477122524
 20
6.815499999999959
 30
0
 11
59.24360477122524
 21
9.165499999999971
 31
0
  0
LINE
  8
0
 62
7
 10
59.24360477122524
 20
-3.344500000000041
 30
0
 11
59.24360477122524
 21
-0.9945000000000466
 31
0
  0
LINE
  8
0
 62
7
 10
59.20478831521059
 20
-3.34450000000004
 30
0
 11
59.24360477122524
 21
-3.344500000000041
 31
0
  0
LINE
  8
0
 62
7
 10
59.20478831521059
 20
9.99049999999994
 30
0
 11
59.20478831521059
 21
9.16549999999997
 31
0
  0
LINE
  8
0
 62
7
 10
59.20478831521059
 20
6.81549999999996
 30
0
 11
59.20478831521059
 21
5.990499999999941
 31
0
  0
LINE
  8
0
 62
7
 10
59.20478831521059
 20
4.910499999999941
 30
0
 11
62.15826182671117
 21
4.91049999999994
 31
0
  0
LINE
  8
0
 62
7
 10
59.20478831521059
 20
-0.1695000000000579
 30
0
 11
62.15826182671117
 21
-0.1695000000000579
 31
0
  0
LINE
  8
0
 62
7
 10
59.20478831521059
 20
-4.169500000000058
 30
0
 11
62.15826182671117
 21
-4.169500000000058
 31
0
  0
LINE
  8
0
 62
7
 10
56.37751930467283
 20
-9.956797909878748
 30
0
 11
62.11158361469582
 21
-9.956797909878743
 31
0
  0
LINE
  8
0
 62
7
 10
62.11158361469582
 20
-9.956797909878743
 30
0
 11
62.11158361469582
 21
-9.789500000000059
 31
0
  0
LINE
  8
0
 62
7
 10
56.06882046662871
 20
-9.789500000000059
 30
0
 11
56.06882046662869
 21
-9.956797909878743
 31
0
  0
LINE
  8
0
 62
7
 10
65.19831031149562
 20
10.53049999999994
 30
0
 11
54.21475102694815
 21
10.53049999999994
 31
0
  0
LINE
  8
0
 62
7
 10
56.37751930467283
 20
-9.956797909878748
 30
0
 11
56.37751930467282
 21
-9.789500000000059
 31
0
  0
LINE
  8
0
 62
7
 10
62.11158361469582
 20
-9.789500000000059
 30
0
 11
56.37751930467282
 21
-9.789500000000059
 31
0
  0
LINE
  8
0
 62
7
 10
54.21475102694815
 20
9.99049999999994
 30
0
 11
54.21475102694815
 21
10.53049999999994
 31
0
  0
LINE
  8
0
 62
7
 10
54.21475102694815
 20
9.99049999999994
 30
0
 11
59.20478831521059
 21
9.99049999999994
 31
0
  0
LINE
  8
0
 62
7
 10
54.21475102694815
 20
5.990499999999941
 30
0
 11
59.20478831521059
 21
5.990499999999941
 31
0
  0
LINE
  8
0
 62
7
 10
54.21475102694815
 20
4.91049999999994
 30
0
 11
59.20478831521059
 21
4.910499999999941
 31
0
  0
LINE
  8
0
 62
7
 10
54.21475102694815
 20
0.9104999999999408
 30
0
 11
59.20478831521059
 21
0.9104999999999412
 31
0
  0
LINE
  8
0
 62
7
 10
54.21475102694815
 20
-0.1695000000000584
 30
0
 11
59.20478831521059
 21
-0.1695000000000579
 31
0
  0
LINE
  8
0
 62
7
 10
65.19831031149562
 20
10.53049999999994
 30
0
 11
65.19831031149562
 21
-9.789500000000059
 31
0
  0
LINE
  8
0
 62
7
 10
70.33661440007361
 20
-1.987449192431169
 30
0
 11
69.33661440007361
 21
-1.719500000000045
 31
0
  0
LINE
  8
0
 62
7
 10
69.33661440007361
 20
2.460499999999955
 30
0
 11
70.33661440007361
 21
2.728449192431079
 31
0
  0
LINE
  8
0
 62
7
 10
70.33661440007361
 20
-2.351550807568921
 30
0
 11
70.33661440007361
 21
-1.987449192431169
 31
0
  0
LINE
  8
0
 62
7
 10
67.33661440007376
 20
-1.519500000000045
 30
0
 11
67.33661440007361
 21
-1.719500000000044
 31
0
  0
LINE
  8
0
 62
7
 10
67.33661440007361
 20
-1.719500000000044
 30
0
 11
69.33661440007361
 21
-1.719500000000045
 31
0
  0
LINE
  8
0
 62
7
 10
67.33661440007361
 20
3.360499999999955
 30
0
 11
69.33661440007361
 21
3.360499999999953
 31
0
  0
LINE
  8
0
 62
7
 10
67.33661440007361
 20
2.460499999999955
 30
0
 11
69.33661440007361
 21
2.460499999999955
 31
0
  0
LINE
  8
0
 62
7
 10
67.33661440007376
 20
3.560499999999956
 30
0
 11
67.33661440007361
 21
3.360499999999955
 31
0
  0
LINE
  8
0
 62
7
 10
67.33661440007361
 20
2.460499999999955
 30
0
 11
67.33661440007361
 21
2.260499999999955
 31
0
  0
LINE
  8
0
 62
7
 10
67.33661440007361
 20
3.360499999999955
 30
0
 11
67.33661440007361
 21
2.460499999999955
 31
0
  0
LINE
  8
0
 62
7
 10
66.83661440007361
 20
-1.519500000000045
 30
0
 11
67.33661440007376
 21
-1.519500000000045
 31
0
  0
LINE
  8
0
 62
7
 10
62.15826182671117
 20
4.91049999999994
 30
0
 11
62.15826182671117
 21
0.9104999999999412
 31
0
  0
LINE
  8
0
 62
7
 10
59.20478831521059
 20
-0.1695000000000579
 30
0
 11
59.20478831521059
 21
-0.9945000000000466
 31
0
  0
LINE
  8
0
 62
7
 10
59.24360477122524
 20
4.085499999999954
 30
0
 11
60.22723712250371
 21
4.085499999999953
 31
0
  0
LINE
  8
0
 62
7
 10
59.20478831521059
 20
4.085499999999953
 30
0
 11
59.24360477122524
 21
4.085499999999954
 31
0
  0
LINE
  8
0
 62
7
 10
59.24360477122524
 20
1.735499999999959
 30
0
 11
59.24360477122524
 21
4.085499999999954
 31
0
  0
LINE
  8
0
 62
7
 10
59.24360477122524
 20
-0.9945000000000466
 30
0
 11
60.22723712250371
 21
-0.9945000000000361
 31
0
  0
LINE
  8
0
 62
7
 10
59.24360477122524
 20
1.735499999999959
 30
0
 11
60.22723712250372
 21
1.735499999999958
 31
0
  0
LINE
  8
0
 62
7
 10
59.20478831521059
 20
1.73549999999996
 30
0
 11
59.24360477122524
 21
1.735499999999959
 31
0
  0
LINE
  8
0
 62
7
 10
66.83661440007363
 20
3.560499999999955
 30
0
 11
67.33661440007376
 21
3.560499999999956
 31
0
  0
LINE
  8
0
 62
7
 10
66.83661440007363
 20
2.260499999999955
 30
0
 11
67.33661440007361
 21
2.260499999999955
 31
0
  0
LINE
  8
0
 62
7
 10
66.83661440007363
 20
2.260499999999955
 30
0
 11
66.83661440007363
 21
3.560499999999955
 31
0
  0
LINE
  8
0
 62
7
 10
59.20478831521059
 20
1.73549999999996
 30
0
 11
59.20478831521059
 21
0.9104999999999412
 31
0
  0
LINE
  8
0
 62
7
 10
59.20478831521059
 20
4.910499999999941
 30
0
 11
59.20478831521059
 21
4.085499999999953
 31
0
  0
LINE
  8
0
 62
7
 10
66.83661440007361
 20
-1.519500000000045
 30
0
 11
66.83661440007363
 21
2.260499999999955
 31
0
  0
LINE
  8
0
 62
7
 10
70.33661440007361
 20
2.728449192431079
 30
0
 11
70.33661440007361
 21
3.092550807568832
 31
0
  0
LINE
  8
0
 62
7
 10
70.33661440007361
 20
3.092550807568832
 30
0
 11
69.33661440007361
 21
3.360499999999953
 31
0
  0
LINE
  8
0
 62
7
 10
66.83661440007363
 20
7.340499999999954
 30
0
 11
66.83661440007363
 21
8.640499999999955
 31
0
  0
LINE
  8
0
 62
7
 10
70.33661440007361
 20
8.172550807568832
 30
0
 11
69.33661440007361
 21
8.440499999999956
 31
0
  0
LINE
  8
0
 62
7
 10
69.33661440007361
 20
7.540499999999954
 30
0
 11
70.33661440007361
 21
7.808449192431079
 31
0
  0
LINE
  8
0
 62
7
 10
70.33661440007361
 20
7.808449192431079
 30
0
 11
70.33661440007361
 21
8.172550807568832
 31
0
  0
LINE
  8
0
 62
7
 10
67.33661440007361
 20
7.540499999999954
 30
0
 11
69.33661440007361
 21
7.540499999999954
 31
0
  0
LINE
  8
0
 62
7
 10
67.33661440007361
 20
8.440499999999956
 30
0
 11
69.33661440007361
 21
8.440499999999956
 31
0
  0
LINE
  8
0
 62
7
 10
66.83661440007363
 20
3.560499999999955
 30
0
 11
66.83661440007363
 21
7.340499999999954
 31
0
  0
LINE
  8
0
 62
7
 10
67.33661440007376
 20
8.640499999999955
 30
0
 11
67.33661440007361
 21
8.440499999999956
 31
0
  0
LINE
  8
0
 62
7
 10
59.20478831521059
 20
-5.24950000000006
 30
0
 11
59.20478831521059
 21
-6.074500000000048
 31
0
  0
LINE
  8
0
 62
7
 10
59.24360477122524
 20
-6.074500000000048
 30
0
 11
60.2272371225037
 21
-6.074500000000041
 31
0
  0
LINE
  8
0
 62
7
 10
59.20478831521059
 20
-6.074500000000048
 30
0
 11
59.24360477122524
 21
-6.074500000000048
 31
0
  0
LINE
  8
0
 62
7
 10
59.24360477122524
 20
-3.344500000000041
 30
0
 11
60.22723712250372
 21
-3.344500000000059
 31
0
  0
LINE
  8
0
 62
7
 10
67.33661440007361
 20
-2.619500000000046
 30
0
 11
67.33661440007361
 21
-2.819500000000045
 31
0
  0
LINE
  8
0
 62
7
 10
66.83661440007361
 20
-2.819500000000045
 30
0
 11
67.33661440007361
 21
-2.819500000000045
 31
0
  0
LINE
  8
0
 62
7
 10
67.33661440007361
 20
-2.619500000000046
 30
0
 11
69.33661440007361
 21
-2.619500000000046
 31
0
  0
LINE
  8
0
 62
7
 10
69.33661440007361
 20
-2.619500000000046
 30
0
 11
70.33661440007361
 21
-2.351550807568921
 31
0
  0
LINE
  8
0
 62
7
 10
62.15826182671117
 20
-0.1695000000000579
 30
0
 11
62.15826182671117
 21
-4.169500000000058
 31
0
  0
LINE
  8
0
 62
7
 10
67.33661440007361
 20
-1.719500000000044
 30
0
 11
67.33661440007361
 21
-2.619500000000046
 31
0
  0
LINE
  8
0
 62
7
 10
66.83661440007363
 20
7.340499999999954
 30
0
 11
67.33661440007361
 21
7.340499999999954
 31
0
  0
LINE
  8
0
 62
7
 10
66.83661440007363
 20
8.640499999999955
 30
0
 11
67.33661440007376
 21
8.640499999999955
 31
0
  0
LINE
  8
0
 62
7
 10
66.83661440007361
 20
-2.819500000000045
 30
0
 11
66.83661440007361
 21
-1.519500000000045
 31
0
  0
LINE
  8
0
 62
7
 10
67.33661440007361
 20
8.440499999999956
 30
0
 11
67.33661440007361
 21
7.540499999999954
 31
0
  0
LINE
  8
0
 62
7
 10
67.33661440007361
 20
7.540499999999954
 30
0
 11
67.33661440007361
 21
7.340499999999954
 31
0
  0
LINE
  8
0
 62
7
 10
70.33661440007361
 20
-7.431550807568923
 30
0
 11
70.33661440007361
 21
-7.067449192431168
 31
0
  0
LINE
  8
0
 62
7
 10
70.33661440007361
 20
-7.067449192431168
 30
0
 11
69.33661440007361
 21
-6.799500000000047
 31
0
  0
LINE
  8
0
 62
7
 10
67.33661440007361
 20
-6.799500000000046
 30
0
 11
69.33661440007361
 21
-6.799500000000047
 31
0
  0
LINE
  8
0
 62
7
 10
67.33661440007361
 20
-6.599500000000047
 30
0
 11
67.33661440007361
 21
-6.799500000000046
 31
0
  0
LINE
  8
0
 62
7
 10
66.83661440007361
 20
-6.599500000000047
 30
0
 11
66.83661440007361
 21
-2.819500000000045
 31
0
  0
LINE
  8
0
 62
7
 10
66.83661440007361
 20
-6.599500000000047
 30
0
 11
67.33661440007361
 21
-6.599500000000047
 31
0
  0
LINE
  8
0
 62
7
 10
69.33661440007361
 20
-7.699500000000045
 30
0
 11
70.33661440007361
 21
-7.431550807568923
 31
0
  0
LINE
  8
0
 62
7
 10
66.83661440007361
 20
-7.899500000000048
 30
0
 11
67.33661440007361
 21
-7.899500000000048
 31
0
  0
LINE
  8
0
 62
7
 10
67.33661440007361
 20
-7.699500000000045
 30
0
 11
69.33661440007361
 21
-7.699500000000045
 31
0
  0
LINE
  8
0
 62
7
 10
67.33661440007361
 20
-7.699500000000045
 30
0
 11
67.33661440007361
 21
-7.899500000000048
 31
0
  0
LINE
  8
0
 62
7
 10
66.83661440007361
 20
-7.899500000000048
 30
0
 11
66.83661440007361
 21
-6.599500000000047
 31
0
  0
LINE
  8
0
 62
7
 10
67.33661440007361
 20
-6.799500000000046
 30
0
 11
67.33661440007361
 21
-7.699500000000045
 31
0
  0
LINE
  8
0
 62
7
 10
66.83661440007363
 20
8.640499999999955
 30
0
 11
66.83661440007361
 21
10.53049999999994
 31
0
  0
LINE
  8
0
 62
7
 10
66.8366144000736
 20
-10.18863339295296
 30
0
 11
66.83661440007361
 21
-9.956797909878743
 31
0
  0
LINE
  8
0
 62
7
 10
66.83661440007361
 20
-9.956797909878743
 30
0
 11
66.83661440007361
 21
-9.789500000000059
 31
0
  0
LINE
  8
0
 62
7
 10
66.8366144000736
 20
-10.53049999999994
 30
0
 11
66.8366144000736
 21
-10.18863339295296
 31
0
  0
LINE
  8
0
 62
7
 10
62.22340070437732
 20
-10.53049999999994
 30
0
 11
62.22340070437733
 21
-10.18863339295296
 31
0
  0
LINE
  8
0
 62
7
 10
59.20478831521059
 20
-3.34450000000004
 30
0
 11
59.20478831521059
 21
-4.169500000000058
 31
0
  0
LINE
  8
0
 62
7
 10
59.24360477122524
 20
-8.42450000000005
 30
0
 11
59.24360477122524
 21
-6.074500000000048
 31
0
  0
LINE
  8
0
 62
7
 10
62.15826182671117
 20
-5.24950000000006
 30
0
 11
62.15826182671117
 21
-9.24950000000006
 31
0
  0
LINE
  8
0
 62
7
 10
59.20478831521059
 20
-8.42450000000005
 30
0
 11
59.20478831521059
 21
-9.24950000000006
 31
0
  0
LINE
  8
0
 62
7
 10
59.24360477122524
 20
-8.42450000000005
 30
0
 11
60.22723712250371
 21
-8.42450000000005
 31
0
  0
LINE
  8
0
 62
7
 10
59.20478831521059
 20
-8.42450000000005
 30
0
 11
59.24360477122524
 21
-8.42450000000005
 31
0
  0
LINE
  8
0
 62
7
 10
55.95700337694721
 20
-10.18863339295296
 30
0
 11
55.95700337694721
 21
-10.53049999999994
 31
0
  0
LINE
  8
0
 62
7
 10
56.06882046662869
 20
-9.956797909878743
 30
0
 11
55.95700337694721
 21
-10.18863339295296
 31
0
  0
LINE
  8
0
 62
7
 10
56.48933639435433
 20
-10.18863339295296
 30
0
 11
62.22340070437733
 21
-10.18863339295296
 31
0
  0
LINE
  8
0
 62
7
 10
56.48933639435433
 20
-10.18863339295296
 30
0
 11
56.48933639435432
 21
-10.53049999999994
 31
0
  0
LINE
  8
0
 62
7
 10
56.48933639435433
 20
-10.18863339295296
 30
0
 11
56.37751930467283
 21
-9.956797909878748
 31
0
  0
LINE
  8
0
 62
7
 10
66.83661440007361
 20
-9.956797909878743
 30
0
 11
63.99716336469917
 21
-9.956797909878752
 31
0
  0
LINE
  8
0
 62
7
 10
64.10898045438066
 20
-10.53049999999994
 30
0
 11
63.57664743697354
 21
-10.53049999999994
 31
0
  0
LINE
  8
0
 62
7
 10
63.68846452665501
 20
-9.95679790987875
 30
0
 11
63.68846452665503
 21
-9.789500000000059
 31
0
  0
LINE
  8
0
 62
7
 10
63.99716336469915
 20
-9.789500000000059
 30
0
 11
63.99716336469917
 21
-9.956797909878752
 31
0
  0
LINE
  8
0
 62
7
 10
66.8366144000736
 20
-10.18863339295296
 30
0
 11
64.10898045438066
 21
-10.18863339295296
 31
0
  0
LINE
  8
0
 62
7
 10
63.68846452665501
 20
-9.95679790987875
 30
0
 11
63.57664743697354
 21
-10.18863339295295
 31
0
  0
LINE
  8
0
 62
7
 10
63.57664743697354
 20
-10.18863339295295
 30
0
 11
63.57664743697354
 21
-10.53049999999994
 31
0
  0
LINE
  8
0
 62
7
 10
64.10898045438066
 20
-10.18863339295296
 30
0
 11
63.99716336469917
 21
-9.956797909878752
 31
0
  0
LINE
  8
0
 62
7
 10
64.10898045438066
 20
-10.18863339295296
 30
0
 11
64.10898045438066
 21
-10.53049999999994
 31
0
  0
LINE
  8
0
 62
7
 10
66.83661440007361
 20
-9.789500000000059
 30
0
 11
66.83661440007361
 21
-7.899500000000048
 31
0
  0
LINE
  8
0
 62
7
 10
54.21475102694815
 20
10.53049999999994
 30
0
 11
51.60895358235801
 21
10.53049999999994
 31
0
  0
LINE
  8
0
 62
7
 10
54.21475102694814
 20
-9.789500000000055
 30
0
 11
51.60895358235801
 21
-9.789500000000059
 31
0
  0
LINE
  8
0
 62
7
 10
65.19831031149562
 20
-9.789500000000059
 30
0
 11
63.99716336469915
 21
-9.789500000000059
 31
0
  0
LINE
  8
0
 62
7
 10
54.21475102694814
 20
-9.24950000000006
 30
0
 11
54.21475102694814
 21
-5.24950000000006
 31
0
  0
LINE
  8
0
 62
7
 10
63.99716336469915
 20
-9.789500000000059
 30
0
 11
63.68846452665503
 21
-9.789500000000059
 31
0
  0
LINE
  8
0
 62
7
 10
59.20478831521059
 20
-5.24950000000006
 30
0
 11
62.15826182671117
 21
-5.24950000000006
 31
0
  0
LINE
  8
0
 62
7
 10
53.41689741266463
 20
-6.182602136899638
 30
0
 11
53.96944198164672
 21
-7.145934195129314
 31
0
  0
LINE
  8
0
 62
7
 10
53.79412709288476
 20
-1.102602136899643
 30
0
 11
53.41689741266464
 21
-1.102602136899649
 31
0
  0
LINE
  8
0
 62
7
 10
53.41689741266464
 20
-1.102602136899649
 30
0
 11
53.96944198164672
 21
-2.065934195129298
 31
0
  0
LINE
  8
0
 62
7
 10
53.79412709288476
 20
-6.182602136899645
 30
0
 11
53.41689741266463
 21
-6.182602136899638
 31
0
  0
LINE
  8
0
 62
7
 10
54.21475102694814
 20
-5.24950000000006
 30
0
 11
59.20478831521059
 21
-5.24950000000006
 31
0
  0
LINE
  8
0
 62
7
 10
54.21475102694815
 20
-4.169500000000058
 30
0
 11
59.20478831521059
 21
-4.169500000000058
 31
0
  0
LINE
  8
0
 62
7
 10
54.21475102694815
 20
-4.169500000000058
 30
0
 11
54.21475102694815
 21
-0.1695000000000584
 31
0
  0
LINE
  8
0
 62
7
 10
54.21475102694815
 20
-0.1695000000000584
 30
0
 11
54.21475102694815
 21
0.9104999999999408
 31
0
  0
LINE
  8
0
 62
7
 10
54.21475102694814
 20
-5.24950000000006
 30
0
 11
54.21475102694815
 21
-4.169500000000058
 31
0
  0
LINE
  8
0
 62
7
 10
53.79412709288476
 20
9.057397863100356
 30
0
 11
53.41689741266463
 21
9.057397863100356
 31
0
  0
LINE
  8
0
 62
7
 10
53.41689741266463
 20
9.057397863100356
 30
0
 11
53.96944198164672
 21
8.094065804870711
 31
0
  0
LINE
  8
0
 62
7
 10
53.79412709288476
 20
3.977397863100356
 30
0
 11
53.41689741266464
 21
3.977397863100356
 31
0
  0
LINE
  8
0
 62
7
 10
53.41689741266464
 20
3.977397863100356
 30
0
 11
53.96944198164672
 21
3.014065804870709
 31
0
  0
LINE
  8
0
 62
7
 10
54.21475102694815
 20
4.91049999999994
 30
0
 11
54.21475102694815
 21
5.990499999999941
 31
0
  0
LINE
  8
0
 62
7
 10
54.21475102694815
 20
5.990499999999941
 30
0
 11
54.21475102694815
 21
9.99049999999994
 31
0
  0
LINE
  8
0
 62
7
 10
59.20478831521059
 20
-9.24950000000006
 30
0
 11
62.15826182671117
 21
-9.24950000000006
 31
0
  0
LINE
  8
0
 62
7
 10
54.21475102694814
 20
-9.24950000000006
 30
0
 11
59.20478831521059
 21
-9.24950000000006
 31
0
  0
LINE
  8
0
 62
7
 10
54.21475102694814
 20
-9.789500000000055
 30
0
 11
54.21475102694814
 21
-9.24950000000006
 31
0
  0
LINE
  8
0
 62
7
 10
56.06882046662871
 20
-9.789500000000059
 30
0
 11
54.21475102694814
 21
-9.789500000000055
 31
0
  0
LINE
  8
0
 62
7
 10
63.68846452665503
 20
-9.789500000000059
 30
0
 11
62.11158361469582
 21
-9.789500000000059
 31
0
  0
LINE
  8
0
 62
7
 10
56.37751930467282
 20
-9.789500000000059
 30
0
 11
56.06882046662871
 21
-9.789500000000059
 31
0
  0
LINE
  8
0
 62
7
 10
65.19831031149562
 20
-9.789500000000059
 30
0
 11
66.83661440007361
 21
-9.789500000000059
 31
0
  0
LINE
  8
0
 62
7
 10
51.5366144000736
 20
10.53049999999994
 30
0
 11
51.60895358235801
 21
10.53049999999994
 31
0
  0
LINE
  8
0
 62
7
 10
51.5366144000736
 20
-9.789500000000061
 30
0
 11
51.5366144000736
 21
10.53049999999994
 31
0
  0
LINE
  8
0
 62
7
 10
51.5366144000736
 20
-9.789500000000061
 30
0
 11
51.60895358235801
 21
-9.789500000000059
 31
0
  0
POLYLINE
  8
0
 62
7
 66
1
  0
VERTEX
  8
0
 10
60.22723712250371
 20
4.085499999999953
 30
0
 42
-0.05644778805021853
  0
VERTEX
  8
0
 10
60.5794468771785
 20
4.045462543301975
 30
0
 42
-0.05838492498244498
  0
VERTEX
  8
0
 10
60.90765430052949
 20
3.928079849446679
 30
0
 42
-0.06161079149398035
  0
VERTEX
  8
0
 10
61.18949206719661
 20
3.74135024638463
 30
0
 42
-0.06664084347123071
  0
VERTEX
  8
0
 10
61.405754245187
 20
3.497999999999964
 30
0
 42
-0.05686588394281308
  0
VERTEX
  8
0
 10
61.52152679325294
 20
3.27343679498034
 30
0
 42
-0.05934096117325043
  0
VERTEX
  8
0
 10
61.58057646004504
 20
3.033653890147617
 30
0
 42
-0.06067201751965627
  0
VERTEX
  8
0
 10
61.58057646004505
 20
2.787346109852302
 30
0
 42
-0.05968523536019271
  0
VERTEX
  8
0
 10
61.52152679325295
 20
2.547563205019579
 30
0
 42
-0.05781742326567996
  0
VERTEX
  8
0
 10
61.40575424518701
 20
2.322999999999954
 30
0
 42
-0.06763571141490007
  0
VERTEX
  8
0
 10
61.18949206719662
 20
2.079649753615286
 30
0
 42
-0.06297497339904889
  0
VERTEX
  8
0
 10
60.9076543005295
 20
1.892920150553234
 30
0
 42
-0.05885102677222516
  0
VERTEX
  8
0
 10
60.57944687717852
 20
1.775537456697936
 30
0
 42
-0.0569320974256662
  0
VERTEX
  8
0
 10
60.22723712250372
 20
1.735499999999958
 30
0
  0
SEQEND
  8
0
  0
POLYLINE
  8
0
 62
7
 66
1
  0
VERTEX
  8
0
 10
60.22723712250369
 20
9.165499999999962
 30
0
 42
-0.0564477880502183
  0
VERTEX
  8
0
 10
60.57944687717848
 20
9.125462543301982
 30
0
 42
-0.05838492498244788
  0
VERTEX
  8
0
 10
60.90765430052947
 20
9.008079849446688
 30
0
 42
-0.06161079149398809
  0
VERTEX
  8
0
 10
61.18949206719659
 20
8.82135024638464
 30
0
 42
-0.06664084347123145
  0
VERTEX
  8
0
 10
61.405754245187
 20
8.577999999999975
 30
0
 42
-0.05686588394283361
  0
VERTEX
  8
0
 10
61.52152679325294
 20
8.353436794980347
 30
0
 42
-0.05934096117325216
  0
VERTEX
  8
0
 10
61.58057646004504
 20
8.113653890147623
 30
0
 42
-0.06067201751965626
  0
VERTEX
  8
0
 10
61.58057646004505
 20
7.867346109852306
 30
0
 42
-0.05968523536019228
  0
VERTEX
  8
0
 10
61.52152679325295
 20
7.627563205019583
 30
0
 42
-0.05781742326568316
  0
VERTEX
  8
0
 10
61.40575424518701
 20
7.402999999999956
 30
0
 42
-0.06763571141489898
  0
VERTEX
  8
0
 10
61.18949206719662
 20
7.159649753615286
 30
0
 42
-0.06297497339904856
  0
VERTEX
  8
0
 10
60.9076543005295
 20
6.972920150553231
 30
0
 42
-0.05885102677222792
  0
VERTEX
  8
0
 10
60.57944687717852
 20
6.855537456697929
 30
0
 42
-0.05693209742566359
  0
VERTEX
  8
0
 10
60.22723712250372
 20
6.815499999999941
 30
0
  0
SEQEND
  8
0
  0
POLYLINE
  8
0
 62
7
 66
1
  0
VERTEX
  8
0
 10
60.22723712250371
 20
-0.9945000000000361
 30
0
 42
-0.05644778805021917
  0
VERTEX
  8
0
 10
60.5794468771785
 20
-1.034537456698021
 30
0
 42
-0.05838492498244491
  0
VERTEX
  8
0
 10
60.90765430052949
 20
-1.15192015055332
 30
0
 42
-0.06161079149398201
  0
VERTEX
  8
0
 10
61.18949206719661
 20
-1.338649753615369
 30
0
 42
-0.06664084347123099
  0
VERTEX
  8
0
 10
61.405754245187
 20
-1.582000000000037
 30
0
 42
-0.05686588394281391
  0
VERTEX
  8
0
 10
61.52152679325294
 20
-1.806563205019661
 30
0
 42
-0.0593409611732509
  0
VERTEX
  8
0
 10
61.58057646004504
 20
-2.046346109852384
 30
0
 42
-0.06067201751962758
  0
VERTEX
  8
0
 10
61.58057646004504
 20
-2.2926538901477
 30
0
 42
-0.05968523536019271
  0
VERTEX
  8
0
 10
61.52152679325295
 20
-2.532436794980423
 30
0
 42
-0.05781742326568047
  0
VERTEX
  8
0
 10
61.405754245187
 20
-2.757000000000049
 30
0
 42
-0.06763571141488169
  0
VERTEX
  8
0
 10
61.18949206719661
 20
-3.000350246384718
 30
0
 42
-0.06297497339905014
  0
VERTEX
  8
0
 10
60.9076543005295
 20
-3.18707984944677
 30
0
 42
-0.05885102677222331
  0
VERTEX
  8
0
 10
60.57944687717852
 20
-3.304462543302071
 30
0
 42
-0.05693209742565989
  0
VERTEX
  8
0
 10
60.22723712250372
 20
-3.344500000000059
 30
0
  0
SEQEND
  8
0
  0
POLYLINE
  8
0
 62
7
 66
1
  0
VERTEX
  8
0
 10
60.2272371225037
 20
-6.074500000000041
 30
0
 42
-0.05644778805022798
  0
VERTEX
  8
0
 10
60.57944687717849
 20
-6.114537456698025
 30
0
 42
-0.05838492498244501
  0
VERTEX
  8
0
 10
60.90765430052949
 20
-6.231920150553321
 30
0
 42
-0.06161079149398146
  0
VERTEX
  8
0
 10
61.18949206719661
 20
-6.41864975361537
 30
0
 42
-0.06664084347123148
  0
VERTEX
  8
0
 10
61.405754245187
 20
-6.662000000000038
 30
0
 42
-0.05686588394281461
  0
VERTEX
  8
0
 10
61.52152679325294
 20
-6.886563205019664
 30
0
 42
-0.05934096117324957
  0
VERTEX
  8
0
 10
61.58057646004504
 20
-7.126346109852386
 30
0
 42
-0.06067201751962693
  0
VERTEX
  8
0
 10
61.58057646004504
 20
-7.372653890147703
 30
0
 42
-0.05968523536019314
  0
VERTEX
  8
0
 10
61.52152679325295
 20
-7.612436794980425
 30
0
 42
-0.05781742326568187
  0
VERTEX
  8
0
 10
61.405754245187
 20
-7.837000000000051
 30
0
 42
-0.06763571141488098
  0
VERTEX
  8
0
 10
61.18949206719661
 20
-8.08035024638472
 30
0
 42
-0.0629749733990661
  0
VERTEX
  8
0
 10
60.90765430052949
 20
-8.26707984944677
 30
0
 42
-0.05885102677224414
  0
VERTEX
  8
0
 10
60.5794468771785
 20
-8.384462543302066
 30
0
 42
-0.0569320974256495
  0
VERTEX
  8
0
 10
60.22723712250371
 20
-8.42450000000005
 30
0
  0
SEQEND
  8
0
  0
POLYLINE
  8
0
 62
7
 66
1
  0
VERTEX
  8
0
 10
52.8238281687969
 20
-9.249500000000072
 30
0
 42
0.07513196958543311
  0
VERTEX
  8
0
 10
53.02327621871744
 20
-9.219039533074021
 30
0
 42
0.06786660312047492
  0
VERTEX
  8
0
 10
53.21594182414697
 20
-9.129034801163272
 30
0
 42
0.05726518579413967
  0
VERTEX
  8
0
 10
53.39740460514795
 20
-8.981550807568945
 30
0
 42
0.04660514712044438
  0
VERTEX
  8
0
 10
53.56139598007989
 20
-8.781307737636425
 30
0
 42
0.03838765691074601
  0
VERTEX
  8
0
 10
53.70243699212534
 20
-8.535410237134652
 30
0
 42
0.03279631747430312
  0
VERTEX
  8
0
 10
53.81729169858122
 20
-8.249500000000062
 30
0
 42
0.03423727153110632
  0
VERTEX
  8
0
 10
53.91488536272063
 20
-7.867264757413466
 30
0
 42
0.03111882561178435
  0
VERTEX
  8
0
 10
53.96466290882051
 20
-7.459123642804577
 30
0
  0
VERTEX
  8
0
 10
53.97098104149899
 20
-7.249500000000053
 30
0
  0
SEQEND
  8
0
  0
POLYLINE
  8
0
 62
7
 66
1
  0
VERTEX
  8
0
 10
52.8238281687969
 20
-5.249500000000048
 30
0
 42
0.08963282838432098
  0
VERTEX
  8
0
 10
52.58516295007317
 20
-5.29326395221511
 30
0
 42
0.0780334402981027
  0
VERTEX
  8
0
 10
52.35753752083851
 20
-5.42217692505741
 30
0
 42
0.07728240817361934
  0
VERTEX
  8
0
 10
52.12523300873813
 20
-5.663131013345301
 30
0
 42
0.05821481455000734
  0
VERTEX
  8
0
 10
51.91392429869366
 20
-6.03153650675918
 30
0
 42
0.04624659788928248
  0
VERTEX
  8
0
 10
51.76387507817352
 20
-6.484645904401702
 30
0
 42
0.03968193633953934
  0
VERTEX
  8
0
 10
51.68653072225632
 20
-6.987897167298799
 30
0
 42
0.03762876369943918
  0
VERTEX
  8
0
 10
51.68653072225632
 20
-7.511102832701319
 30
0
 42
0.03878288777245713
  0
VERTEX
  8
0
 10
51.76387507817352
 20
-8.014354095598417
 30
0
 42
0.0441801029342847
  0
VERTEX
  8
0
 10
51.91392429869366
 20
-8.46746349324094
 30
0
 42
0.0545121572945664
  0
VERTEX
  8
0
 10
52.12523300873813
 20
-8.835868986654816
 30
0
 42
0.05781274258361625
  0
VERTEX
  8
0
 10
52.3575375208385
 20
-9.076823074942709
 30
0
 42
0.07398284070322801
  0
VERTEX
  8
0
 10
52.58516295007317
 20
-9.20573604778501
 30
0
 42
0.08808294951720151
  0
VERTEX
  8
0
 10
52.8238281687969
 20
-9.249500000000072
 30
0
  0
SEQEND
  8
0
  0
POLYLINE
  8
0
 62
7
 66
1
  0
VERTEX
  8
0
 10
53.61494292763717
 20
-8.697817626097162
 30
0
 42
-0.04282296871732823
  0
VERTEX
  8
0
 10
53.46631518575922
 20
-8.432707742287887
 30
0
 42
-0.03579711213990801
  0
VERTEX
  8
0
 10
53.35043480524614
 20
-8.122932660604
 30
0
 42
-0.03920327222767465
  0
VERTEX
  8
0
 10
53.26397310728398
 20
-7.733596808364378
 30
0
 42
-0.03574662017446562
  0
VERTEX
  8
0
 10
53.22794596645786
 20
-7.276045307387854
 30
0
 42
-0.0353602760070551
  0
VERTEX
  8
0
 10
53.2568205636441
 20
-6.815228844719941
 30
0
 42
-0.03763306076453686
  0
VERTEX
  8
0
 10
53.34866173025115
 20
-6.382031229380626
 30
0
  0
VERTEX
  8
0
 10
53.41689741266463
 20
-6.182602136899638
 30
0
  0
SEQEND
  8
0
  0
POLYLINE
  8
0
 62
7
 66
1
  0
VERTEX
  8
0
 10
53.97098104149899
 20
-7.249500000000053
 30
0
 42
0.0301088394234181
  0
VERTEX
  8
0
 10
53.94587906974684
 20
-6.833399889189957
 30
0
 42
0.03169528455767694
  0
VERTEX
  8
0
 10
53.87193762618454
 20
-6.436547063988904
 30
0
 42
0.02953589238403869
  0
VERTEX
  8
0
 10
53.7633398799709
 20
-6.101895895224684
 30
0
 42
0.03385954489323741
  0
VERTEX
  8
0
 10
53.63498752788236
 20
-5.835286814664448
 30
0
 42
0.04026269611660594
  0
VERTEX
  8
0
 10
53.48206684155579
 20
-5.611511317705246
 30
0
 42
0.04920729758566159
  0
VERTEX
  8
0
 10
53.30834984144712
 20
-5.436651350629881
 30
0
 42
0.05975290855007131
  0
VERTEX
  8
0
 10
53.12073310073968
 20
-5.317648862464706
 30
0
 42
0.07035186038763461
  0
VERTEX
  8
0
 10
52.92412372557244
 20
-5.257158137633668
 30
0
  0
VERTEX
  8
0
 10
52.8238281687969
 20
-5.249500000000048
 30
0
  0
SEQEND
  8
0
  0
POLYLINE
  8
0
 62
7
 66
1
  0
VERTEX
  8
0
 10
52.8238281687969
 20
-4.16950000000007
 30
0
 42
0.08963282838432989
  0
VERTEX
  8
0
 10
53.06249338752063
 20
-4.12573604778501
 30
0
 42
0.07803344029807843
  0
VERTEX
  8
0
 10
53.2901188167553
 20
-3.996823074942709
 30
0
 42
0.07728240817358994
  0
VERTEX
  8
0
 10
53.52242332885567
 20
-3.755868986654818
 30
0
 42
0.05821481455000817
  0
VERTEX
  8
0
 10
53.73373203890016
 20
-3.387463493240941
 30
0
 42
0.04624659788932464
  0
VERTEX
  8
0
 10
53.88378125942027
 20
-2.934354095598421
 30
0
 42
0.03968193633956654
  0
VERTEX
  8
0
 10
53.96112561533747
 20
-2.431102832701323
 30
0
 42
0.03762876369943942
  0
VERTEX
  8
0
 10
53.96112561533747
 20
-1.907897167298805
 30
0
 42
0.03878288777245713
  0
VERTEX
  8
0
 10
53.88378125942027
 20
-1.404645904401708
 30
0
 42
0.04418010293432658
  0
VERTEX
  8
0
 10
53.73373203890016
 20
-0.9515365067591858
 30
0
 42
0.05451215729458159
  0
VERTEX
  8
0
 10
53.52242332885568
 20
-0.5831310133453069
 30
0
 42
0.05781274258364476
  0
VERTEX
  8
0
 10
53.29011881675528
 20
-0.3421769250574128
 30
0
 42
0.07398284070330031
  0
VERTEX
  8
0
 10
53.06249338752063
 20
-0.2132639522151108
 30
0
 42
0.08808294951719504
  0
VERTEX
  8
0
 10
52.82382816879691
 20
-0.1695000000000468
 30
0
  0
SEQEND
  8
0
  0
POLYLINE
  8
0
 62
7
 66
1
  0
VERTEX
  8
0
 10
53.61494292763717
 20
-3.61781762609716
 30
0
 42
-0.0428229687173315
  0
VERTEX
  8
0
 10
53.46631518575922
 20
-3.352707742287885
 30
0
 42
-0.03579711213991346
  0
VERTEX
  8
0
 10
53.35043480524614
 20
-3.042932660604001
 30
0
 42
-0.03920327222767422
  0
VERTEX
  8
0
 10
53.26397310728398
 20
-2.653596808364378
 30
0
 42
-0.03574662017446568
  0
VERTEX
  8
0
 10
53.22794596645786
 20
-2.196045307387856
 30
0
 42
-0.03536027600705512
  0
VERTEX
  8
0
 10
53.2568205636441
 20
-1.735228844719944
 30
0
 42
-0.03763306076453734
  0
VERTEX
  8
0
 10
53.34866173025115
 20
-1.302031229380632
 30
0
  0
VERTEX
  8
0
 10
53.41689741266464
 20
-1.102602136899649
 30
0
  0
SEQEND
  8
0
  0
POLYLINE
  8
0
 62
7
 66
1
  0
VERTEX
  8
0
 10
51.67667529609481
 20
2.91049999999995
 30
0
 42
0.03010883942341777
  0
VERTEX
  8
0
 10
51.70177726784696
 20
2.494399889189849
 30
0
 42
0.03169528455769367
  0
VERTEX
  8
0
 10
51.77571871140926
 20
2.097547063988793
 30
0
 42
0.02953589238403798
  0
VERTEX
  8
0
 10
51.8843164576229
 20
1.762895895224571
 30
0
 42
0.03385954489323605
  0
VERTEX
  8
0
 10
52.01266880971144
 20
1.496286814664334
 30
0
 42
0.04026269611654402
  0
VERTEX
  8
0
 10
52.16558949603802
 20
1.27251131770513
 30
0
 42
0.04920729758572552
  0
VERTEX
  8
0
 10
52.33930649614667
 20
1.097651350629764
 30
0
 42
0.05975290855003884
  0
VERTEX
  8
0
 10
52.52692323685412
 20
0.9786488624645882
 30
0
 42
0.07035186038762732
  0
VERTEX
  8
0
 10
52.72353261202135
 20
0.918158137633549
 30
0
  0
VERTEX
  8
0
 10
52.8238281687969
 20
0.9104999999999293
 30
0
  0
SEQEND
  8
0
  0
POLYLINE
  8
0
 62
7
 66
1
  0
VERTEX
  8
0
 10
52.8238281687969
 20
0.9104999999999293
 30
0
 42
0.08963282838432893
  0
VERTEX
  8
0
 10
53.06249338752063
 20
0.9542639522149907
 30
0
 42
0.0780334402980879
  0
VERTEX
  8
0
 10
53.2901188167553
 20
1.08317692505729
 30
0
 42
0.0772824081735897
  0
VERTEX
  8
0
 10
53.52242332885567
 20
1.324131013345181
 30
0
 42
0.05821481455000847
  0
VERTEX
  8
0
 10
53.73373203890016
 20
1.692536506759058
 30
0
 42
0.04624659788932445
  0
VERTEX
  8
0
 10
53.88378125942027
 20
2.145645904401579
 30
0
 42
0.03968193633956642
  0
VERTEX
  8
0
 10
53.96112561533747
 20
2.648897167298676
 30
0
 42
0.03762876369943935
  0
VERTEX
  8
0
 10
53.96112561533747
 20
3.172102832701194
 30
0
 42
0.03878288777245684
  0
VERTEX
  8
0
 10
53.88378125942027
 20
3.675354095598292
 30
0
 42
0.04418010293432667
  0
VERTEX
  8
0
 10
53.73373203890016
 20
4.128463493240814
 30
0
 42
0.05451215729458136
  0
VERTEX
  8
0
 10
53.52242332885568
 20
4.496868986654692
 30
0
 42
0.05781274258364432
  0
VERTEX
  8
0
 10
53.29011881675528
 20
4.737823074942586
 30
0
 42
0.07398284070330408
  0
VERTEX
  8
0
 10
53.06249338752063
 20
4.866736047784888
 30
0
 42
0.08808294951719607
  0
VERTEX
  8
0
 10
52.82382816879691
 20
4.910499999999953
 30
0
  0
SEQEND
  8
0
  0
POLYLINE
  8
0
 62
7
 66
1
  0
VERTEX
  8
0
 10
53.61494292763717
 20
1.462182373902844
 30
0
 42
-0.0428229687173482
  0
VERTEX
  8
0
 10
53.46631518575923
 20
1.727292257712119
 30
0
 42
-0.03579711213995343
  0
VERTEX
  8
0
 10
53.35043480524615
 20
2.037067339396003
 30
0
 42
-0.03920327222761758
  0
VERTEX
  8
0
 10
53.26397310728398
 20
2.426403191635624
 30
0
 42
-0.03574662017445011
  0
VERTEX
  8
0
 10
53.22794596645788
 20
2.883954692612145
 30
0
 42
-0.03536027600705512
  0
VERTEX
  8
0
 10
53.25682056364411
 20
3.344771155280055
 30
0
 42
-0.03763306076450566
  0
VERTEX
  8
0
 10
53.34866173025116
 20
3.777968770619368
 30
0
  0
VERTEX
  8
0
 10
53.41689741266464
 20
3.977397863100356
 30
0
  0
SEQEND
  8
0
  0
POLYLINE
  8
0
 62
7
 66
1
  0
VERTEX
  8
0
 10
51.67667529609481
 20
7.990499999999951
 30
0
 42
0.03010883942341809
  0
VERTEX
  8
0
 10
51.70177726784696
 20
7.574399889189854
 30
0
 42
0.03169528455769472
  0
VERTEX
  8
0
 10
51.77571871140926
 20
7.177547063988799
 30
0
 42
0.02953589238404015
  0
VERTEX
  8
0
 10
51.8843164576229
 20
6.842895895224576
 30
0
 42
0.03385954489323929
  0
VERTEX
  8
0
 10
52.01266880971144
 20
6.576286814664337
 30
0
 42
0.04026269611654553
  0
VERTEX
  8
0
 10
52.16558949603802
 20
6.352511317705132
 30
0
 42
0.04920729758572225
  0
VERTEX
  8
0
 10
52.33930649614667
 20
6.177651350629764
 30
0
 42
0.05975290855003572
  0
VERTEX
  8
0
 10
52.52692323685412
 20
6.058648862464588
 30
0
 42
0.07035186038762828
  0
VERTEX
  8
0
 10
52.72353261202135
 20
5.998158137633549
 30
0
  0
VERTEX
  8
0
 10
52.8238281687969
 20
5.99049999999993
 30
0
  0
SEQEND
  8
0
  0
POLYLINE
  8
0
 62
7
 66
1
  0
VERTEX
  8
0
 10
52.82382816879691
 20
9.990499999999953
 30
0
 42
0.07513196958543136
  0
VERTEX
  8
0
 10
52.62438011887636
 20
9.960039533073903
 30
0
 42
0.06786660312050001
  0
VERTEX
  8
0
 10
52.43171451344683
 20
9.870034801163158
 30
0
 42
0.0572651857941292
  0
VERTEX
  8
0
 10
52.25025173244586
 20
9.722550807568833
 30
0
 42
0.04660514712043893
  0
VERTEX
  8
0
 10
52.08626035751393
 20
9.522307737636318
 30
0
 42
0.03838765691079257
  0
VERTEX
  8
0
 10
51.94521934546849
 20
9.276410237134543
 30
0
 42
0.03279631747434676
  0
VERTEX
  8
0
 10
51.8303646390126
 20
8.990499999999956
 30
0
 42
0.0342372715311752
  0
VERTEX
  8
0
 10
51.73277097487317
 20
8.608264757413362
 30
0
 42
0.03111882561176695
  0
VERTEX
  8
0
 10
51.68299342877329
 20
8.200123642804474
 30
0
  0
VERTEX
  8
0
 10
51.67667529609481
 20
7.990499999999951
 30
0
  0
SEQEND
  8
0
  0
POLYLINE
  8
0
 62
7
 66
1
  0
VERTEX
  8
0
 10
52.8238281687969
 20
5.99049999999993
 30
0
 42
0.08963282838432265
  0
VERTEX
  8
0
 10
53.06249338752063
 20
6.034263952214991
 30
0
 42
0.07803344029809237
  0
VERTEX
  8
0
 10
53.2901188167553
 20
6.163176925057291
 30
0
 42
0.07728240817359125
  0
VERTEX
  8
0
 10
53.52242332885567
 20
6.404131013345182
 30
0
 42
0.05821481455000886
  0
VERTEX
  8
0
 10
53.73373203890016
 20
6.772536506759058
 30
0
 42
0.0462465978893249
  0
VERTEX
  8
0
 10
53.88378125942027
 20
7.22564590440158
 30
0
 42
0.03968193633956697
  0
VERTEX
  8
0
 10
53.96112561533747
 20
7.728897167298676
 30
0
 42
0.03762876369943942
  0
VERTEX
  8
0
 10
53.96112561533747
 20
8.252102832701194
 30
0
 42
0.0387828877724569
  0
VERTEX
  8
0
 10
53.88378125942027
 20
8.755354095598291
 30
0
 42
0.04418010293432809
  0
VERTEX
  8
0
 10
53.73373203890016
 20
9.208463493240814
 30
0
 42
0.05451215729458029
  0
VERTEX
  8
0
 10
53.52242332885568
 20
9.576868986654693
 30
0
 42
0.05781274258364313
  0
VERTEX
  8
0
 10
53.29011881675528
 20
9.817823074942586
 30
0
 42
0.07398284070332038
  0
VERTEX
  8
0
 10
53.06249338752063
 20
9.946736047784889
 30
0
 42
0.08808294951720295
  0
VERTEX
  8
0
 10
52.82382816879691
 20
9.990499999999953
 30
0
  0
SEQEND
  8
0
  0
POLYLINE
  8
0
 62
7
 66
1
  0
VERTEX
  8
0
 10
53.61494292763717
 20
6.542182373902845
 30
0
 42
-0.04282296871735027
  0
VERTEX
  8
0
 10
53.46631518575923
 20
6.80729225771212
 30
0
 42
-0.03579711213995604
  0
VERTEX
  8
0
 10
53.35043480524615
 20
7.117067339396003
 30
0
 42
-0.03920327222761804
  0
VERTEX
  8
0
 10
53.26397310728398
 20
7.506403191635625
 30
0
 42
-0.03574662017445038
  0
VERTEX
  8
0
 10
53.22794596645788
 20
7.963954692612147
 30
0
 42
-0.03536027600705492
  0
VERTEX
  8
0
 10
53.25682056364411
 20
8.424771155280057
 30
0
 42
-0.03763306076448975
  0
VERTEX
  8
0
 10
53.34866173025115
 20
8.857968770619369
 30
0
  0
VERTEX
  8
0
 10
53.41689741266463
 20
9.057397863100356
 30
0
  0
SEQEND
  8
0
  0
POLYLINE
  8
0
 62
7
 66
1
  0
VERTEX
  8
0
 10
52.82382816879691
 20
4.910499999999953
 30
0
 42
0.07513196958542692
  0
VERTEX
  8
0
 10
52.62438011887636
 20
4.880039533073902
 30
0
 42
0.0678666031205042
  0
VERTEX
  8
0
 10
52.43171451344683
 20
4.790034801163157
 30
0
 42
0.05726518579412623
  0
VERTEX
  8
0
 10
52.25025173244586
 20
4.642550807568834
 30
0
 42
0.04660514712043139
  0
VERTEX
  8
0
 10
52.08626035751393
 20
4.442307737636316
 30
0
 42
0.03838765691079439
  0
VERTEX
  8
0
 10
51.94521934546849
 20
4.196410237134542
 30
0
 42
0.03279631747434917
  0
VERTEX
  8
0
 10
51.8303646390126
 20
3.910499999999955
 30
0
 42
0.03423727153117583
  0
VERTEX
  8
0
 10
51.73277097487317
 20
3.528264757413361
 30
0
 42
0.03111882561176729
  0
VERTEX
  8
0
 10
51.68299342877329
 20
3.120123642804473
 30
0
  0
VERTEX
  8
0
 10
51.67667529609481
 20
2.91049999999995
 30
0
  0
SEQEND
  8
0
  0
POLYLINE
  8
0
 62
7
 66
1
  0
VERTEX
  8
0
 10
52.82382816879691
 20
-0.1695000000000468
 30
0
 42
0.07513196958542408
  0
VERTEX
  8
0
 10
52.62438011887636
 20
-0.1999604669260968
 30
0
 42
0.06786660312049886
  0
VERTEX
  8
0
 10
52.43171451344683
 20
-0.2899651988368413
 30
0
 42
0.05726518579412549
  0
VERTEX
  8
0
 10
52.25025173244586
 20
-0.4374491924311654
 30
0
 42
0.04660514712042848
  0
VERTEX
  8
0
 10
52.08626035751393
 20
-0.6376922623636836
 30
0
 42
0.03838765691079428
  0
VERTEX
  8
0
 10
51.94521934546849
 20
-0.8835897628654577
 30
0
 42
0.0327963174743489
  0
VERTEX
  8
0
 10
51.8303646390126
 20
-1.169500000000044
 30
0
 42
0.03423727153117657
  0
VERTEX
  8
0
 10
51.73277097487317
 20
-1.551735242586639
 30
0
 42
0.03111882561176699
  0
VERTEX
  8
0
 10
51.68299342877329
 20
-1.959876357195528
 30
0
  0
VERTEX
  8
0
 10
51.67667529609481
 20
-2.169500000000051
 30
0
  0
SEQEND
  8
0
  0
POLYLINE
  8
0
 62
7
 66
1
  0
VERTEX
  8
0
 10
51.67667529609481
 20
-2.169500000000051
 30
0
 42
0.03010883942341797
  0
VERTEX
  8
0
 10
51.70177726784696
 20
-2.585600110810149
 30
0
 42
0.03169528455769353
  0
VERTEX
  8
0
 10
51.77571871140926
 20
-2.982452936011205
 30
0
 42
0.02953589238403759
  0
VERTEX
  8
0
 10
51.8843164576229
 20
-3.317104104775428
 30
0
 42
0.03385954489323664
  0
VERTEX
  8
0
 10
52.01266880971144
 20
-3.583713185335665
 30
0
 42
0.04026269611654651
  0
VERTEX
  8
0
 10
52.16558949603802
 20
-3.807488682294869
 30
0
 42
0.04920729758572731
  0
VERTEX
  8
0
 10
52.33930649614667
 20
-3.982348649370235
 30
0
 42
0.05975290855004494
  0
VERTEX
  8
0
 10
52.52692323685412
 20
-4.101351137535412
 30
0
 42
0.07035186038762828
  0
VERTEX
  8
0
 10
52.72353261202135
 20
-4.161841862366451
 30
0
  0
VERTEX
  8
0
 10
52.8238281687969
 20
-4.16950000000007
 30
0
  0
SEQEND
  8
0
  0
ENDBLK
  8
0
  0
BLOCK
  8
0
  2
R_CKANS1
 70
0
 10
51.5366144000736
 20
-10.53049999999994
 30
0
  0
INSERT
  8
0
  2
SMKDSP_1_5-4-5_08__4
 10
51.5366144000736
 20
-10.53049999999994
 30
0
  0
ENDBLK
  8
0
  0
BLOCK
  8
0
  2
SMKDSP_1_5-4-5_08__5
 70
0
 10
10.91220480002455
 20
-28.14270480004882
 30
0
  0
LINE
  8
0
 62
7
 10
14.4122048000245
 20
-25.57118633605147
 30
0
 11
14.41220480002454
 21
-21.79270480004879
 31
0
  0
LINE
  8
0
 62
7
 10
14.41220480002454
 20
-21.79270480004879
 30
0
 11
14.41220480002454
 21
-20.4927048000488
 31
0
  0
LINE
  8
0
 62
7
 10
14.41220480002454
 20
-20.4927048000488
 30
0
 11
14.41220480002455
 21
-20.08167069965447
 31
0
  0
LINE
  8
0
 62
7
 10
14.41220480002455
 20
-19.42464981598305
 30
0
 11
14.41220480002455
 21
-20.08167069965447
 31
0
  0
LINE
  8
0
 62
7
 10
25.17999873346948
 20
-23.52895151642079
 30
0
 11
24.87129989542534
 21
-23.08808388618442
 31
0
  0
LINE
  8
0
 62
7
 10
27.03406817315001
 20
-14.74270480000006
 30
0
 11
29.63986561774016
 21
-18.46416922646527
 31
0
  0
LINE
  8
0
 62
7
 10
14.41220480002455
 20
-20.08167069965447
 30
0
 11
17.56035467344313
 21
-17.87731242687289
 31
0
  0
LINE
  8
0
 62
7
 10
26.50029299951632
 20
-23.49673566560541
 30
0
 11
19.86516144077543
 21
-28.14270480004882
 31
0
  0
LINE
  8
0
 62
7
 10
25.17999873346948
 20
-23.52895151642079
 30
0
 11
19.44593442344648
 21
-27.54398657087803
 31
0
  0
LINE
  8
0
 62
7
 10
19.13723558540235
 20
-27.10311894064171
 30
0
 11
18.76477236584878
 21
-26.5711863360515
 31
0
  0
LINE
  8
0
 62
7
 10
19.13723558540235
 20
-27.10311894064171
 30
0
 11
24.87129989542534
 21
-23.08808388618442
 31
0
  0
LINE
  8
0
 62
7
 10
18.76477236584878
 20
-26.5711863360515
 30
0
 11
15.4122048000245
 21
-26.57118633605147
 31
0
  0
LINE
  8
0
 62
7
 10
26.18358631719203
 20
-23.04443164852209
 30
0
 11
26.50029299951632
 21
-23.49673566560541
 31
0
  0
LINE
  8
0
 62
7
 10
29.61862257727215
 20
-18.95071484488032
 30
0
 11
26.18358631719203
 21
-23.04443164852209
 31
0
  0
LINE
  8
0
 62
7
 10
11.91220480002454
 20
-21.5927048000488
 30
0
 11
10.91220480002455
 21
-21.5927048000488
 31
0
  0
LINE
  8
0
 62
7
 10
10.91220480002455
 20
-20.69270480004879
 30
0
 11
11.91220480002455
 21
-20.69270480004879
 31
0
  0
LINE
  8
0
 62
7
 10
10.91220480002455
 20
-21.5927048000488
 30
0
 11
10.91220480002455
 21
-20.69270480004879
 31
0
  0
LINE
  8
0
 62
7
 10
13.91220480002454
 20
-20.69270480004879
 30
0
 11
11.91220480002455
 21
-20.69270480004879
 31
0
  0
LINE
  8
0
 62
7
 10
13.91220480002454
 20
-21.5927048000488
 30
0
 11
11.91220480002454
 21
-21.5927048000488
 31
0
  0
LINE
  8
0
 62
7
 10
11.91220480002455
 20
-20.69270480004879
 30
0
 11
11.91220480002454
 21
-21.5927048000488
 31
0
  0
LINE
  8
0
 62
7
 10
13.91220480002454
 20
-21.79270480004878
 30
0
 11
13.91220480002454
 21
-21.5927048000488
 31
0
  0
LINE
  8
0
 62
7
 10
13.91220480002454
 20
-21.5927048000488
 30
0
 11
13.91220480002454
 21
-20.69270480004879
 31
0
  0
LINE
  8
0
 62
7
 10
14.41220480002454
 20
-20.4927048000488
 30
0
 11
13.91220480002455
 21
-20.49270480004878
 31
0
  0
LINE
  8
0
 62
7
 10
14.41220480002454
 20
-21.79270480004879
 30
0
 11
13.91220480002454
 21
-21.79270480004878
 31
0
  0
LINE
  8
0
 62
7
 10
13.91220480002454
 20
-20.69270480004879
 30
0
 11
13.91220480002455
 21
-20.49270480004878
 31
0
  0
LINE
  8
0
 62
7
 10
17.25165583539901
 20
-17.43644479663654
 30
0
 11
14.41220480002455
 21
-19.42464981598305
 31
0
  0
LINE
  8
0
 62
7
 10
14.41220480002455
 20
-19.42464981598305
 30
0
 11
14.41220480002458
 21
-15.88985767270206
 31
0
  0
LINE
  8
0
 62
7
 10
16.05050888860255
 20
-14.74270479999998
 30
0
 11
27.03406817315001
 21
-14.74270480000006
 31
0
  0
LINE
  8
0
 62
7
 10
17.56035467344313
 20
-17.87731242687289
 30
0
 11
17.25165583539901
 21
-17.43644479663654
 31
0
  0
LINE
  8
0
 62
7
 10
14.41220480002458
 20
-15.88985767270206
 30
0
 11
16.05050888860255
 21
-14.74270479999998
 31
0
  0
LINE
  8
0
 62
7
 10
19.86516144077543
 20
-28.14270480004882
 30
0
 11
19.44593442344648
 21
-27.54398657087803
 31
0
  0
LINE
  8
0
 62
7
 10
19.44593442344648
 20
-27.54398657087803
 30
0
 11
19.13723558540235
 21
-27.10311894064171
 31
0
  0
ARC
  8
0
 62
7
 10
15.4122048000245
 20
-25.57118633605147
 30
0
 40
1
 50
180
 51
270
  0
ARC
  8
0
 62
7
 10
29.31220480002456
 20
-18.69359980100569
 30
0
 40
0.4000000000000077
 50
319.9999999999981
 51
34.99999999999986
  0
ENDBLK
  8
0
  0
BLOCK
  8
0
  2
DRFSICHT1
 70
0
 10
10.91220480002455
 20
-28.14270480004882
 30
0
  0
INSERT
  8
0
  2
SMKDSP_1_5-4-5_08__5
 10
10.91220480002455
 20
-28.14270480004882
 30
0
  0
ENDBLK
  8
0
  0
BLOCK
  8
0
  2
SMKDSP_1_5-4-5_08__6
 70
0
 10
10.91220480002454
 20
-10.53049999999994
 30
0
  0
LINE
  8
0
 62
7
 10
10.91220480002454
 20
2.728449192431078
 30
0
 11
11.91220480002454
 21
2.460499999999956
 31
0
  0
LINE
  8
0
 62
7
 10
10.91220480002454
 20
7.808449192431078
 30
0
 11
11.91220480002454
 21
7.540499999999955
 31
0
  0
LINE
  8
0
 62
7
 10
14.41220480002454
 20
-2.819500000000044
 30
0
 11
14.41220480002454
 21
-1.519500000000043
 31
0
  0
LINE
  8
0
 62
7
 10
10.91220480002454
 20
-2.351550807568923
 30
0
 11
11.91220480002454
 21
-2.619500000000046
 31
0
  0
LINE
  8
0
 62
7
 10
10.91220480002454
 20
-1.987449192431169
 30
0
 11
10.91220480002454
 21
-2.351550807568923
 31
0
  0
LINE
  8
0
 62
7
 10
13.91220480002454
 20
-1.719500000000046
 30
0
 11
11.91220480002454
 21
-1.719500000000046
 31
0
  0
LINE
  8
0
 62
7
 10
11.91220480002454
 20
-1.719500000000046
 30
0
 11
10.91220480002454
 21
-1.987449192431169
 31
0
  0
LINE
  8
0
 62
7
 10
13.91220480002454
 20
3.360499999999955
 30
0
 11
11.91220480002454
 21
3.360499999999955
 31
0
  0
LINE
  8
0
 62
7
 10
13.91220480002454
 20
2.460499999999955
 30
0
 11
11.91220480002454
 21
2.460499999999956
 31
0
  0
LINE
  8
0
 62
7
 10
13.91220480002454
 20
7.540499999999954
 30
0
 11
11.91220480002454
 21
7.540499999999955
 31
0
  0
LINE
  8
0
 62
7
 10
13.91220480002454
 20
8.440499999999956
 30
0
 11
11.91220480002454
 21
8.440499999999956
 31
0
  0
LINE
  8
0
 62
7
 10
13.91220480002455
 20
-2.619500000000044
 30
0
 11
11.91220480002454
 21
-2.619500000000046
 31
0
  0
LINE
  8
0
 62
7
 10
14.41220480002454
 20
-1.519500000000043
 30
0
 11
13.91220480002454
 21
-1.519500000000043
 31
0
  0
LINE
  8
0
 62
7
 10
25.72209855744176
 20
1.094807806183429
 30
0
 11
20.84814389392224
 21
1.094807806183415
 31
0
  0
LINE
  8
0
 62
7
 10
20.84814389392224
 20
-0.3538078061835108
 30
0
 11
25.72209855744176
 21
-0.3538078061835255
 31
0
  0
LINE
  8
0
 62
7
 10
20.84814389392224
 20
4.726192193816489
 30
0
 11
25.72209855744176
 21
4.726192193816476
 31
0
  0
LINE
  8
0
 62
7
 10
25.72209855744176
 20
-0.3538078061835255
 30
0
 11
25.72209855744175
 21
-2.169500000000049
 31
0
  0
LINE
  8
0
 62
7
 10
20.84814389392224
 20
1.094807806183415
 30
0
 11
20.84814389392224
 21
4.726192193816489
 31
0
  0
LINE
  8
0
 62
7
 10
25.72209855744175
 20
2.910499999999951
 30
0
 11
25.72209855744176
 21
1.094807806183429
 31
0
  0
LINE
  8
0
 62
7
 10
25.72209855744176
 20
4.726192193816476
 30
0
 11
25.72209855744175
 21
2.910499999999951
 31
0
  0
LINE
  8
0
 62
7
 10
25.52516076509849
 20
4.527958653843406
 30
0
 11
25.52516076509848
 21
3.385327288481588
 31
0
  0
LINE
  8
0
 62
7
 10
25.52516076509849
 20
-0.5520413461565923
 30
0
 11
25.52516076509848
 21
-1.694672711518412
 31
0
  0
LINE
  8
0
 62
7
 10
21.02495833163758
 20
-0.769500000000058
 30
0
 11
23.11379604457454
 21
-0.7695000000000582
 31
0
  0
LINE
  8
0
 62
7
 10
25.52516076509849
 20
-0.5520413461565923
 30
0
 11
23.11379604457454
 21
-0.7695000000000582
 31
0
  0
LINE
  8
0
 62
7
 10
20.84814389392224
 20
-0.3538078061835108
 30
0
 11
21.02495833163758
 21
-0.769500000000058
 31
0
  0
LINE
  8
0
 62
7
 10
14.41220480002454
 20
3.560499999999955
 30
0
 11
13.91220480002454
 21
3.560499999999955
 31
0
  0
LINE
  8
0
 62
7
 10
14.41220480002454
 20
2.260499999999955
 30
0
 11
13.91220480002454
 21
2.260499999999955
 31
0
  0
LINE
  8
0
 62
7
 10
14.41220480002454
 20
7.340499999999954
 30
0
 11
13.91220480002454
 21
7.340499999999954
 31
0
  0
LINE
  8
0
 62
7
 10
14.41220480002454
 20
8.640499999999955
 30
0
 11
13.91220480002454
 21
8.640499999999955
 31
0
  0
LINE
  8
0
 62
7
 10
14.41220480002454
 20
3.560499999999955
 30
0
 11
14.41220480002454
 21
7.340499999999954
 31
0
  0
LINE
  8
0
 62
7
 10
14.41220480002454
 20
7.340499999999954
 30
0
 11
14.41220480002454
 21
8.640499999999955
 31
0
  0
LINE
  8
0
 62
7
 10
14.41220480002454
 20
2.260499999999955
 30
0
 11
14.41220480002454
 21
3.560499999999955
 31
0
  0
LINE
  8
0
 62
7
 10
14.41220480002454
 20
-1.519500000000043
 30
0
 11
14.41220480002454
 21
2.260499999999955
 31
0
  0
LINE
  8
0
 62
7
 10
13.91220480002454
 20
-1.719500000000046
 30
0
 11
13.91220480002454
 21
-1.519500000000043
 31
0
  0
LINE
  8
0
 62
7
 10
13.91220480002455
 20
-2.619500000000044
 30
0
 11
13.91220480002454
 21
-1.719500000000046
 31
0
  0
LINE
  8
0
 62
7
 10
13.91220480002454
 20
8.440499999999956
 30
0
 11
13.91220480002454
 21
8.640499999999955
 31
0
  0
LINE
  8
0
 62
7
 10
13.91220480002454
 20
7.540499999999954
 30
0
 11
13.91220480002454
 21
8.440499999999956
 31
0
  0
LINE
  8
0
 62
7
 10
13.91220480002454
 20
7.340499999999954
 30
0
 11
13.91220480002454
 21
7.540499999999954
 31
0
  0
LINE
  8
0
 62
7
 10
13.91220480002454
 20
3.360499999999955
 30
0
 11
13.91220480002454
 21
3.560499999999955
 31
0
  0
LINE
  8
0
 62
7
 10
13.91220480002454
 20
2.460499999999955
 30
0
 11
13.91220480002454
 21
3.360499999999955
 31
0
  0
LINE
  8
0
 62
7
 10
13.91220480002454
 20
2.260499999999955
 30
0
 11
13.91220480002454
 21
2.460499999999955
 31
0
  0
LINE
  8
0
 62
7
 10
11.91220480002454
 20
3.360499999999955
 30
0
 11
10.91220480002454
 21
3.092550807568831
 31
0
  0
LINE
  8
0
 62
7
 10
10.91220480002454
 20
3.092550807568831
 30
0
 11
10.91220480002454
 21
2.728449192431078
 31
0
  0
LINE
  8
0
 62
7
 10
10.91220480002454
 20
8.172550807568832
 30
0
 11
10.91220480002454
 21
7.808449192431078
 31
0
  0
LINE
  8
0
 62
7
 10
11.91220480002454
 20
8.440499999999956
 30
0
 11
10.91220480002454
 21
8.172550807568832
 31
0
  0
LINE
  8
0
 62
7
 10
14.41220480002454
 20
-6.599500000000045
 30
0
 11
14.41220480002454
 21
-2.819500000000044
 31
0
  0
LINE
  8
0
 62
7
 10
14.41220480002454
 20
-2.819500000000044
 30
0
 11
13.91220480002455
 21
-2.819500000000044
 31
0
  0
LINE
  8
0
 62
7
 10
14.41220480002454
 20
-6.599500000000045
 30
0
 11
13.91220480002455
 21
-6.599500000000045
 31
0
  0
LINE
  8
0
 62
7
 10
14.41220480002454
 20
-7.899500000000046
 30
0
 11
13.91220480002468
 21
-7.899500000000046
 31
0
  0
LINE
  8
0
 62
7
 10
13.91220480002455
 20
-6.799500000000045
 30
0
 11
13.91220480002455
 21
-6.599500000000045
 31
0
  0
LINE
  8
0
 62
7
 10
14.41220480002454
 20
-7.899500000000046
 30
0
 11
14.41220480002454
 21
-6.599500000000045
 31
0
  0
LINE
  8
0
 62
7
 10
13.91220480002455
 20
-7.699500000000047
 30
0
 11
13.91220480002455
 21
-6.799500000000045
 31
0
  0
LINE
  8
0
 62
7
 10
13.91220480002468
 20
-7.899500000000046
 30
0
 11
13.91220480002455
 21
-7.699500000000047
 31
0
  0
LINE
  8
0
 62
7
 10
14.4122048000245
 20
-9.789500000000057
 30
0
 11
14.41220480002454
 21
-7.899500000000046
 31
0
  0
LINE
  8
0
 62
7
 10
17.56035467344313
 20
-9.789500000000061
 30
0
 11
15.4122048000245
 21
-9.789500000000061
 31
0
  0
LINE
  8
0
 62
7
 10
15.4122048000245
 20
-9.789500000000061
 30
0
 11
14.4122048000245
 21
-9.789500000000057
 31
0
  0
LINE
  8
0
 62
7
 10
17.56035467344313
 20
-9.789500000000061
 30
0
 11
18.76477236584878
 21
-9.789500000000057
 31
0
  0
LINE
  8
0
 62
7
 10
13.91220480002455
 20
-2.819500000000044
 30
0
 11
13.91220480002455
 21
-2.619500000000044
 31
0
  0
LINE
  8
0
 62
7
 10
10.91220480002455
 20
-7.06744919243117
 30
0
 11
10.91220480002455
 21
-7.431550807568925
 31
0
  0
LINE
  8
0
 62
7
 10
13.91220480002455
 20
-6.799500000000045
 30
0
 11
11.91220480002455
 21
-6.799500000000045
 31
0
  0
LINE
  8
0
 62
7
 10
11.91220480002455
 20
-6.799500000000045
 30
0
 11
10.91220480002455
 21
-7.06744919243117
 31
0
  0
LINE
  8
0
 62
7
 10
10.91220480002455
 20
-7.431550807568925
 30
0
 11
11.91220480002455
 21
-7.699500000000043
 31
0
  0
LINE
  8
0
 62
7
 10
13.91220480002455
 20
-7.699500000000047
 30
0
 11
11.91220480002455
 21
-7.699500000000043
 31
0
  0
LINE
  8
0
 62
7
 10
14.41220480002454
 20
8.640499999999955
 30
0
 11
14.4122048000245
 21
10.53049999999994
 31
0
  0
LINE
  8
0
 62
7
 10
14.4122048000245
 20
10.53049999999994
 30
0
 11
15.4122048000245
 21
10.53049999999994
 31
0
  0
LINE
  8
0
 62
7
 10
18.76477236584878
 20
10.53049999999994
 30
0
 11
15.4122048000245
 21
10.53049999999994
 31
0
  0
LINE
  8
0
 62
7
 10
19.55775151312796
 20
-10.53049999999994
 30
0
 11
25.29181582315096
 21
-10.53049999999994
 31
0
  0
LINE
  8
0
 62
7
 10
19.44593442344648
 20
-9.956797909878741
 30
0
 11
19.55775151312796
 21
-10.18863339295295
 31
0
  0
LINE
  8
0
 62
7
 10
25.29181582315095
 20
-10.18863339295295
 30
0
 11
19.55775151312796
 21
-10.18863339295295
 31
0
  0
LINE
  8
0
 62
7
 10
19.02541849572084
 20
-10.18863339295295
 30
0
 11
19.13723558540234
 21
-9.956797909878741
 31
0
  0
LINE
  8
0
 62
7
 10
18.76477236584878
 20
10.53049999999994
 30
0
 11
18.76477236584878
 21
-9.789500000000057
 31
0
  0
LINE
  8
0
 62
7
 10
19.86516144077542
 20
10.53049999999994
 30
0
 11
19.86516144077543
 21
-9.789500000000057
 31
0
  0
LINE
  8
0
 62
7
 10
19.44593442344648
 20
-9.956797909878741
 30
0
 11
25.17999873346947
 21
-9.956797909878741
 31
0
  0
LINE
  8
0
 62
7
 10
19.13723558540234
 20
-9.956797909878741
 30
0
 11
19.13723558540234
 21
-9.789500000000057
 31
0
  0
LINE
  8
0
 62
7
 10
18.76477236584878
 20
-9.789500000000057
 30
0
 11
19.13723558540234
 21
-9.789500000000057
 31
0
  0
LINE
  8
0
 62
7
 10
19.44593442344647
 20
-9.789500000000057
 30
0
 11
19.86516144077543
 21
-9.789500000000057
 31
0
  0
LINE
  8
0
 62
7
 10
25.17999873346946
 20
-9.789500000000057
 30
0
 11
25.17999873346947
 21
-9.956797909878741
 31
0
  0
LINE
  8
0
 62
7
 10
26.50029299951632
 20
10.53049999999994
 30
0
 11
19.86516144077542
 21
10.53049999999994
 31
0
  0
LINE
  8
0
 62
7
 10
20.84814389392224
 20
-9.065192193816582
 30
0
 11
21.02495833163753
 21
-8.649500000000046
 31
0
  0
LINE
  8
0
 62
7
 10
25.72209855744176
 20
-5.433807806183523
 30
0
 11
25.52516076509849
 21
-5.632041346156598
 31
0
  0
LINE
  8
0
 62
7
 10
25.72209855744176
 20
-0.3538078061835255
 30
0
 11
25.52516076509849
 21
-0.5520413461565923
 31
0
  0
LINE
  8
0
 62
7
 10
20.84814389392224
 20
-9.065192193816582
 30
0
 11
20.84814389392224
 21
-5.433807806183513
 31
0
  0
LINE
  8
0
 62
7
 10
25.72209855744176
 20
-9.065192193816568
 30
0
 11
20.84814389392224
 21
-9.065192193816582
 31
0
  0
LINE
  8
0
 62
7
 10
25.5251607650985
 20
-8.866958653843511
 30
0
 11
25.72209855744176
 21
-9.065192193816568
 31
0
  0
LINE
  8
0
 62
7
 10
25.5251607650985
 20
-3.786958653843509
 30
0
 11
25.72209855744176
 21
-3.98519219381657
 31
0
  0
LINE
  8
0
 62
7
 10
25.72209855744176
 20
-3.98519219381657
 30
0
 11
20.84814389392224
 21
-3.985192193816583
 31
0
  0
LINE
  8
0
 62
7
 10
20.84814389392224
 20
-3.985192193816583
 30
0
 11
21.02495833163752
 21
-3.569500000000048
 31
0
  0
LINE
  8
0
 62
7
 10
20.84814389392224
 20
-5.433807806183513
 30
0
 11
21.02495833163758
 21
-5.849500000000059
 31
0
  0
LINE
  8
0
 62
7
 10
25.72209855744175
 20
-7.249500000000051
 30
0
 11
25.72209855744176
 21
-9.065192193816568
 31
0
  0
LINE
  8
0
 62
7
 10
20.84814389392224
 20
-5.433807806183513
 30
0
 11
25.72209855744176
 21
-5.433807806183523
 31
0
  0
LINE
  8
0
 62
7
 10
25.72209855744176
 20
-5.433807806183523
 30
0
 11
25.72209855744175
 21
-7.249500000000051
 31
0
  0
LINE
  8
0
 62
7
 10
21.02495833163758
 20
-5.849500000000059
 30
0
 11
23.11379604457448
 21
-5.849500000000056
 31
0
  0
LINE
  8
0
 62
7
 10
25.52516076509849
 20
-5.632041346156598
 30
0
 11
23.11379604457448
 21
-5.849500000000056
 31
0
  0
LINE
  8
0
 62
7
 10
20.84814389392224
 20
-3.985192193816583
 30
0
 11
20.84814389392224
 21
-0.3538078061835108
 31
0
  0
LINE
  8
0
 62
7
 10
25.72209855744175
 20
-2.169500000000049
 30
0
 11
25.72209855744176
 21
-3.98519219381657
 31
0
  0
LINE
  8
0
 62
7
 10
23.11379604457454
 20
-0.7695000000000582
 30
0
 11
23.1137960445746
 21
-3.569500000000041
 31
0
  0
LINE
  8
0
 62
7
 10
21.02495833163758
 20
-0.769500000000058
 30
0
 11
21.02495833163752
 21
-3.569500000000048
 31
0
  0
LINE
  8
0
 62
7
 10
25.52516076509849
 20
-2.644327288481683
 30
0
 11
25.5251607650985
 21
-3.786958653843509
 31
0
  0
LINE
  8
0
 62
7
 10
23.1137960445746
 20
-3.569500000000041
 30
0
 11
21.02495833163752
 21
-3.569500000000048
 31
0
  0
LINE
  8
0
 62
7
 10
23.1137960445746
 20
-3.569500000000041
 30
0
 11
25.5251607650985
 21
-3.786958653843509
 31
0
  0
LINE
  8
0
 62
7
 10
25.52516076509849
 20
-5.632041346156598
 30
0
 11
25.52516076509849
 21
-6.774672711518413
 31
0
  0
LINE
  8
0
 62
7
 10
23.1137960445746
 20
-8.649500000000035
 30
0
 11
21.02495833163753
 21
-8.649500000000046
 31
0
  0
LINE
  8
0
 62
7
 10
23.1137960445746
 20
-8.649500000000035
 30
0
 11
25.5251607650985
 21
-8.866958653843511
 31
0
  0
LINE
  8
0
 62
7
 10
25.52516076509849
 20
-7.724327288481682
 30
0
 11
25.5251607650985
 21
-8.866958653843511
 31
0
  0
LINE
  8
0
 62
7
 10
21.02495833163758
 20
-5.849500000000059
 30
0
 11
21.02495833163753
 21
-8.649500000000046
 31
0
  0
LINE
  8
0
 62
7
 10
23.11379604457448
 20
-5.849500000000056
 30
0
 11
23.1137960445746
 21
-8.649500000000035
 31
0
  0
LINE
  8
0
 62
7
 10
20.84814389392224
 20
4.726192193816489
 30
0
 11
21.02495833163758
 21
4.310499999999941
 31
0
  0
LINE
  8
0
 62
7
 10
25.52516076509849
 20
1.293041346156499
 30
0
 11
25.72209855744176
 21
1.094807806183429
 31
0
  0
LINE
  8
0
 62
7
 10
23.11379604457455
 20
4.310499999999946
 30
0
 11
23.1137960445746
 21
1.51049999999996
 31
0
  0
LINE
  8
0
 62
7
 10
20.84814389392224
 20
9.806192193816489
 30
0
 11
21.02495833163753
 21
9.390499999999925
 31
0
  0
LINE
  8
0
 62
7
 10
20.84814389392224
 20
9.806192193816489
 30
0
 11
25.72209855744176
 21
9.806192193816473
 31
0
  0
LINE
  8
0
 62
7
 10
20.84814389392224
 20
6.174807806183416
 30
0
 11
20.84814389392224
 21
9.806192193816489
 31
0
  0
LINE
  8
0
 62
7
 10
20.84814389392224
 20
6.174807806183416
 30
0
 11
21.02495833163752
 21
6.590499999999953
 31
0
  0
LINE
  8
0
 62
7
 10
25.72209855744176
 20
6.17480780618343
 30
0
 11
20.84814389392224
 21
6.174807806183416
 31
0
  0
LINE
  8
0
 62
7
 10
25.52516076509849
 20
6.373041346156491
 30
0
 11
25.72209855744176
 21
6.17480780618343
 31
0
  0
LINE
  8
0
 62
7
 10
25.72209855744175
 20
7.990499999999952
 30
0
 11
25.72209855744176
 21
6.17480780618343
 31
0
  0
LINE
  8
0
 62
7
 10
25.52516076509848
 20
7.515672711518318
 30
0
 11
25.52516076509849
 21
6.373041346156491
 31
0
  0
LINE
  8
0
 62
7
 10
21.02495833163753
 20
9.390499999999925
 30
0
 11
21.02495833163752
 21
6.590499999999953
 31
0
  0
LINE
  8
0
 62
7
 10
21.02495833163753
 20
9.390499999999925
 30
0
 11
23.11379604457454
 21
9.390499999999939
 31
0
  0
LINE
  8
0
 62
7
 10
25.72209855744176
 20
9.806192193816473
 30
0
 11
25.52516076509849
 21
9.607958653843404
 31
0
  0
LINE
  8
0
 62
7
 10
25.52516076509849
 20
9.607958653843404
 30
0
 11
23.11379604457454
 21
9.390499999999939
 31
0
  0
LINE
  8
0
 62
7
 10
23.1137960445746
 20
6.590499999999961
 30
0
 11
21.02495833163752
 21
6.590499999999953
 31
0
  0
LINE
  8
0
 62
7
 10
25.72209855744176
 20
9.806192193816473
 30
0
 11
25.72209855744175
 21
7.990499999999952
 31
0
  0
LINE
  8
0
 62
7
 10
23.11379604457454
 20
9.390499999999939
 30
0
 11
23.1137960445746
 21
6.590499999999961
 31
0
  0
LINE
  8
0
 62
7
 10
25.52516076509849
 20
9.607958653843404
 30
0
 11
25.52516076509848
 21
8.465327288481587
 31
0
  0
LINE
  8
0
 62
7
 10
23.1137960445746
 20
6.590499999999961
 30
0
 11
25.52516076509849
 21
6.373041346156491
 31
0
  0
LINE
  8
0
 62
7
 10
20.84814389392224
 20
1.094807806183415
 30
0
 11
21.02495833163753
 21
1.510499999999953
 31
0
  0
LINE
  8
0
 62
7
 10
21.02495833163758
 20
4.310499999999941
 30
0
 11
21.02495833163753
 21
1.510499999999953
 31
0
  0
LINE
  8
0
 62
7
 10
23.1137960445746
 20
1.51049999999996
 30
0
 11
21.02495833163753
 21
1.510499999999953
 31
0
  0
LINE
  8
0
 62
7
 10
21.02495833163758
 20
4.310499999999941
 30
0
 11
23.11379604457455
 21
4.310499999999946
 31
0
  0
LINE
  8
0
 62
7
 10
25.52516076509848
 20
2.435672711518318
 30
0
 11
25.52516076509849
 21
1.293041346156499
 31
0
  0
LINE
  8
0
 62
7
 10
23.1137960445746
 20
1.51049999999996
 30
0
 11
25.52516076509849
 21
1.293041346156499
 31
0
  0
LINE
  8
0
 62
7
 10
25.72209855744176
 20
4.726192193816476
 30
0
 11
25.52516076509849
 21
4.527958653843406
 31
0
  0
LINE
  8
0
 62
7
 10
25.52516076509849
 20
4.527958653843406
 30
0
 11
23.11379604457455
 21
4.310499999999946
 31
0
  0
LINE
  8
0
 62
7
 10
19.86516144077543
 20
-9.789500000000057
 30
0
 11
25.17999873346946
 21
-9.789500000000057
 31
0
  0
LINE
  8
0
 62
7
 10
25.17999873346946
 20
-9.789500000000057
 30
0
 11
26.50029299951632
 21
-9.789500000000059
 31
0
  0
LINE
  8
0
 62
7
 10
26.50029299951632
 20
10.53049999999994
 30
0
 11
26.50029299951632
 21
-9.789500000000059
 31
0
  0
LINE
  8
0
 62
7
 10
25.29181582315095
 20
-10.18863339295295
 30
0
 11
25.29181582315096
 21
-10.53049999999994
 31
0
  0
LINE
  8
0
 62
7
 10
25.17999873346947
 20
-9.956797909878741
 30
0
 11
25.29181582315095
 21
-10.18863339295295
 31
0
  0
LINE
  8
0
 62
7
 10
19.55775151312796
 20
-10.53049999999994
 30
0
 11
19.02541849572084
 21
-10.53049999999994
 31
0
  0
LINE
  8
0
 62
7
 10
19.02541849572084
 20
10.13136660704703
 30
0
 11
19.02541849572084
 21
9.789500000000039
 31
0
  0
LINE
  8
0
 62
7
 10
19.55775151312796
 20
10.13136660704704
 30
0
 11
19.55775151312796
 21
9.789500000000039
 31
0
  0
LINE
  8
0
 62
7
 10
19.44593442344649
 20
10.53049999999994
 30
0
 11
19.44593442344648
 21
10.36320209012124
 31
0
  0
LINE
  8
0
 62
7
 10
19.55775151312796
 20
10.13136660704704
 30
0
 11
19.44593442344648
 21
10.36320209012124
 31
0
  0
LINE
  8
0
 62
7
 10
19.55775151312796
 20
9.789500000000039
 30
0
 11
19.02541849572084
 21
9.789500000000039
 31
0
  0
LINE
  8
0
 62
7
 10
19.02541849572084
 20
10.13136660704703
 30
0
 11
19.13723558540234
 21
10.36320209012124
 31
0
  0
LINE
  8
0
 62
7
 10
19.86516144077542
 20
10.53049999999994
 30
0
 11
19.44593442344649
 21
10.53049999999994
 31
0
  0
LINE
  8
0
 62
7
 10
19.13723558540234
 20
10.53049999999994
 30
0
 11
19.13723558540234
 21
10.36320209012124
 31
0
  0
LINE
  8
0
 62
7
 10
19.55775151312796
 20
-10.18863339295295
 30
0
 11
19.55775151312796
 21
-10.53049999999994
 31
0
  0
LINE
  8
0
 62
7
 10
19.55775151312796
 20
10.13136660704704
 30
0
 11
19.02541849572084
 21
10.13136660704703
 31
0
  0
LINE
  8
0
 62
7
 10
19.13723558540234
 20
10.53049999999994
 30
0
 11
19.44593442344649
 21
10.53049999999994
 31
0
  0
LINE
  8
0
 62
7
 10
19.44593442344647
 20
-9.789500000000057
 30
0
 11
19.44593442344648
 21
-9.956797909878741
 31
0
  0
LINE
  8
0
 62
7
 10
19.13723558540234
 20
10.53049999999994
 30
0
 11
18.76477236584878
 21
10.53049999999994
 31
0
  0
LINE
  8
0
 62
7
 10
19.44593442344648
 20
10.36320209012124
 30
0
 11
19.13723558540234
 21
10.36320209012124
 31
0
  0
LINE
  8
0
 62
7
 10
19.02541849572084
 20
-10.53049999999994
 30
0
 11
19.02541849572084
 21
-10.18863339295295
 31
0
  0
LINE
  8
0
 62
7
 10
29.61862257727215
 20
-9.789500000000054
 30
0
 11
26.50029299951632
 21
-9.789500000000059
 31
0
  0
LINE
  8
0
 62
7
 10
29.61862257727215
 20
10.53049999999994
 30
0
 11
26.50029299951632
 21
10.53049999999994
 31
0
  0
LINE
  8
0
 62
7
 10
29.71220480002457
 20
-9.789500000000057
 30
0
 11
29.71220480002457
 21
10.53049999999994
 31
0
  0
LINE
  8
0
 62
7
 10
29.61862257727215
 20
10.53049999999994
 30
0
 11
29.71220480002457
 21
10.53049999999994
 31
0
  0
LINE
  8
0
 62
7
 10
29.61862257727215
 20
-9.789500000000054
 30
0
 11
29.71220480002457
 21
-9.789500000000057
 31
0
  0
LINE
  8
0
 62
7
 10
14.41220480002455
 20
-9.956797909878766
 30
0
 11
14.41220480002455
 21
-10.18863339295295
 31
0
  0
LINE
  8
0
 62
7
 10
14.41220480002455
 20
-10.18863339295295
 30
0
 11
17.67217176312462
 21
-10.18863339295296
 31
0
  0
LINE
  8
0
 62
7
 10
17.67217176312462
 20
-10.53049999999994
 30
0
 11
14.41220480002455
 21
-10.53049999999994
 31
0
  0
LINE
  8
0
 62
7
 10
14.4122048000245
 20
-9.789500000000057
 30
0
 11
14.41220480002455
 21
-9.956797909878766
 31
0
  0
LINE
  8
0
 62
7
 10
17.67217176312462
 20
-10.18863339295296
 30
0
 11
17.67217176312462
 21
-10.53049999999994
 31
0
  0
LINE
  8
0
 62
7
 10
17.56035467344315
 20
-9.95679790987875
 30
0
 11
17.67217176312462
 21
-10.18863339295296
 31
0
  0
LINE
  8
0
 62
7
 10
17.56035467344315
 20
-9.95679790987875
 30
0
 11
14.41220480002455
 21
-9.956797909878766
 31
0
  0
LINE
  8
0
 62
7
 10
17.56035467344315
 20
-9.95679790987875
 30
0
 11
17.56035467344313
 21
-9.789500000000061
 31
0
  0
LINE
  8
0
 62
7
 10
14.41220480002455
 20
-10.18863339295295
 30
0
 11
14.41220480002455
 21
-10.53049999999994
 31
0
  0
POLYLINE
  8
0
 62
7
 66
1
  0
VERTEX
  8
0
 10
25.52516076509848
 20
8.465327288481587
 30
0
 42
-0.06037857335132664
  0
VERTEX
  8
0
 10
25.57229547234792
 20
8.429774621770957
 30
0
 42
-0.04895662054855546
  0
VERTEX
  8
0
 10
25.61480127120311
 20
8.380465004045208
 30
0
 42
-0.0402926824682074
  0
VERTEX
  8
0
 10
25.65168400216226
 20
8.318666696181484
 30
0
 42
-0.03964843789952785
  0
VERTEX
  8
0
 10
25.68401222911031
 20
8.239483361202684
 30
0
 42
-0.03400102172126118
  0
VERTEX
  8
0
 10
25.70816158039642
 20
8.144472650444122
 30
0
 42
-0.03101567373352664
  0
VERTEX
  8
0
 10
25.72052490456493
 20
8.042810968167204
 30
0
  0
VERTEX
  8
0
 10
25.72209855744175
 20
7.990499999999952
 30
0
  0
SEQEND
  8
0
  0
POLYLINE
  8
0
 62
7
 66
1
  0
VERTEX
  8
0
 10
25.52516076509848
 20
3.385327288481588
 30
0
 42
-0.06037857335133782
  0
VERTEX
  8
0
 10
25.57229547234792
 20
3.349774621770956
 30
0
 42
-0.04895662054859316
  0
VERTEX
  8
0
 10
25.61480127120311
 20
3.300465004045206
 30
0
 42
-0.04029268246819734
  0
VERTEX
  8
0
 10
25.65168400216226
 20
3.238666696181483
 30
0
 42
-0.0396484378995385
  0
VERTEX
  8
0
 10
25.68401222911031
 20
3.159483361202681
 30
0
 42
-0.0340010217212663
  0
VERTEX
  8
0
 10
25.70816158039642
 20
3.064472650444119
 30
0
 42
-0.03101567373353353
  0
VERTEX
  8
0
 10
25.72052490456493
 20
2.962810968167203
 30
0
  0
VERTEX
  8
0
 10
25.72209855744175
 20
2.910499999999951
 30
0
  0
SEQEND
  8
0
  0
POLYLINE
  8
0
 62
7
 66
1
  0
VERTEX
  8
0
 10
25.39019632178558
 20
-1.688229563720724
 30
0
 42
-0.001872214747214382
  0
VERTEX
  8
0
 10
25.52516076509848
 20
-1.694672711518412
 30
0
  0
SEQEND
  8
0
  0
POLYLINE
  8
0
 62
7
 66
1
  0
VERTEX
  8
0
 10
25.52516076509849
 20
-6.774672711518413
 30
0
 42
-0.06037857335134304
  0
VERTEX
  8
0
 10
25.57229547234792
 20
-6.810225378229045
 30
0
 42
-0.04895662054864396
  0
VERTEX
  8
0
 10
25.61480127120311
 20
-6.859534995954794
 30
0
 42
-0.0402926824682086
  0
VERTEX
  8
0
 10
25.65168400216226
 20
-6.921333303818516
 30
0
 42
-0.0396484378995396
  0
VERTEX
  8
0
 10
25.68401222911031
 20
-7.000516638797319
 30
0
 42
-0.03400102172127428
  0
VERTEX
  8
0
 10
25.70816158039642
 20
-7.09552734955588
 30
0
 42
-0.03101567373353353
  0
VERTEX
  8
0
 10
25.72052490456493
 20
-7.197189031832797
 30
0
  0
VERTEX
  8
0
 10
25.72209855744175
 20
-7.249500000000051
 30
0
  0
SEQEND
  8
0
  0
POLYLINE
  8
0
 62
7
 66
1
  0
VERTEX
  8
0
 10
25.52516076509848
 20
-1.694672711518412
 30
0
 42
-0.06037857335132509
  0
VERTEX
  8
0
 10
25.57229547234792
 20
-1.730225378229044
 30
0
 42
-0.04895662054858357
  0
VERTEX
  8
0
 10
25.61480127120311
 20
-1.779534995954794
 30
0
 42
-0.04029268246819701
  0
VERTEX
  8
0
 10
25.65168400216226
 20
-1.841333303818518
 30
0
 42
-0.03964843789954142
  0
VERTEX
  8
0
 10
25.68401222911031
 20
-1.92051663879732
 30
0
 42
-0.03400102172126831
  0
VERTEX
  8
0
 10
25.70816158039642
 20
-2.015527349555882
 30
0
 42
-0.03101567373353249
  0
VERTEX
  8
0
 10
25.72052490456493
 20
-2.117189031832797
 30
0
  0
VERTEX
  8
0
 10
25.72209855744175
 20
-2.169500000000049
 30
0
  0
SEQEND
  8
0
  0
POLYLINE
  8
0
 62
7
 66
1
  0
VERTEX
  8
0
 10
25.52516076509849
 20
-2.644327288481683
 30
0
 42
-0.001884534638139612
  0
VERTEX
  8
0
 10
25.39019632178558
 20
-2.650770436279375
 30
0
  0
SEQEND
  8
0
  0
POLYLINE
  8
0
 62
7
 66
1
  0
VERTEX
  8
0
 10
25.39019632178558
 20
-2.650770436279375
 30
0
 42
-0.07188255478952131
  0
VERTEX
  8
0
 10
25.28028844132528
 20
-2.639670017789613
 30
0
 42
-0.07019010592936643
  0
VERTEX
  8
0
 10
25.17693685051405
 20
-2.597713195495428
 30
0
 42
-0.0672742171079892
  0
VERTEX
  8
0
 10
25.08588177233109
 20
-2.527075079195821
 30
0
 42
-0.0629318843612397
  0
VERTEX
  8
0
 10
25.01438779640347
 20
-2.43339134498032
 30
0
 42
-0.06020111631978357
  0
VERTEX
  8
0
 10
24.9662963859089
 20
-2.321920101214176
 30
0
 42
-0.05777128937840245
  0
VERTEX
  8
0
 10
24.94512339653827
 20
-2.200370202801324
 30
0
 42
-0.05717886088372672
  0
VERTEX
  8
0
 10
24.95218105966181
 20
-2.077275574154676
 30
0
 42
-0.05849786865550281
  0
VERTEX
  8
0
 10
24.98721018069699
 20
-1.959429670501004
 30
0
 42
-0.06041674124453803
  0
VERTEX
  8
0
 10
25.04741605346821
 20
-1.856234516926215
 30
0
 42
-0.06439751901535425
  0
VERTEX
  8
0
 10
25.12937177343198
 20
-1.773297531237935
 30
0
 42
-0.06780390774908032
  0
VERTEX
  8
0
 10
25.2274626877725
 20
-1.716559110050123
 30
0
 42
-0.0708036679025018
  0
VERTEX
  8
0
 10
25.33475326729032
 20
-1.689814955321955
 30
0
  0
VERTEX
  8
0
 10
25.39019632178558
 20
-1.688229563720724
 30
0
  0
SEQEND
  8
0
  0
POLYLINE
  8
0
 62
7
 66
1
  0
VERTEX
  8
0
 10
25.52516076509849
 20
-2.644327288481683
 30
0
 42
0.0603785733513236
  0
VERTEX
  8
0
 10
25.57229547234792
 20
-2.608774621771051
 30
0
 42
0.04895662054861584
  0
VERTEX
  8
0
 10
25.61480127120311
 20
-2.559465004045302
 30
0
 42
0.04029268246819413
  0
VERTEX
  8
0
 10
25.65168400216226
 20
-2.49766669618158
 30
0
 42
0.03964843789953929
  0
VERTEX
  8
0
 10
25.68401222911031
 20
-2.418483361202779
 30
0
 42
0.03400102172126808
  0
VERTEX
  8
0
 10
25.70816158039642
 20
-2.323472650444218
 30
0
 42
0.03101567373353353
  0
VERTEX
  8
0
 10
25.72052490456493
 20
-2.221810968167302
 30
0
  0
VERTEX
  8
0
 10
25.72209855744175
 20
-2.169500000000049
 30
0
  0
SEQEND
  8
0
  0
POLYLINE
  8
0
 62
7
 66
1
  0
VERTEX
  8
0
 10
25.39019632178559
 20
-6.768229563720718
 30
0
 42
-0.00187221474719665
  0
VERTEX
  8
0
 10
25.52516076509849
 20
-6.774672711518413
 30
0
  0
SEQEND
  8
0
  0
POLYLINE
  8
0
 62
7
 66
1
  0
VERTEX
  8
0
 10
25.52516076509849
 20
-7.724327288481682
 30
0
 42
0.06037857335135504
  0
VERTEX
  8
0
 10
25.57229547234792
 20
-7.688774621771049
 30
0
 42
0.04895662054862624
  0
VERTEX
  8
0
 10
25.61480127120311
 20
-7.639465004045301
 30
0
 42
0.0402926824682086
  0
VERTEX
  8
0
 10
25.65168400216226
 20
-7.57766669618158
 30
0
 42
0.03964843789953344
  0
VERTEX
  8
0
 10
25.68401222911031
 20
-7.49848336120278
 30
0
 42
0.03400102172126696
  0
VERTEX
  8
0
 10
25.70816158039642
 20
-7.40347265044422
 30
0
 42
0.03101567373353458
  0
VERTEX
  8
0
 10
25.72052490456493
 20
-7.301810968167302
 30
0
  0
VERTEX
  8
0
 10
25.72209855744175
 20
-7.249500000000051
 30
0
  0
SEQEND
  8
0
  0
POLYLINE
  8
0
 62
7
 66
1
  0
VERTEX
  8
0
 10
25.52516076509849
 20
-7.724327288481682
 30
0
 42
-0.001884534638162572
  0
VERTEX
  8
0
 10
25.39019632178558
 20
-7.73077043627937
 30
0
  0
SEQEND
  8
0
  0
POLYLINE
  8
0
 62
7
 66
1
  0
VERTEX
  8
0
 10
25.39019632178558
 20
-7.73077043627937
 30
0
 42
-0.0718825547895094
  0
VERTEX
  8
0
 10
25.28028844132528
 20
-7.719670017789607
 30
0
 42
-0.07019010592935865
  0
VERTEX
  8
0
 10
25.17693685051405
 20
-7.677713195495421
 30
0
 42
-0.06727421710798878
  0
VERTEX
  8
0
 10
25.08588177233109
 20
-7.607075079195813
 30
0
 42
-0.06293188436123702
  0
VERTEX
  8
0
 10
25.01438779640347
 20
-7.513391344980312
 30
0
 42
-0.06020111631978269
  0
VERTEX
  8
0
 10
24.9662963859089
 20
-7.401920101214166
 30
0
 42
-0.0577712893784014
  0
VERTEX
  8
0
 10
24.94512339653827
 20
-7.280370202801314
 30
0
 42
-0.05717886088375493
  0
VERTEX
  8
0
 10
24.95218105966181
 20
-7.157275574154665
 30
0
 42
-0.05849786865550544
  0
VERTEX
  8
0
 10
24.987210180697
 20
-7.039429670500994
 30
0
 42
-0.06041674124456836
  0
VERTEX
  8
0
 10
25.04741605346822
 20
-6.936234516926205
 30
0
 42
-0.06439751901533701
  0
VERTEX
  8
0
 10
25.12937177343199
 20
-6.853297531237926
 30
0
 42
-0.0678039077490749
  0
VERTEX
  8
0
 10
25.22746268777251
 20
-6.796559110050116
 30
0
 42
-0.07080366790251022
  0
VERTEX
  8
0
 10
25.33475326729032
 20
-6.769814955321948
 30
0
  0
VERTEX
  8
0
 10
25.39019632178559
 20
-6.768229563720718
 30
0
  0
SEQEND
  8
0
  0
POLYLINE
  8
0
 62
7
 66
1
  0
VERTEX
  8
0
 10
25.39019632178558
 20
7.509229563720631
 30
0
 42
-0.07188255478950149
  0
VERTEX
  8
0
 10
25.28028844132528
 20
7.52032998221039
 30
0
 42
-0.07019010592938152
  0
VERTEX
  8
0
 10
25.17693685051405
 20
7.562286804504574
 30
0
 42
-0.06727421710799558
  0
VERTEX
  8
0
 10
25.08588177233109
 20
7.632924920804181
 30
0
 42
-0.06293188436122796
  0
VERTEX
  8
0
 10
25.01438779640347
 20
7.726608655019681
 30
0
 42
-0.06020111631977978
  0
VERTEX
  8
0
 10
24.9662963859089
 20
7.838079898785826
 30
0
 42
-0.05777128937840673
  0
VERTEX
  8
0
 10
24.94512339653827
 20
7.959629797198677
 30
0
 42
-0.05717886088372672
  0
VERTEX
  8
0
 10
24.95218105966181
 20
8.082724425845326
 30
0
 42
-0.05849786865550068
  0
VERTEX
  8
0
 10
24.98721018069699
 20
8.200570329498998
 30
0
 42
-0.06041674124452549
  0
VERTEX
  8
0
 10
25.04741605346821
 20
8.303765483073786
 30
0
 42
-0.06439751901533507
  0
VERTEX
  8
0
 10
25.12937177343198
 20
8.386702468762067
 30
0
 42
-0.06780390774907094
  0
VERTEX
  8
0
 10
25.2274626877725
 20
8.443440889949878
 30
0
 42
-0.07080366790248283
  0
VERTEX
  8
0
 10
25.33475326729032
 20
8.470185044678047
 30
0
  0
VERTEX
  8
0
 10
25.39019632178558
 20
8.471770436279277
 30
0
  0
SEQEND
  8
0
  0
POLYLINE
  8
0
 62
7
 66
1
  0
VERTEX
  8
0
 10
25.52516076509848
 20
7.515672711518318
 30
0
 42
-0.001884534638186392
  0
VERTEX
  8
0
 10
25.39019632178558
 20
7.509229563720631
 30
0
  0
SEQEND
  8
0
  0
POLYLINE
  8
0
 62
7
 66
1
  0
VERTEX
  8
0
 10
25.39019632178558
 20
8.471770436279277
 30
0
 42
-0.001872214747214415
  0
VERTEX
  8
0
 10
25.52516076509848
 20
8.465327288481587
 30
0
  0
SEQEND
  8
0
  0
POLYLINE
  8
0
 62
7
 66
1
  0
VERTEX
  8
0
 10
25.52516076509848
 20
7.515672711518318
 30
0
 42
0.06037857335129963
  0
VERTEX
  8
0
 10
25.57229547234792
 20
7.551225378228951
 30
0
 42
0.04895662054862343
  0
VERTEX
  8
0
 10
25.61480127120311
 20
7.600534995954699
 30
0
 42
0.04029268246819362
  0
VERTEX
  8
0
 10
25.65168400216226
 20
7.662333303818422
 30
0
 42
0.0396484378995508
  0
VERTEX
  8
0
 10
25.68401222911031
 20
7.741516638797224
 30
0
 42
0.03400102172126986
  0
VERTEX
  8
0
 10
25.70816158039642
 20
7.836527349555783
 30
0
 42
0.03101567373353617
  0
VERTEX
  8
0
 10
25.72052490456493
 20
7.9381890318327
 30
0
  0
VERTEX
  8
0
 10
25.72209855744175
 20
7.990499999999952
 30
0
  0
SEQEND
  8
0
  0
POLYLINE
  8
0
 62
7
 66
1
  0
VERTEX
  8
0
 10
25.39019632178558
 20
2.429229563720631
 30
0
 42
-0.07188255478952929
  0
VERTEX
  8
0
 10
25.28028844132528
 20
2.44032998221039
 30
0
 42
-0.07019010592938174
  0
VERTEX
  8
0
 10
25.17693685051405
 20
2.482286804504573
 30
0
 42
-0.06727421710799253
  0
VERTEX
  8
0
 10
25.08588177233109
 20
2.55292492080418
 30
0
 42
-0.06293188436123739
  0
VERTEX
  8
0
 10
25.01438779640347
 20
2.64660865501968
 30
0
 42
-0.06020111631978169
  0
VERTEX
  8
0
 10
24.9662963859089
 20
2.758079898785825
 30
0
 42
-0.05777128937840345
  0
VERTEX
  8
0
 10
24.94512339653827
 20
2.879629797198676
 30
0
 42
-0.05717886088372631
  0
VERTEX
  8
0
 10
24.95218105966181
 20
3.002724425845326
 30
0
 42
-0.05849786865550395
  0
VERTEX
  8
0
 10
24.98721018069699
 20
3.120570329498998
 30
0
 42
-0.06041674124453825
  0
VERTEX
  8
0
 10
25.04741605346821
 20
3.223765483073787
 30
0
 42
-0.06439751901534575
  0
VERTEX
  8
0
 10
25.12937177343198
 20
3.306702468762066
 30
0
 42
-0.06780390774906725
  0
VERTEX
  8
0
 10
25.2274626877725
 20
3.363440889949878
 30
0
 42
-0.07080366790250195
  0
VERTEX
  8
0
 10
25.33475326729032
 20
3.390185044678046
 30
0
  0
VERTEX
  8
0
 10
25.39019632178558
 20
3.391770436279277
 30
0
  0
SEQEND
  8
0
  0
POLYLINE
  8
0
 62
7
 66
1
  0
VERTEX
  8
0
 10
25.39019632178558
 20
3.391770436279277
 30
0
 42
-0.001872214747227486
  0
VERTEX
  8
0
 10
25.52516076509848
 20
3.385327288481588
 30
0
  0
SEQEND
  8
0
  0
POLYLINE
  8
0
 62
7
 66
1
  0
VERTEX
  8
0
 10
25.52516076509848
 20
2.435672711518318
 30
0
 42
-0.001884534638166637
  0
VERTEX
  8
0
 10
25.39019632178558
 20
2.429229563720631
 30
0
  0
SEQEND
  8
0
  0
POLYLINE
  8
0
 62
7
 66
1
  0
VERTEX
  8
0
 10
25.52516076509848
 20
2.435672711518318
 30
0
 42
0.0603785733513191
  0
VERTEX
  8
0
 10
25.57229547234792
 20
2.47122537822895
 30
0
 42
0.04895662054858506
  0
VERTEX
  8
0
 10
25.61480127120311
 20
2.520534995954698
 30
0
 42
0.04029268246819413
  0
VERTEX
  8
0
 10
25.65168400216226
 20
2.58233330381842
 30
0
 42
0.03964843789954686
  0
VERTEX
  8
0
 10
25.68401222911031
 20
2.661516638797221
 30
0
 42
0.03400102172126696
  0
VERTEX
  8
0
 10
25.70816158039642
 20
2.756527349555781
 30
0
 42
0.03101567373353276
  0
VERTEX
  8
0
 10
25.72052490456493
 20
2.858189031832698
 30
0
  0
VERTEX
  8
0
 10
25.72209855744175
 20
2.910499999999951
 30
0
  0
SEQEND
  8
0
  0
ENDBLK
  8
0
  0
BLOCK
  8
0
  2
VORDANS1
 70
0
 10
10.91220480002454
 20
-10.53049999999994
 30
0
  0
INSERT
  8
0
  2
SMKDSP_1_5-4-5_08__6
 10
10.91220480002454
 20
-10.53049999999994
 30
0
  0
ENDBLK
  8
0
  0
ENDSEC
  0
SECTION
  2
ENTITIES
  0
INSERT
  8
0
  2
SA_LINKS1
 10
33.92440960002462
 20
-10.53049999999995
 30
0
  0
INSERT
  8
0
  2
SA_RECHTS1
 10
-6.700000000024397
 20
-10.53049999999995
 30
0
  0
INSERT
  8
0
  2
UNTSICHT1
 10
10.91220480002455
 20
14.74270479999998
 30
0
  0
INSERT
  8
0
  2
R_CKANS1
 10
51.5366144000736
 20
-10.53049999999994
 30
0
  0
INSERT
  8
0
  2
DRFSICHT1
 10
10.91220480002455
 20
-28.14270480004882
 30
0
  0
INSERT
  8
0
  2
VORDANS1
 10
10.91220480002454
 20
-10.53049999999994
 30
0
  0
ENDSEC
  0
EOF
