G04 Layer_Color=20142*
%FSAX43Y43*%
%MOMM*%
G71*
G01*
G75*
%ADD37R,1.703X1.703*%
%ADD38C,1.703*%
%ADD39O,2.703X1.803*%
%ADD40R,2.703X1.803*%
%ADD41C,2.703*%
%ADD42R,2.703X2.703*%
%ADD43O,3.251X4.013*%
%ADD44R,1.727X1.727*%
%ADD45C,12.203*%
%ADD46C,3.203*%
%ADD47C,6.203*%
%ADD48C,0.813*%
D37*
X0073255Y0031720D02*
D03*
D38*
X0070715D02*
D03*
X0068175D02*
D03*
X0027672Y0036302D02*
D03*
X0031208Y0039838D02*
D03*
D39*
X0080240Y0046960D02*
D03*
Y0049500D02*
D03*
D40*
Y0052040D02*
D03*
D41*
X0035000Y0052040D02*
D03*
X0050950Y0062000D02*
D03*
X0045950D02*
D03*
X0040950D02*
D03*
D42*
X0035000Y0046960D02*
D03*
D43*
X0041244Y0031720D02*
D03*
X0050700D02*
D03*
X0045950Y0031720D02*
D03*
X0041244Y0067280D02*
D03*
X0050700D02*
D03*
X0045950Y0067280D02*
D03*
D44*
X0093575Y0029180D02*
D03*
Y0069820D02*
D03*
D45*
X0045950Y0049500D02*
D03*
D46*
X0053750D02*
D03*
D47*
X0029000Y0029000D02*
D03*
X0101000D02*
D03*
Y0070000D02*
D03*
X0029000D02*
D03*
D48*
X0069445Y0049500D02*
D03*
X0074525Y0054580D02*
D03*
X0069445Y0052040D02*
D03*
X0077700Y0048230D02*
D03*
X0059920D02*
D03*
X0050700Y0040610D02*
D03*
X0041244Y0041880D02*
D03*
M02*
