G04 Layer_Color=16711935*
%FSAX43Y43*%
%MOMM*%
G71*
G01*
G75*
%ADD35C,0.254*%
D35*
X0054000Y0025000D02*
G03*
X0055000Y0026000I0000000J0001000D01*
G01*
X0056000Y0028000D02*
G03*
X0055000Y0027000I0000000J-0001000D01*
G01*
X0086500D02*
G03*
X0085500Y0028000I-0001000J0000000D01*
G01*
X0086500Y0026000D02*
G03*
X0087500Y0025000I0001000J0000000D01*
G01*
Y0074000D02*
G03*
X0086500Y0073000I0000000J-0001000D01*
G01*
X0085500Y0071000D02*
G03*
X0086500Y0072000I0000000J0001000D01*
G01*
X0055000D02*
G03*
X0056000Y0071000I0001000J0000000D01*
G01*
X0055000Y0073000D02*
G03*
X0054000Y0074000I-0001000J0000000D01*
G01*
X0025000Y0029000D02*
G03*
X0029000Y0025000I0004000J0000000D01*
G01*
X0101000D02*
G03*
X0105000Y0029000I0000000J0004000D01*
G01*
Y0070000D02*
G03*
X0101000Y0074000I-0004000J0000000D01*
G01*
X0029000D02*
G03*
X0025000Y0070000I0000000J-0004000D01*
G01*
X0055000Y0026000D02*
Y0027000D01*
X0056000Y0028000D02*
X0085500D01*
X0086500Y0026000D02*
Y0027000D01*
X0087500Y0025000D02*
X0101000D01*
X0029000D02*
X0054000D01*
X0029000Y0074000D02*
X0054000D01*
X0087500D02*
X0101000D01*
X0086500Y0072000D02*
Y0073000D01*
X0056000Y0071000D02*
X0085500D01*
X0055000Y0072000D02*
Y0073000D01*
X0025000Y0029000D02*
Y0070000D01*
X0105000Y0029000D02*
Y0070000D01*
M02*
