M48
;Layer_Color=6321
;FILE_FORMAT=4:3
METRIC
;TYPE=PLATED
T1F00S00C0.305
T2F00S00C0.650
T3F00S00C0.900
T4F00S00C1.000
T5F00S00C1.200
T6F00S00C1.500
T7F00S00C2.540
T8F00S00C3.000
T9F00S00C3.200
T10F00S00C7.500
%
T01
X0041244Y0041880
X0050700Y0040610
X0059920Y0048230
X0069445Y0049500
Y0052040
X0074525Y0054580
X0077700Y0048230
T02
X0027672Y0036302
X0031208Y0039838
T03
X0068175Y0031720
X0070715
X0073255
X0093575Y0029180
Y0069820
T04
X0080240Y0046960
Y0049500
Y0052040
T05
X0040950Y0062000
X0045950
X0050950
T06
X0035000Y0046960
Y0052040
T07
X0041244Y0031720
X0045950Y0031720
X0050700Y0031720
Y0067280
X0045950Y0067280
X0041244Y0067280
T08
X0053750Y0049500
T09
X0029000Y0029000
X0101000
Y0070000
X0029000
T10
X0045950Y0049500
M30
