G04 Layer_Physical_Order=1*
G04 Layer_Color=25308*
%FSAX43Y43*%
%MOMM*%
G71*
G01*
G75*
%ADD10C,0.381*%
%ADD11C,0.508*%
%ADD12R,1.500X1.500*%
%ADD13C,1.500*%
%ADD14O,2.500X1.600*%
%ADD15R,2.500X1.600*%
%ADD16C,2.500*%
%ADD17R,2.500X2.500*%
%ADD18O,3.048X3.810*%
%ADD19R,1.524X1.524*%
%ADD20C,12.000*%
%ADD21C,3.000*%
%ADD22C,6.000*%
%ADD23C,0.610*%
G36*
X0101131Y0073998D02*
X0101218Y0073994D01*
X0101305Y0073989D01*
X0101392Y0073981D01*
X0101479Y0073971D01*
X0101565Y0073960D01*
X0101652Y0073947D01*
X0101738Y0073932D01*
X0101823Y0073915D01*
X0101908Y0073896D01*
X0101993Y0073875D01*
X0102077Y0073852D01*
X0102161Y0073828D01*
X0102244Y0073802D01*
X0102327Y0073774D01*
X0102409Y0073744D01*
X0102490Y0073712D01*
X0102571Y0073679D01*
X0102651Y0073644D01*
X0102730Y0073607D01*
X0102808Y0073568D01*
X0102886Y0073528D01*
X0102962Y0073486D01*
X0103038Y0073442D01*
X0103112Y0073397D01*
X0103186Y0073350D01*
X0103259Y0073302D01*
X0103330Y0073252D01*
X0103400Y0073200D01*
X0103470Y0073147D01*
X0103538Y0073092D01*
X0103605Y0073036D01*
X0103670Y0072979D01*
X0103735Y0072920D01*
X0103798Y0072859D01*
X0103859Y0072798D01*
X0103920Y0072735D01*
X0103979Y0072670D01*
X0104036Y0072605D01*
X0104092Y0072538D01*
X0104147Y0072470D01*
X0104200Y0072400D01*
X0104252Y0072330D01*
X0104302Y0072259D01*
X0104350Y0072186D01*
X0104397Y0072112D01*
X0104442Y0072038D01*
X0104486Y0071962D01*
X0104528Y0071886D01*
X0104568Y0071808D01*
X0104607Y0071730D01*
X0104644Y0071651D01*
X0104679Y0071571D01*
X0104712Y0071490D01*
X0104744Y0071409D01*
X0104774Y0071327D01*
X0104802Y0071244D01*
X0104828Y0071161D01*
X0104852Y0071077D01*
X0104875Y0070993D01*
X0104896Y0070908D01*
X0104915Y0070823D01*
X0104932Y0070738D01*
X0104947Y0070652D01*
X0104960Y0070565D01*
X0104971Y0070479D01*
X0104981Y0070392D01*
X0104989Y0070305D01*
X0104994Y0070218D01*
X0104998Y0070131D01*
X0105000Y0070044D01*
Y0070000D01*
Y0029000D01*
Y0028956D01*
X0104998Y0028869D01*
X0104994Y0028782D01*
X0104989Y0028695D01*
X0104981Y0028608D01*
X0104971Y0028521D01*
X0104960Y0028435D01*
X0104947Y0028348D01*
X0104932Y0028262D01*
X0104915Y0028177D01*
X0104896Y0028092D01*
X0104875Y0028007D01*
X0104852Y0027923D01*
X0104828Y0027839D01*
X0104802Y0027756D01*
X0104774Y0027673D01*
X0104744Y0027591D01*
X0104712Y0027510D01*
X0104679Y0027429D01*
X0104644Y0027349D01*
X0104607Y0027270D01*
X0104568Y0027192D01*
X0104528Y0027114D01*
X0104486Y0027038D01*
X0104442Y0026962D01*
X0104397Y0026888D01*
X0104350Y0026814D01*
X0104302Y0026741D01*
X0104252Y0026670D01*
X0104200Y0026600D01*
X0104147Y0026530D01*
X0104092Y0026462D01*
X0104036Y0026395D01*
X0103979Y0026330D01*
X0103920Y0026265D01*
X0103859Y0026202D01*
X0103798Y0026141D01*
X0103735Y0026080D01*
X0103670Y0026021D01*
X0103605Y0025964D01*
X0103538Y0025908D01*
X0103470Y0025853D01*
X0103400Y0025800D01*
X0103330Y0025748D01*
X0103259Y0025698D01*
X0103186Y0025650D01*
X0103112Y0025603D01*
X0103038Y0025558D01*
X0102962Y0025514D01*
X0102886Y0025472D01*
X0102808Y0025432D01*
X0102730Y0025393D01*
X0102651Y0025356D01*
X0102571Y0025321D01*
X0102490Y0025288D01*
X0102409Y0025256D01*
X0102327Y0025226D01*
X0102244Y0025198D01*
X0102161Y0025172D01*
X0102077Y0025148D01*
X0101993Y0025125D01*
X0101908Y0025104D01*
X0101823Y0025085D01*
X0101738Y0025068D01*
X0101652Y0025053D01*
X0101565Y0025040D01*
X0101479Y0025029D01*
X0101392Y0025019D01*
X0101305Y0025011D01*
X0101218Y0025006D01*
X0101131Y0025002D01*
X0101044Y0025000D01*
X0087478D01*
X0087435Y0025002D01*
X0087391Y0025006D01*
X0087348Y0025011D01*
X0087305Y0025019D01*
X0087262Y0025028D01*
X0087220Y0025040D01*
X0087178Y0025053D01*
X0087137Y0025068D01*
X0087097Y0025084D01*
X0087058Y0025103D01*
X0087019Y0025123D01*
X0086981Y0025145D01*
X0086944Y0025168D01*
X0086909Y0025193D01*
X0086874Y0025220D01*
X0086840Y0025248D01*
X0086808Y0025277D01*
X0086777Y0025308D01*
X0086748Y0025340D01*
X0086720Y0025374D01*
X0086693Y0025409D01*
X0086668Y0025444D01*
X0086645Y0025481D01*
X0086623Y0025519D01*
X0086603Y0025558D01*
X0086584Y0025597D01*
X0086568Y0025637D01*
X0086553Y0025678D01*
X0086540Y0025720D01*
X0086528Y0025762D01*
X0086519Y0025805D01*
X0086511Y0025848D01*
X0086506Y0025891D01*
X0086502Y0025935D01*
X0086500Y0025978D01*
Y0026000D01*
Y0027000D01*
X0086500Y0027022D01*
X0086498Y0027065D01*
X0086494Y0027109D01*
X0086488Y0027152D01*
X0086481Y0027195D01*
X0086471Y0027238D01*
X0086460Y0027280D01*
X0086447Y0027321D01*
X0086432Y0027362D01*
X0086415Y0027403D01*
X0086397Y0027442D01*
X0086377Y0027481D01*
X0086355Y0027519D01*
X0086331Y0027556D01*
X0086306Y0027591D01*
X0086280Y0027626D01*
X0086252Y0027659D01*
X0086222Y0027692D01*
X0086192Y0027722D01*
X0086159Y0027752D01*
X0086126Y0027780D01*
X0086091Y0027806D01*
X0086056Y0027831D01*
X0086019Y0027855D01*
X0085981Y0027877D01*
X0085942Y0027897D01*
X0085903Y0027915D01*
X0085862Y0027932D01*
X0085821Y0027947D01*
X0085780Y0027960D01*
X0085738Y0027971D01*
X0085695Y0027981D01*
X0085652Y0027988D01*
X0085609Y0027994D01*
X0085565Y0027998D01*
X0085522Y0028000D01*
X0085500Y0028000D01*
X0056000D01*
X0055978Y0028000D01*
X0055935Y0027998D01*
X0055891Y0027994D01*
X0055848Y0027988D01*
X0055805Y0027981D01*
X0055762Y0027971D01*
X0055720Y0027960D01*
X0055679Y0027947D01*
X0055638Y0027932D01*
X0055597Y0027915D01*
X0055558Y0027897D01*
X0055519Y0027877D01*
X0055481Y0027855D01*
X0055444Y0027831D01*
X0055409Y0027806D01*
X0055374Y0027780D01*
X0055341Y0027752D01*
X0055308Y0027722D01*
X0055278Y0027692D01*
X0055248Y0027659D01*
X0055220Y0027626D01*
X0055194Y0027591D01*
X0055169Y0027556D01*
X0055145Y0027519D01*
X0055123Y0027481D01*
X0055103Y0027442D01*
X0055085Y0027403D01*
X0055068Y0027362D01*
X0055053Y0027321D01*
X0055040Y0027280D01*
X0055029Y0027238D01*
X0055019Y0027195D01*
X0055012Y0027152D01*
X0055006Y0027109D01*
X0055002Y0027065D01*
X0055000Y0027022D01*
X0055000Y0027000D01*
Y0026000D01*
Y0025978D01*
X0054998Y0025935D01*
X0054994Y0025891D01*
X0054989Y0025848D01*
X0054981Y0025805D01*
X0054972Y0025762D01*
X0054960Y0025720D01*
X0054947Y0025678D01*
X0054932Y0025637D01*
X0054916Y0025597D01*
X0054897Y0025558D01*
X0054877Y0025519D01*
X0054855Y0025481D01*
X0054832Y0025444D01*
X0054807Y0025409D01*
X0054780Y0025374D01*
X0054752Y0025340D01*
X0054723Y0025308D01*
X0054692Y0025277D01*
X0054660Y0025248D01*
X0054626Y0025220D01*
X0054591Y0025193D01*
X0054556Y0025168D01*
X0054519Y0025145D01*
X0054481Y0025123D01*
X0054442Y0025103D01*
X0054403Y0025084D01*
X0054363Y0025068D01*
X0054322Y0025053D01*
X0054280Y0025040D01*
X0054238Y0025028D01*
X0054195Y0025019D01*
X0054152Y0025011D01*
X0054109Y0025006D01*
X0054065Y0025002D01*
X0054022Y0025000D01*
X0028956D01*
X0028869Y0025002D01*
X0028782Y0025006D01*
X0028695Y0025011D01*
X0028608Y0025019D01*
X0028521Y0025029D01*
X0028435Y0025040D01*
X0028348Y0025053D01*
X0028262Y0025068D01*
X0028177Y0025085D01*
X0028092Y0025104D01*
X0028007Y0025125D01*
X0027923Y0025148D01*
X0027839Y0025172D01*
X0027756Y0025198D01*
X0027673Y0025226D01*
X0027591Y0025256D01*
X0027510Y0025288D01*
X0027429Y0025321D01*
X0027349Y0025356D01*
X0027270Y0025393D01*
X0027192Y0025432D01*
X0027114Y0025472D01*
X0027038Y0025514D01*
X0026962Y0025558D01*
X0026888Y0025603D01*
X0026814Y0025650D01*
X0026741Y0025698D01*
X0026670Y0025748D01*
X0026600Y0025800D01*
X0026530Y0025853D01*
X0026462Y0025908D01*
X0026395Y0025964D01*
X0026330Y0026021D01*
X0026265Y0026080D01*
X0026202Y0026141D01*
X0026141Y0026202D01*
X0026080Y0026265D01*
X0026021Y0026330D01*
X0025964Y0026395D01*
X0025908Y0026462D01*
X0025853Y0026530D01*
X0025800Y0026600D01*
X0025748Y0026670D01*
X0025698Y0026741D01*
X0025650Y0026814D01*
X0025603Y0026888D01*
X0025558Y0026962D01*
X0025514Y0027038D01*
X0025472Y0027114D01*
X0025432Y0027192D01*
X0025393Y0027270D01*
X0025356Y0027349D01*
X0025321Y0027429D01*
X0025288Y0027510D01*
X0025256Y0027591D01*
X0025226Y0027673D01*
X0025198Y0027756D01*
X0025172Y0027839D01*
X0025148Y0027923D01*
X0025125Y0028007D01*
X0025104Y0028092D01*
X0025085Y0028177D01*
X0025068Y0028262D01*
X0025053Y0028348D01*
X0025040Y0028435D01*
X0025029Y0028521D01*
X0025019Y0028608D01*
X0025011Y0028695D01*
X0025006Y0028782D01*
X0025002Y0028869D01*
X0025000Y0028956D01*
Y0029000D01*
Y0070000D01*
Y0070044D01*
X0025002Y0070131D01*
X0025006Y0070218D01*
X0025011Y0070305D01*
X0025019Y0070392D01*
X0025029Y0070479D01*
X0025040Y0070565D01*
X0025053Y0070652D01*
X0025068Y0070738D01*
X0025085Y0070823D01*
X0025104Y0070908D01*
X0025125Y0070993D01*
X0025148Y0071077D01*
X0025172Y0071161D01*
X0025198Y0071244D01*
X0025226Y0071327D01*
X0025256Y0071409D01*
X0025288Y0071490D01*
X0025321Y0071571D01*
X0025356Y0071651D01*
X0025393Y0071730D01*
X0025432Y0071808D01*
X0025472Y0071886D01*
X0025514Y0071962D01*
X0025558Y0072038D01*
X0025603Y0072112D01*
X0025650Y0072186D01*
X0025698Y0072259D01*
X0025748Y0072330D01*
X0025800Y0072400D01*
X0025853Y0072470D01*
X0025908Y0072538D01*
X0025964Y0072605D01*
X0026021Y0072670D01*
X0026080Y0072735D01*
X0026141Y0072798D01*
X0026202Y0072859D01*
X0026265Y0072920D01*
X0026330Y0072979D01*
X0026395Y0073036D01*
X0026462Y0073092D01*
X0026530Y0073147D01*
X0026600Y0073200D01*
X0026670Y0073252D01*
X0026741Y0073302D01*
X0026814Y0073350D01*
X0026888Y0073397D01*
X0026962Y0073442D01*
X0027038Y0073486D01*
X0027114Y0073528D01*
X0027192Y0073568D01*
X0027270Y0073607D01*
X0027349Y0073644D01*
X0027429Y0073679D01*
X0027510Y0073712D01*
X0027591Y0073744D01*
X0027673Y0073774D01*
X0027756Y0073802D01*
X0027839Y0073828D01*
X0027923Y0073852D01*
X0028007Y0073875D01*
X0028092Y0073896D01*
X0028177Y0073915D01*
X0028262Y0073932D01*
X0028348Y0073947D01*
X0028435Y0073960D01*
X0028521Y0073971D01*
X0028608Y0073981D01*
X0028695Y0073989D01*
X0028782Y0073994D01*
X0028869Y0073998D01*
X0028956Y0074000D01*
X0054022D01*
X0054065Y0073998D01*
X0054109Y0073994D01*
X0054152Y0073989D01*
X0054195Y0073981D01*
X0054238Y0073972D01*
X0054280Y0073960D01*
X0054322Y0073947D01*
X0054363Y0073932D01*
X0054403Y0073916D01*
X0054442Y0073897D01*
X0054481Y0073877D01*
X0054519Y0073855D01*
X0054556Y0073832D01*
X0054591Y0073807D01*
X0054626Y0073780D01*
X0054660Y0073752D01*
X0054692Y0073723D01*
X0054723Y0073692D01*
X0054752Y0073660D01*
X0054780Y0073626D01*
X0054807Y0073591D01*
X0054832Y0073556D01*
X0054855Y0073519D01*
X0054877Y0073481D01*
X0054897Y0073442D01*
X0054916Y0073403D01*
X0054932Y0073363D01*
X0054947Y0073322D01*
X0054960Y0073280D01*
X0054972Y0073238D01*
X0054981Y0073195D01*
X0054989Y0073152D01*
X0054994Y0073109D01*
X0054998Y0073065D01*
X0055000Y0073022D01*
Y0073000D01*
Y0072000D01*
X0055000Y0071978D01*
X0055002Y0071935D01*
X0055006Y0071891D01*
X0055012Y0071848D01*
X0055019Y0071805D01*
X0055029Y0071762D01*
X0055040Y0071720D01*
X0055053Y0071679D01*
X0055068Y0071638D01*
X0055085Y0071597D01*
X0055103Y0071558D01*
X0055123Y0071519D01*
X0055145Y0071481D01*
X0055169Y0071444D01*
X0055194Y0071409D01*
X0055220Y0071374D01*
X0055248Y0071341D01*
X0055278Y0071308D01*
X0055308Y0071278D01*
X0055341Y0071248D01*
X0055374Y0071220D01*
X0055409Y0071194D01*
X0055444Y0071169D01*
X0055481Y0071145D01*
X0055519Y0071123D01*
X0055558Y0071103D01*
X0055597Y0071085D01*
X0055638Y0071068D01*
X0055679Y0071053D01*
X0055720Y0071040D01*
X0055762Y0071029D01*
X0055805Y0071019D01*
X0055848Y0071012D01*
X0055891Y0071006D01*
X0055935Y0071002D01*
X0055978Y0071000D01*
X0056000Y0071000D01*
X0085500D01*
X0085522Y0071000D01*
X0085565Y0071002D01*
X0085609Y0071006D01*
X0085652Y0071012D01*
X0085695Y0071019D01*
X0085738Y0071029D01*
X0085780Y0071040D01*
X0085821Y0071053D01*
X0085862Y0071068D01*
X0085903Y0071085D01*
X0085942Y0071103D01*
X0085981Y0071123D01*
X0086019Y0071145D01*
X0086056Y0071169D01*
X0086091Y0071194D01*
X0086126Y0071220D01*
X0086159Y0071248D01*
X0086192Y0071278D01*
X0086222Y0071308D01*
X0086252Y0071341D01*
X0086280Y0071374D01*
X0086306Y0071409D01*
X0086331Y0071444D01*
X0086355Y0071481D01*
X0086377Y0071519D01*
X0086397Y0071558D01*
X0086415Y0071597D01*
X0086432Y0071638D01*
X0086447Y0071679D01*
X0086460Y0071720D01*
X0086471Y0071762D01*
X0086481Y0071805D01*
X0086488Y0071848D01*
X0086494Y0071891D01*
X0086498Y0071935D01*
X0086500Y0071978D01*
X0086500Y0072000D01*
Y0073000D01*
Y0073022D01*
X0086502Y0073065D01*
X0086506Y0073109D01*
X0086511Y0073152D01*
X0086519Y0073195D01*
X0086528Y0073238D01*
X0086540Y0073280D01*
X0086553Y0073322D01*
X0086568Y0073363D01*
X0086584Y0073403D01*
X0086603Y0073442D01*
X0086623Y0073481D01*
X0086645Y0073519D01*
X0086668Y0073556D01*
X0086693Y0073591D01*
X0086720Y0073626D01*
X0086748Y0073660D01*
X0086777Y0073692D01*
X0086808Y0073723D01*
X0086840Y0073752D01*
X0086874Y0073780D01*
X0086909Y0073807D01*
X0086944Y0073832D01*
X0086981Y0073855D01*
X0087019Y0073877D01*
X0087058Y0073897D01*
X0087097Y0073916D01*
X0087137Y0073932D01*
X0087178Y0073947D01*
X0087220Y0073960D01*
X0087262Y0073972D01*
X0087305Y0073981D01*
X0087348Y0073989D01*
X0087391Y0073994D01*
X0087435Y0073998D01*
X0087478Y0074000D01*
X0101044D01*
X0101131Y0073998D01*
D02*
G37*
%LPC*%
G36*
X0027672Y0037306D02*
X0027628Y0037306D01*
X0027585Y0037303D01*
X0027541Y0037298D01*
X0027498Y0037291D01*
X0027455Y0037283D01*
X0027412Y0037272D01*
X0027370Y0037260D01*
X0027329Y0037246D01*
X0027288Y0037230D01*
X0027248Y0037212D01*
X0027209Y0037193D01*
X0027170Y0037172D01*
X0027133Y0037149D01*
X0027096Y0037125D01*
X0027061Y0037099D01*
X0027027Y0037072D01*
X0026994Y0037043D01*
X0026962Y0037012D01*
X0026932Y0036981D01*
X0026903Y0036948D01*
X0026876Y0036914D01*
X0026850Y0036878D01*
X0026825Y0036842D01*
X0026803Y0036804D01*
X0026781Y0036766D01*
X0026762Y0036727D01*
X0026744Y0036687D01*
X0026729Y0036646D01*
X0026714Y0036604D01*
X0026702Y0036562D01*
X0026692Y0036520D01*
X0026683Y0036477D01*
X0026677Y0036433D01*
X0026672Y0036390D01*
X0026669Y0036346D01*
X0026668Y0036302D01*
X0026669Y0036258D01*
X0026672Y0036215D01*
X0026677Y0036171D01*
X0026683Y0036128D01*
X0026692Y0036085D01*
X0026702Y0036042D01*
X0026714Y0036000D01*
X0026729Y0035959D01*
X0026744Y0035918D01*
X0026762Y0035878D01*
X0026781Y0035839D01*
X0026803Y0035800D01*
X0026825Y0035763D01*
X0026850Y0035726D01*
X0026876Y0035691D01*
X0026903Y0035657D01*
X0026932Y0035624D01*
X0026962Y0035592D01*
X0026994Y0035562D01*
X0027027Y0035533D01*
X0027061Y0035506D01*
X0027096Y0035480D01*
X0027133Y0035455D01*
X0027170Y0035433D01*
X0027209Y0035411D01*
X0027248Y0035392D01*
X0027288Y0035374D01*
X0027329Y0035359D01*
X0027370Y0035344D01*
X0027412Y0035332D01*
X0027455Y0035322D01*
X0027498Y0035313D01*
X0027541Y0035307D01*
X0027585Y0035302D01*
X0027628Y0035299D01*
X0027672Y0035298D01*
X0027716Y0035299D01*
X0027760Y0035302D01*
X0027803Y0035307D01*
X0027847Y0035313D01*
X0027890Y0035322D01*
X0027932Y0035332D01*
X0027974Y0035344D01*
X0028016Y0035359D01*
X0028057Y0035374D01*
X0028097Y0035392D01*
X0028136Y0035411D01*
X0028174Y0035433D01*
X0028212Y0035455D01*
X0028248Y0035480D01*
X0028284Y0035506D01*
X0028318Y0035533D01*
X0028351Y0035562D01*
X0028382Y0035592D01*
X0028413Y0035624D01*
X0028442Y0035657D01*
X0028469Y0035691D01*
X0028495Y0035726D01*
X0028519Y0035763D01*
X0028542Y0035800D01*
X0028563Y0035839D01*
X0028582Y0035878D01*
X0028600Y0035918D01*
X0028616Y0035959D01*
X0028630Y0036000D01*
X0028642Y0036042D01*
X0028653Y0036085D01*
X0028661Y0036128D01*
X0028668Y0036171D01*
X0028673Y0036215D01*
X0028676Y0036258D01*
X0028676Y0036302D01*
X0028676Y0036346D01*
X0028673Y0036390D01*
X0028668Y0036433D01*
X0028661Y0036477D01*
X0028653Y0036520D01*
X0028642Y0036562D01*
X0028630Y0036604D01*
X0028616Y0036646D01*
X0028600Y0036687D01*
X0028582Y0036727D01*
X0028563Y0036766D01*
X0028542Y0036804D01*
X0028519Y0036842D01*
X0028495Y0036878D01*
X0028469Y0036914D01*
X0028442Y0036948D01*
X0028413Y0036981D01*
X0028382Y0037012D01*
X0028351Y0037043D01*
X0028318Y0037072D01*
X0028284Y0037099D01*
X0028248Y0037125D01*
X0028212Y0037149D01*
X0028174Y0037172D01*
X0028136Y0037193D01*
X0028097Y0037212D01*
X0028057Y0037230D01*
X0028016Y0037246D01*
X0027974Y0037260D01*
X0027932Y0037272D01*
X0027890Y0037283D01*
X0027847Y0037291D01*
X0027803Y0037298D01*
X0027760Y0037303D01*
X0027716Y0037306D01*
X0027672Y0037306D01*
D02*
G37*
G36*
X0031208Y0039658D02*
X0030593Y0039044D01*
X0030596Y0039041D01*
X0030632Y0039015D01*
X0030668Y0038991D01*
X0030706Y0038968D01*
X0030744Y0038947D01*
X0030783Y0038928D01*
X0030823Y0038910D01*
X0030864Y0038894D01*
X0030906Y0038880D01*
X0030948Y0038868D01*
X0030990Y0038857D01*
X0031033Y0038849D01*
X0031077Y0038842D01*
X0031120Y0038837D01*
X0031164Y0038834D01*
X0031208Y0038834D01*
X0031252Y0038834D01*
X0031295Y0038837D01*
X0031339Y0038842D01*
X0031382Y0038849D01*
X0031425Y0038857D01*
X0031468Y0038868D01*
X0031510Y0038880D01*
X0031551Y0038894D01*
X0031592Y0038910D01*
X0031632Y0038928D01*
X0031671Y0038947D01*
X0031710Y0038968D01*
X0031747Y0038991D01*
X0031784Y0039015D01*
X0031819Y0039041D01*
X0031822Y0039044D01*
X0031208Y0039658D01*
D02*
G37*
G36*
X0068302Y0032716D02*
Y0031847D01*
X0069171D01*
X0069171Y0031851D01*
X0069164Y0031894D01*
X0069155Y0031937D01*
X0069145Y0031980D01*
X0069133Y0032022D01*
X0069119Y0032063D01*
X0069103Y0032104D01*
X0069085Y0032144D01*
X0069066Y0032184D01*
X0069045Y0032222D01*
X0069022Y0032260D01*
X0068998Y0032296D01*
X0068972Y0032331D01*
X0068944Y0032366D01*
X0068915Y0032398D01*
X0068885Y0032430D01*
X0068853Y0032460D01*
X0068821Y0032489D01*
X0068786Y0032517D01*
X0068751Y0032543D01*
X0068715Y0032567D01*
X0068677Y0032590D01*
X0068639Y0032611D01*
X0068599Y0032630D01*
X0068559Y0032648D01*
X0068518Y0032664D01*
X0068477Y0032678D01*
X0068435Y0032690D01*
X0068392Y0032700D01*
X0068349Y0032709D01*
X0068306Y0032716D01*
X0068302Y0032716D01*
D02*
G37*
G36*
X0069171Y0031593D02*
X0068302D01*
Y0030724D01*
X0068306Y0030724D01*
X0068349Y0030731D01*
X0068392Y0030740D01*
X0068435Y0030750D01*
X0068477Y0030762D01*
X0068518Y0030776D01*
X0068559Y0030792D01*
X0068599Y0030810D01*
X0068639Y0030829D01*
X0068677Y0030850D01*
X0068715Y0030873D01*
X0068751Y0030897D01*
X0068786Y0030923D01*
X0068821Y0030951D01*
X0068853Y0030980D01*
X0068885Y0031010D01*
X0068915Y0031042D01*
X0068944Y0031074D01*
X0068972Y0031109D01*
X0068998Y0031144D01*
X0069022Y0031180D01*
X0069045Y0031218D01*
X0069066Y0031256D01*
X0069085Y0031296D01*
X0069103Y0031336D01*
X0069119Y0031377D01*
X0069133Y0031418D01*
X0069145Y0031460D01*
X0069155Y0031503D01*
X0069164Y0031546D01*
X0069171Y0031589D01*
X0069171Y0031593D01*
D02*
G37*
G36*
X0068048Y0032716D02*
X0068044Y0032716D01*
X0068001Y0032709D01*
X0067958Y0032700D01*
X0067915Y0032690D01*
X0067873Y0032678D01*
X0067832Y0032664D01*
X0067791Y0032648D01*
X0067751Y0032630D01*
X0067711Y0032611D01*
X0067673Y0032590D01*
X0067635Y0032567D01*
X0067599Y0032543D01*
X0067564Y0032517D01*
X0067529Y0032489D01*
X0067497Y0032460D01*
X0067465Y0032430D01*
X0067435Y0032398D01*
X0067406Y0032366D01*
X0067378Y0032331D01*
X0067352Y0032296D01*
X0067328Y0032260D01*
X0067305Y0032222D01*
X0067284Y0032184D01*
X0067265Y0032144D01*
X0067247Y0032104D01*
X0067231Y0032063D01*
X0067217Y0032022D01*
X0067205Y0031980D01*
X0067195Y0031937D01*
X0067186Y0031894D01*
X0067179Y0031851D01*
X0067179Y0031847D01*
X0068048D01*
Y0032716D01*
D02*
G37*
G36*
X0036250Y0048464D02*
X0033750D01*
X0033728Y0048463D01*
X0033706Y0048460D01*
X0033684Y0048456D01*
X0033663Y0048449D01*
X0033643Y0048440D01*
X0033623Y0048430D01*
X0033604Y0048418D01*
X0033587Y0048405D01*
X0033570Y0048390D01*
X0033555Y0048373D01*
X0033542Y0048356D01*
X0033530Y0048337D01*
X0033520Y0048317D01*
X0033511Y0048297D01*
X0033504Y0048276D01*
X0033500Y0048254D01*
X0033497Y0048232D01*
X0033496Y0048210D01*
Y0045710D01*
X0033497Y0045688D01*
X0033500Y0045666D01*
X0033504Y0045644D01*
X0033511Y0045623D01*
X0033520Y0045603D01*
X0033530Y0045583D01*
X0033542Y0045564D01*
X0033555Y0045547D01*
X0033570Y0045530D01*
X0033587Y0045515D01*
X0033604Y0045502D01*
X0033623Y0045490D01*
X0033643Y0045480D01*
X0033663Y0045471D01*
X0033684Y0045464D01*
X0033706Y0045460D01*
X0033728Y0045457D01*
X0033750Y0045456D01*
X0036250D01*
X0036272Y0045457D01*
X0036294Y0045460D01*
X0036316Y0045464D01*
X0036337Y0045471D01*
X0036357Y0045480D01*
X0036377Y0045490D01*
X0036396Y0045502D01*
X0036413Y0045515D01*
X0036430Y0045530D01*
X0036445Y0045547D01*
X0036458Y0045564D01*
X0036470Y0045583D01*
X0036480Y0045603D01*
X0036489Y0045623D01*
X0036496Y0045644D01*
X0036500Y0045666D01*
X0036503Y0045688D01*
X0036504Y0045710D01*
Y0048210D01*
X0036503Y0048232D01*
X0036500Y0048254D01*
X0036496Y0048276D01*
X0036489Y0048297D01*
X0036480Y0048317D01*
X0036470Y0048337D01*
X0036458Y0048356D01*
X0036445Y0048373D01*
X0036430Y0048390D01*
X0036413Y0048405D01*
X0036396Y0048418D01*
X0036377Y0048430D01*
X0036357Y0048440D01*
X0036337Y0048449D01*
X0036316Y0048456D01*
X0036294Y0048460D01*
X0036272Y0048463D01*
X0036250Y0048464D01*
D02*
G37*
G36*
X0080690Y0048014D02*
X0079790D01*
X0079744Y0048013D01*
X0079698Y0048010D01*
X0079652Y0048005D01*
X0079607Y0047998D01*
X0079562Y0047989D01*
X0079517Y0047978D01*
X0079473Y0047965D01*
X0079429Y0047951D01*
X0079387Y0047934D01*
X0079344Y0047915D01*
X0079303Y0047895D01*
X0079263Y0047873D01*
X0079224Y0047849D01*
X0079185Y0047824D01*
X0079148Y0047796D01*
X0079112Y0047768D01*
X0079078Y0047737D01*
X0079045Y0047705D01*
X0079013Y0047672D01*
X0078982Y0047638D01*
X0078954Y0047602D01*
X0078926Y0047565D01*
X0078901Y0047526D01*
X0078877Y0047487D01*
X0078855Y0047447D01*
X0078835Y0047406D01*
X0078816Y0047363D01*
X0078799Y0047321D01*
X0078785Y0047277D01*
X0078772Y0047233D01*
X0078761Y0047188D01*
X0078752Y0047143D01*
X0078745Y0047098D01*
X0078740Y0047052D01*
X0078737Y0047006D01*
X0078736Y0046960D01*
X0078737Y0046914D01*
X0078740Y0046868D01*
X0078745Y0046822D01*
X0078752Y0046777D01*
X0078761Y0046732D01*
X0078772Y0046687D01*
X0078785Y0046643D01*
X0078799Y0046599D01*
X0078816Y0046557D01*
X0078835Y0046514D01*
X0078855Y0046473D01*
X0078877Y0046433D01*
X0078901Y0046394D01*
X0078926Y0046355D01*
X0078954Y0046318D01*
X0078982Y0046282D01*
X0079013Y0046248D01*
X0079045Y0046215D01*
X0079078Y0046183D01*
X0079112Y0046152D01*
X0079148Y0046124D01*
X0079185Y0046096D01*
X0079224Y0046071D01*
X0079263Y0046047D01*
X0079303Y0046025D01*
X0079344Y0046005D01*
X0079387Y0045986D01*
X0079429Y0045969D01*
X0079473Y0045955D01*
X0079517Y0045942D01*
X0079562Y0045931D01*
X0079607Y0045922D01*
X0079652Y0045915D01*
X0079698Y0045910D01*
X0079744Y0045907D01*
X0079790Y0045906D01*
X0080690D01*
X0080736Y0045907D01*
X0080782Y0045910D01*
X0080828Y0045915D01*
X0080873Y0045922D01*
X0080918Y0045931D01*
X0080963Y0045942D01*
X0081007Y0045955D01*
X0081051Y0045969D01*
X0081093Y0045986D01*
X0081136Y0046005D01*
X0081177Y0046025D01*
X0081217Y0046047D01*
X0081256Y0046071D01*
X0081295Y0046096D01*
X0081332Y0046124D01*
X0081368Y0046152D01*
X0081402Y0046183D01*
X0081435Y0046215D01*
X0081467Y0046248D01*
X0081498Y0046282D01*
X0081526Y0046318D01*
X0081554Y0046355D01*
X0081579Y0046394D01*
X0081603Y0046433D01*
X0081625Y0046473D01*
X0081645Y0046514D01*
X0081664Y0046557D01*
X0081681Y0046599D01*
X0081695Y0046643D01*
X0081708Y0046687D01*
X0081719Y0046732D01*
X0081728Y0046777D01*
X0081735Y0046822D01*
X0081740Y0046868D01*
X0081743Y0046914D01*
X0081744Y0046960D01*
X0081743Y0047006D01*
X0081740Y0047052D01*
X0081735Y0047098D01*
X0081728Y0047143D01*
X0081719Y0047188D01*
X0081708Y0047233D01*
X0081695Y0047277D01*
X0081681Y0047321D01*
X0081664Y0047363D01*
X0081645Y0047406D01*
X0081625Y0047447D01*
X0081603Y0047487D01*
X0081579Y0047526D01*
X0081554Y0047565D01*
X0081526Y0047602D01*
X0081498Y0047638D01*
X0081467Y0047672D01*
X0081435Y0047705D01*
X0081402Y0047737D01*
X0081368Y0047768D01*
X0081332Y0047796D01*
X0081295Y0047824D01*
X0081256Y0047849D01*
X0081217Y0047873D01*
X0081177Y0047895D01*
X0081136Y0047915D01*
X0081093Y0047934D01*
X0081051Y0047951D01*
X0081007Y0047965D01*
X0080963Y0047978D01*
X0080918Y0047989D01*
X0080873Y0047998D01*
X0080828Y0048005D01*
X0080782Y0048010D01*
X0080736Y0048013D01*
X0080690Y0048014D01*
D02*
G37*
G36*
X0031208Y0040842D02*
X0031164Y0040841D01*
X0031120Y0040838D01*
X0031077Y0040833D01*
X0031033Y0040827D01*
X0030990Y0040818D01*
X0030948Y0040808D01*
X0030906Y0040796D01*
X0030864Y0040781D01*
X0030823Y0040766D01*
X0030783Y0040748D01*
X0030744Y0040729D01*
X0030706Y0040707D01*
X0030668Y0040685D01*
X0030632Y0040660D01*
X0030596Y0040634D01*
X0030593Y0040632D01*
X0031208Y0040017D01*
X0031822Y0040632D01*
X0031819Y0040634D01*
X0031784Y0040660D01*
X0031747Y0040685D01*
X0031710Y0040707D01*
X0031671Y0040729D01*
X0031632Y0040748D01*
X0031592Y0040766D01*
X0031551Y0040781D01*
X0031510Y0040796D01*
X0031468Y0040808D01*
X0031425Y0040818D01*
X0031382Y0040827D01*
X0031339Y0040833D01*
X0031295Y0040838D01*
X0031252Y0040841D01*
X0031208Y0040842D01*
D02*
G37*
G36*
X0032002Y0040452D02*
X0031387Y0039838D01*
X0032002Y0039223D01*
X0032004Y0039226D01*
X0032030Y0039262D01*
X0032055Y0039298D01*
X0032077Y0039336D01*
X0032099Y0039374D01*
X0032118Y0039413D01*
X0032136Y0039453D01*
X0032151Y0039494D01*
X0032166Y0039536D01*
X0032178Y0039578D01*
X0032188Y0039620D01*
X0032197Y0039663D01*
X0032203Y0039707D01*
X0032208Y0039750D01*
X0032211Y0039794D01*
X0032212Y0039838D01*
X0032211Y0039882D01*
X0032208Y0039925D01*
X0032203Y0039969D01*
X0032197Y0040012D01*
X0032188Y0040055D01*
X0032178Y0040098D01*
X0032166Y0040140D01*
X0032151Y0040181D01*
X0032136Y0040222D01*
X0032118Y0040262D01*
X0032099Y0040301D01*
X0032077Y0040340D01*
X0032055Y0040377D01*
X0032030Y0040414D01*
X0032004Y0040449D01*
X0032002Y0040452D01*
D02*
G37*
G36*
X0030414D02*
X0030411Y0040449D01*
X0030385Y0040414D01*
X0030361Y0040377D01*
X0030338Y0040340D01*
X0030317Y0040301D01*
X0030298Y0040262D01*
X0030280Y0040222D01*
X0030264Y0040181D01*
X0030250Y0040140D01*
X0030238Y0040098D01*
X0030227Y0040055D01*
X0030219Y0040012D01*
X0030212Y0039969D01*
X0030207Y0039925D01*
X0030204Y0039882D01*
X0030204Y0039838D01*
X0030204Y0039794D01*
X0030207Y0039750D01*
X0030212Y0039707D01*
X0030219Y0039663D01*
X0030227Y0039620D01*
X0030238Y0039578D01*
X0030250Y0039536D01*
X0030264Y0039494D01*
X0030280Y0039453D01*
X0030298Y0039413D01*
X0030317Y0039374D01*
X0030338Y0039336D01*
X0030361Y0039298D01*
X0030385Y0039262D01*
X0030411Y0039226D01*
X0030414Y0039223D01*
X0031028Y0039838D01*
X0030414Y0040452D01*
D02*
G37*
G36*
X0068048Y0031593D02*
X0067179D01*
X0067179Y0031589D01*
X0067186Y0031546D01*
X0067195Y0031503D01*
X0067205Y0031460D01*
X0067217Y0031418D01*
X0067231Y0031377D01*
X0067247Y0031336D01*
X0067265Y0031296D01*
X0067284Y0031256D01*
X0067305Y0031218D01*
X0067328Y0031180D01*
X0067352Y0031144D01*
X0067378Y0031109D01*
X0067406Y0031074D01*
X0067435Y0031042D01*
X0067465Y0031010D01*
X0067497Y0030980D01*
X0067529Y0030951D01*
X0067564Y0030923D01*
X0067599Y0030897D01*
X0067635Y0030873D01*
X0067673Y0030850D01*
X0067711Y0030829D01*
X0067751Y0030810D01*
X0067791Y0030792D01*
X0067832Y0030776D01*
X0067873Y0030762D01*
X0067915Y0030750D01*
X0067958Y0030740D01*
X0068001Y0030731D01*
X0068044Y0030724D01*
X0068048Y0030724D01*
Y0031593D01*
D02*
G37*
G36*
X0094591Y0029053D02*
X0093702D01*
Y0028164D01*
X0094337D01*
X0094359Y0028165D01*
X0094381Y0028168D01*
X0094403Y0028172D01*
X0094424Y0028179D01*
X0094444Y0028188D01*
X0094464Y0028198D01*
X0094483Y0028210D01*
X0094500Y0028223D01*
X0094517Y0028238D01*
X0094532Y0028255D01*
X0094545Y0028272D01*
X0094557Y0028291D01*
X0094567Y0028311D01*
X0094576Y0028331D01*
X0094583Y0028352D01*
X0094587Y0028374D01*
X0094590Y0028396D01*
X0094591Y0028418D01*
Y0029053D01*
D02*
G37*
G36*
X0093448Y0030196D02*
X0092813D01*
X0092791Y0030195D01*
X0092769Y0030192D01*
X0092747Y0030188D01*
X0092726Y0030181D01*
X0092706Y0030172D01*
X0092686Y0030162D01*
X0092667Y0030150D01*
X0092650Y0030137D01*
X0092633Y0030122D01*
X0092618Y0030105D01*
X0092605Y0030088D01*
X0092593Y0030069D01*
X0092583Y0030049D01*
X0092574Y0030029D01*
X0092567Y0030008D01*
X0092563Y0029986D01*
X0092560Y0029964D01*
X0092559Y0029942D01*
Y0029307D01*
X0093448D01*
Y0030196D01*
D02*
G37*
G36*
Y0029053D02*
X0092559D01*
Y0028418D01*
X0092560Y0028396D01*
X0092563Y0028374D01*
X0092567Y0028352D01*
X0092574Y0028331D01*
X0092583Y0028311D01*
X0092593Y0028291D01*
X0092605Y0028272D01*
X0092618Y0028255D01*
X0092633Y0028238D01*
X0092650Y0028223D01*
X0092667Y0028210D01*
X0092686Y0028198D01*
X0092706Y0028188D01*
X0092726Y0028179D01*
X0092747Y0028172D01*
X0092769Y0028168D01*
X0092791Y0028165D01*
X0092813Y0028164D01*
X0093448D01*
Y0029053D01*
D02*
G37*
G36*
X0029000Y0032254D02*
X0028920Y0032253D01*
X0028840Y0032250D01*
X0028761Y0032245D01*
X0028681Y0032239D01*
X0028602Y0032230D01*
X0028522Y0032219D01*
X0028444Y0032206D01*
X0028365Y0032192D01*
X0028287Y0032175D01*
X0028209Y0032157D01*
X0028132Y0032136D01*
X0028055Y0032114D01*
X0027979Y0032090D01*
X0027904Y0032064D01*
X0027829Y0032036D01*
X0027755Y0032007D01*
X0027681Y0031975D01*
X0027609Y0031942D01*
X0027537Y0031907D01*
X0027466Y0031870D01*
X0027396Y0031831D01*
X0027327Y0031791D01*
X0027259Y0031749D01*
X0027192Y0031706D01*
X0027126Y0031661D01*
X0027061Y0031614D01*
X0026998Y0031565D01*
X0026936Y0031516D01*
X0026874Y0031464D01*
X0026815Y0031411D01*
X0026756Y0031357D01*
X0026699Y0031301D01*
X0026643Y0031244D01*
X0026589Y0031185D01*
X0026536Y0031126D01*
X0026484Y0031064D01*
X0026435Y0031002D01*
X0026386Y0030939D01*
X0026339Y0030874D01*
X0026294Y0030808D01*
X0026251Y0030741D01*
X0026209Y0030673D01*
X0026169Y0030604D01*
X0026130Y0030534D01*
X0026093Y0030463D01*
X0026058Y0030391D01*
X0026025Y0030319D01*
X0025993Y0030245D01*
X0025964Y0030171D01*
X0025936Y0030096D01*
X0025910Y0030021D01*
X0025886Y0029945D01*
X0025864Y0029868D01*
X0025843Y0029791D01*
X0025825Y0029713D01*
X0025808Y0029635D01*
X0025794Y0029556D01*
X0025781Y0029478D01*
X0025770Y0029398D01*
X0025761Y0029319D01*
X0025755Y0029239D01*
X0025750Y0029160D01*
X0025747Y0029080D01*
X0025746Y0029000D01*
X0025747Y0028920D01*
X0025750Y0028840D01*
X0025755Y0028761D01*
X0025761Y0028681D01*
X0025770Y0028602D01*
X0025781Y0028522D01*
X0025794Y0028444D01*
X0025808Y0028365D01*
X0025825Y0028287D01*
X0025843Y0028209D01*
X0025864Y0028132D01*
X0025886Y0028055D01*
X0025910Y0027979D01*
X0025936Y0027904D01*
X0025964Y0027829D01*
X0025993Y0027755D01*
X0026025Y0027681D01*
X0026058Y0027609D01*
X0026093Y0027537D01*
X0026130Y0027466D01*
X0026169Y0027396D01*
X0026209Y0027327D01*
X0026251Y0027259D01*
X0026294Y0027192D01*
X0026339Y0027126D01*
X0026386Y0027061D01*
X0026435Y0026998D01*
X0026484Y0026936D01*
X0026536Y0026874D01*
X0026589Y0026815D01*
X0026643Y0026756D01*
X0026699Y0026699D01*
X0026756Y0026643D01*
X0026815Y0026589D01*
X0026874Y0026536D01*
X0026936Y0026484D01*
X0026998Y0026435D01*
X0027061Y0026386D01*
X0027126Y0026339D01*
X0027192Y0026294D01*
X0027259Y0026251D01*
X0027327Y0026209D01*
X0027396Y0026169D01*
X0027466Y0026130D01*
X0027537Y0026093D01*
X0027609Y0026058D01*
X0027681Y0026025D01*
X0027755Y0025993D01*
X0027829Y0025964D01*
X0027904Y0025936D01*
X0027979Y0025910D01*
X0028055Y0025886D01*
X0028132Y0025864D01*
X0028209Y0025843D01*
X0028287Y0025825D01*
X0028365Y0025808D01*
X0028444Y0025794D01*
X0028522Y0025781D01*
X0028602Y0025770D01*
X0028681Y0025761D01*
X0028761Y0025755D01*
X0028840Y0025750D01*
X0028920Y0025747D01*
X0029000Y0025746D01*
X0029080Y0025747D01*
X0029160Y0025750D01*
X0029239Y0025755D01*
X0029319Y0025761D01*
X0029398Y0025770D01*
X0029478Y0025781D01*
X0029556Y0025794D01*
X0029635Y0025808D01*
X0029713Y0025825D01*
X0029791Y0025843D01*
X0029868Y0025864D01*
X0029945Y0025886D01*
X0030021Y0025910D01*
X0030096Y0025936D01*
X0030171Y0025964D01*
X0030245Y0025993D01*
X0030319Y0026025D01*
X0030391Y0026058D01*
X0030463Y0026093D01*
X0030534Y0026130D01*
X0030604Y0026169D01*
X0030673Y0026209D01*
X0030741Y0026251D01*
X0030808Y0026294D01*
X0030874Y0026339D01*
X0030939Y0026386D01*
X0031002Y0026435D01*
X0031064Y0026484D01*
X0031126Y0026536D01*
X0031185Y0026589D01*
X0031244Y0026643D01*
X0031301Y0026699D01*
X0031357Y0026756D01*
X0031411Y0026815D01*
X0031464Y0026874D01*
X0031516Y0026936D01*
X0031565Y0026998D01*
X0031614Y0027061D01*
X0031661Y0027126D01*
X0031706Y0027192D01*
X0031749Y0027259D01*
X0031791Y0027327D01*
X0031831Y0027396D01*
X0031870Y0027466D01*
X0031907Y0027537D01*
X0031942Y0027609D01*
X0031975Y0027681D01*
X0032007Y0027755D01*
X0032036Y0027829D01*
X0032064Y0027904D01*
X0032090Y0027979D01*
X0032114Y0028055D01*
X0032136Y0028132D01*
X0032157Y0028209D01*
X0032175Y0028287D01*
X0032192Y0028365D01*
X0032206Y0028444D01*
X0032219Y0028522D01*
X0032230Y0028602D01*
X0032239Y0028681D01*
X0032245Y0028761D01*
X0032250Y0028840D01*
X0032253Y0028920D01*
X0032254Y0029000D01*
X0032253Y0029080D01*
X0032250Y0029160D01*
X0032245Y0029239D01*
X0032239Y0029319D01*
X0032230Y0029398D01*
X0032219Y0029478D01*
X0032206Y0029556D01*
X0032192Y0029635D01*
X0032175Y0029713D01*
X0032157Y0029791D01*
X0032136Y0029868D01*
X0032114Y0029945D01*
X0032090Y0030021D01*
X0032064Y0030096D01*
X0032036Y0030171D01*
X0032007Y0030245D01*
X0031975Y0030319D01*
X0031942Y0030391D01*
X0031907Y0030463D01*
X0031870Y0030534D01*
X0031831Y0030604D01*
X0031791Y0030673D01*
X0031749Y0030741D01*
X0031706Y0030808D01*
X0031661Y0030874D01*
X0031614Y0030939D01*
X0031565Y0031002D01*
X0031516Y0031064D01*
X0031464Y0031126D01*
X0031411Y0031185D01*
X0031357Y0031244D01*
X0031301Y0031301D01*
X0031244Y0031357D01*
X0031185Y0031411D01*
X0031126Y0031464D01*
X0031064Y0031516D01*
X0031002Y0031565D01*
X0030939Y0031614D01*
X0030874Y0031661D01*
X0030808Y0031706D01*
X0030741Y0031749D01*
X0030673Y0031791D01*
X0030604Y0031831D01*
X0030534Y0031870D01*
X0030463Y0031907D01*
X0030391Y0031942D01*
X0030319Y0031975D01*
X0030245Y0032007D01*
X0030171Y0032036D01*
X0030096Y0032064D01*
X0030021Y0032090D01*
X0029945Y0032114D01*
X0029868Y0032136D01*
X0029791Y0032157D01*
X0029713Y0032175D01*
X0029635Y0032192D01*
X0029556Y0032206D01*
X0029478Y0032219D01*
X0029398Y0032230D01*
X0029319Y0032239D01*
X0029239Y0032245D01*
X0029160Y0032250D01*
X0029080Y0032253D01*
X0029000Y0032254D01*
D02*
G37*
G36*
X0101000D02*
X0100920Y0032253D01*
X0100840Y0032250D01*
X0100761Y0032245D01*
X0100681Y0032239D01*
X0100602Y0032230D01*
X0100522Y0032219D01*
X0100444Y0032206D01*
X0100365Y0032192D01*
X0100287Y0032175D01*
X0100209Y0032157D01*
X0100132Y0032136D01*
X0100055Y0032114D01*
X0099979Y0032090D01*
X0099904Y0032064D01*
X0099829Y0032036D01*
X0099755Y0032007D01*
X0099681Y0031975D01*
X0099609Y0031942D01*
X0099537Y0031907D01*
X0099466Y0031870D01*
X0099396Y0031831D01*
X0099327Y0031791D01*
X0099259Y0031749D01*
X0099192Y0031706D01*
X0099126Y0031661D01*
X0099061Y0031614D01*
X0098998Y0031565D01*
X0098936Y0031516D01*
X0098874Y0031464D01*
X0098815Y0031411D01*
X0098756Y0031357D01*
X0098699Y0031301D01*
X0098643Y0031244D01*
X0098589Y0031185D01*
X0098536Y0031126D01*
X0098484Y0031064D01*
X0098435Y0031002D01*
X0098386Y0030939D01*
X0098339Y0030874D01*
X0098294Y0030808D01*
X0098251Y0030741D01*
X0098209Y0030673D01*
X0098169Y0030604D01*
X0098130Y0030534D01*
X0098093Y0030463D01*
X0098058Y0030391D01*
X0098025Y0030319D01*
X0097993Y0030245D01*
X0097964Y0030171D01*
X0097936Y0030096D01*
X0097910Y0030021D01*
X0097886Y0029945D01*
X0097864Y0029868D01*
X0097843Y0029791D01*
X0097825Y0029713D01*
X0097808Y0029635D01*
X0097794Y0029556D01*
X0097781Y0029478D01*
X0097770Y0029398D01*
X0097761Y0029319D01*
X0097755Y0029239D01*
X0097750Y0029160D01*
X0097747Y0029080D01*
X0097746Y0029000D01*
X0097747Y0028920D01*
X0097750Y0028840D01*
X0097755Y0028761D01*
X0097761Y0028681D01*
X0097770Y0028602D01*
X0097781Y0028522D01*
X0097794Y0028444D01*
X0097808Y0028365D01*
X0097825Y0028287D01*
X0097843Y0028209D01*
X0097864Y0028132D01*
X0097886Y0028055D01*
X0097910Y0027979D01*
X0097936Y0027904D01*
X0097964Y0027829D01*
X0097993Y0027755D01*
X0098025Y0027681D01*
X0098058Y0027609D01*
X0098093Y0027537D01*
X0098130Y0027466D01*
X0098169Y0027396D01*
X0098209Y0027327D01*
X0098251Y0027259D01*
X0098294Y0027192D01*
X0098339Y0027126D01*
X0098386Y0027061D01*
X0098435Y0026998D01*
X0098484Y0026936D01*
X0098536Y0026874D01*
X0098589Y0026815D01*
X0098643Y0026756D01*
X0098699Y0026699D01*
X0098756Y0026643D01*
X0098815Y0026589D01*
X0098874Y0026536D01*
X0098936Y0026484D01*
X0098998Y0026435D01*
X0099061Y0026386D01*
X0099126Y0026339D01*
X0099192Y0026294D01*
X0099259Y0026251D01*
X0099327Y0026209D01*
X0099396Y0026169D01*
X0099466Y0026130D01*
X0099537Y0026093D01*
X0099609Y0026058D01*
X0099681Y0026025D01*
X0099755Y0025993D01*
X0099829Y0025964D01*
X0099904Y0025936D01*
X0099979Y0025910D01*
X0100055Y0025886D01*
X0100132Y0025864D01*
X0100209Y0025843D01*
X0100287Y0025825D01*
X0100365Y0025808D01*
X0100444Y0025794D01*
X0100522Y0025781D01*
X0100602Y0025770D01*
X0100681Y0025761D01*
X0100761Y0025755D01*
X0100840Y0025750D01*
X0100920Y0025747D01*
X0101000Y0025746D01*
X0101080Y0025747D01*
X0101160Y0025750D01*
X0101239Y0025755D01*
X0101319Y0025761D01*
X0101398Y0025770D01*
X0101478Y0025781D01*
X0101556Y0025794D01*
X0101635Y0025808D01*
X0101713Y0025825D01*
X0101791Y0025843D01*
X0101868Y0025864D01*
X0101945Y0025886D01*
X0102021Y0025910D01*
X0102096Y0025936D01*
X0102171Y0025964D01*
X0102245Y0025993D01*
X0102319Y0026025D01*
X0102391Y0026058D01*
X0102463Y0026093D01*
X0102534Y0026130D01*
X0102604Y0026169D01*
X0102673Y0026209D01*
X0102741Y0026251D01*
X0102808Y0026294D01*
X0102874Y0026339D01*
X0102939Y0026386D01*
X0103002Y0026435D01*
X0103064Y0026484D01*
X0103126Y0026536D01*
X0103185Y0026589D01*
X0103244Y0026643D01*
X0103301Y0026699D01*
X0103357Y0026756D01*
X0103411Y0026815D01*
X0103464Y0026874D01*
X0103516Y0026936D01*
X0103565Y0026998D01*
X0103614Y0027061D01*
X0103661Y0027126D01*
X0103706Y0027192D01*
X0103749Y0027259D01*
X0103791Y0027327D01*
X0103831Y0027396D01*
X0103870Y0027466D01*
X0103907Y0027537D01*
X0103942Y0027609D01*
X0103975Y0027681D01*
X0104007Y0027755D01*
X0104036Y0027829D01*
X0104064Y0027904D01*
X0104090Y0027979D01*
X0104114Y0028055D01*
X0104136Y0028132D01*
X0104157Y0028209D01*
X0104175Y0028287D01*
X0104192Y0028365D01*
X0104206Y0028444D01*
X0104219Y0028522D01*
X0104230Y0028602D01*
X0104239Y0028681D01*
X0104245Y0028761D01*
X0104250Y0028840D01*
X0104253Y0028920D01*
X0104254Y0029000D01*
X0104253Y0029080D01*
X0104250Y0029160D01*
X0104245Y0029239D01*
X0104239Y0029319D01*
X0104230Y0029398D01*
X0104219Y0029478D01*
X0104206Y0029556D01*
X0104192Y0029635D01*
X0104175Y0029713D01*
X0104157Y0029791D01*
X0104136Y0029868D01*
X0104114Y0029945D01*
X0104090Y0030021D01*
X0104064Y0030096D01*
X0104036Y0030171D01*
X0104007Y0030245D01*
X0103975Y0030319D01*
X0103942Y0030391D01*
X0103907Y0030463D01*
X0103870Y0030534D01*
X0103831Y0030604D01*
X0103791Y0030673D01*
X0103749Y0030741D01*
X0103706Y0030808D01*
X0103661Y0030874D01*
X0103614Y0030939D01*
X0103565Y0031002D01*
X0103516Y0031064D01*
X0103464Y0031126D01*
X0103411Y0031185D01*
X0103357Y0031244D01*
X0103301Y0031301D01*
X0103244Y0031357D01*
X0103185Y0031411D01*
X0103126Y0031464D01*
X0103064Y0031516D01*
X0103002Y0031565D01*
X0102939Y0031614D01*
X0102874Y0031661D01*
X0102808Y0031706D01*
X0102741Y0031749D01*
X0102673Y0031791D01*
X0102604Y0031831D01*
X0102534Y0031870D01*
X0102463Y0031907D01*
X0102391Y0031942D01*
X0102319Y0031975D01*
X0102245Y0032007D01*
X0102171Y0032036D01*
X0102096Y0032064D01*
X0102021Y0032090D01*
X0101945Y0032114D01*
X0101868Y0032136D01*
X0101791Y0032157D01*
X0101713Y0032175D01*
X0101635Y0032192D01*
X0101556Y0032206D01*
X0101478Y0032219D01*
X0101398Y0032230D01*
X0101319Y0032239D01*
X0101239Y0032245D01*
X0101160Y0032250D01*
X0101080Y0032253D01*
X0101000Y0032254D01*
D02*
G37*
G36*
X0074005Y0032724D02*
X0072505D01*
X0072483Y0032723D01*
X0072461Y0032720D01*
X0072439Y0032716D01*
X0072418Y0032709D01*
X0072398Y0032700D01*
X0072378Y0032690D01*
X0072359Y0032678D01*
X0072342Y0032665D01*
X0072325Y0032650D01*
X0072310Y0032633D01*
X0072297Y0032616D01*
X0072285Y0032597D01*
X0072275Y0032577D01*
X0072266Y0032557D01*
X0072259Y0032536D01*
X0072255Y0032514D01*
X0072252Y0032492D01*
X0072251Y0032470D01*
Y0030970D01*
X0072252Y0030948D01*
X0072255Y0030926D01*
X0072259Y0030904D01*
X0072266Y0030883D01*
X0072275Y0030863D01*
X0072285Y0030843D01*
X0072297Y0030824D01*
X0072310Y0030807D01*
X0072325Y0030790D01*
X0072342Y0030775D01*
X0072359Y0030762D01*
X0072378Y0030750D01*
X0072398Y0030740D01*
X0072418Y0030731D01*
X0072439Y0030724D01*
X0072461Y0030720D01*
X0072483Y0030717D01*
X0072505Y0030716D01*
X0074005D01*
X0074027Y0030717D01*
X0074049Y0030720D01*
X0074071Y0030724D01*
X0074092Y0030731D01*
X0074112Y0030740D01*
X0074132Y0030750D01*
X0074151Y0030762D01*
X0074168Y0030775D01*
X0074185Y0030790D01*
X0074200Y0030807D01*
X0074213Y0030824D01*
X0074225Y0030843D01*
X0074235Y0030863D01*
X0074244Y0030883D01*
X0074251Y0030904D01*
X0074255Y0030926D01*
X0074258Y0030948D01*
X0074259Y0030970D01*
Y0032470D01*
X0074258Y0032492D01*
X0074255Y0032514D01*
X0074251Y0032536D01*
X0074244Y0032557D01*
X0074235Y0032577D01*
X0074225Y0032597D01*
X0074213Y0032616D01*
X0074200Y0032633D01*
X0074185Y0032650D01*
X0074168Y0032665D01*
X0074151Y0032678D01*
X0074132Y0032690D01*
X0074112Y0032700D01*
X0074092Y0032709D01*
X0074071Y0032716D01*
X0074049Y0032720D01*
X0074027Y0032723D01*
X0074005Y0032724D01*
D02*
G37*
G36*
X0045950Y0033879D02*
X0045892Y0033878D01*
X0045834Y0033875D01*
X0045776Y0033871D01*
X0045718Y0033864D01*
X0045660Y0033855D01*
X0045603Y0033845D01*
X0045546Y0033833D01*
X0045490Y0033819D01*
X0045434Y0033803D01*
X0045378Y0033785D01*
X0045324Y0033765D01*
X0045270Y0033744D01*
X0045216Y0033721D01*
X0045164Y0033696D01*
X0045112Y0033669D01*
X0045061Y0033641D01*
X0045011Y0033611D01*
X0044962Y0033580D01*
X0044914Y0033546D01*
X0044867Y0033512D01*
X0044822Y0033476D01*
X0044778Y0033438D01*
X0044734Y0033399D01*
X0044693Y0033358D01*
X0044652Y0033317D01*
X0044613Y0033273D01*
X0044575Y0033229D01*
X0044539Y0033184D01*
X0044505Y0033137D01*
X0044471Y0033089D01*
X0044440Y0033040D01*
X0044410Y0032990D01*
X0044382Y0032939D01*
X0044355Y0032888D01*
X0044330Y0032835D01*
X0044307Y0032782D01*
X0044286Y0032727D01*
X0044266Y0032673D01*
X0044248Y0032617D01*
X0044232Y0032561D01*
X0044218Y0032505D01*
X0044206Y0032448D01*
X0044196Y0032391D01*
X0044187Y0032333D01*
X0044180Y0032275D01*
X0044176Y0032217D01*
X0044173Y0032159D01*
X0044172Y0032101D01*
Y0031339D01*
X0044173Y0031281D01*
X0044176Y0031223D01*
X0044180Y0031165D01*
X0044187Y0031107D01*
X0044196Y0031049D01*
X0044206Y0030992D01*
X0044218Y0030935D01*
X0044232Y0030879D01*
X0044248Y0030823D01*
X0044266Y0030767D01*
X0044286Y0030713D01*
X0044307Y0030659D01*
X0044330Y0030605D01*
X0044355Y0030552D01*
X0044382Y0030501D01*
X0044410Y0030450D01*
X0044440Y0030400D01*
X0044471Y0030351D01*
X0044505Y0030303D01*
X0044539Y0030256D01*
X0044575Y0030211D01*
X0044613Y0030167D01*
X0044652Y0030123D01*
X0044693Y0030082D01*
X0044734Y0030041D01*
X0044778Y0030002D01*
X0044822Y0029964D01*
X0044867Y0029928D01*
X0044914Y0029894D01*
X0044962Y0029860D01*
X0045011Y0029829D01*
X0045061Y0029799D01*
X0045112Y0029771D01*
X0045164Y0029744D01*
X0045216Y0029719D01*
X0045270Y0029696D01*
X0045324Y0029675D01*
X0045378Y0029655D01*
X0045434Y0029637D01*
X0045490Y0029621D01*
X0045505Y0029617D01*
Y0029180D01*
X0045506Y0029151D01*
X0045509Y0029122D01*
X0045514Y0029093D01*
X0045520Y0029065D01*
X0045529Y0029037D01*
X0045539Y0029010D01*
X0045551Y0028983D01*
X0045565Y0028958D01*
X0045580Y0028933D01*
X0045597Y0028909D01*
X0045616Y0028887D01*
X0045636Y0028866D01*
X0046271Y0028231D01*
X0046292Y0028211D01*
X0046314Y0028192D01*
X0046338Y0028175D01*
X0046363Y0028160D01*
X0046388Y0028146D01*
X0046415Y0028134D01*
X0046442Y0028124D01*
X0046470Y0028115D01*
X0046498Y0028109D01*
X0046527Y0028104D01*
X0046553Y0028101D01*
X0046556Y0028101D01*
X0046585Y0028100D01*
X0052935D01*
X0052964Y0028101D01*
X0052993Y0028104D01*
X0053022Y0028109D01*
X0053050Y0028115D01*
X0053078Y0028124D01*
X0053105Y0028134D01*
X0053132Y0028146D01*
X0053157Y0028160D01*
X0053182Y0028175D01*
X0053206Y0028192D01*
X0053228Y0028211D01*
X0053249Y0028231D01*
X0054389Y0029370D01*
X0068810D01*
X0068839Y0029371D01*
X0068868Y0029374D01*
X0068897Y0029379D01*
X0068925Y0029385D01*
X0068953Y0029394D01*
X0068980Y0029404D01*
X0069007Y0029416D01*
X0069032Y0029430D01*
X0069057Y0029445D01*
X0069081Y0029462D01*
X0069103Y0029481D01*
X0069124Y0029501D01*
X0070393Y0030769D01*
X0070413Y0030762D01*
X0070455Y0030750D01*
X0070498Y0030740D01*
X0070541Y0030731D01*
X0070584Y0030724D01*
X0070627Y0030720D01*
X0070671Y0030717D01*
X0070715Y0030716D01*
X0070759Y0030717D01*
X0070803Y0030720D01*
X0070846Y0030724D01*
X0070889Y0030731D01*
X0070932Y0030740D01*
X0070975Y0030750D01*
X0071017Y0030762D01*
X0071058Y0030776D01*
X0071099Y0030792D01*
X0071139Y0030810D01*
X0071179Y0030829D01*
X0071217Y0030850D01*
X0071255Y0030873D01*
X0071291Y0030897D01*
X0071326Y0030923D01*
X0071361Y0030951D01*
X0071393Y0030980D01*
X0071425Y0031010D01*
X0071455Y0031042D01*
X0071484Y0031074D01*
X0071512Y0031109D01*
X0071538Y0031144D01*
X0071562Y0031180D01*
X0071585Y0031218D01*
X0071606Y0031256D01*
X0071625Y0031296D01*
X0071643Y0031336D01*
X0071659Y0031377D01*
X0071673Y0031418D01*
X0071685Y0031460D01*
X0071695Y0031503D01*
X0071704Y0031546D01*
X0071711Y0031589D01*
X0071715Y0031632D01*
X0071718Y0031676D01*
X0071719Y0031720D01*
X0071718Y0031764D01*
X0071715Y0031808D01*
X0071711Y0031851D01*
X0071704Y0031894D01*
X0071695Y0031937D01*
X0071685Y0031980D01*
X0071673Y0032022D01*
X0071659Y0032063D01*
X0071643Y0032104D01*
X0071625Y0032144D01*
X0071606Y0032184D01*
X0071585Y0032222D01*
X0071562Y0032260D01*
X0071538Y0032296D01*
X0071512Y0032331D01*
X0071484Y0032366D01*
X0071455Y0032398D01*
X0071425Y0032430D01*
X0071393Y0032460D01*
X0071361Y0032489D01*
X0071326Y0032517D01*
X0071291Y0032543D01*
X0071255Y0032567D01*
X0071217Y0032590D01*
X0071179Y0032611D01*
X0071139Y0032630D01*
X0071099Y0032648D01*
X0071058Y0032664D01*
X0071017Y0032678D01*
X0070975Y0032690D01*
X0070932Y0032700D01*
X0070889Y0032709D01*
X0070846Y0032716D01*
X0070803Y0032720D01*
X0070759Y0032723D01*
X0070715Y0032724D01*
X0070671Y0032723D01*
X0070627Y0032720D01*
X0070584Y0032716D01*
X0070541Y0032709D01*
X0070498Y0032700D01*
X0070455Y0032690D01*
X0070413Y0032678D01*
X0070372Y0032664D01*
X0070331Y0032648D01*
X0070291Y0032630D01*
X0070251Y0032611D01*
X0070213Y0032590D01*
X0070175Y0032567D01*
X0070139Y0032543D01*
X0070104Y0032517D01*
X0070069Y0032489D01*
X0070037Y0032460D01*
X0070005Y0032430D01*
X0069975Y0032398D01*
X0069946Y0032366D01*
X0069918Y0032331D01*
X0069892Y0032296D01*
X0069868Y0032260D01*
X0069845Y0032222D01*
X0069824Y0032184D01*
X0069805Y0032144D01*
X0069787Y0032104D01*
X0069771Y0032063D01*
X0069757Y0032022D01*
X0069745Y0031980D01*
X0069735Y0031937D01*
X0069726Y0031894D01*
X0069719Y0031851D01*
X0069715Y0031808D01*
X0069712Y0031764D01*
X0069711Y0031720D01*
X0069712Y0031676D01*
X0069715Y0031632D01*
X0069719Y0031589D01*
X0069726Y0031546D01*
X0069735Y0031503D01*
X0069745Y0031460D01*
X0069757Y0031418D01*
X0069764Y0031398D01*
X0068626Y0030260D01*
X0054205D01*
X0054176Y0030259D01*
X0054147Y0030256D01*
X0054118Y0030251D01*
X0054090Y0030245D01*
X0054062Y0030236D01*
X0054035Y0030226D01*
X0054008Y0030214D01*
X0053983Y0030200D01*
X0053958Y0030185D01*
X0053934Y0030168D01*
X0053912Y0030149D01*
X0053891Y0030129D01*
X0052751Y0028990D01*
X0046769D01*
X0046395Y0029364D01*
Y0029617D01*
X0046410Y0029621D01*
X0046466Y0029637D01*
X0046522Y0029655D01*
X0046576Y0029675D01*
X0046631Y0029696D01*
X0046684Y0029719D01*
X0046736Y0029744D01*
X0046788Y0029771D01*
X0046839Y0029799D01*
X0046889Y0029829D01*
X0046938Y0029860D01*
X0046986Y0029894D01*
X0047033Y0029928D01*
X0047078Y0029964D01*
X0047122Y0030002D01*
X0047166Y0030041D01*
X0047207Y0030082D01*
X0047248Y0030123D01*
X0047287Y0030167D01*
X0047325Y0030211D01*
X0047361Y0030256D01*
X0047395Y0030303D01*
X0047429Y0030351D01*
X0047460Y0030400D01*
X0047490Y0030450D01*
X0047518Y0030501D01*
X0047545Y0030552D01*
X0047570Y0030605D01*
X0047593Y0030659D01*
X0047614Y0030713D01*
X0047634Y0030767D01*
X0047652Y0030823D01*
X0047668Y0030879D01*
X0047682Y0030935D01*
X0047694Y0030992D01*
X0047704Y0031049D01*
X0047713Y0031107D01*
X0047720Y0031165D01*
X0047724Y0031223D01*
X0047727Y0031281D01*
X0047728Y0031339D01*
Y0032101D01*
X0047727Y0032159D01*
X0047724Y0032217D01*
X0047720Y0032275D01*
X0047713Y0032333D01*
X0047704Y0032391D01*
X0047694Y0032448D01*
X0047682Y0032505D01*
X0047668Y0032561D01*
X0047652Y0032617D01*
X0047634Y0032673D01*
X0047614Y0032727D01*
X0047593Y0032782D01*
X0047570Y0032835D01*
X0047545Y0032888D01*
X0047518Y0032939D01*
X0047490Y0032990D01*
X0047460Y0033040D01*
X0047429Y0033089D01*
X0047395Y0033137D01*
X0047361Y0033184D01*
X0047325Y0033229D01*
X0047287Y0033273D01*
X0047248Y0033317D01*
X0047207Y0033358D01*
X0047166Y0033399D01*
X0047122Y0033438D01*
X0047078Y0033476D01*
X0047033Y0033512D01*
X0046986Y0033546D01*
X0046938Y0033580D01*
X0046889Y0033611D01*
X0046839Y0033641D01*
X0046788Y0033669D01*
X0046736Y0033696D01*
X0046684Y0033721D01*
X0046631Y0033744D01*
X0046576Y0033765D01*
X0046522Y0033785D01*
X0046466Y0033803D01*
X0046410Y0033819D01*
X0046354Y0033833D01*
X0046297Y0033845D01*
X0046240Y0033855D01*
X0046182Y0033864D01*
X0046124Y0033871D01*
X0046066Y0033875D01*
X0046008Y0033878D01*
X0045950Y0033879D01*
D02*
G37*
G36*
X0050700Y0041169D02*
X0050668Y0041168D01*
X0050637Y0041166D01*
X0050606Y0041161D01*
X0050575Y0041155D01*
X0050545Y0041147D01*
X0050515Y0041138D01*
X0050486Y0041126D01*
X0050457Y0041114D01*
X0050429Y0041099D01*
X0050402Y0041083D01*
X0050376Y0041066D01*
X0050351Y0041047D01*
X0050327Y0041027D01*
X0050304Y0041005D01*
X0050283Y0040982D01*
X0050263Y0040959D01*
X0050244Y0040933D01*
X0050226Y0040907D01*
X0050210Y0040880D01*
X0050196Y0040853D01*
X0050183Y0040824D01*
X0050172Y0040795D01*
X0050163Y0040765D01*
X0050155Y0040734D01*
X0050149Y0040704D01*
X0050144Y0040673D01*
X0050142Y0040641D01*
X0050141Y0040610D01*
X0050142Y0040579D01*
X0050144Y0040547D01*
X0050149Y0040516D01*
X0050155Y0040486D01*
X0050163Y0040455D01*
X0050172Y0040425D01*
X0050183Y0040396D01*
X0050196Y0040367D01*
X0050210Y0040340D01*
X0050226Y0040313D01*
X0050244Y0040287D01*
X0050255Y0040272D01*
Y0033823D01*
X0050240Y0033819D01*
X0050184Y0033803D01*
X0050128Y0033785D01*
X0050073Y0033765D01*
X0050019Y0033744D01*
X0049966Y0033721D01*
X0049913Y0033696D01*
X0049861Y0033669D01*
X0049811Y0033641D01*
X0049761Y0033611D01*
X0049712Y0033580D01*
X0049664Y0033547D01*
X0049617Y0033512D01*
X0049572Y0033476D01*
X0049527Y0033438D01*
X0049484Y0033399D01*
X0049442Y0033358D01*
X0049402Y0033317D01*
X0049363Y0033274D01*
X0049325Y0033229D01*
X0049289Y0033184D01*
X0049254Y0033137D01*
X0049221Y0033089D01*
X0049190Y0033040D01*
X0049160Y0032990D01*
X0049131Y0032939D01*
X0049105Y0032888D01*
X0049080Y0032835D01*
X0049057Y0032782D01*
X0049035Y0032727D01*
X0049016Y0032673D01*
X0048998Y0032617D01*
X0048982Y0032561D01*
X0048968Y0032505D01*
X0048956Y0032448D01*
X0048945Y0032391D01*
X0048937Y0032333D01*
X0048930Y0032275D01*
X0048925Y0032217D01*
X0048922Y0032159D01*
X0048922Y0032101D01*
Y0031339D01*
X0048922Y0031281D01*
X0048925Y0031223D01*
X0048930Y0031165D01*
X0048937Y0031107D01*
X0048945Y0031049D01*
X0048956Y0030992D01*
X0048968Y0030935D01*
X0048982Y0030879D01*
X0048998Y0030823D01*
X0049016Y0030767D01*
X0049035Y0030713D01*
X0049057Y0030659D01*
X0049080Y0030605D01*
X0049105Y0030553D01*
X0049131Y0030501D01*
X0049160Y0030450D01*
X0049190Y0030400D01*
X0049221Y0030351D01*
X0049254Y0030303D01*
X0049289Y0030257D01*
X0049325Y0030211D01*
X0049363Y0030167D01*
X0049402Y0030123D01*
X0049442Y0030082D01*
X0049484Y0030041D01*
X0049527Y0030002D01*
X0049572Y0029964D01*
X0049617Y0029928D01*
X0049664Y0029894D01*
X0049712Y0029861D01*
X0049761Y0029829D01*
X0049811Y0029799D01*
X0049861Y0029771D01*
X0049913Y0029744D01*
X0049966Y0029719D01*
X0050019Y0029696D01*
X0050073Y0029675D01*
X0050128Y0029655D01*
X0050184Y0029637D01*
X0050240Y0029621D01*
X0050296Y0029607D01*
X0050353Y0029595D01*
X0050410Y0029585D01*
X0050468Y0029576D01*
X0050525Y0029569D01*
X0050583Y0029565D01*
X0050642Y0029562D01*
X0050700Y0029561D01*
X0050758Y0029562D01*
X0050816Y0029565D01*
X0050874Y0029569D01*
X0050932Y0029576D01*
X0050989Y0029585D01*
X0051047Y0029595D01*
X0051104Y0029607D01*
X0051160Y0029621D01*
X0051216Y0029637D01*
X0051271Y0029655D01*
X0051326Y0029675D01*
X0051380Y0029696D01*
X0051434Y0029719D01*
X0051486Y0029744D01*
X0051538Y0029771D01*
X0051589Y0029799D01*
X0051639Y0029829D01*
X0051688Y0029861D01*
X0051736Y0029894D01*
X0051782Y0029928D01*
X0051828Y0029964D01*
X0051872Y0030002D01*
X0051915Y0030041D01*
X0051957Y0030082D01*
X0051998Y0030123D01*
X0052037Y0030167D01*
X0052074Y0030211D01*
X0052111Y0030257D01*
X0052145Y0030303D01*
X0052178Y0030351D01*
X0052210Y0030400D01*
X0052240Y0030450D01*
X0052268Y0030501D01*
X0052295Y0030553D01*
X0052319Y0030605D01*
X0052343Y0030659D01*
X0052364Y0030713D01*
X0052384Y0030767D01*
X0052401Y0030823D01*
X0052417Y0030879D01*
X0052432Y0030935D01*
X0052444Y0030992D01*
X0052454Y0031049D01*
X0052463Y0031107D01*
X0052469Y0031165D01*
X0052474Y0031223D01*
X0052477Y0031281D01*
X0052478Y0031339D01*
Y0032101D01*
X0052477Y0032159D01*
X0052474Y0032217D01*
X0052469Y0032275D01*
X0052463Y0032333D01*
X0052454Y0032391D01*
X0052444Y0032448D01*
X0052432Y0032505D01*
X0052417Y0032561D01*
X0052401Y0032617D01*
X0052384Y0032673D01*
X0052364Y0032727D01*
X0052343Y0032782D01*
X0052319Y0032835D01*
X0052295Y0032888D01*
X0052268Y0032939D01*
X0052240Y0032990D01*
X0052210Y0033040D01*
X0052178Y0033089D01*
X0052145Y0033137D01*
X0052111Y0033184D01*
X0052074Y0033229D01*
X0052037Y0033274D01*
X0051998Y0033317D01*
X0051957Y0033358D01*
X0051915Y0033399D01*
X0051872Y0033438D01*
X0051828Y0033476D01*
X0051782Y0033512D01*
X0051736Y0033547D01*
X0051688Y0033580D01*
X0051639Y0033611D01*
X0051589Y0033641D01*
X0051538Y0033669D01*
X0051486Y0033696D01*
X0051434Y0033721D01*
X0051380Y0033744D01*
X0051326Y0033765D01*
X0051271Y0033785D01*
X0051216Y0033803D01*
X0051160Y0033819D01*
X0051145Y0033823D01*
Y0040272D01*
X0051156Y0040287D01*
X0051173Y0040313D01*
X0051189Y0040340D01*
X0051203Y0040367D01*
X0051216Y0040396D01*
X0051227Y0040425D01*
X0051237Y0040455D01*
X0051245Y0040486D01*
X0051251Y0040516D01*
X0051255Y0040547D01*
X0051258Y0040579D01*
X0051259Y0040610D01*
X0051258Y0040641D01*
X0051255Y0040673D01*
X0051251Y0040704D01*
X0051245Y0040734D01*
X0051237Y0040765D01*
X0051227Y0040795D01*
X0051216Y0040824D01*
X0051203Y0040853D01*
X0051189Y0040880D01*
X0051173Y0040907D01*
X0051156Y0040933D01*
X0051137Y0040959D01*
X0051117Y0040982D01*
X0051095Y0041005D01*
X0051072Y0041027D01*
X0051048Y0041047D01*
X0051023Y0041066D01*
X0050997Y0041083D01*
X0050970Y0041099D01*
X0050942Y0041114D01*
X0050914Y0041126D01*
X0050884Y0041138D01*
X0050855Y0041147D01*
X0050824Y0041155D01*
X0050793Y0041161D01*
X0050762Y0041166D01*
X0050731Y0041168D01*
X0050700Y0041169D01*
D02*
G37*
G36*
X0094337Y0030196D02*
X0093702D01*
Y0029307D01*
X0094591D01*
Y0029942D01*
X0094590Y0029964D01*
X0094587Y0029986D01*
X0094583Y0030008D01*
X0094576Y0030029D01*
X0094567Y0030049D01*
X0094557Y0030069D01*
X0094545Y0030088D01*
X0094532Y0030105D01*
X0094517Y0030122D01*
X0094500Y0030137D01*
X0094483Y0030150D01*
X0094464Y0030162D01*
X0094444Y0030172D01*
X0094424Y0030181D01*
X0094403Y0030188D01*
X0094381Y0030192D01*
X0094359Y0030195D01*
X0094337Y0030196D01*
D02*
G37*
G36*
X0041244Y0042439D02*
X0041213Y0042438D01*
X0041182Y0042436D01*
X0041151Y0042431D01*
X0041120Y0042425D01*
X0041090Y0042417D01*
X0041060Y0042408D01*
X0041030Y0042396D01*
X0041002Y0042384D01*
X0040974Y0042369D01*
X0040947Y0042353D01*
X0040921Y0042336D01*
X0040896Y0042317D01*
X0040872Y0042297D01*
X0040849Y0042275D01*
X0040827Y0042252D01*
X0040807Y0042229D01*
X0040788Y0042203D01*
X0040771Y0042177D01*
X0040755Y0042150D01*
X0040741Y0042123D01*
X0040728Y0042094D01*
X0040717Y0042065D01*
X0040707Y0042035D01*
X0040699Y0042004D01*
X0040693Y0041974D01*
X0040689Y0041943D01*
X0040686Y0041911D01*
X0040685Y0041880D01*
X0040686Y0041849D01*
X0040689Y0041817D01*
X0040693Y0041786D01*
X0040699Y0041756D01*
X0040707Y0041725D01*
X0040717Y0041695D01*
X0040728Y0041666D01*
X0040741Y0041637D01*
X0040755Y0041610D01*
X0040771Y0041583D01*
X0040788Y0041557D01*
X0040800Y0041542D01*
Y0033823D01*
X0040784Y0033819D01*
X0040728Y0033803D01*
X0040673Y0033785D01*
X0040618Y0033765D01*
X0040564Y0033744D01*
X0040510Y0033721D01*
X0040458Y0033696D01*
X0040406Y0033669D01*
X0040355Y0033641D01*
X0040305Y0033611D01*
X0040256Y0033580D01*
X0040209Y0033547D01*
X0040162Y0033512D01*
X0040116Y0033476D01*
X0040072Y0033438D01*
X0040029Y0033399D01*
X0039987Y0033358D01*
X0039946Y0033317D01*
X0039907Y0033274D01*
X0039870Y0033229D01*
X0039834Y0033184D01*
X0039799Y0033137D01*
X0039766Y0033089D01*
X0039734Y0033040D01*
X0039704Y0032990D01*
X0039676Y0032939D01*
X0039649Y0032888D01*
X0039625Y0032835D01*
X0039601Y0032782D01*
X0039580Y0032727D01*
X0039560Y0032673D01*
X0039543Y0032617D01*
X0039527Y0032561D01*
X0039513Y0032505D01*
X0039500Y0032448D01*
X0039490Y0032391D01*
X0039481Y0032333D01*
X0039475Y0032275D01*
X0039470Y0032217D01*
X0039467Y0032159D01*
X0039466Y0032101D01*
Y0031339D01*
X0039467Y0031281D01*
X0039470Y0031223D01*
X0039475Y0031165D01*
X0039481Y0031107D01*
X0039490Y0031049D01*
X0039500Y0030992D01*
X0039513Y0030935D01*
X0039527Y0030879D01*
X0039543Y0030823D01*
X0039560Y0030767D01*
X0039580Y0030713D01*
X0039601Y0030659D01*
X0039625Y0030605D01*
X0039649Y0030553D01*
X0039676Y0030501D01*
X0039704Y0030450D01*
X0039734Y0030400D01*
X0039766Y0030351D01*
X0039799Y0030303D01*
X0039834Y0030257D01*
X0039870Y0030211D01*
X0039907Y0030167D01*
X0039946Y0030123D01*
X0039987Y0030082D01*
X0040029Y0030041D01*
X0040072Y0030002D01*
X0040116Y0029964D01*
X0040162Y0029928D01*
X0040209Y0029894D01*
X0040256Y0029861D01*
X0040305Y0029829D01*
X0040355Y0029799D01*
X0040406Y0029771D01*
X0040458Y0029744D01*
X0040510Y0029719D01*
X0040564Y0029696D01*
X0040618Y0029675D01*
X0040673Y0029655D01*
X0040728Y0029637D01*
X0040784Y0029621D01*
X0040840Y0029607D01*
X0040897Y0029595D01*
X0040955Y0029585D01*
X0041012Y0029576D01*
X0041070Y0029569D01*
X0041128Y0029565D01*
X0041186Y0029562D01*
X0041244Y0029561D01*
X0041302Y0029562D01*
X0041361Y0029565D01*
X0041419Y0029569D01*
X0041476Y0029576D01*
X0041534Y0029585D01*
X0041591Y0029595D01*
X0041648Y0029607D01*
X0041705Y0029621D01*
X0041760Y0029637D01*
X0041816Y0029655D01*
X0041871Y0029675D01*
X0041925Y0029696D01*
X0041978Y0029719D01*
X0042031Y0029744D01*
X0042083Y0029771D01*
X0042133Y0029799D01*
X0042183Y0029829D01*
X0042232Y0029861D01*
X0042280Y0029894D01*
X0042327Y0029928D01*
X0042372Y0029964D01*
X0042417Y0030002D01*
X0042460Y0030041D01*
X0042502Y0030082D01*
X0042542Y0030123D01*
X0042581Y0030167D01*
X0042619Y0030211D01*
X0042655Y0030257D01*
X0042690Y0030303D01*
X0042723Y0030351D01*
X0042754Y0030400D01*
X0042784Y0030450D01*
X0042813Y0030501D01*
X0042839Y0030553D01*
X0042864Y0030605D01*
X0042887Y0030659D01*
X0042909Y0030713D01*
X0042928Y0030767D01*
X0042946Y0030823D01*
X0042962Y0030879D01*
X0042976Y0030935D01*
X0042988Y0030992D01*
X0042999Y0031049D01*
X0043007Y0031107D01*
X0043014Y0031165D01*
X0043019Y0031223D01*
X0043022Y0031281D01*
X0043023Y0031339D01*
Y0032101D01*
X0043022Y0032159D01*
X0043019Y0032217D01*
X0043014Y0032275D01*
X0043007Y0032333D01*
X0042999Y0032391D01*
X0042988Y0032448D01*
X0042976Y0032505D01*
X0042962Y0032561D01*
X0042946Y0032617D01*
X0042928Y0032673D01*
X0042909Y0032727D01*
X0042887Y0032782D01*
X0042864Y0032835D01*
X0042839Y0032888D01*
X0042813Y0032939D01*
X0042784Y0032990D01*
X0042754Y0033040D01*
X0042723Y0033089D01*
X0042690Y0033137D01*
X0042655Y0033184D01*
X0042619Y0033229D01*
X0042581Y0033274D01*
X0042542Y0033317D01*
X0042502Y0033358D01*
X0042460Y0033399D01*
X0042417Y0033438D01*
X0042372Y0033476D01*
X0042327Y0033512D01*
X0042280Y0033547D01*
X0042232Y0033580D01*
X0042183Y0033611D01*
X0042133Y0033641D01*
X0042083Y0033669D01*
X0042031Y0033696D01*
X0041978Y0033721D01*
X0041925Y0033744D01*
X0041871Y0033765D01*
X0041816Y0033785D01*
X0041760Y0033803D01*
X0041705Y0033819D01*
X0041689Y0033823D01*
Y0041542D01*
X0041700Y0041557D01*
X0041718Y0041583D01*
X0041734Y0041610D01*
X0041748Y0041637D01*
X0041761Y0041666D01*
X0041772Y0041695D01*
X0041781Y0041725D01*
X0041789Y0041756D01*
X0041795Y0041786D01*
X0041800Y0041817D01*
X0041802Y0041849D01*
X0041803Y0041880D01*
X0041802Y0041911D01*
X0041800Y0041943D01*
X0041795Y0041974D01*
X0041789Y0042004D01*
X0041781Y0042035D01*
X0041772Y0042065D01*
X0041761Y0042094D01*
X0041748Y0042123D01*
X0041734Y0042150D01*
X0041718Y0042177D01*
X0041700Y0042203D01*
X0041681Y0042229D01*
X0041661Y0042252D01*
X0041640Y0042275D01*
X0041617Y0042297D01*
X0041593Y0042317D01*
X0041568Y0042336D01*
X0041542Y0042353D01*
X0041515Y0042369D01*
X0041487Y0042384D01*
X0041458Y0042396D01*
X0041429Y0042408D01*
X0041399Y0042417D01*
X0041369Y0042425D01*
X0041338Y0042431D01*
X0041307Y0042436D01*
X0041276Y0042438D01*
X0041244Y0042439D01*
D02*
G37*
G36*
X0050823Y0063499D02*
X0050789Y0063496D01*
X0050736Y0063489D01*
X0050683Y0063480D01*
X0050630Y0063470D01*
X0050578Y0063458D01*
X0050526Y0063443D01*
X0050475Y0063427D01*
X0050424Y0063409D01*
X0050374Y0063390D01*
X0050325Y0063368D01*
X0050277Y0063345D01*
X0050229Y0063320D01*
X0050182Y0063294D01*
X0050137Y0063265D01*
X0050092Y0063236D01*
X0050049Y0063204D01*
X0050006Y0063171D01*
X0049965Y0063137D01*
X0049925Y0063101D01*
X0049886Y0063064D01*
X0049849Y0063025D01*
X0049813Y0062985D01*
X0049779Y0062944D01*
X0049746Y0062901D01*
X0049714Y0062858D01*
X0049685Y0062813D01*
X0049656Y0062768D01*
X0049630Y0062721D01*
X0049605Y0062673D01*
X0049582Y0062625D01*
X0049560Y0062576D01*
X0049541Y0062526D01*
X0049523Y0062475D01*
X0049507Y0062424D01*
X0049492Y0062372D01*
X0049480Y0062320D01*
X0049470Y0062267D01*
X0049461Y0062214D01*
X0049454Y0062161D01*
X0049451Y0062127D01*
X0050823D01*
Y0063499D01*
D02*
G37*
G36*
X0051077Y0063499D02*
Y0062127D01*
X0052449D01*
X0052446Y0062161D01*
X0052439Y0062214D01*
X0052430Y0062267D01*
X0052420Y0062320D01*
X0052408Y0062372D01*
X0052393Y0062424D01*
X0052377Y0062475D01*
X0052359Y0062526D01*
X0052340Y0062576D01*
X0052318Y0062625D01*
X0052295Y0062673D01*
X0052270Y0062721D01*
X0052244Y0062768D01*
X0052215Y0062813D01*
X0052186Y0062858D01*
X0052154Y0062901D01*
X0052121Y0062944D01*
X0052087Y0062985D01*
X0052051Y0063025D01*
X0052014Y0063064D01*
X0051975Y0063101D01*
X0051935Y0063137D01*
X0051894Y0063171D01*
X0051851Y0063204D01*
X0051808Y0063236D01*
X0051763Y0063265D01*
X0051718Y0063294D01*
X0051671Y0063320D01*
X0051623Y0063345D01*
X0051575Y0063368D01*
X0051526Y0063390D01*
X0051476Y0063409D01*
X0051425Y0063427D01*
X0051374Y0063443D01*
X0051322Y0063458D01*
X0051270Y0063470D01*
X0051217Y0063480D01*
X0051164Y0063489D01*
X0051111Y0063496D01*
X0051077Y0063499D01*
D02*
G37*
G36*
X0052449Y0061873D02*
X0051077D01*
Y0060501D01*
X0051111Y0060504D01*
X0051164Y0060511D01*
X0051217Y0060520D01*
X0051270Y0060530D01*
X0051322Y0060542D01*
X0051374Y0060557D01*
X0051425Y0060573D01*
X0051476Y0060591D01*
X0051526Y0060610D01*
X0051575Y0060632D01*
X0051623Y0060655D01*
X0051671Y0060680D01*
X0051718Y0060706D01*
X0051763Y0060735D01*
X0051808Y0060764D01*
X0051851Y0060796D01*
X0051894Y0060829D01*
X0051935Y0060863D01*
X0051975Y0060899D01*
X0052014Y0060936D01*
X0052051Y0060975D01*
X0052087Y0061015D01*
X0052121Y0061056D01*
X0052154Y0061099D01*
X0052186Y0061142D01*
X0052215Y0061187D01*
X0052244Y0061232D01*
X0052270Y0061279D01*
X0052295Y0061327D01*
X0052318Y0061375D01*
X0052340Y0061424D01*
X0052359Y0061474D01*
X0052377Y0061525D01*
X0052393Y0061576D01*
X0052408Y0061628D01*
X0052420Y0061680D01*
X0052430Y0061733D01*
X0052439Y0061786D01*
X0052446Y0061839D01*
X0052449Y0061873D01*
D02*
G37*
G36*
X0045950Y0063504D02*
X0045896Y0063503D01*
X0045843Y0063500D01*
X0045789Y0063496D01*
X0045736Y0063489D01*
X0045683Y0063480D01*
X0045630Y0063470D01*
X0045578Y0063458D01*
X0045526Y0063443D01*
X0045475Y0063427D01*
X0045424Y0063409D01*
X0045374Y0063390D01*
X0045325Y0063368D01*
X0045277Y0063345D01*
X0045229Y0063320D01*
X0045182Y0063294D01*
X0045137Y0063265D01*
X0045092Y0063236D01*
X0045049Y0063204D01*
X0045006Y0063171D01*
X0044965Y0063137D01*
X0044925Y0063101D01*
X0044886Y0063064D01*
X0044849Y0063025D01*
X0044813Y0062985D01*
X0044779Y0062944D01*
X0044746Y0062901D01*
X0044714Y0062858D01*
X0044685Y0062813D01*
X0044656Y0062768D01*
X0044630Y0062721D01*
X0044605Y0062673D01*
X0044582Y0062625D01*
X0044560Y0062576D01*
X0044541Y0062526D01*
X0044523Y0062475D01*
X0044507Y0062424D01*
X0044492Y0062372D01*
X0044480Y0062320D01*
X0044470Y0062267D01*
X0044461Y0062214D01*
X0044454Y0062161D01*
X0044450Y0062107D01*
X0044447Y0062054D01*
X0044446Y0062000D01*
X0044447Y0061946D01*
X0044450Y0061893D01*
X0044454Y0061839D01*
X0044461Y0061786D01*
X0044470Y0061733D01*
X0044480Y0061680D01*
X0044492Y0061628D01*
X0044507Y0061576D01*
X0044523Y0061525D01*
X0044541Y0061474D01*
X0044560Y0061424D01*
X0044582Y0061375D01*
X0044605Y0061327D01*
X0044630Y0061279D01*
X0044656Y0061232D01*
X0044685Y0061187D01*
X0044714Y0061142D01*
X0044746Y0061099D01*
X0044779Y0061056D01*
X0044813Y0061015D01*
X0044849Y0060975D01*
X0044886Y0060936D01*
X0044925Y0060899D01*
X0044965Y0060863D01*
X0045006Y0060829D01*
X0045049Y0060796D01*
X0045092Y0060764D01*
X0045137Y0060735D01*
X0045182Y0060706D01*
X0045229Y0060680D01*
X0045277Y0060655D01*
X0045325Y0060632D01*
X0045374Y0060610D01*
X0045424Y0060591D01*
X0045475Y0060573D01*
X0045526Y0060557D01*
X0045578Y0060542D01*
X0045630Y0060530D01*
X0045683Y0060520D01*
X0045736Y0060511D01*
X0045789Y0060504D01*
X0045843Y0060500D01*
X0045896Y0060497D01*
X0045950Y0060496D01*
X0046004Y0060497D01*
X0046057Y0060500D01*
X0046111Y0060504D01*
X0046164Y0060511D01*
X0046217Y0060520D01*
X0046270Y0060530D01*
X0046322Y0060542D01*
X0046374Y0060557D01*
X0046425Y0060573D01*
X0046476Y0060591D01*
X0046526Y0060610D01*
X0046575Y0060632D01*
X0046623Y0060655D01*
X0046671Y0060680D01*
X0046718Y0060706D01*
X0046763Y0060735D01*
X0046808Y0060764D01*
X0046851Y0060796D01*
X0046894Y0060829D01*
X0046935Y0060863D01*
X0046975Y0060899D01*
X0047014Y0060936D01*
X0047051Y0060975D01*
X0047087Y0061015D01*
X0047121Y0061056D01*
X0047154Y0061099D01*
X0047186Y0061142D01*
X0047215Y0061187D01*
X0047244Y0061232D01*
X0047270Y0061279D01*
X0047295Y0061327D01*
X0047318Y0061375D01*
X0047340Y0061424D01*
X0047359Y0061474D01*
X0047377Y0061525D01*
X0047393Y0061576D01*
X0047408Y0061628D01*
X0047420Y0061680D01*
X0047430Y0061733D01*
X0047439Y0061786D01*
X0047446Y0061839D01*
X0047450Y0061893D01*
X0047453Y0061946D01*
X0047454Y0062000D01*
X0047453Y0062054D01*
X0047450Y0062107D01*
X0047446Y0062161D01*
X0047439Y0062214D01*
X0047430Y0062267D01*
X0047420Y0062320D01*
X0047408Y0062372D01*
X0047393Y0062424D01*
X0047377Y0062475D01*
X0047359Y0062526D01*
X0047340Y0062576D01*
X0047318Y0062625D01*
X0047295Y0062673D01*
X0047270Y0062721D01*
X0047244Y0062768D01*
X0047215Y0062813D01*
X0047186Y0062858D01*
X0047154Y0062901D01*
X0047121Y0062944D01*
X0047087Y0062985D01*
X0047051Y0063025D01*
X0047014Y0063064D01*
X0046975Y0063101D01*
X0046935Y0063137D01*
X0046894Y0063171D01*
X0046851Y0063204D01*
X0046808Y0063236D01*
X0046763Y0063265D01*
X0046718Y0063294D01*
X0046671Y0063320D01*
X0046623Y0063345D01*
X0046575Y0063368D01*
X0046526Y0063390D01*
X0046476Y0063409D01*
X0046425Y0063427D01*
X0046374Y0063443D01*
X0046322Y0063458D01*
X0046270Y0063470D01*
X0046217Y0063480D01*
X0046164Y0063489D01*
X0046111Y0063496D01*
X0046057Y0063500D01*
X0046004Y0063503D01*
X0045950Y0063504D01*
D02*
G37*
G36*
X0050823Y0061873D02*
X0049451D01*
X0049454Y0061839D01*
X0049461Y0061786D01*
X0049470Y0061733D01*
X0049480Y0061680D01*
X0049492Y0061628D01*
X0049507Y0061576D01*
X0049523Y0061525D01*
X0049541Y0061474D01*
X0049560Y0061424D01*
X0049582Y0061375D01*
X0049605Y0061327D01*
X0049630Y0061279D01*
X0049656Y0061232D01*
X0049685Y0061187D01*
X0049714Y0061142D01*
X0049746Y0061099D01*
X0049779Y0061056D01*
X0049813Y0061015D01*
X0049849Y0060975D01*
X0049886Y0060936D01*
X0049925Y0060899D01*
X0049965Y0060863D01*
X0050006Y0060829D01*
X0050049Y0060796D01*
X0050092Y0060764D01*
X0050137Y0060735D01*
X0050182Y0060706D01*
X0050229Y0060680D01*
X0050277Y0060655D01*
X0050325Y0060632D01*
X0050374Y0060610D01*
X0050424Y0060591D01*
X0050475Y0060573D01*
X0050526Y0060557D01*
X0050578Y0060542D01*
X0050630Y0060530D01*
X0050683Y0060520D01*
X0050736Y0060511D01*
X0050789Y0060504D01*
X0050823Y0060501D01*
Y0061873D01*
D02*
G37*
G36*
X0101000Y0073254D02*
X0100920Y0073253D01*
X0100840Y0073250D01*
X0100761Y0073245D01*
X0100681Y0073239D01*
X0100602Y0073230D01*
X0100522Y0073219D01*
X0100444Y0073206D01*
X0100365Y0073192D01*
X0100287Y0073175D01*
X0100209Y0073157D01*
X0100132Y0073136D01*
X0100055Y0073114D01*
X0099979Y0073090D01*
X0099904Y0073064D01*
X0099829Y0073036D01*
X0099755Y0073007D01*
X0099681Y0072975D01*
X0099609Y0072942D01*
X0099537Y0072907D01*
X0099466Y0072870D01*
X0099396Y0072831D01*
X0099327Y0072791D01*
X0099259Y0072749D01*
X0099192Y0072706D01*
X0099126Y0072661D01*
X0099061Y0072614D01*
X0098998Y0072565D01*
X0098936Y0072516D01*
X0098874Y0072464D01*
X0098815Y0072411D01*
X0098756Y0072357D01*
X0098699Y0072301D01*
X0098643Y0072244D01*
X0098589Y0072185D01*
X0098536Y0072126D01*
X0098484Y0072064D01*
X0098435Y0072002D01*
X0098386Y0071939D01*
X0098339Y0071874D01*
X0098294Y0071808D01*
X0098251Y0071741D01*
X0098209Y0071673D01*
X0098169Y0071604D01*
X0098130Y0071534D01*
X0098093Y0071463D01*
X0098058Y0071391D01*
X0098025Y0071319D01*
X0097993Y0071245D01*
X0097964Y0071171D01*
X0097936Y0071096D01*
X0097910Y0071021D01*
X0097886Y0070945D01*
X0097864Y0070868D01*
X0097843Y0070791D01*
X0097825Y0070713D01*
X0097808Y0070635D01*
X0097794Y0070556D01*
X0097781Y0070478D01*
X0097770Y0070398D01*
X0097761Y0070319D01*
X0097755Y0070239D01*
X0097750Y0070160D01*
X0097747Y0070080D01*
X0097746Y0070000D01*
X0097747Y0069920D01*
X0097750Y0069840D01*
X0097755Y0069761D01*
X0097761Y0069681D01*
X0097770Y0069602D01*
X0097781Y0069522D01*
X0097794Y0069444D01*
X0097808Y0069365D01*
X0097825Y0069287D01*
X0097843Y0069209D01*
X0097864Y0069132D01*
X0097886Y0069055D01*
X0097910Y0068979D01*
X0097936Y0068904D01*
X0097964Y0068829D01*
X0097993Y0068755D01*
X0098025Y0068681D01*
X0098058Y0068609D01*
X0098093Y0068537D01*
X0098130Y0068466D01*
X0098169Y0068396D01*
X0098209Y0068327D01*
X0098251Y0068259D01*
X0098294Y0068192D01*
X0098339Y0068126D01*
X0098386Y0068061D01*
X0098435Y0067998D01*
X0098484Y0067936D01*
X0098536Y0067874D01*
X0098589Y0067815D01*
X0098643Y0067756D01*
X0098699Y0067699D01*
X0098756Y0067643D01*
X0098815Y0067589D01*
X0098874Y0067536D01*
X0098936Y0067484D01*
X0098998Y0067435D01*
X0099061Y0067386D01*
X0099126Y0067339D01*
X0099192Y0067294D01*
X0099259Y0067251D01*
X0099327Y0067209D01*
X0099396Y0067169D01*
X0099466Y0067130D01*
X0099537Y0067093D01*
X0099609Y0067058D01*
X0099681Y0067025D01*
X0099755Y0066993D01*
X0099829Y0066964D01*
X0099904Y0066936D01*
X0099979Y0066910D01*
X0100055Y0066886D01*
X0100132Y0066864D01*
X0100209Y0066843D01*
X0100287Y0066825D01*
X0100365Y0066808D01*
X0100444Y0066794D01*
X0100522Y0066781D01*
X0100602Y0066770D01*
X0100681Y0066761D01*
X0100761Y0066755D01*
X0100840Y0066750D01*
X0100920Y0066747D01*
X0101000Y0066746D01*
X0101080Y0066747D01*
X0101160Y0066750D01*
X0101239Y0066755D01*
X0101319Y0066761D01*
X0101398Y0066770D01*
X0101478Y0066781D01*
X0101556Y0066794D01*
X0101635Y0066808D01*
X0101713Y0066825D01*
X0101791Y0066843D01*
X0101868Y0066864D01*
X0101945Y0066886D01*
X0102021Y0066910D01*
X0102096Y0066936D01*
X0102171Y0066964D01*
X0102245Y0066993D01*
X0102319Y0067025D01*
X0102391Y0067058D01*
X0102463Y0067093D01*
X0102534Y0067130D01*
X0102604Y0067169D01*
X0102673Y0067209D01*
X0102741Y0067251D01*
X0102808Y0067294D01*
X0102874Y0067339D01*
X0102939Y0067386D01*
X0103002Y0067435D01*
X0103064Y0067484D01*
X0103126Y0067536D01*
X0103185Y0067589D01*
X0103244Y0067643D01*
X0103301Y0067699D01*
X0103357Y0067756D01*
X0103411Y0067815D01*
X0103464Y0067874D01*
X0103516Y0067936D01*
X0103565Y0067998D01*
X0103614Y0068061D01*
X0103661Y0068126D01*
X0103706Y0068192D01*
X0103749Y0068259D01*
X0103791Y0068327D01*
X0103831Y0068396D01*
X0103870Y0068466D01*
X0103907Y0068537D01*
X0103942Y0068609D01*
X0103975Y0068681D01*
X0104007Y0068755D01*
X0104036Y0068829D01*
X0104064Y0068904D01*
X0104090Y0068979D01*
X0104114Y0069055D01*
X0104136Y0069132D01*
X0104157Y0069209D01*
X0104175Y0069287D01*
X0104192Y0069365D01*
X0104206Y0069444D01*
X0104219Y0069522D01*
X0104230Y0069602D01*
X0104239Y0069681D01*
X0104245Y0069761D01*
X0104250Y0069840D01*
X0104253Y0069920D01*
X0104254Y0070000D01*
X0104253Y0070080D01*
X0104250Y0070160D01*
X0104245Y0070239D01*
X0104239Y0070319D01*
X0104230Y0070398D01*
X0104219Y0070478D01*
X0104206Y0070556D01*
X0104192Y0070635D01*
X0104175Y0070713D01*
X0104157Y0070791D01*
X0104136Y0070868D01*
X0104114Y0070945D01*
X0104090Y0071021D01*
X0104064Y0071096D01*
X0104036Y0071171D01*
X0104007Y0071245D01*
X0103975Y0071319D01*
X0103942Y0071391D01*
X0103907Y0071463D01*
X0103870Y0071534D01*
X0103831Y0071604D01*
X0103791Y0071673D01*
X0103749Y0071741D01*
X0103706Y0071808D01*
X0103661Y0071874D01*
X0103614Y0071939D01*
X0103565Y0072002D01*
X0103516Y0072064D01*
X0103464Y0072126D01*
X0103411Y0072185D01*
X0103357Y0072244D01*
X0103301Y0072301D01*
X0103244Y0072357D01*
X0103185Y0072411D01*
X0103126Y0072464D01*
X0103064Y0072516D01*
X0103002Y0072565D01*
X0102939Y0072614D01*
X0102874Y0072661D01*
X0102808Y0072706D01*
X0102741Y0072749D01*
X0102673Y0072791D01*
X0102604Y0072831D01*
X0102534Y0072870D01*
X0102463Y0072907D01*
X0102391Y0072942D01*
X0102319Y0072975D01*
X0102245Y0073007D01*
X0102171Y0073036D01*
X0102096Y0073064D01*
X0102021Y0073090D01*
X0101945Y0073114D01*
X0101868Y0073136D01*
X0101791Y0073157D01*
X0101713Y0073175D01*
X0101635Y0073192D01*
X0101556Y0073206D01*
X0101478Y0073219D01*
X0101398Y0073230D01*
X0101319Y0073239D01*
X0101239Y0073245D01*
X0101160Y0073250D01*
X0101080Y0073253D01*
X0101000Y0073254D01*
D02*
G37*
G36*
X0094337Y0070836D02*
X0092813D01*
X0092791Y0070835D01*
X0092769Y0070832D01*
X0092747Y0070828D01*
X0092726Y0070821D01*
X0092706Y0070812D01*
X0092686Y0070802D01*
X0092667Y0070790D01*
X0092650Y0070777D01*
X0092633Y0070762D01*
X0092618Y0070745D01*
X0092605Y0070728D01*
X0092593Y0070709D01*
X0092583Y0070689D01*
X0092574Y0070669D01*
X0092567Y0070648D01*
X0092563Y0070626D01*
X0092560Y0070604D01*
X0092559Y0070582D01*
Y0069058D01*
X0092560Y0069036D01*
X0092563Y0069014D01*
X0092567Y0068992D01*
X0092574Y0068971D01*
X0092583Y0068951D01*
X0092593Y0068931D01*
X0092605Y0068912D01*
X0092618Y0068895D01*
X0092633Y0068878D01*
X0092650Y0068863D01*
X0092667Y0068850D01*
X0092686Y0068838D01*
X0092706Y0068828D01*
X0092726Y0068819D01*
X0092747Y0068812D01*
X0092769Y0068808D01*
X0092791Y0068805D01*
X0092813Y0068804D01*
X0094337D01*
X0094359Y0068805D01*
X0094381Y0068808D01*
X0094403Y0068812D01*
X0094424Y0068819D01*
X0094444Y0068828D01*
X0094464Y0068838D01*
X0094483Y0068850D01*
X0094500Y0068863D01*
X0094517Y0068878D01*
X0094532Y0068895D01*
X0094545Y0068912D01*
X0094557Y0068931D01*
X0094567Y0068951D01*
X0094576Y0068971D01*
X0094583Y0068992D01*
X0094587Y0069014D01*
X0094590Y0069036D01*
X0094591Y0069058D01*
Y0070582D01*
X0094590Y0070604D01*
X0094587Y0070626D01*
X0094583Y0070648D01*
X0094576Y0070669D01*
X0094567Y0070689D01*
X0094557Y0070709D01*
X0094545Y0070728D01*
X0094532Y0070745D01*
X0094517Y0070762D01*
X0094500Y0070777D01*
X0094483Y0070790D01*
X0094464Y0070802D01*
X0094444Y0070812D01*
X0094424Y0070821D01*
X0094403Y0070828D01*
X0094381Y0070832D01*
X0094359Y0070835D01*
X0094337Y0070836D01*
D02*
G37*
G36*
X0029000Y0073254D02*
X0028920Y0073253D01*
X0028840Y0073250D01*
X0028761Y0073245D01*
X0028681Y0073239D01*
X0028602Y0073230D01*
X0028522Y0073219D01*
X0028444Y0073206D01*
X0028365Y0073192D01*
X0028287Y0073175D01*
X0028209Y0073157D01*
X0028132Y0073136D01*
X0028055Y0073114D01*
X0027979Y0073090D01*
X0027904Y0073064D01*
X0027829Y0073036D01*
X0027755Y0073007D01*
X0027681Y0072975D01*
X0027609Y0072942D01*
X0027537Y0072907D01*
X0027466Y0072870D01*
X0027396Y0072831D01*
X0027327Y0072791D01*
X0027259Y0072749D01*
X0027192Y0072706D01*
X0027126Y0072661D01*
X0027061Y0072614D01*
X0026998Y0072565D01*
X0026936Y0072516D01*
X0026874Y0072464D01*
X0026815Y0072411D01*
X0026756Y0072357D01*
X0026699Y0072301D01*
X0026643Y0072244D01*
X0026589Y0072185D01*
X0026536Y0072126D01*
X0026484Y0072064D01*
X0026435Y0072002D01*
X0026386Y0071939D01*
X0026339Y0071874D01*
X0026294Y0071808D01*
X0026251Y0071741D01*
X0026209Y0071673D01*
X0026169Y0071604D01*
X0026130Y0071534D01*
X0026093Y0071463D01*
X0026058Y0071391D01*
X0026025Y0071319D01*
X0025993Y0071245D01*
X0025964Y0071171D01*
X0025936Y0071096D01*
X0025910Y0071021D01*
X0025886Y0070945D01*
X0025864Y0070868D01*
X0025843Y0070791D01*
X0025825Y0070713D01*
X0025808Y0070635D01*
X0025794Y0070556D01*
X0025781Y0070478D01*
X0025770Y0070398D01*
X0025761Y0070319D01*
X0025755Y0070239D01*
X0025750Y0070160D01*
X0025747Y0070080D01*
X0025746Y0070000D01*
X0025747Y0069920D01*
X0025750Y0069840D01*
X0025755Y0069761D01*
X0025761Y0069681D01*
X0025770Y0069602D01*
X0025781Y0069522D01*
X0025794Y0069444D01*
X0025808Y0069365D01*
X0025825Y0069287D01*
X0025843Y0069209D01*
X0025864Y0069132D01*
X0025886Y0069055D01*
X0025910Y0068979D01*
X0025936Y0068904D01*
X0025964Y0068829D01*
X0025993Y0068755D01*
X0026025Y0068681D01*
X0026058Y0068609D01*
X0026093Y0068537D01*
X0026130Y0068466D01*
X0026169Y0068396D01*
X0026209Y0068327D01*
X0026251Y0068259D01*
X0026294Y0068192D01*
X0026339Y0068126D01*
X0026386Y0068061D01*
X0026435Y0067998D01*
X0026484Y0067936D01*
X0026536Y0067874D01*
X0026589Y0067815D01*
X0026643Y0067756D01*
X0026699Y0067699D01*
X0026756Y0067643D01*
X0026815Y0067589D01*
X0026874Y0067536D01*
X0026936Y0067484D01*
X0026998Y0067435D01*
X0027061Y0067386D01*
X0027126Y0067339D01*
X0027192Y0067294D01*
X0027259Y0067251D01*
X0027327Y0067209D01*
X0027396Y0067169D01*
X0027466Y0067130D01*
X0027537Y0067093D01*
X0027609Y0067058D01*
X0027681Y0067025D01*
X0027755Y0066993D01*
X0027829Y0066964D01*
X0027904Y0066936D01*
X0027979Y0066910D01*
X0028055Y0066886D01*
X0028132Y0066864D01*
X0028209Y0066843D01*
X0028287Y0066825D01*
X0028365Y0066808D01*
X0028444Y0066794D01*
X0028522Y0066781D01*
X0028602Y0066770D01*
X0028681Y0066761D01*
X0028761Y0066755D01*
X0028840Y0066750D01*
X0028920Y0066747D01*
X0029000Y0066746D01*
X0029080Y0066747D01*
X0029160Y0066750D01*
X0029239Y0066755D01*
X0029319Y0066761D01*
X0029398Y0066770D01*
X0029478Y0066781D01*
X0029556Y0066794D01*
X0029635Y0066808D01*
X0029713Y0066825D01*
X0029791Y0066843D01*
X0029868Y0066864D01*
X0029945Y0066886D01*
X0030021Y0066910D01*
X0030096Y0066936D01*
X0030171Y0066964D01*
X0030245Y0066993D01*
X0030319Y0067025D01*
X0030391Y0067058D01*
X0030463Y0067093D01*
X0030534Y0067130D01*
X0030604Y0067169D01*
X0030673Y0067209D01*
X0030741Y0067251D01*
X0030808Y0067294D01*
X0030874Y0067339D01*
X0030939Y0067386D01*
X0031002Y0067435D01*
X0031064Y0067484D01*
X0031126Y0067536D01*
X0031185Y0067589D01*
X0031244Y0067643D01*
X0031301Y0067699D01*
X0031357Y0067756D01*
X0031411Y0067815D01*
X0031464Y0067874D01*
X0031516Y0067936D01*
X0031565Y0067998D01*
X0031614Y0068061D01*
X0031661Y0068126D01*
X0031706Y0068192D01*
X0031749Y0068259D01*
X0031791Y0068327D01*
X0031831Y0068396D01*
X0031870Y0068466D01*
X0031907Y0068537D01*
X0031942Y0068609D01*
X0031975Y0068681D01*
X0032007Y0068755D01*
X0032036Y0068829D01*
X0032064Y0068904D01*
X0032090Y0068979D01*
X0032114Y0069055D01*
X0032136Y0069132D01*
X0032157Y0069209D01*
X0032175Y0069287D01*
X0032192Y0069365D01*
X0032206Y0069444D01*
X0032219Y0069522D01*
X0032230Y0069602D01*
X0032239Y0069681D01*
X0032245Y0069761D01*
X0032250Y0069840D01*
X0032253Y0069920D01*
X0032254Y0070000D01*
X0032253Y0070080D01*
X0032250Y0070160D01*
X0032245Y0070239D01*
X0032239Y0070319D01*
X0032230Y0070398D01*
X0032219Y0070478D01*
X0032206Y0070556D01*
X0032192Y0070635D01*
X0032175Y0070713D01*
X0032157Y0070791D01*
X0032136Y0070868D01*
X0032114Y0070945D01*
X0032090Y0071021D01*
X0032064Y0071096D01*
X0032036Y0071171D01*
X0032007Y0071245D01*
X0031975Y0071319D01*
X0031942Y0071391D01*
X0031907Y0071463D01*
X0031870Y0071534D01*
X0031831Y0071604D01*
X0031791Y0071673D01*
X0031749Y0071741D01*
X0031706Y0071808D01*
X0031661Y0071874D01*
X0031614Y0071939D01*
X0031565Y0072002D01*
X0031516Y0072064D01*
X0031464Y0072126D01*
X0031411Y0072185D01*
X0031357Y0072244D01*
X0031301Y0072301D01*
X0031244Y0072357D01*
X0031185Y0072411D01*
X0031126Y0072464D01*
X0031064Y0072516D01*
X0031002Y0072565D01*
X0030939Y0072614D01*
X0030874Y0072661D01*
X0030808Y0072706D01*
X0030741Y0072749D01*
X0030673Y0072791D01*
X0030604Y0072831D01*
X0030534Y0072870D01*
X0030463Y0072907D01*
X0030391Y0072942D01*
X0030319Y0072975D01*
X0030245Y0073007D01*
X0030171Y0073036D01*
X0030096Y0073064D01*
X0030021Y0073090D01*
X0029945Y0073114D01*
X0029868Y0073136D01*
X0029791Y0073157D01*
X0029713Y0073175D01*
X0029635Y0073192D01*
X0029556Y0073206D01*
X0029478Y0073219D01*
X0029398Y0073230D01*
X0029319Y0073239D01*
X0029239Y0073245D01*
X0029160Y0073250D01*
X0029080Y0073253D01*
X0029000Y0073254D01*
D02*
G37*
G36*
X0041244Y0069439D02*
X0041186Y0069438D01*
X0041128Y0069436D01*
X0041070Y0069431D01*
X0041012Y0069424D01*
X0040955Y0069416D01*
X0040897Y0069405D01*
X0040840Y0069393D01*
X0040784Y0069379D01*
X0040728Y0069363D01*
X0040673Y0069345D01*
X0040618Y0069325D01*
X0040564Y0069304D01*
X0040510Y0069281D01*
X0040458Y0069256D01*
X0040406Y0069229D01*
X0040355Y0069201D01*
X0040305Y0069171D01*
X0040256Y0069140D01*
X0040209Y0069107D01*
X0040162Y0069072D01*
X0040116Y0069036D01*
X0040072Y0068998D01*
X0040029Y0068959D01*
X0039987Y0068918D01*
X0039946Y0068877D01*
X0039907Y0068834D01*
X0039870Y0068789D01*
X0039834Y0068744D01*
X0039799Y0068697D01*
X0039766Y0068649D01*
X0039734Y0068600D01*
X0039704Y0068550D01*
X0039676Y0068499D01*
X0039649Y0068448D01*
X0039625Y0068395D01*
X0039601Y0068342D01*
X0039580Y0068287D01*
X0039560Y0068233D01*
X0039543Y0068177D01*
X0039527Y0068121D01*
X0039513Y0068065D01*
X0039500Y0068008D01*
X0039490Y0067951D01*
X0039481Y0067893D01*
X0039475Y0067835D01*
X0039470Y0067777D01*
X0039467Y0067719D01*
X0039466Y0067661D01*
Y0066899D01*
X0039467Y0066841D01*
X0039470Y0066783D01*
X0039475Y0066725D01*
X0039481Y0066667D01*
X0039490Y0066609D01*
X0039500Y0066552D01*
X0039513Y0066495D01*
X0039527Y0066439D01*
X0039543Y0066383D01*
X0039560Y0066327D01*
X0039580Y0066273D01*
X0039601Y0066219D01*
X0039625Y0066165D01*
X0039649Y0066113D01*
X0039676Y0066061D01*
X0039704Y0066010D01*
X0039734Y0065960D01*
X0039766Y0065911D01*
X0039799Y0065863D01*
X0039834Y0065817D01*
X0039870Y0065771D01*
X0039907Y0065727D01*
X0039946Y0065683D01*
X0039987Y0065642D01*
X0040029Y0065601D01*
X0040072Y0065562D01*
X0040116Y0065524D01*
X0040162Y0065488D01*
X0040209Y0065454D01*
X0040256Y0065421D01*
X0040305Y0065389D01*
X0040355Y0065359D01*
X0040406Y0065331D01*
X0040458Y0065304D01*
X0040510Y0065279D01*
X0040564Y0065256D01*
X0040618Y0065235D01*
X0040673Y0065215D01*
X0040728Y0065197D01*
X0040784Y0065181D01*
X0040840Y0065167D01*
X0040897Y0065155D01*
X0040955Y0065145D01*
X0041012Y0065136D01*
X0041070Y0065129D01*
X0041128Y0065125D01*
X0041186Y0065122D01*
X0041244Y0065121D01*
X0041302Y0065122D01*
X0041361Y0065125D01*
X0041419Y0065129D01*
X0041476Y0065136D01*
X0041534Y0065145D01*
X0041591Y0065155D01*
X0041648Y0065167D01*
X0041705Y0065181D01*
X0041760Y0065197D01*
X0041816Y0065215D01*
X0041871Y0065235D01*
X0041925Y0065256D01*
X0041978Y0065279D01*
X0042031Y0065304D01*
X0042083Y0065331D01*
X0042133Y0065359D01*
X0042183Y0065389D01*
X0042232Y0065421D01*
X0042280Y0065454D01*
X0042327Y0065488D01*
X0042372Y0065524D01*
X0042417Y0065562D01*
X0042460Y0065601D01*
X0042502Y0065642D01*
X0042542Y0065683D01*
X0042581Y0065727D01*
X0042619Y0065771D01*
X0042655Y0065817D01*
X0042690Y0065863D01*
X0042723Y0065911D01*
X0042754Y0065960D01*
X0042784Y0066010D01*
X0042813Y0066061D01*
X0042839Y0066113D01*
X0042864Y0066165D01*
X0042887Y0066219D01*
X0042909Y0066273D01*
X0042928Y0066327D01*
X0042946Y0066383D01*
X0042962Y0066439D01*
X0042976Y0066495D01*
X0042988Y0066552D01*
X0042999Y0066609D01*
X0043007Y0066667D01*
X0043014Y0066725D01*
X0043019Y0066783D01*
X0043022Y0066841D01*
X0043023Y0066899D01*
Y0067661D01*
X0043022Y0067719D01*
X0043019Y0067777D01*
X0043014Y0067835D01*
X0043007Y0067893D01*
X0042999Y0067951D01*
X0042988Y0068008D01*
X0042976Y0068065D01*
X0042962Y0068121D01*
X0042946Y0068177D01*
X0042928Y0068233D01*
X0042909Y0068287D01*
X0042887Y0068342D01*
X0042864Y0068395D01*
X0042839Y0068448D01*
X0042813Y0068499D01*
X0042784Y0068550D01*
X0042754Y0068600D01*
X0042723Y0068649D01*
X0042690Y0068697D01*
X0042655Y0068744D01*
X0042619Y0068789D01*
X0042581Y0068834D01*
X0042542Y0068877D01*
X0042502Y0068918D01*
X0042460Y0068959D01*
X0042417Y0068998D01*
X0042372Y0069036D01*
X0042327Y0069072D01*
X0042280Y0069107D01*
X0042232Y0069140D01*
X0042183Y0069171D01*
X0042133Y0069201D01*
X0042083Y0069229D01*
X0042031Y0069256D01*
X0041978Y0069281D01*
X0041925Y0069304D01*
X0041871Y0069325D01*
X0041816Y0069345D01*
X0041760Y0069363D01*
X0041705Y0069379D01*
X0041648Y0069393D01*
X0041591Y0069405D01*
X0041534Y0069416D01*
X0041476Y0069424D01*
X0041419Y0069431D01*
X0041361Y0069436D01*
X0041302Y0069438D01*
X0041244Y0069439D01*
D02*
G37*
G36*
X0050700D02*
X0050642Y0069438D01*
X0050583Y0069436D01*
X0050525Y0069431D01*
X0050468Y0069424D01*
X0050410Y0069416D01*
X0050353Y0069405D01*
X0050296Y0069393D01*
X0050240Y0069379D01*
X0050184Y0069363D01*
X0050128Y0069345D01*
X0050073Y0069325D01*
X0050019Y0069304D01*
X0049966Y0069281D01*
X0049913Y0069256D01*
X0049861Y0069229D01*
X0049811Y0069201D01*
X0049761Y0069171D01*
X0049712Y0069140D01*
X0049664Y0069107D01*
X0049617Y0069072D01*
X0049572Y0069036D01*
X0049527Y0068998D01*
X0049484Y0068959D01*
X0049442Y0068918D01*
X0049402Y0068877D01*
X0049363Y0068834D01*
X0049325Y0068789D01*
X0049289Y0068744D01*
X0049254Y0068697D01*
X0049221Y0068649D01*
X0049190Y0068600D01*
X0049160Y0068550D01*
X0049131Y0068499D01*
X0049105Y0068448D01*
X0049080Y0068395D01*
X0049057Y0068342D01*
X0049035Y0068287D01*
X0049016Y0068233D01*
X0048998Y0068177D01*
X0048982Y0068121D01*
X0048968Y0068065D01*
X0048956Y0068008D01*
X0048945Y0067951D01*
X0048937Y0067893D01*
X0048930Y0067835D01*
X0048925Y0067777D01*
X0048922Y0067719D01*
X0048922Y0067661D01*
Y0066899D01*
X0048922Y0066841D01*
X0048925Y0066783D01*
X0048930Y0066725D01*
X0048937Y0066667D01*
X0048945Y0066609D01*
X0048956Y0066552D01*
X0048968Y0066495D01*
X0048982Y0066439D01*
X0048998Y0066383D01*
X0049016Y0066327D01*
X0049035Y0066273D01*
X0049057Y0066219D01*
X0049080Y0066165D01*
X0049105Y0066113D01*
X0049131Y0066061D01*
X0049160Y0066010D01*
X0049190Y0065960D01*
X0049221Y0065911D01*
X0049254Y0065863D01*
X0049289Y0065817D01*
X0049325Y0065771D01*
X0049363Y0065727D01*
X0049402Y0065683D01*
X0049442Y0065642D01*
X0049484Y0065601D01*
X0049527Y0065562D01*
X0049572Y0065524D01*
X0049617Y0065488D01*
X0049664Y0065454D01*
X0049712Y0065421D01*
X0049761Y0065389D01*
X0049811Y0065359D01*
X0049861Y0065331D01*
X0049913Y0065304D01*
X0049966Y0065279D01*
X0050019Y0065256D01*
X0050073Y0065235D01*
X0050128Y0065215D01*
X0050184Y0065197D01*
X0050240Y0065181D01*
X0050296Y0065167D01*
X0050353Y0065155D01*
X0050410Y0065145D01*
X0050468Y0065136D01*
X0050525Y0065129D01*
X0050583Y0065125D01*
X0050642Y0065122D01*
X0050700Y0065121D01*
X0050758Y0065122D01*
X0050816Y0065125D01*
X0050874Y0065129D01*
X0050932Y0065136D01*
X0050989Y0065145D01*
X0051047Y0065155D01*
X0051104Y0065167D01*
X0051160Y0065181D01*
X0051216Y0065197D01*
X0051271Y0065215D01*
X0051326Y0065235D01*
X0051380Y0065256D01*
X0051434Y0065279D01*
X0051486Y0065304D01*
X0051538Y0065331D01*
X0051589Y0065359D01*
X0051639Y0065389D01*
X0051688Y0065421D01*
X0051736Y0065454D01*
X0051782Y0065488D01*
X0051828Y0065524D01*
X0051872Y0065562D01*
X0051915Y0065601D01*
X0051957Y0065642D01*
X0051998Y0065683D01*
X0052037Y0065727D01*
X0052074Y0065771D01*
X0052111Y0065817D01*
X0052145Y0065863D01*
X0052178Y0065911D01*
X0052210Y0065960D01*
X0052240Y0066010D01*
X0052268Y0066061D01*
X0052295Y0066113D01*
X0052319Y0066165D01*
X0052343Y0066219D01*
X0052364Y0066273D01*
X0052384Y0066327D01*
X0052401Y0066383D01*
X0052417Y0066439D01*
X0052432Y0066495D01*
X0052444Y0066552D01*
X0052454Y0066609D01*
X0052463Y0066667D01*
X0052469Y0066725D01*
X0052474Y0066783D01*
X0052477Y0066841D01*
X0052478Y0066899D01*
Y0067661D01*
X0052477Y0067719D01*
X0052474Y0067777D01*
X0052469Y0067835D01*
X0052463Y0067893D01*
X0052454Y0067951D01*
X0052444Y0068008D01*
X0052432Y0068065D01*
X0052417Y0068121D01*
X0052401Y0068177D01*
X0052384Y0068233D01*
X0052364Y0068287D01*
X0052343Y0068342D01*
X0052319Y0068395D01*
X0052295Y0068448D01*
X0052268Y0068499D01*
X0052240Y0068550D01*
X0052210Y0068600D01*
X0052178Y0068649D01*
X0052145Y0068697D01*
X0052111Y0068744D01*
X0052074Y0068789D01*
X0052037Y0068834D01*
X0051998Y0068877D01*
X0051957Y0068918D01*
X0051915Y0068959D01*
X0051872Y0068998D01*
X0051828Y0069036D01*
X0051782Y0069072D01*
X0051736Y0069107D01*
X0051688Y0069140D01*
X0051639Y0069171D01*
X0051589Y0069201D01*
X0051538Y0069229D01*
X0051486Y0069256D01*
X0051434Y0069281D01*
X0051380Y0069304D01*
X0051326Y0069325D01*
X0051271Y0069345D01*
X0051216Y0069363D01*
X0051160Y0069379D01*
X0051104Y0069393D01*
X0051047Y0069405D01*
X0050989Y0069416D01*
X0050932Y0069424D01*
X0050874Y0069431D01*
X0050816Y0069436D01*
X0050758Y0069438D01*
X0050700Y0069439D01*
D02*
G37*
G36*
X0040950Y0063504D02*
X0040896Y0063503D01*
X0040843Y0063500D01*
X0040789Y0063496D01*
X0040736Y0063489D01*
X0040683Y0063480D01*
X0040630Y0063470D01*
X0040578Y0063458D01*
X0040526Y0063443D01*
X0040475Y0063427D01*
X0040424Y0063409D01*
X0040374Y0063390D01*
X0040325Y0063368D01*
X0040277Y0063345D01*
X0040229Y0063320D01*
X0040182Y0063294D01*
X0040137Y0063265D01*
X0040092Y0063236D01*
X0040049Y0063204D01*
X0040006Y0063171D01*
X0039965Y0063137D01*
X0039925Y0063101D01*
X0039886Y0063064D01*
X0039849Y0063025D01*
X0039813Y0062985D01*
X0039779Y0062944D01*
X0039746Y0062901D01*
X0039714Y0062858D01*
X0039685Y0062813D01*
X0039656Y0062768D01*
X0039630Y0062721D01*
X0039605Y0062673D01*
X0039582Y0062625D01*
X0039560Y0062576D01*
X0039541Y0062526D01*
X0039523Y0062475D01*
X0039507Y0062424D01*
X0039492Y0062372D01*
X0039480Y0062320D01*
X0039470Y0062267D01*
X0039461Y0062214D01*
X0039454Y0062161D01*
X0039450Y0062107D01*
X0039447Y0062054D01*
X0039446Y0062000D01*
X0039447Y0061946D01*
X0039450Y0061893D01*
X0039454Y0061839D01*
X0039461Y0061786D01*
X0039470Y0061733D01*
X0039480Y0061680D01*
X0039492Y0061628D01*
X0039507Y0061576D01*
X0039523Y0061525D01*
X0039541Y0061474D01*
X0039560Y0061424D01*
X0039582Y0061375D01*
X0039605Y0061327D01*
X0039630Y0061279D01*
X0039656Y0061232D01*
X0039685Y0061187D01*
X0039714Y0061142D01*
X0039746Y0061099D01*
X0039779Y0061056D01*
X0039813Y0061015D01*
X0039849Y0060975D01*
X0039886Y0060936D01*
X0039925Y0060899D01*
X0039965Y0060863D01*
X0040006Y0060829D01*
X0040049Y0060796D01*
X0040092Y0060764D01*
X0040137Y0060735D01*
X0040182Y0060706D01*
X0040229Y0060680D01*
X0040277Y0060655D01*
X0040325Y0060632D01*
X0040374Y0060610D01*
X0040424Y0060591D01*
X0040475Y0060573D01*
X0040526Y0060557D01*
X0040578Y0060542D01*
X0040630Y0060530D01*
X0040683Y0060520D01*
X0040736Y0060511D01*
X0040789Y0060504D01*
X0040843Y0060500D01*
X0040896Y0060497D01*
X0040950Y0060496D01*
X0041004Y0060497D01*
X0041057Y0060500D01*
X0041111Y0060504D01*
X0041164Y0060511D01*
X0041217Y0060520D01*
X0041270Y0060530D01*
X0041322Y0060542D01*
X0041374Y0060557D01*
X0041425Y0060573D01*
X0041476Y0060591D01*
X0041526Y0060610D01*
X0041575Y0060632D01*
X0041623Y0060655D01*
X0041671Y0060680D01*
X0041718Y0060706D01*
X0041763Y0060735D01*
X0041808Y0060764D01*
X0041851Y0060796D01*
X0041894Y0060829D01*
X0041935Y0060863D01*
X0041975Y0060899D01*
X0042014Y0060936D01*
X0042051Y0060975D01*
X0042087Y0061015D01*
X0042121Y0061056D01*
X0042154Y0061099D01*
X0042186Y0061142D01*
X0042215Y0061187D01*
X0042244Y0061232D01*
X0042270Y0061279D01*
X0042295Y0061327D01*
X0042318Y0061375D01*
X0042340Y0061424D01*
X0042359Y0061474D01*
X0042377Y0061525D01*
X0042393Y0061576D01*
X0042408Y0061628D01*
X0042420Y0061680D01*
X0042430Y0061733D01*
X0042439Y0061786D01*
X0042446Y0061839D01*
X0042450Y0061893D01*
X0042453Y0061946D01*
X0042454Y0062000D01*
X0042453Y0062054D01*
X0042450Y0062107D01*
X0042446Y0062161D01*
X0042439Y0062214D01*
X0042430Y0062267D01*
X0042420Y0062320D01*
X0042408Y0062372D01*
X0042393Y0062424D01*
X0042377Y0062475D01*
X0042359Y0062526D01*
X0042340Y0062576D01*
X0042318Y0062625D01*
X0042295Y0062673D01*
X0042270Y0062721D01*
X0042244Y0062768D01*
X0042215Y0062813D01*
X0042186Y0062858D01*
X0042154Y0062901D01*
X0042121Y0062944D01*
X0042087Y0062985D01*
X0042051Y0063025D01*
X0042014Y0063064D01*
X0041975Y0063101D01*
X0041935Y0063137D01*
X0041894Y0063171D01*
X0041851Y0063204D01*
X0041808Y0063236D01*
X0041763Y0063265D01*
X0041718Y0063294D01*
X0041671Y0063320D01*
X0041623Y0063345D01*
X0041575Y0063368D01*
X0041526Y0063390D01*
X0041476Y0063409D01*
X0041425Y0063427D01*
X0041374Y0063443D01*
X0041322Y0063458D01*
X0041270Y0063470D01*
X0041217Y0063480D01*
X0041164Y0063489D01*
X0041111Y0063496D01*
X0041057Y0063500D01*
X0041004Y0063503D01*
X0040950Y0063504D01*
D02*
G37*
G36*
X0045950Y0069439D02*
X0045892Y0069438D01*
X0045834Y0069435D01*
X0045776Y0069431D01*
X0045718Y0069424D01*
X0045660Y0069415D01*
X0045603Y0069405D01*
X0045546Y0069393D01*
X0045490Y0069379D01*
X0045434Y0069363D01*
X0045378Y0069345D01*
X0045324Y0069325D01*
X0045270Y0069304D01*
X0045216Y0069281D01*
X0045164Y0069256D01*
X0045112Y0069229D01*
X0045061Y0069201D01*
X0045011Y0069171D01*
X0044962Y0069140D01*
X0044914Y0069106D01*
X0044867Y0069072D01*
X0044822Y0069036D01*
X0044778Y0068998D01*
X0044734Y0068959D01*
X0044693Y0068918D01*
X0044652Y0068877D01*
X0044613Y0068833D01*
X0044575Y0068789D01*
X0044539Y0068744D01*
X0044505Y0068697D01*
X0044471Y0068649D01*
X0044440Y0068600D01*
X0044410Y0068550D01*
X0044382Y0068499D01*
X0044355Y0068448D01*
X0044330Y0068395D01*
X0044307Y0068341D01*
X0044286Y0068287D01*
X0044266Y0068233D01*
X0044248Y0068177D01*
X0044232Y0068121D01*
X0044218Y0068065D01*
X0044206Y0068008D01*
X0044196Y0067951D01*
X0044187Y0067893D01*
X0044180Y0067835D01*
X0044176Y0067777D01*
X0044173Y0067719D01*
X0044172Y0067661D01*
Y0066899D01*
X0044173Y0066841D01*
X0044176Y0066783D01*
X0044180Y0066725D01*
X0044187Y0066667D01*
X0044196Y0066609D01*
X0044206Y0066552D01*
X0044218Y0066495D01*
X0044232Y0066439D01*
X0044248Y0066383D01*
X0044266Y0066327D01*
X0044286Y0066273D01*
X0044307Y0066218D01*
X0044330Y0066165D01*
X0044355Y0066113D01*
X0044382Y0066061D01*
X0044410Y0066010D01*
X0044440Y0065960D01*
X0044471Y0065911D01*
X0044505Y0065863D01*
X0044539Y0065816D01*
X0044575Y0065771D01*
X0044613Y0065727D01*
X0044652Y0065683D01*
X0044693Y0065642D01*
X0044734Y0065601D01*
X0044778Y0065562D01*
X0044822Y0065524D01*
X0044867Y0065488D01*
X0044914Y0065454D01*
X0044962Y0065420D01*
X0045011Y0065389D01*
X0045061Y0065359D01*
X0045112Y0065331D01*
X0045164Y0065304D01*
X0045216Y0065279D01*
X0045270Y0065256D01*
X0045324Y0065235D01*
X0045378Y0065215D01*
X0045434Y0065197D01*
X0045442Y0065195D01*
Y0064740D01*
X0045443Y0064709D01*
X0045445Y0064679D01*
X0045450Y0064648D01*
X0045457Y0064618D01*
X0045465Y0064589D01*
X0045475Y0064560D01*
X0045487Y0064531D01*
X0045500Y0064504D01*
X0045515Y0064477D01*
X0045532Y0064451D01*
X0045550Y0064427D01*
X0045570Y0064403D01*
X0045591Y0064381D01*
X0046226Y0063746D01*
X0046226Y0063746D01*
X0046248Y0063725D01*
X0046272Y0063705D01*
X0046296Y0063687D01*
X0046322Y0063670D01*
X0046349Y0063655D01*
X0046376Y0063642D01*
X0046405Y0063630D01*
X0046434Y0063620D01*
X0046463Y0063612D01*
X0046493Y0063605D01*
X0046524Y0063600D01*
X0046554Y0063598D01*
X0046585Y0063597D01*
X0066694D01*
X0067032Y0063259D01*
Y0051405D01*
X0067033Y0051374D01*
X0067035Y0051344D01*
X0067040Y0051314D01*
X0067047Y0051284D01*
X0067055Y0051254D01*
X0067065Y0051225D01*
X0067077Y0051197D01*
X0067090Y0051169D01*
X0067105Y0051142D01*
X0067122Y0051116D01*
X0067140Y0051092D01*
X0067160Y0051068D01*
X0067181Y0051046D01*
X0068921Y0049305D01*
X0068929Y0049286D01*
X0068941Y0049258D01*
X0068956Y0049230D01*
X0068972Y0049203D01*
X0068989Y0049177D01*
X0069008Y0049152D01*
X0069028Y0049128D01*
X0069050Y0049105D01*
X0069073Y0049083D01*
X0069096Y0049063D01*
X0069122Y0049044D01*
X0069148Y0049027D01*
X0069175Y0049011D01*
X0069202Y0048996D01*
X0069231Y0048984D01*
X0069260Y0048973D01*
X0069290Y0048963D01*
X0069321Y0048955D01*
X0069351Y0048949D01*
X0069382Y0048945D01*
X0069414Y0048942D01*
X0069445Y0048941D01*
X0069476Y0048942D01*
X0069508Y0048945D01*
X0069539Y0048949D01*
X0069569Y0048955D01*
X0069600Y0048963D01*
X0069630Y0048973D01*
X0069659Y0048984D01*
X0069688Y0048996D01*
X0069715Y0049011D01*
X0069742Y0049027D01*
X0069768Y0049044D01*
X0069794Y0049063D01*
X0069817Y0049083D01*
X0069840Y0049105D01*
X0069862Y0049128D01*
X0069882Y0049152D01*
X0069901Y0049177D01*
X0069918Y0049203D01*
X0069934Y0049230D01*
X0069949Y0049258D01*
X0069961Y0049286D01*
X0069973Y0049316D01*
X0069982Y0049345D01*
X0069990Y0049376D01*
X0069996Y0049407D01*
X0070001Y0049438D01*
X0070003Y0049469D01*
X0070004Y0049500D01*
X0070003Y0049532D01*
X0070001Y0049563D01*
X0069996Y0049594D01*
X0069990Y0049625D01*
X0069982Y0049655D01*
X0069973Y0049685D01*
X0069961Y0049714D01*
X0069949Y0049743D01*
X0069934Y0049771D01*
X0069918Y0049798D01*
X0069901Y0049824D01*
X0069882Y0049849D01*
X0069862Y0049873D01*
X0069840Y0049895D01*
X0069817Y0049917D01*
X0069794Y0049937D01*
X0069768Y0049956D01*
X0069742Y0049973D01*
X0069715Y0049989D01*
X0069688Y0050004D01*
X0069659Y0050017D01*
X0069640Y0050024D01*
X0068048Y0051616D01*
Y0063470D01*
X0068047Y0063501D01*
X0068045Y0063531D01*
X0068040Y0063562D01*
X0068033Y0063592D01*
X0068025Y0063621D01*
X0068015Y0063650D01*
X0068003Y0063679D01*
X0067990Y0063706D01*
X0067975Y0063733D01*
X0067958Y0063759D01*
X0067940Y0063783D01*
X0067920Y0063807D01*
X0067899Y0063829D01*
X0067899Y0063829D01*
X0067264Y0064464D01*
X0067242Y0064485D01*
X0067218Y0064505D01*
X0067194Y0064523D01*
X0067168Y0064540D01*
X0067141Y0064555D01*
X0067114Y0064568D01*
X0067085Y0064580D01*
X0067056Y0064590D01*
X0067027Y0064598D01*
X0066997Y0064605D01*
X0066966Y0064610D01*
X0066936Y0064612D01*
X0066905Y0064613D01*
X0046796D01*
X0046458Y0064951D01*
Y0065195D01*
X0046466Y0065197D01*
X0046522Y0065215D01*
X0046576Y0065235D01*
X0046631Y0065256D01*
X0046684Y0065279D01*
X0046736Y0065304D01*
X0046788Y0065331D01*
X0046839Y0065359D01*
X0046889Y0065389D01*
X0046938Y0065420D01*
X0046986Y0065454D01*
X0047033Y0065488D01*
X0047078Y0065524D01*
X0047122Y0065562D01*
X0047166Y0065601D01*
X0047207Y0065642D01*
X0047248Y0065683D01*
X0047287Y0065727D01*
X0047325Y0065771D01*
X0047361Y0065816D01*
X0047395Y0065863D01*
X0047429Y0065911D01*
X0047460Y0065960D01*
X0047490Y0066010D01*
X0047518Y0066061D01*
X0047545Y0066113D01*
X0047570Y0066165D01*
X0047593Y0066218D01*
X0047614Y0066273D01*
X0047634Y0066327D01*
X0047652Y0066383D01*
X0047668Y0066439D01*
X0047682Y0066495D01*
X0047694Y0066552D01*
X0047704Y0066609D01*
X0047713Y0066667D01*
X0047720Y0066725D01*
X0047724Y0066783D01*
X0047727Y0066841D01*
X0047728Y0066899D01*
Y0067661D01*
X0047727Y0067719D01*
X0047724Y0067777D01*
X0047720Y0067835D01*
X0047713Y0067893D01*
X0047704Y0067951D01*
X0047694Y0068008D01*
X0047682Y0068065D01*
X0047668Y0068121D01*
X0047652Y0068177D01*
X0047634Y0068233D01*
X0047614Y0068287D01*
X0047593Y0068341D01*
X0047570Y0068395D01*
X0047545Y0068448D01*
X0047518Y0068499D01*
X0047490Y0068550D01*
X0047460Y0068600D01*
X0047429Y0068649D01*
X0047395Y0068697D01*
X0047361Y0068744D01*
X0047325Y0068789D01*
X0047287Y0068833D01*
X0047248Y0068877D01*
X0047207Y0068918D01*
X0047166Y0068959D01*
X0047122Y0068998D01*
X0047078Y0069036D01*
X0047033Y0069072D01*
X0046986Y0069106D01*
X0046938Y0069140D01*
X0046889Y0069171D01*
X0046839Y0069201D01*
X0046788Y0069229D01*
X0046736Y0069256D01*
X0046684Y0069281D01*
X0046631Y0069304D01*
X0046576Y0069325D01*
X0046522Y0069345D01*
X0046466Y0069363D01*
X0046410Y0069379D01*
X0046354Y0069393D01*
X0046297Y0069405D01*
X0046240Y0069415D01*
X0046182Y0069424D01*
X0046124Y0069431D01*
X0046066Y0069435D01*
X0046008Y0069438D01*
X0045950Y0069439D01*
D02*
G37*
G36*
X0034873Y0051913D02*
X0033501D01*
X0033504Y0051879D01*
X0033511Y0051826D01*
X0033520Y0051773D01*
X0033530Y0051720D01*
X0033542Y0051668D01*
X0033557Y0051616D01*
X0033573Y0051565D01*
X0033591Y0051514D01*
X0033610Y0051464D01*
X0033632Y0051415D01*
X0033655Y0051367D01*
X0033680Y0051319D01*
X0033706Y0051272D01*
X0033735Y0051227D01*
X0033764Y0051182D01*
X0033796Y0051139D01*
X0033829Y0051096D01*
X0033863Y0051055D01*
X0033899Y0051015D01*
X0033936Y0050976D01*
X0033975Y0050939D01*
X0034015Y0050903D01*
X0034056Y0050869D01*
X0034099Y0050836D01*
X0034142Y0050804D01*
X0034187Y0050775D01*
X0034232Y0050746D01*
X0034279Y0050720D01*
X0034327Y0050695D01*
X0034375Y0050672D01*
X0034424Y0050650D01*
X0034474Y0050631D01*
X0034525Y0050613D01*
X0034576Y0050597D01*
X0034628Y0050582D01*
X0034680Y0050570D01*
X0034733Y0050560D01*
X0034786Y0050551D01*
X0034839Y0050544D01*
X0034873Y0050541D01*
Y0051913D01*
D02*
G37*
G36*
X0077700Y0048789D02*
X0077669Y0048788D01*
X0077637Y0048786D01*
X0077606Y0048781D01*
X0077576Y0048775D01*
X0077545Y0048767D01*
X0077515Y0048758D01*
X0077486Y0048746D01*
X0077457Y0048734D01*
X0077430Y0048719D01*
X0077403Y0048703D01*
X0077377Y0048686D01*
X0077362Y0048675D01*
X0060258D01*
X0060243Y0048686D01*
X0060217Y0048703D01*
X0060190Y0048719D01*
X0060163Y0048734D01*
X0060134Y0048746D01*
X0060105Y0048758D01*
X0060075Y0048767D01*
X0060044Y0048775D01*
X0060014Y0048781D01*
X0059983Y0048786D01*
X0059951Y0048788D01*
X0059920Y0048789D01*
X0059889Y0048788D01*
X0059857Y0048786D01*
X0059826Y0048781D01*
X0059796Y0048775D01*
X0059765Y0048767D01*
X0059735Y0048758D01*
X0059706Y0048746D01*
X0059677Y0048734D01*
X0059650Y0048719D01*
X0059623Y0048703D01*
X0059597Y0048686D01*
X0059571Y0048667D01*
X0059548Y0048647D01*
X0059525Y0048625D01*
X0059503Y0048603D01*
X0059483Y0048579D01*
X0059464Y0048553D01*
X0059447Y0048527D01*
X0059431Y0048500D01*
X0059416Y0048473D01*
X0059404Y0048444D01*
X0059392Y0048415D01*
X0059383Y0048385D01*
X0059375Y0048354D01*
X0059369Y0048324D01*
X0059364Y0048293D01*
X0059362Y0048261D01*
X0059361Y0048230D01*
X0059362Y0048199D01*
X0059364Y0048167D01*
X0059369Y0048136D01*
X0059375Y0048106D01*
X0059383Y0048075D01*
X0059392Y0048045D01*
X0059404Y0048016D01*
X0059416Y0047987D01*
X0059431Y0047960D01*
X0059447Y0047933D01*
X0059464Y0047907D01*
X0059483Y0047881D01*
X0059503Y0047857D01*
X0059525Y0047835D01*
X0059548Y0047813D01*
X0059571Y0047793D01*
X0059597Y0047774D01*
X0059623Y0047757D01*
X0059650Y0047741D01*
X0059677Y0047726D01*
X0059706Y0047714D01*
X0059735Y0047702D01*
X0059765Y0047693D01*
X0059796Y0047685D01*
X0059826Y0047679D01*
X0059857Y0047674D01*
X0059889Y0047672D01*
X0059920Y0047671D01*
X0059951Y0047672D01*
X0059983Y0047674D01*
X0060014Y0047679D01*
X0060044Y0047685D01*
X0060075Y0047693D01*
X0060105Y0047702D01*
X0060134Y0047714D01*
X0060163Y0047726D01*
X0060190Y0047741D01*
X0060217Y0047757D01*
X0060243Y0047774D01*
X0060258Y0047785D01*
X0077362D01*
X0077377Y0047774D01*
X0077403Y0047757D01*
X0077430Y0047741D01*
X0077457Y0047726D01*
X0077486Y0047714D01*
X0077515Y0047702D01*
X0077545Y0047693D01*
X0077576Y0047685D01*
X0077606Y0047679D01*
X0077637Y0047674D01*
X0077669Y0047672D01*
X0077700Y0047671D01*
X0077731Y0047672D01*
X0077763Y0047674D01*
X0077794Y0047679D01*
X0077824Y0047685D01*
X0077855Y0047693D01*
X0077885Y0047702D01*
X0077914Y0047714D01*
X0077943Y0047726D01*
X0077970Y0047741D01*
X0077997Y0047757D01*
X0078023Y0047774D01*
X0078049Y0047793D01*
X0078073Y0047813D01*
X0078095Y0047835D01*
X0078117Y0047857D01*
X0078137Y0047881D01*
X0078156Y0047907D01*
X0078173Y0047933D01*
X0078189Y0047960D01*
X0078204Y0047987D01*
X0078216Y0048016D01*
X0078228Y0048045D01*
X0078237Y0048075D01*
X0078245Y0048106D01*
X0078251Y0048136D01*
X0078256Y0048167D01*
X0078258Y0048199D01*
X0078259Y0048230D01*
X0078258Y0048261D01*
X0078256Y0048293D01*
X0078251Y0048324D01*
X0078245Y0048354D01*
X0078237Y0048385D01*
X0078228Y0048415D01*
X0078216Y0048444D01*
X0078204Y0048473D01*
X0078189Y0048500D01*
X0078173Y0048527D01*
X0078156Y0048553D01*
X0078137Y0048579D01*
X0078117Y0048603D01*
X0078095Y0048625D01*
X0078073Y0048647D01*
X0078049Y0048667D01*
X0078023Y0048686D01*
X0077997Y0048703D01*
X0077970Y0048719D01*
X0077943Y0048734D01*
X0077914Y0048746D01*
X0077885Y0048758D01*
X0077855Y0048767D01*
X0077824Y0048775D01*
X0077794Y0048781D01*
X0077763Y0048786D01*
X0077731Y0048788D01*
X0077700Y0048789D01*
D02*
G37*
G36*
X0045950Y0055754D02*
X0045838Y0055753D01*
X0045727Y0055750D01*
X0045615Y0055745D01*
X0045504Y0055738D01*
X0045393Y0055729D01*
X0045281Y0055718D01*
X0045171Y0055705D01*
X0045060Y0055691D01*
X0044950Y0055674D01*
X0044840Y0055655D01*
X0044730Y0055634D01*
X0044621Y0055611D01*
X0044512Y0055587D01*
X0044403Y0055560D01*
X0044295Y0055531D01*
X0044188Y0055501D01*
X0044081Y0055468D01*
X0043975Y0055434D01*
X0043869Y0055398D01*
X0043764Y0055360D01*
X0043660Y0055320D01*
X0043557Y0055278D01*
X0043454Y0055235D01*
X0043352Y0055189D01*
X0043251Y0055142D01*
X0043150Y0055093D01*
X0043051Y0055042D01*
X0042953Y0054989D01*
X0042855Y0054935D01*
X0042759Y0054879D01*
X0042663Y0054821D01*
X0042569Y0054761D01*
X0042475Y0054700D01*
X0042383Y0054637D01*
X0042292Y0054573D01*
X0042202Y0054507D01*
X0042113Y0054439D01*
X0042026Y0054370D01*
X0041939Y0054299D01*
X0041854Y0054227D01*
X0041771Y0054153D01*
X0041688Y0054077D01*
X0041607Y0054001D01*
X0041528Y0053922D01*
X0041449Y0053843D01*
X0041373Y0053762D01*
X0041297Y0053679D01*
X0041223Y0053596D01*
X0041151Y0053511D01*
X0041080Y0053424D01*
X0041011Y0053337D01*
X0040943Y0053248D01*
X0040877Y0053158D01*
X0040813Y0053067D01*
X0040750Y0052975D01*
X0040689Y0052881D01*
X0040629Y0052787D01*
X0040571Y0052691D01*
X0040515Y0052595D01*
X0040461Y0052497D01*
X0040408Y0052399D01*
X0040357Y0052300D01*
X0040308Y0052199D01*
X0040261Y0052098D01*
X0040215Y0051996D01*
X0040172Y0051893D01*
X0040130Y0051790D01*
X0040090Y0051686D01*
X0040052Y0051581D01*
X0040016Y0051475D01*
X0039981Y0051369D01*
X0039949Y0051262D01*
X0039919Y0051155D01*
X0039890Y0051047D01*
X0039863Y0050938D01*
X0039839Y0050829D01*
X0039816Y0050720D01*
X0039795Y0050610D01*
X0039776Y0050500D01*
X0039759Y0050390D01*
X0039745Y0050279D01*
X0039732Y0050169D01*
X0039721Y0050057D01*
X0039712Y0049946D01*
X0039705Y0049835D01*
X0039700Y0049723D01*
X0039697Y0049612D01*
X0039696Y0049500D01*
X0039697Y0049388D01*
X0039700Y0049277D01*
X0039705Y0049165D01*
X0039712Y0049054D01*
X0039721Y0048943D01*
X0039732Y0048831D01*
X0039745Y0048721D01*
X0039759Y0048610D01*
X0039776Y0048500D01*
X0039795Y0048390D01*
X0039816Y0048280D01*
X0039839Y0048171D01*
X0039863Y0048062D01*
X0039890Y0047953D01*
X0039919Y0047845D01*
X0039949Y0047738D01*
X0039981Y0047631D01*
X0040016Y0047525D01*
X0040052Y0047419D01*
X0040090Y0047314D01*
X0040130Y0047210D01*
X0040172Y0047107D01*
X0040215Y0047004D01*
X0040261Y0046902D01*
X0040308Y0046801D01*
X0040357Y0046700D01*
X0040408Y0046601D01*
X0040461Y0046503D01*
X0040515Y0046405D01*
X0040571Y0046309D01*
X0040629Y0046213D01*
X0040689Y0046119D01*
X0040750Y0046025D01*
X0040813Y0045933D01*
X0040877Y0045842D01*
X0040943Y0045752D01*
X0041011Y0045663D01*
X0041080Y0045576D01*
X0041151Y0045489D01*
X0041223Y0045404D01*
X0041297Y0045321D01*
X0041373Y0045238D01*
X0041449Y0045157D01*
X0041528Y0045078D01*
X0041607Y0044999D01*
X0041688Y0044923D01*
X0041771Y0044847D01*
X0041854Y0044773D01*
X0041939Y0044701D01*
X0042026Y0044630D01*
X0042113Y0044561D01*
X0042202Y0044493D01*
X0042292Y0044427D01*
X0042383Y0044363D01*
X0042475Y0044300D01*
X0042569Y0044239D01*
X0042663Y0044179D01*
X0042759Y0044121D01*
X0042855Y0044065D01*
X0042953Y0044011D01*
X0043051Y0043958D01*
X0043150Y0043907D01*
X0043251Y0043858D01*
X0043352Y0043811D01*
X0043454Y0043765D01*
X0043557Y0043722D01*
X0043660Y0043680D01*
X0043764Y0043640D01*
X0043869Y0043602D01*
X0043975Y0043566D01*
X0044081Y0043532D01*
X0044188Y0043499D01*
X0044295Y0043469D01*
X0044403Y0043440D01*
X0044512Y0043413D01*
X0044621Y0043389D01*
X0044730Y0043366D01*
X0044840Y0043345D01*
X0044950Y0043326D01*
X0045060Y0043309D01*
X0045171Y0043295D01*
X0045281Y0043282D01*
X0045393Y0043271D01*
X0045504Y0043262D01*
X0045615Y0043255D01*
X0045727Y0043250D01*
X0045838Y0043247D01*
X0045950Y0043246D01*
X0046062Y0043247D01*
X0046173Y0043250D01*
X0046285Y0043255D01*
X0046396Y0043262D01*
X0046507Y0043271D01*
X0046619Y0043282D01*
X0046729Y0043295D01*
X0046840Y0043309D01*
X0046950Y0043326D01*
X0047060Y0043345D01*
X0047170Y0043366D01*
X0047279Y0043389D01*
X0047388Y0043413D01*
X0047497Y0043440D01*
X0047605Y0043469D01*
X0047712Y0043499D01*
X0047819Y0043532D01*
X0047925Y0043566D01*
X0048031Y0043602D01*
X0048136Y0043640D01*
X0048240Y0043680D01*
X0048343Y0043722D01*
X0048446Y0043765D01*
X0048548Y0043811D01*
X0048649Y0043858D01*
X0048750Y0043907D01*
X0048849Y0043958D01*
X0048947Y0044011D01*
X0049045Y0044065D01*
X0049141Y0044121D01*
X0049237Y0044179D01*
X0049331Y0044239D01*
X0049425Y0044300D01*
X0049517Y0044363D01*
X0049608Y0044427D01*
X0049698Y0044493D01*
X0049787Y0044561D01*
X0049874Y0044630D01*
X0049961Y0044701D01*
X0050046Y0044773D01*
X0050129Y0044847D01*
X0050212Y0044923D01*
X0050293Y0044999D01*
X0050372Y0045078D01*
X0050451Y0045157D01*
X0050527Y0045238D01*
X0050603Y0045321D01*
X0050677Y0045404D01*
X0050749Y0045489D01*
X0050820Y0045576D01*
X0050889Y0045663D01*
X0050957Y0045752D01*
X0051023Y0045842D01*
X0051087Y0045933D01*
X0051150Y0046025D01*
X0051211Y0046119D01*
X0051271Y0046213D01*
X0051329Y0046309D01*
X0051385Y0046405D01*
X0051439Y0046503D01*
X0051492Y0046601D01*
X0051543Y0046700D01*
X0051592Y0046801D01*
X0051639Y0046902D01*
X0051685Y0047004D01*
X0051728Y0047107D01*
X0051770Y0047210D01*
X0051810Y0047314D01*
X0051848Y0047419D01*
X0051884Y0047525D01*
X0051918Y0047631D01*
X0051951Y0047738D01*
X0051981Y0047845D01*
X0052010Y0047953D01*
X0052037Y0048062D01*
X0052061Y0048171D01*
X0052084Y0048280D01*
X0052105Y0048390D01*
X0052124Y0048500D01*
X0052141Y0048610D01*
X0052155Y0048721D01*
X0052160Y0048759D01*
X0052179Y0048719D01*
X0052181Y0048715D01*
X0052183Y0048711D01*
X0052208Y0048663D01*
X0052210Y0048659D01*
X0052212Y0048655D01*
X0052239Y0048609D01*
X0052241Y0048605D01*
X0052243Y0048601D01*
X0052272Y0048555D01*
X0052274Y0048552D01*
X0052277Y0048548D01*
X0052306Y0048503D01*
X0052309Y0048499D01*
X0052311Y0048496D01*
X0052343Y0048452D01*
X0052346Y0048449D01*
X0052348Y0048445D01*
X0052381Y0048403D01*
X0052384Y0048399D01*
X0052387Y0048396D01*
X0052421Y0048355D01*
X0052424Y0048351D01*
X0052427Y0048348D01*
X0052463Y0048308D01*
X0052466Y0048305D01*
X0052469Y0048301D01*
X0052506Y0048263D01*
X0052510Y0048260D01*
X0052513Y0048256D01*
X0052551Y0048219D01*
X0052555Y0048216D01*
X0052558Y0048213D01*
X0052598Y0048177D01*
X0052601Y0048174D01*
X0052605Y0048171D01*
X0052646Y0048137D01*
X0052649Y0048134D01*
X0052653Y0048131D01*
X0052695Y0048098D01*
X0052699Y0048096D01*
X0052702Y0048093D01*
X0052746Y0048061D01*
X0052749Y0048059D01*
X0052753Y0048056D01*
X0052798Y0048027D01*
X0052802Y0048024D01*
X0052805Y0048022D01*
X0052851Y0047993D01*
X0052855Y0047991D01*
X0052859Y0047989D01*
X0052905Y0047962D01*
X0052909Y0047960D01*
X0052913Y0047958D01*
X0052961Y0047933D01*
X0052965Y0047931D01*
X0052969Y0047929D01*
X0053017Y0047906D01*
X0053021Y0047904D01*
X0053025Y0047902D01*
X0053074Y0047881D01*
X0053079Y0047879D01*
X0053083Y0047877D01*
X0053133Y0047858D01*
X0053137Y0047856D01*
X0053141Y0047855D01*
X0053192Y0047837D01*
X0053196Y0047835D01*
X0053200Y0047834D01*
X0053251Y0047818D01*
X0053256Y0047817D01*
X0053260Y0047815D01*
X0053312Y0047801D01*
X0053316Y0047800D01*
X0053321Y0047799D01*
X0053373Y0047787D01*
X0053377Y0047786D01*
X0053382Y0047785D01*
X0053434Y0047774D01*
X0053438Y0047774D01*
X0053443Y0047773D01*
X0053496Y0047764D01*
X0053500Y0047764D01*
X0053505Y0047763D01*
X0053558Y0047756D01*
X0053562Y0047756D01*
X0053567Y0047755D01*
X0053620Y0047750D01*
X0053625Y0047750D01*
X0053629Y0047750D01*
X0053683Y0047747D01*
X0053687Y0047747D01*
X0053692Y0047747D01*
X0053745Y0047746D01*
X0053748Y0047746D01*
X0053750Y0047746D01*
X0053752Y0047746D01*
X0053755Y0047746D01*
X0053808Y0047747D01*
X0053813Y0047747D01*
X0053817Y0047747D01*
X0053871Y0047750D01*
X0053875Y0047750D01*
X0053880Y0047750D01*
X0053933Y0047755D01*
X0053938Y0047756D01*
X0053942Y0047756D01*
X0053995Y0047763D01*
X0054000Y0047764D01*
X0054004Y0047764D01*
X0054057Y0047773D01*
X0054062Y0047774D01*
X0054066Y0047774D01*
X0054118Y0047785D01*
X0054123Y0047786D01*
X0054127Y0047787D01*
X0054179Y0047799D01*
X0054184Y0047800D01*
X0054188Y0047801D01*
X0054240Y0047815D01*
X0054244Y0047817D01*
X0054249Y0047818D01*
X0054300Y0047834D01*
X0054304Y0047835D01*
X0054308Y0047837D01*
X0054359Y0047855D01*
X0054363Y0047856D01*
X0054367Y0047858D01*
X0054417Y0047877D01*
X0054421Y0047879D01*
X0054426Y0047881D01*
X0054475Y0047902D01*
X0054479Y0047904D01*
X0054483Y0047906D01*
X0054531Y0047929D01*
X0054535Y0047931D01*
X0054539Y0047933D01*
X0054587Y0047958D01*
X0054591Y0047960D01*
X0054595Y0047962D01*
X0054641Y0047989D01*
X0054645Y0047991D01*
X0054649Y0047993D01*
X0054695Y0048022D01*
X0054698Y0048024D01*
X0054702Y0048027D01*
X0054747Y0048056D01*
X0054751Y0048059D01*
X0054754Y0048061D01*
X0054798Y0048093D01*
X0054801Y0048096D01*
X0054805Y0048098D01*
X0054847Y0048131D01*
X0054851Y0048134D01*
X0054854Y0048137D01*
X0054895Y0048171D01*
X0054899Y0048174D01*
X0054902Y0048177D01*
X0054942Y0048213D01*
X0054945Y0048216D01*
X0054949Y0048219D01*
X0054987Y0048256D01*
X0054990Y0048260D01*
X0054994Y0048263D01*
X0055031Y0048301D01*
X0055034Y0048305D01*
X0055037Y0048308D01*
X0055073Y0048348D01*
X0055076Y0048351D01*
X0055079Y0048355D01*
X0055113Y0048396D01*
X0055116Y0048399D01*
X0055119Y0048403D01*
X0055152Y0048445D01*
X0055154Y0048449D01*
X0055157Y0048452D01*
X0055189Y0048496D01*
X0055191Y0048499D01*
X0055194Y0048503D01*
X0055223Y0048548D01*
X0055226Y0048552D01*
X0055228Y0048555D01*
X0055257Y0048601D01*
X0055259Y0048605D01*
X0055261Y0048609D01*
X0055288Y0048655D01*
X0055290Y0048659D01*
X0055292Y0048663D01*
X0055317Y0048711D01*
X0055319Y0048715D01*
X0055321Y0048719D01*
X0055344Y0048767D01*
X0055346Y0048771D01*
X0055348Y0048775D01*
X0055369Y0048824D01*
X0055371Y0048829D01*
X0055373Y0048833D01*
X0055392Y0048883D01*
X0055394Y0048887D01*
X0055395Y0048891D01*
X0055413Y0048942D01*
X0055415Y0048946D01*
X0055416Y0048950D01*
X0055432Y0049001D01*
X0055433Y0049006D01*
X0055435Y0049010D01*
X0055449Y0049062D01*
X0055450Y0049066D01*
X0055451Y0049071D01*
X0055463Y0049123D01*
X0055464Y0049127D01*
X0055465Y0049132D01*
X0055476Y0049184D01*
X0055476Y0049188D01*
X0055477Y0049193D01*
X0055486Y0049246D01*
X0055486Y0049250D01*
X0055487Y0049255D01*
X0055494Y0049308D01*
X0055494Y0049312D01*
X0055495Y0049317D01*
X0055500Y0049370D01*
X0055500Y0049375D01*
X0055500Y0049379D01*
X0055503Y0049433D01*
X0055503Y0049437D01*
X0055503Y0049442D01*
X0055504Y0049495D01*
X0055504Y0049500D01*
X0055504Y0049505D01*
X0055503Y0049558D01*
X0055503Y0049563D01*
X0055503Y0049567D01*
X0055500Y0049621D01*
X0055500Y0049625D01*
X0055500Y0049630D01*
X0055495Y0049683D01*
X0055494Y0049688D01*
X0055494Y0049692D01*
X0055487Y0049745D01*
X0055486Y0049750D01*
X0055486Y0049754D01*
X0055477Y0049807D01*
X0055476Y0049812D01*
X0055476Y0049816D01*
X0055465Y0049868D01*
X0055464Y0049873D01*
X0055463Y0049877D01*
X0055451Y0049929D01*
X0055450Y0049934D01*
X0055449Y0049938D01*
X0055435Y0049990D01*
X0055433Y0049994D01*
X0055432Y0049999D01*
X0055416Y0050050D01*
X0055415Y0050054D01*
X0055413Y0050058D01*
X0055395Y0050109D01*
X0055394Y0050113D01*
X0055392Y0050117D01*
X0055373Y0050167D01*
X0055371Y0050171D01*
X0055369Y0050176D01*
X0055348Y0050225D01*
X0055346Y0050229D01*
X0055344Y0050233D01*
X0055321Y0050281D01*
X0055319Y0050285D01*
X0055317Y0050289D01*
X0055292Y0050337D01*
X0055290Y0050341D01*
X0055288Y0050345D01*
X0055261Y0050391D01*
X0055259Y0050395D01*
X0055257Y0050399D01*
X0055228Y0050445D01*
X0055226Y0050448D01*
X0055223Y0050452D01*
X0055194Y0050497D01*
X0055191Y0050501D01*
X0055189Y0050504D01*
X0055157Y0050548D01*
X0055154Y0050551D01*
X0055152Y0050555D01*
X0055119Y0050597D01*
X0055116Y0050601D01*
X0055113Y0050604D01*
X0055079Y0050645D01*
X0055076Y0050649D01*
X0055073Y0050652D01*
X0055037Y0050692D01*
X0055034Y0050695D01*
X0055031Y0050699D01*
X0054994Y0050737D01*
X0054990Y0050740D01*
X0054987Y0050744D01*
X0054949Y0050781D01*
X0054945Y0050784D01*
X0054942Y0050787D01*
X0054902Y0050823D01*
X0054899Y0050826D01*
X0054895Y0050829D01*
X0054854Y0050863D01*
X0054851Y0050866D01*
X0054847Y0050869D01*
X0054805Y0050902D01*
X0054801Y0050904D01*
X0054798Y0050907D01*
X0054754Y0050939D01*
X0054751Y0050941D01*
X0054747Y0050944D01*
X0054702Y0050973D01*
X0054698Y0050976D01*
X0054695Y0050978D01*
X0054649Y0051007D01*
X0054645Y0051009D01*
X0054641Y0051011D01*
X0054595Y0051038D01*
X0054591Y0051040D01*
X0054587Y0051042D01*
X0054539Y0051067D01*
X0054535Y0051069D01*
X0054531Y0051071D01*
X0054483Y0051094D01*
X0054479Y0051096D01*
X0054475Y0051098D01*
X0054426Y0051119D01*
X0054421Y0051121D01*
X0054417Y0051123D01*
X0054367Y0051142D01*
X0054363Y0051144D01*
X0054359Y0051145D01*
X0054308Y0051163D01*
X0054304Y0051165D01*
X0054300Y0051166D01*
X0054249Y0051182D01*
X0054244Y0051183D01*
X0054240Y0051185D01*
X0054188Y0051199D01*
X0054184Y0051200D01*
X0054179Y0051201D01*
X0054127Y0051213D01*
X0054123Y0051214D01*
X0054118Y0051215D01*
X0054066Y0051226D01*
X0054062Y0051226D01*
X0054057Y0051227D01*
X0054004Y0051236D01*
X0054000Y0051236D01*
X0053995Y0051237D01*
X0053942Y0051244D01*
X0053938Y0051244D01*
X0053933Y0051245D01*
X0053880Y0051250D01*
X0053875Y0051250D01*
X0053871Y0051250D01*
X0053817Y0051253D01*
X0053813Y0051253D01*
X0053808Y0051253D01*
X0053755Y0051254D01*
X0053752Y0051254D01*
X0053750Y0051254D01*
X0053748Y0051254D01*
X0053745Y0051254D01*
X0053692Y0051253D01*
X0053687Y0051253D01*
X0053683Y0051253D01*
X0053629Y0051250D01*
X0053625Y0051250D01*
X0053620Y0051250D01*
X0053567Y0051245D01*
X0053562Y0051244D01*
X0053558Y0051244D01*
X0053505Y0051237D01*
X0053500Y0051236D01*
X0053496Y0051236D01*
X0053443Y0051227D01*
X0053438Y0051226D01*
X0053434Y0051226D01*
X0053382Y0051215D01*
X0053377Y0051214D01*
X0053373Y0051213D01*
X0053321Y0051201D01*
X0053316Y0051200D01*
X0053312Y0051199D01*
X0053260Y0051185D01*
X0053256Y0051183D01*
X0053251Y0051182D01*
X0053200Y0051166D01*
X0053196Y0051165D01*
X0053192Y0051163D01*
X0053141Y0051145D01*
X0053137Y0051144D01*
X0053133Y0051142D01*
X0053083Y0051123D01*
X0053079Y0051121D01*
X0053074Y0051119D01*
X0053025Y0051098D01*
X0053021Y0051096D01*
X0053017Y0051094D01*
X0052969Y0051071D01*
X0052965Y0051069D01*
X0052961Y0051067D01*
X0052913Y0051042D01*
X0052909Y0051040D01*
X0052905Y0051038D01*
X0052859Y0051011D01*
X0052855Y0051009D01*
X0052851Y0051007D01*
X0052805Y0050978D01*
X0052802Y0050976D01*
X0052798Y0050973D01*
X0052753Y0050944D01*
X0052749Y0050941D01*
X0052746Y0050939D01*
X0052702Y0050907D01*
X0052699Y0050904D01*
X0052695Y0050902D01*
X0052653Y0050869D01*
X0052649Y0050866D01*
X0052646Y0050863D01*
X0052605Y0050829D01*
X0052601Y0050826D01*
X0052598Y0050823D01*
X0052558Y0050787D01*
X0052555Y0050784D01*
X0052551Y0050781D01*
X0052513Y0050744D01*
X0052510Y0050740D01*
X0052506Y0050737D01*
X0052469Y0050699D01*
X0052466Y0050695D01*
X0052463Y0050692D01*
X0052427Y0050652D01*
X0052424Y0050649D01*
X0052421Y0050645D01*
X0052387Y0050604D01*
X0052384Y0050601D01*
X0052381Y0050597D01*
X0052348Y0050555D01*
X0052346Y0050551D01*
X0052343Y0050548D01*
X0052311Y0050504D01*
X0052309Y0050501D01*
X0052306Y0050497D01*
X0052277Y0050452D01*
X0052274Y0050448D01*
X0052272Y0050445D01*
X0052243Y0050399D01*
X0052241Y0050395D01*
X0052239Y0050391D01*
X0052212Y0050345D01*
X0052210Y0050341D01*
X0052208Y0050337D01*
X0052183Y0050289D01*
X0052181Y0050285D01*
X0052179Y0050281D01*
X0052160Y0050241D01*
X0052155Y0050279D01*
X0052141Y0050390D01*
X0052124Y0050500D01*
X0052105Y0050610D01*
X0052084Y0050720D01*
X0052061Y0050829D01*
X0052037Y0050938D01*
X0052010Y0051047D01*
X0051981Y0051155D01*
X0051951Y0051262D01*
X0051918Y0051369D01*
X0051884Y0051475D01*
X0051848Y0051581D01*
X0051810Y0051686D01*
X0051770Y0051790D01*
X0051728Y0051893D01*
X0051685Y0051996D01*
X0051639Y0052098D01*
X0051592Y0052199D01*
X0051543Y0052300D01*
X0051492Y0052399D01*
X0051439Y0052497D01*
X0051385Y0052595D01*
X0051329Y0052691D01*
X0051271Y0052787D01*
X0051211Y0052881D01*
X0051150Y0052975D01*
X0051087Y0053067D01*
X0051023Y0053158D01*
X0050957Y0053248D01*
X0050889Y0053337D01*
X0050820Y0053424D01*
X0050749Y0053511D01*
X0050677Y0053596D01*
X0050603Y0053679D01*
X0050527Y0053762D01*
X0050451Y0053843D01*
X0050372Y0053922D01*
X0050293Y0054001D01*
X0050212Y0054077D01*
X0050129Y0054153D01*
X0050046Y0054227D01*
X0049961Y0054299D01*
X0049874Y0054370D01*
X0049787Y0054439D01*
X0049698Y0054507D01*
X0049608Y0054573D01*
X0049517Y0054637D01*
X0049425Y0054700D01*
X0049331Y0054761D01*
X0049237Y0054821D01*
X0049141Y0054879D01*
X0049045Y0054935D01*
X0048947Y0054989D01*
X0048849Y0055042D01*
X0048750Y0055093D01*
X0048649Y0055142D01*
X0048548Y0055189D01*
X0048446Y0055235D01*
X0048343Y0055278D01*
X0048240Y0055320D01*
X0048136Y0055360D01*
X0048031Y0055398D01*
X0047925Y0055434D01*
X0047819Y0055468D01*
X0047712Y0055501D01*
X0047605Y0055531D01*
X0047497Y0055560D01*
X0047388Y0055587D01*
X0047279Y0055611D01*
X0047170Y0055634D01*
X0047060Y0055655D01*
X0046950Y0055674D01*
X0046840Y0055691D01*
X0046729Y0055705D01*
X0046619Y0055718D01*
X0046507Y0055729D01*
X0046396Y0055738D01*
X0046285Y0055745D01*
X0046173Y0055750D01*
X0046062Y0055753D01*
X0045950Y0055754D01*
D02*
G37*
G36*
X0080690Y0050554D02*
X0079790D01*
X0079744Y0050553D01*
X0079698Y0050550D01*
X0079652Y0050545D01*
X0079607Y0050538D01*
X0079562Y0050529D01*
X0079517Y0050518D01*
X0079473Y0050505D01*
X0079429Y0050491D01*
X0079387Y0050474D01*
X0079344Y0050455D01*
X0079303Y0050435D01*
X0079263Y0050413D01*
X0079224Y0050389D01*
X0079185Y0050364D01*
X0079148Y0050336D01*
X0079112Y0050308D01*
X0079078Y0050277D01*
X0079045Y0050245D01*
X0079013Y0050212D01*
X0078982Y0050178D01*
X0078954Y0050142D01*
X0078926Y0050105D01*
X0078901Y0050066D01*
X0078877Y0050027D01*
X0078855Y0049987D01*
X0078835Y0049946D01*
X0078816Y0049903D01*
X0078799Y0049861D01*
X0078785Y0049817D01*
X0078772Y0049773D01*
X0078761Y0049728D01*
X0078752Y0049683D01*
X0078745Y0049638D01*
X0078740Y0049592D01*
X0078737Y0049546D01*
X0078736Y0049500D01*
X0078737Y0049454D01*
X0078740Y0049408D01*
X0078745Y0049362D01*
X0078752Y0049317D01*
X0078761Y0049272D01*
X0078772Y0049227D01*
X0078785Y0049183D01*
X0078799Y0049139D01*
X0078816Y0049097D01*
X0078835Y0049054D01*
X0078855Y0049013D01*
X0078877Y0048973D01*
X0078901Y0048934D01*
X0078926Y0048895D01*
X0078954Y0048858D01*
X0078982Y0048822D01*
X0079013Y0048788D01*
X0079045Y0048755D01*
X0079078Y0048723D01*
X0079112Y0048692D01*
X0079148Y0048664D01*
X0079185Y0048636D01*
X0079224Y0048611D01*
X0079263Y0048587D01*
X0079303Y0048565D01*
X0079344Y0048545D01*
X0079387Y0048526D01*
X0079429Y0048509D01*
X0079473Y0048495D01*
X0079517Y0048482D01*
X0079562Y0048471D01*
X0079607Y0048462D01*
X0079652Y0048455D01*
X0079698Y0048450D01*
X0079744Y0048447D01*
X0079790Y0048446D01*
X0080690D01*
X0080736Y0048447D01*
X0080782Y0048450D01*
X0080828Y0048455D01*
X0080873Y0048462D01*
X0080918Y0048471D01*
X0080963Y0048482D01*
X0081007Y0048495D01*
X0081051Y0048509D01*
X0081093Y0048526D01*
X0081136Y0048545D01*
X0081177Y0048565D01*
X0081217Y0048587D01*
X0081256Y0048611D01*
X0081295Y0048636D01*
X0081332Y0048664D01*
X0081368Y0048692D01*
X0081402Y0048723D01*
X0081435Y0048755D01*
X0081467Y0048788D01*
X0081498Y0048822D01*
X0081526Y0048858D01*
X0081554Y0048895D01*
X0081579Y0048934D01*
X0081603Y0048973D01*
X0081625Y0049013D01*
X0081645Y0049054D01*
X0081664Y0049097D01*
X0081681Y0049139D01*
X0081695Y0049183D01*
X0081708Y0049227D01*
X0081719Y0049272D01*
X0081728Y0049317D01*
X0081735Y0049362D01*
X0081740Y0049408D01*
X0081743Y0049454D01*
X0081744Y0049500D01*
X0081743Y0049546D01*
X0081740Y0049592D01*
X0081735Y0049638D01*
X0081728Y0049683D01*
X0081719Y0049728D01*
X0081708Y0049773D01*
X0081695Y0049817D01*
X0081681Y0049861D01*
X0081664Y0049903D01*
X0081645Y0049946D01*
X0081625Y0049987D01*
X0081603Y0050027D01*
X0081579Y0050066D01*
X0081554Y0050105D01*
X0081526Y0050142D01*
X0081498Y0050178D01*
X0081467Y0050212D01*
X0081435Y0050245D01*
X0081402Y0050277D01*
X0081368Y0050308D01*
X0081332Y0050336D01*
X0081295Y0050364D01*
X0081256Y0050389D01*
X0081217Y0050413D01*
X0081177Y0050435D01*
X0081136Y0050455D01*
X0081093Y0050474D01*
X0081051Y0050491D01*
X0081007Y0050505D01*
X0080963Y0050518D01*
X0080918Y0050529D01*
X0080873Y0050538D01*
X0080828Y0050545D01*
X0080782Y0050550D01*
X0080736Y0050553D01*
X0080690Y0050554D01*
D02*
G37*
G36*
X0035127Y0053539D02*
Y0052167D01*
X0036499D01*
X0036496Y0052201D01*
X0036489Y0052254D01*
X0036480Y0052307D01*
X0036470Y0052360D01*
X0036458Y0052412D01*
X0036443Y0052464D01*
X0036427Y0052515D01*
X0036409Y0052566D01*
X0036390Y0052616D01*
X0036368Y0052665D01*
X0036345Y0052713D01*
X0036320Y0052761D01*
X0036294Y0052808D01*
X0036265Y0052853D01*
X0036236Y0052898D01*
X0036204Y0052941D01*
X0036171Y0052984D01*
X0036137Y0053025D01*
X0036101Y0053065D01*
X0036064Y0053104D01*
X0036025Y0053141D01*
X0035985Y0053177D01*
X0035944Y0053211D01*
X0035901Y0053244D01*
X0035858Y0053276D01*
X0035813Y0053305D01*
X0035768Y0053334D01*
X0035721Y0053360D01*
X0035673Y0053385D01*
X0035625Y0053408D01*
X0035576Y0053430D01*
X0035526Y0053449D01*
X0035475Y0053467D01*
X0035424Y0053483D01*
X0035372Y0053498D01*
X0035320Y0053510D01*
X0035267Y0053520D01*
X0035214Y0053529D01*
X0035161Y0053536D01*
X0035127Y0053539D01*
D02*
G37*
G36*
X0074525Y0055139D02*
X0074494Y0055138D01*
X0074462Y0055136D01*
X0074431Y0055131D01*
X0074401Y0055125D01*
X0074370Y0055117D01*
X0074340Y0055108D01*
X0074311Y0055096D01*
X0074282Y0055084D01*
X0074255Y0055069D01*
X0074228Y0055053D01*
X0074202Y0055036D01*
X0074187Y0055025D01*
X0071985D01*
X0071956Y0055024D01*
X0071927Y0055021D01*
X0071898Y0055016D01*
X0071870Y0055010D01*
X0071842Y0055001D01*
X0071815Y0054991D01*
X0071788Y0054979D01*
X0071763Y0054965D01*
X0071738Y0054950D01*
X0071714Y0054933D01*
X0071692Y0054914D01*
X0071671Y0054894D01*
X0069370Y0052594D01*
X0069351Y0052591D01*
X0069321Y0052585D01*
X0069290Y0052577D01*
X0069260Y0052568D01*
X0069231Y0052556D01*
X0069202Y0052544D01*
X0069175Y0052529D01*
X0069148Y0052513D01*
X0069122Y0052496D01*
X0069096Y0052477D01*
X0069073Y0052457D01*
X0069050Y0052435D01*
X0069028Y0052412D01*
X0069008Y0052389D01*
X0068989Y0052363D01*
X0068972Y0052337D01*
X0068956Y0052310D01*
X0068941Y0052283D01*
X0068929Y0052254D01*
X0068917Y0052225D01*
X0068908Y0052195D01*
X0068900Y0052164D01*
X0068894Y0052134D01*
X0068889Y0052103D01*
X0068887Y0052071D01*
X0068886Y0052040D01*
X0068887Y0052009D01*
X0068889Y0051977D01*
X0068894Y0051946D01*
X0068900Y0051916D01*
X0068908Y0051885D01*
X0068917Y0051855D01*
X0068929Y0051826D01*
X0068941Y0051797D01*
X0068956Y0051770D01*
X0068972Y0051743D01*
X0068989Y0051717D01*
X0069008Y0051691D01*
X0069028Y0051667D01*
X0069050Y0051645D01*
X0069073Y0051623D01*
X0069096Y0051603D01*
X0069122Y0051584D01*
X0069148Y0051567D01*
X0069175Y0051551D01*
X0069202Y0051536D01*
X0069231Y0051524D01*
X0069260Y0051512D01*
X0069290Y0051503D01*
X0069321Y0051495D01*
X0069351Y0051489D01*
X0069382Y0051484D01*
X0069414Y0051482D01*
X0069445Y0051481D01*
X0069476Y0051482D01*
X0069508Y0051484D01*
X0069539Y0051489D01*
X0069569Y0051495D01*
X0069600Y0051503D01*
X0069630Y0051512D01*
X0069659Y0051524D01*
X0069688Y0051536D01*
X0069715Y0051551D01*
X0069742Y0051567D01*
X0069768Y0051584D01*
X0069794Y0051603D01*
X0069817Y0051623D01*
X0069840Y0051645D01*
X0069862Y0051667D01*
X0069882Y0051691D01*
X0069901Y0051717D01*
X0069918Y0051743D01*
X0069934Y0051770D01*
X0069949Y0051797D01*
X0069961Y0051826D01*
X0069973Y0051855D01*
X0069982Y0051885D01*
X0069990Y0051916D01*
X0069996Y0051946D01*
X0069999Y0051965D01*
X0072169Y0054135D01*
X0074187D01*
X0074202Y0054124D01*
X0074228Y0054107D01*
X0074255Y0054091D01*
X0074282Y0054076D01*
X0074311Y0054064D01*
X0074340Y0054052D01*
X0074370Y0054043D01*
X0074401Y0054035D01*
X0074431Y0054029D01*
X0074462Y0054024D01*
X0074494Y0054022D01*
X0074525Y0054021D01*
X0074556Y0054022D01*
X0074588Y0054024D01*
X0074619Y0054029D01*
X0074649Y0054035D01*
X0074680Y0054043D01*
X0074710Y0054052D01*
X0074739Y0054064D01*
X0074768Y0054076D01*
X0074795Y0054091D01*
X0074822Y0054107D01*
X0074848Y0054124D01*
X0074874Y0054143D01*
X0074897Y0054163D01*
X0074920Y0054185D01*
X0074942Y0054208D01*
X0074962Y0054231D01*
X0074981Y0054257D01*
X0074998Y0054283D01*
X0075014Y0054310D01*
X0075029Y0054337D01*
X0075041Y0054366D01*
X0075053Y0054395D01*
X0075062Y0054425D01*
X0075070Y0054456D01*
X0075076Y0054486D01*
X0075081Y0054517D01*
X0075083Y0054549D01*
X0075084Y0054580D01*
X0075083Y0054611D01*
X0075081Y0054643D01*
X0075076Y0054674D01*
X0075070Y0054704D01*
X0075062Y0054735D01*
X0075053Y0054765D01*
X0075041Y0054794D01*
X0075029Y0054823D01*
X0075014Y0054850D01*
X0074998Y0054877D01*
X0074981Y0054903D01*
X0074962Y0054929D01*
X0074942Y0054952D01*
X0074920Y0054975D01*
X0074897Y0054997D01*
X0074874Y0055017D01*
X0074848Y0055036D01*
X0074822Y0055053D01*
X0074795Y0055069D01*
X0074768Y0055084D01*
X0074739Y0055096D01*
X0074710Y0055108D01*
X0074680Y0055117D01*
X0074649Y0055125D01*
X0074619Y0055131D01*
X0074588Y0055136D01*
X0074556Y0055138D01*
X0074525Y0055139D01*
D02*
G37*
G36*
X0034873Y0053539D02*
X0034839Y0053536D01*
X0034786Y0053529D01*
X0034733Y0053520D01*
X0034680Y0053510D01*
X0034628Y0053498D01*
X0034576Y0053483D01*
X0034525Y0053467D01*
X0034474Y0053449D01*
X0034424Y0053430D01*
X0034375Y0053408D01*
X0034327Y0053385D01*
X0034279Y0053360D01*
X0034232Y0053334D01*
X0034187Y0053305D01*
X0034142Y0053276D01*
X0034099Y0053244D01*
X0034056Y0053211D01*
X0034015Y0053177D01*
X0033975Y0053141D01*
X0033936Y0053104D01*
X0033899Y0053065D01*
X0033863Y0053025D01*
X0033829Y0052984D01*
X0033796Y0052941D01*
X0033764Y0052898D01*
X0033735Y0052853D01*
X0033706Y0052808D01*
X0033680Y0052761D01*
X0033655Y0052713D01*
X0033632Y0052665D01*
X0033610Y0052616D01*
X0033591Y0052566D01*
X0033573Y0052515D01*
X0033557Y0052464D01*
X0033542Y0052412D01*
X0033530Y0052360D01*
X0033520Y0052307D01*
X0033511Y0052254D01*
X0033504Y0052201D01*
X0033501Y0052167D01*
X0034873D01*
Y0053539D01*
D02*
G37*
G36*
X0036499Y0051913D02*
X0035127D01*
Y0050541D01*
X0035161Y0050544D01*
X0035214Y0050551D01*
X0035267Y0050560D01*
X0035320Y0050570D01*
X0035372Y0050582D01*
X0035424Y0050597D01*
X0035475Y0050613D01*
X0035526Y0050631D01*
X0035576Y0050650D01*
X0035625Y0050672D01*
X0035673Y0050695D01*
X0035721Y0050720D01*
X0035768Y0050746D01*
X0035813Y0050775D01*
X0035858Y0050804D01*
X0035901Y0050836D01*
X0035944Y0050869D01*
X0035985Y0050903D01*
X0036025Y0050939D01*
X0036064Y0050976D01*
X0036101Y0051015D01*
X0036137Y0051055D01*
X0036171Y0051096D01*
X0036204Y0051139D01*
X0036236Y0051182D01*
X0036265Y0051227D01*
X0036294Y0051272D01*
X0036320Y0051319D01*
X0036345Y0051367D01*
X0036368Y0051415D01*
X0036390Y0051464D01*
X0036409Y0051514D01*
X0036427Y0051565D01*
X0036443Y0051616D01*
X0036458Y0051668D01*
X0036470Y0051720D01*
X0036480Y0051773D01*
X0036489Y0051826D01*
X0036496Y0051879D01*
X0036499Y0051913D01*
D02*
G37*
G36*
X0081490Y0053094D02*
X0078990D01*
X0078968Y0053093D01*
X0078946Y0053090D01*
X0078924Y0053086D01*
X0078903Y0053079D01*
X0078883Y0053070D01*
X0078863Y0053060D01*
X0078844Y0053048D01*
X0078827Y0053035D01*
X0078810Y0053020D01*
X0078795Y0053003D01*
X0078782Y0052986D01*
X0078770Y0052967D01*
X0078760Y0052947D01*
X0078751Y0052927D01*
X0078744Y0052906D01*
X0078740Y0052884D01*
X0078737Y0052862D01*
X0078736Y0052840D01*
Y0051240D01*
X0078737Y0051218D01*
X0078740Y0051196D01*
X0078744Y0051174D01*
X0078751Y0051153D01*
X0078760Y0051133D01*
X0078770Y0051113D01*
X0078782Y0051094D01*
X0078795Y0051077D01*
X0078810Y0051060D01*
X0078827Y0051045D01*
X0078844Y0051032D01*
X0078863Y0051020D01*
X0078883Y0051010D01*
X0078903Y0051001D01*
X0078924Y0050994D01*
X0078946Y0050990D01*
X0078968Y0050987D01*
X0078990Y0050986D01*
X0081490D01*
X0081512Y0050987D01*
X0081534Y0050990D01*
X0081556Y0050994D01*
X0081577Y0051001D01*
X0081597Y0051010D01*
X0081617Y0051020D01*
X0081636Y0051032D01*
X0081653Y0051045D01*
X0081670Y0051060D01*
X0081685Y0051077D01*
X0081698Y0051094D01*
X0081710Y0051113D01*
X0081720Y0051133D01*
X0081729Y0051153D01*
X0081736Y0051174D01*
X0081740Y0051196D01*
X0081743Y0051218D01*
X0081744Y0051240D01*
Y0052840D01*
X0081743Y0052862D01*
X0081740Y0052884D01*
X0081736Y0052906D01*
X0081729Y0052927D01*
X0081720Y0052947D01*
X0081710Y0052967D01*
X0081698Y0052986D01*
X0081685Y0053003D01*
X0081670Y0053020D01*
X0081653Y0053035D01*
X0081636Y0053048D01*
X0081617Y0053060D01*
X0081597Y0053070D01*
X0081577Y0053079D01*
X0081556Y0053086D01*
X0081534Y0053090D01*
X0081512Y0053093D01*
X0081490Y0053094D01*
D02*
G37*
%LPD*%
D10*
X0068810Y0029815D02*
X0070715Y0031720D01*
X0054205Y0029815D02*
X0068810D01*
X0052935Y0028545D02*
X0054205Y0029815D01*
X0046585Y0028545D02*
X0052935D01*
X0045950Y0029180D02*
X0046585Y0028545D01*
X0045950Y0029180D02*
Y0031720D01*
X0071985Y0054580D02*
X0074525D01*
X0069445Y0052040D02*
X0071985Y0054580D01*
X0059920Y0048230D02*
X0077700D01*
X0050700Y0031720D02*
Y0040610D01*
X0041244Y0031720D02*
Y0041880D01*
D11*
X0045950Y0064740D02*
Y0067280D01*
Y0064740D02*
X0046585Y0064105D01*
X0066905D01*
X0067540Y0063470D01*
Y0051405D02*
Y0063470D01*
Y0051405D02*
X0069445Y0049500D01*
D12*
X0073255Y0031720D02*
D03*
D13*
X0070715D02*
D03*
X0068175D02*
D03*
X0027672Y0036302D02*
D03*
X0031208Y0039838D02*
D03*
D14*
X0080240Y0046960D02*
D03*
Y0049500D02*
D03*
D15*
Y0052040D02*
D03*
D16*
X0035000Y0052040D02*
D03*
X0050950Y0062000D02*
D03*
X0045950D02*
D03*
X0040950D02*
D03*
D17*
X0035000Y0046960D02*
D03*
D18*
X0041244Y0031720D02*
D03*
X0050700D02*
D03*
X0045950Y0031720D02*
D03*
X0041244Y0067280D02*
D03*
X0050700D02*
D03*
X0045950Y0067280D02*
D03*
D19*
X0093575Y0029180D02*
D03*
Y0069820D02*
D03*
D20*
X0045950Y0049500D02*
D03*
D21*
X0053750D02*
D03*
D22*
X0029000Y0029000D02*
D03*
X0101000D02*
D03*
Y0070000D02*
D03*
X0029000D02*
D03*
D23*
X0069445Y0049500D02*
D03*
X0074525Y0054580D02*
D03*
X0069445Y0052040D02*
D03*
X0077700Y0048230D02*
D03*
X0059920D02*
D03*
X0050700Y0040610D02*
D03*
X0041244Y0041880D02*
D03*
M02*
