G04 Layer_Color=8150272*
%FSAX43Y43*%
%MOMM*%
G71*
G01*
G75*
%ADD37R,1.703X1.703*%
%ADD38C,1.703*%
%ADD39O,2.703X1.803*%
%ADD40R,2.703X1.803*%
%ADD41C,2.703*%
%ADD42R,2.703X2.703*%
%ADD43O,3.251X4.013*%
%ADD44R,1.727X1.727*%
%ADD45C,12.203*%
%ADD46C,3.203*%
%ADD47C,6.203*%
%ADD48C,0.813*%
G04:AMPARAMS|DCode=49|XSize=1.403mm|YSize=1.753mm|CornerRadius=0.402mm|HoleSize=0mm|Usage=FLASHONLY|Rotation=180.000|XOffset=0mm|YOffset=0mm|HoleType=Round|Shape=RoundedRectangle|*
%AMROUNDEDRECTD49*
21,1,1.403,0.950,0,0,180.0*
21,1,0.600,1.753,0,0,180.0*
1,1,0.803,-0.300,0.475*
1,1,0.803,0.300,0.475*
1,1,0.803,0.300,-0.475*
1,1,0.803,-0.300,-0.475*
%
%ADD49ROUNDEDRECTD49*%
%ADD50R,0.903X2.003*%
G04:AMPARAMS|DCode=51|XSize=2.103mm|YSize=3.503mm|CornerRadius=0mm|HoleSize=0mm|Usage=FLASHONLY|Rotation=180.000|XOffset=0mm|YOffset=0mm|HoleType=Round|Shape=Octagon|*
%AMOCTAGOND51*
4,1,8,0.526,-1.752,-0.526,-1.752,-1.052,-1.226,-1.052,1.226,-0.526,1.752,0.526,1.752,1.052,1.226,1.052,-1.226,0.526,-1.752,0.0*
%
%ADD51OCTAGOND51*%

%ADD52R,0.903X1.553*%
G04:AMPARAMS|DCode=53|XSize=1.803mm|YSize=2.903mm|CornerRadius=0.502mm|HoleSize=0mm|Usage=FLASHONLY|Rotation=270.000|XOffset=0mm|YOffset=0mm|HoleType=Round|Shape=RoundedRectangle|*
%AMROUNDEDRECTD53*
21,1,1.803,1.900,0,0,270.0*
21,1,0.800,2.903,0,0,270.0*
1,1,1.003,-0.950,-0.400*
1,1,1.003,-0.950,0.400*
1,1,1.003,0.950,0.400*
1,1,1.003,0.950,-0.400*
%
%ADD53ROUNDEDRECTD53*%
G04:AMPARAMS|DCode=54|XSize=2.403mm|YSize=0.803mm|CornerRadius=0.252mm|HoleSize=0mm|Usage=FLASHONLY|Rotation=180.000|XOffset=0mm|YOffset=0mm|HoleType=Round|Shape=RoundedRectangle|*
%AMROUNDEDRECTD54*
21,1,2.403,0.300,0,0,180.0*
21,1,1.900,0.803,0,0,180.0*
1,1,0.503,-0.950,0.150*
1,1,0.503,0.950,0.150*
1,1,0.503,0.950,-0.150*
1,1,0.503,-0.950,-0.150*
%
%ADD54ROUNDEDRECTD54*%
%ADD55R,2.203X3.203*%
%ADD56R,1.703X4.703*%
D37*
X0073255Y0031720D02*
D03*
D38*
X0070715D02*
D03*
X0068175D02*
D03*
X0027672Y0036302D02*
D03*
X0031208Y0039838D02*
D03*
D39*
X0080240Y0046960D02*
D03*
Y0049500D02*
D03*
D40*
Y0052040D02*
D03*
D41*
X0035000Y0052040D02*
D03*
X0050950Y0062000D02*
D03*
X0045950D02*
D03*
X0040950D02*
D03*
D42*
X0035000Y0046960D02*
D03*
D43*
X0041244Y0031720D02*
D03*
X0050700D02*
D03*
X0045950Y0031720D02*
D03*
X0041244Y0067280D02*
D03*
X0050700D02*
D03*
X0045950Y0067280D02*
D03*
D44*
X0093575Y0029180D02*
D03*
Y0069820D02*
D03*
D45*
X0045950Y0049500D02*
D03*
D46*
X0053750D02*
D03*
D47*
X0029000Y0029000D02*
D03*
X0101000D02*
D03*
Y0070000D02*
D03*
X0029000D02*
D03*
D48*
X0069445Y0049500D02*
D03*
X0074525Y0054580D02*
D03*
X0069445Y0052040D02*
D03*
X0077700Y0048230D02*
D03*
X0059920D02*
D03*
X0050700Y0040610D02*
D03*
X0041244Y0041880D02*
D03*
D49*
X0057165Y0035412D02*
D03*
X0058865D02*
D03*
X0072835D02*
D03*
X0071135D02*
D03*
X0036640Y0070455D02*
D03*
X0034940D02*
D03*
X0036640Y0067280D02*
D03*
X0034940D02*
D03*
X0071135Y0049500D02*
D03*
X0072835D02*
D03*
X0071135Y0052040D02*
D03*
X0072835D02*
D03*
X0072835Y0054580D02*
D03*
X0071135D02*
D03*
X0071135Y0057120D02*
D03*
X0072835D02*
D03*
X0057165Y0050770D02*
D03*
X0058865D02*
D03*
D50*
X0065000Y0035637D02*
D03*
D51*
X0065000Y0038188D02*
D03*
D52*
X0066500Y0035412D02*
D03*
X0063500D02*
D03*
D53*
X0101195Y0038810D02*
D03*
Y0042410D02*
D03*
X0097385Y0038810D02*
D03*
Y0042410D02*
D03*
X0093575Y0038810D02*
D03*
Y0042410D02*
D03*
X0089765Y0038810D02*
D03*
Y0042410D02*
D03*
X0085955Y0038810D02*
D03*
Y0042410D02*
D03*
Y0056590D02*
D03*
Y0060190D02*
D03*
X0089765Y0056590D02*
D03*
Y0060190D02*
D03*
X0093575Y0056590D02*
D03*
Y0060190D02*
D03*
X0097385Y0056590D02*
D03*
Y0060190D02*
D03*
X0101195Y0056590D02*
D03*
Y0060190D02*
D03*
D54*
X0062400Y0053310D02*
D03*
Y0052040D02*
D03*
Y0050770D02*
D03*
Y0049500D02*
D03*
Y0048230D02*
D03*
Y0046960D02*
D03*
Y0045690D02*
D03*
X0067600D02*
D03*
Y0046960D02*
D03*
Y0048230D02*
D03*
Y0049500D02*
D03*
Y0050770D02*
D03*
Y0052040D02*
D03*
Y0053310D02*
D03*
D55*
X0035000Y0036165D02*
D03*
Y0041245D02*
D03*
D56*
X0029440Y0035070D02*
D03*
Y0041070D02*
D03*
M02*
