G04 Layer_Color=20142*
%FSAX43Y43*%
%MOMM*%
G71*
G01*
G75*
%ADD14C,11.203*%
%ADD15C,10.203*%
%ADD16C,6.203*%
G36*
X0089350Y0090552D02*
X0089258Y0090555D01*
X0088539Y0090563D01*
Y0090559D01*
Y0090555D01*
Y0090544D01*
Y0090530D01*
X0088536Y0090511D01*
Y0090489D01*
Y0090459D01*
Y0090426D01*
X0088532Y0090393D01*
Y0090348D01*
Y0090304D01*
Y0090252D01*
X0088528Y0090200D01*
Y0090137D01*
Y0090074D01*
Y0090004D01*
Y0090000D01*
Y0089989D01*
Y0089970D01*
Y0089944D01*
Y0089915D01*
Y0089881D01*
Y0089841D01*
Y0089800D01*
X0088532Y0089707D01*
Y0089611D01*
X0088536Y0089515D01*
X0088539Y0089422D01*
X0089024Y0089430D01*
X0089239Y0089433D01*
X0089287D01*
X0089324Y0089430D01*
X0089339Y0089426D01*
X0089354Y0089422D01*
X0089358Y0089419D01*
X0089369Y0089407D01*
X0089380Y0089393D01*
X0089384Y0089363D01*
Y0089359D01*
Y0089352D01*
X0089380Y0089341D01*
X0089369Y0089326D01*
X0089358Y0089315D01*
X0089339Y0089304D01*
X0089313Y0089296D01*
X0089276Y0089293D01*
X0089158D01*
X0088776Y0089300D01*
X0088158Y0089304D01*
X0087517Y0089300D01*
X0087065Y0089293D01*
X0087032D01*
X0087006Y0089300D01*
X0086984Y0089307D01*
X0086980Y0089311D01*
X0086973Y0089319D01*
X0086965Y0089337D01*
X0086962Y0089363D01*
Y0089370D01*
X0086965Y0089385D01*
X0086973Y0089404D01*
X0086988Y0089419D01*
X0086991Y0089422D01*
X0087006Y0089426D01*
X0087032Y0089430D01*
X0087051Y0089433D01*
X0087217D01*
X0088084Y0089422D01*
X0088406D01*
Y0089489D01*
X0088417Y0089826D01*
X0088406Y0090563D01*
X0087928D01*
X0086995Y0090552D01*
Y0091611D01*
X0088487Y0091600D01*
X0088884Y0091607D01*
X0089247D01*
X0089350Y0091611D01*
Y0090552D01*
D02*
G37*
G36*
X0071140Y0098040D02*
X0071540Y0098037D01*
X0071996D01*
X0072688Y0098040D01*
X0072840Y0098037D01*
Y0096989D01*
X0072477Y0096996D01*
X0071903Y0097000D01*
X0071485D01*
X0070596Y0096992D01*
X0070592Y0096870D01*
X0070607Y0096129D01*
Y0095996D01*
Y0095992D01*
Y0095981D01*
X0070604Y0095963D01*
X0070600Y0095944D01*
X0070592Y0095926D01*
X0070581Y0095907D01*
X0070566Y0095896D01*
X0070544Y0095892D01*
X0070537D01*
X0070518Y0095900D01*
X0070507Y0095907D01*
X0070496Y0095915D01*
X0070489Y0095929D01*
X0070485Y0095948D01*
Y0095952D01*
Y0095963D01*
Y0095974D01*
Y0095989D01*
Y0096007D01*
Y0096029D01*
Y0098044D01*
X0071140Y0098040D01*
D02*
G37*
G36*
X0088247Y0094388D02*
X0088284Y0094385D01*
X0088324Y0094377D01*
X0088373Y0094370D01*
X0088424Y0094359D01*
X0088480Y0094348D01*
X0088539Y0094329D01*
X0088602Y0094311D01*
X0088665Y0094285D01*
X0088728Y0094255D01*
X0088795Y0094222D01*
X0088858Y0094185D01*
X0088921Y0094140D01*
X0088924Y0094137D01*
X0088932Y0094133D01*
X0088943Y0094122D01*
X0088958Y0094111D01*
X0089002Y0094070D01*
X0089054Y0094022D01*
X0089113Y0093959D01*
X0089173Y0093881D01*
X0089232Y0093796D01*
X0089287Y0093703D01*
Y0093700D01*
X0089295Y0093692D01*
X0089298Y0093677D01*
X0089310Y0093659D01*
X0089317Y0093633D01*
X0089328Y0093603D01*
X0089343Y0093574D01*
X0089354Y0093537D01*
X0089380Y0093451D01*
X0089398Y0093359D01*
X0089413Y0093259D01*
X0089421Y0093151D01*
Y0093144D01*
Y0093129D01*
X0089417Y0093103D01*
Y0093066D01*
X0089410Y0093022D01*
X0089402Y0092970D01*
X0089391Y0092914D01*
X0089376Y0092852D01*
X0089358Y0092785D01*
X0089336Y0092714D01*
X0089306Y0092644D01*
X0089273Y0092570D01*
X0089232Y0092496D01*
X0089184Y0092422D01*
X0089132Y0092348D01*
X0089069Y0092277D01*
Y0092274D01*
X0089061Y0092270D01*
X0089043Y0092252D01*
X0089017Y0092226D01*
X0088984Y0092192D01*
X0088947Y0092163D01*
X0088910Y0092137D01*
X0088876Y0092118D01*
X0088861Y0092111D01*
X0088843D01*
X0088836Y0092115D01*
X0088821Y0092118D01*
X0088810Y0092129D01*
X0088806Y0092133D01*
X0088802Y0092140D01*
X0088799Y0092155D01*
X0088795Y0092174D01*
Y0092181D01*
X0088802Y0092200D01*
X0088810Y0092211D01*
X0088821Y0092226D01*
X0088836Y0092244D01*
X0088854Y0092259D01*
X0088858Y0092263D01*
X0088873Y0092274D01*
X0088899Y0092296D01*
X0088928Y0092322D01*
X0088961Y0092355D01*
X0089002Y0092396D01*
X0089043Y0092444D01*
X0089087Y0092500D01*
X0089128Y0092559D01*
X0089169Y0092626D01*
X0089210Y0092700D01*
X0089247Y0092777D01*
X0089273Y0092863D01*
X0089298Y0092951D01*
X0089313Y0093044D01*
X0089317Y0093144D01*
Y0093148D01*
Y0093155D01*
Y0093166D01*
Y0093185D01*
X0089313Y0093226D01*
X0089306Y0093274D01*
X0088080Y0093285D01*
X0087039Y0093277D01*
Y0093274D01*
Y0093266D01*
X0087036Y0093251D01*
Y0093237D01*
X0087032Y0093196D01*
X0087028Y0093148D01*
Y0093144D01*
Y0093140D01*
Y0093129D01*
Y0093114D01*
X0087032Y0093077D01*
X0087036Y0093029D01*
X0087043Y0092970D01*
X0087054Y0092907D01*
X0087069Y0092840D01*
X0087091Y0092774D01*
X0087095Y0092770D01*
X0087099Y0092755D01*
X0087110Y0092729D01*
X0087125Y0092700D01*
X0087143Y0092663D01*
X0087165Y0092618D01*
X0087195Y0092570D01*
X0087228Y0092518D01*
X0087269Y0092466D01*
X0087313Y0092411D01*
X0087362Y0092355D01*
X0087417Y0092303D01*
X0087476Y0092248D01*
X0087543Y0092200D01*
X0087617Y0092155D01*
X0087695Y0092115D01*
X0087699D01*
X0087702Y0092111D01*
X0087713Y0092107D01*
X0087728Y0092100D01*
X0087765Y0092085D01*
X0087813Y0092070D01*
X0087869Y0092052D01*
X0087932Y0092033D01*
X0088002Y0092022D01*
X0088073Y0092011D01*
Y0092907D01*
Y0092911D01*
Y0092926D01*
Y0092944D01*
Y0092970D01*
X0088076Y0092992D01*
Y0093014D01*
Y0093037D01*
X0088080Y0093048D01*
X0088084Y0093051D01*
X0088091Y0093059D01*
X0088106Y0093066D01*
X0088128Y0093070D01*
X0088136D01*
X0088147Y0093066D01*
X0088158Y0093059D01*
X0088165Y0093051D01*
X0088176Y0093037D01*
X0088180Y0093014D01*
X0088184Y0092989D01*
Y0092885D01*
Y0091892D01*
X0088162D01*
X0088136Y0091896D01*
X0088099Y0091900D01*
X0088054Y0091903D01*
X0088002Y0091911D01*
X0087947Y0091922D01*
X0087884Y0091937D01*
X0087817Y0091955D01*
X0087747Y0091978D01*
X0087676Y0092003D01*
X0087606Y0092037D01*
X0087532Y0092074D01*
X0087462Y0092115D01*
X0087391Y0092166D01*
X0087325Y0092222D01*
X0087321Y0092226D01*
X0087317Y0092229D01*
X0087306Y0092240D01*
X0087295Y0092252D01*
X0087258Y0092292D01*
X0087217Y0092340D01*
X0087169Y0092403D01*
X0087121Y0092474D01*
X0087073Y0092555D01*
X0087028Y0092644D01*
Y0092648D01*
X0087025Y0092655D01*
X0087017Y0092666D01*
X0087014Y0092685D01*
X0087006Y0092707D01*
X0086995Y0092733D01*
X0086988Y0092763D01*
X0086976Y0092796D01*
X0086958Y0092874D01*
X0086939Y0092959D01*
X0086928Y0093051D01*
X0086925Y0093148D01*
Y0093151D01*
Y0093159D01*
Y0093170D01*
Y0093189D01*
X0086928Y0093207D01*
Y0093233D01*
X0086936Y0093288D01*
X0086947Y0093359D01*
X0086962Y0093437D01*
X0086980Y0093514D01*
X0087010Y0093600D01*
Y0093603D01*
X0087014Y0093611D01*
X0087017Y0093622D01*
X0087025Y0093637D01*
X0087047Y0093677D01*
X0087073Y0093729D01*
X0087106Y0093792D01*
X0087147Y0093855D01*
X0087195Y0093922D01*
X0087251Y0093988D01*
X0087254Y0093992D01*
X0087262Y0094000D01*
X0087273Y0094011D01*
X0087288Y0094025D01*
X0087306Y0094044D01*
X0087328Y0094062D01*
X0087388Y0094111D01*
X0087458Y0094162D01*
X0087539Y0094218D01*
X0087632Y0094266D01*
X0087732Y0094311D01*
X0087736D01*
X0087743Y0094314D01*
X0087754Y0094318D01*
X0087769Y0094322D01*
X0087791Y0094329D01*
X0087813Y0094337D01*
X0087873Y0094351D01*
X0087939Y0094366D01*
X0088013Y0094381D01*
X0088095Y0094388D01*
X0088176Y0094392D01*
X0088217D01*
X0088247Y0094388D01*
D02*
G37*
G36*
X0089350Y0097366D02*
X0089258Y0097370D01*
X0088539Y0097377D01*
Y0097373D01*
Y0097370D01*
Y0097358D01*
Y0097344D01*
X0088536Y0097325D01*
Y0097303D01*
Y0097273D01*
Y0097240D01*
X0088532Y0097207D01*
Y0097162D01*
Y0097118D01*
Y0097066D01*
X0088528Y0097014D01*
Y0096951D01*
Y0096888D01*
Y0096818D01*
Y0096814D01*
Y0096803D01*
Y0096784D01*
Y0096759D01*
Y0096729D01*
Y0096696D01*
Y0096655D01*
Y0096614D01*
X0088532Y0096521D01*
Y0096425D01*
X0088536Y0096329D01*
X0088539Y0096236D01*
X0089024Y0096244D01*
X0089239Y0096247D01*
X0089287D01*
X0089324Y0096244D01*
X0089339Y0096240D01*
X0089354Y0096236D01*
X0089358Y0096233D01*
X0089369Y0096222D01*
X0089380Y0096207D01*
X0089384Y0096177D01*
Y0096173D01*
Y0096166D01*
X0089380Y0096155D01*
X0089369Y0096140D01*
X0089358Y0096129D01*
X0089339Y0096118D01*
X0089313Y0096110D01*
X0089276Y0096107D01*
X0089158D01*
X0088776Y0096114D01*
X0088158Y0096118D01*
X0087517Y0096114D01*
X0087065Y0096107D01*
X0087032D01*
X0087006Y0096114D01*
X0086984Y0096122D01*
X0086980Y0096125D01*
X0086973Y0096133D01*
X0086965Y0096151D01*
X0086962Y0096177D01*
Y0096184D01*
X0086965Y0096199D01*
X0086973Y0096218D01*
X0086988Y0096233D01*
X0086991Y0096236D01*
X0087006Y0096240D01*
X0087032Y0096244D01*
X0087051Y0096247D01*
X0087217D01*
X0088084Y0096236D01*
X0088406D01*
Y0096303D01*
X0088417Y0096640D01*
X0088406Y0097377D01*
X0087928D01*
X0086995Y0097366D01*
Y0098425D01*
X0088487Y0098414D01*
X0088884Y0098421D01*
X0089247D01*
X0089350Y0098425D01*
Y0097366D01*
D02*
G37*
G36*
Y0095744D02*
Y0094688D01*
X0089228D01*
X0088284Y0094699D01*
X0086995Y0094688D01*
Y0095744D01*
X0088402Y0095733D01*
X0089265Y0095747D01*
X0089350Y0095744D01*
D02*
G37*
G36*
X0072840Y0057577D02*
Y0057573D01*
Y0057558D01*
Y0057536D01*
Y0057514D01*
Y0057488D01*
X0072837Y0057466D01*
Y0057447D01*
X0072833Y0057436D01*
Y0057432D01*
X0072829Y0057429D01*
X0072822Y0057414D01*
X0072803Y0057403D01*
X0072792Y0057395D01*
X0072770D01*
X0072748Y0057407D01*
X0072737Y0057414D01*
X0072729Y0057429D01*
X0072722Y0057447D01*
X0072718Y0057473D01*
Y0057484D01*
X0072729Y0058347D01*
X0072192Y0058358D01*
X0072189Y0058173D01*
X0072200Y0057566D01*
X0072203Y0057432D01*
Y0057429D01*
Y0057421D01*
Y0057407D01*
Y0057392D01*
X0072196Y0057362D01*
X0072192Y0057347D01*
X0072189Y0057336D01*
X0072185Y0057332D01*
X0072177Y0057321D01*
X0072163Y0057314D01*
X0072140Y0057310D01*
X0072129D01*
X0072118Y0057318D01*
X0072107Y0057325D01*
X0072096Y0057340D01*
X0072085Y0057358D01*
X0072077Y0057388D01*
X0072074Y0057425D01*
X0072077Y0057562D01*
X0072085Y0058358D01*
X0071785D01*
X0070596Y0058347D01*
X0070600Y0057762D01*
X0070607Y0057347D01*
Y0057344D01*
Y0057332D01*
X0070604Y0057314D01*
X0070600Y0057295D01*
X0070592Y0057277D01*
X0070581Y0057258D01*
X0070566Y0057247D01*
X0070544Y0057244D01*
X0070537D01*
X0070518Y0057251D01*
X0070496Y0057266D01*
X0070489Y0057277D01*
X0070485Y0057295D01*
Y0057299D01*
Y0057307D01*
Y0057318D01*
Y0057336D01*
Y0057362D01*
Y0057395D01*
Y0057440D01*
Y0059403D01*
X0070574D01*
X0071148Y0059399D01*
X0071766Y0059392D01*
X0072840Y0059403D01*
Y0057577D01*
D02*
G37*
G36*
X0072800Y0057221D02*
X0072822Y0057207D01*
X0072829Y0057195D01*
X0072833Y0057181D01*
Y0057177D01*
X0072837Y0057166D01*
Y0057155D01*
Y0057140D01*
X0072840Y0057121D01*
Y0057099D01*
Y0054981D01*
Y0054977D01*
Y0054962D01*
Y0054944D01*
X0072837Y0054922D01*
Y0054899D01*
X0072833Y0054881D01*
Y0054862D01*
X0072829Y0054851D01*
X0072826Y0054844D01*
X0072818Y0054833D01*
X0072800Y0054822D01*
X0072770Y0054814D01*
X0072763D01*
X0072751Y0054818D01*
X0072740Y0054825D01*
X0072729Y0054836D01*
X0072722Y0054851D01*
X0072714Y0054873D01*
X0072711Y0054903D01*
X0072718Y0055055D01*
X0072726Y0055451D01*
Y0055485D01*
X0072185Y0055492D01*
X0071670Y0055496D01*
X0070485Y0055492D01*
Y0056544D01*
X0071859Y0056533D01*
X0072326Y0056540D01*
X0072726Y0056544D01*
X0072718Y0056773D01*
X0072711Y0057099D01*
Y0057147D01*
Y0057151D01*
Y0057158D01*
X0072714Y0057173D01*
X0072718Y0057188D01*
X0072726Y0057203D01*
X0072737Y0057218D01*
X0072751Y0057225D01*
X0072770Y0057229D01*
X0072777D01*
X0072800Y0057221D01*
D02*
G37*
G36*
X0070841Y0061591D02*
X0070852Y0061588D01*
X0070866Y0061580D01*
X0070870Y0061576D01*
X0070878Y0061569D01*
X0070881Y0061554D01*
X0070885Y0061536D01*
Y0061532D01*
X0070878Y0061517D01*
X0070866Y0061495D01*
X0070852Y0061480D01*
X0070837Y0061465D01*
X0070829Y0061458D01*
X0070815Y0061443D01*
X0070789Y0061414D01*
X0070755Y0061376D01*
X0070718Y0061332D01*
X0070681Y0061277D01*
X0070644Y0061214D01*
X0070611Y0061147D01*
Y0061143D01*
X0070607Y0061139D01*
X0070604Y0061128D01*
X0070596Y0061114D01*
X0070585Y0061077D01*
X0070570Y0061028D01*
X0070552Y0060973D01*
X0070541Y0060910D01*
X0070529Y0060843D01*
X0070526Y0060777D01*
Y0060773D01*
Y0060769D01*
X0070529Y0060743D01*
X0070533Y0060714D01*
X0070541Y0060673D01*
X0070555Y0060636D01*
X0070578Y0060606D01*
X0070607Y0060580D01*
X0070626Y0060577D01*
X0070648Y0060573D01*
X0070663D01*
X0070678Y0060577D01*
X0070700Y0060580D01*
X0070726Y0060591D01*
X0070755Y0060603D01*
X0070789Y0060621D01*
X0070822Y0060643D01*
X0070826Y0060647D01*
X0070841Y0060658D01*
X0070870Y0060680D01*
X0070907Y0060714D01*
X0070963Y0060758D01*
X0070992Y0060784D01*
X0071029Y0060817D01*
X0071066Y0060851D01*
X0071111Y0060891D01*
X0071159Y0060936D01*
X0071211Y0060984D01*
X0071215Y0060988D01*
X0071226Y0060999D01*
X0071244Y0061017D01*
X0071270Y0061040D01*
X0071300Y0061065D01*
X0071337Y0061095D01*
X0071415Y0061165D01*
X0071500Y0061239D01*
X0071592Y0061314D01*
X0071674Y0061380D01*
X0071715Y0061410D01*
X0071748Y0061432D01*
X0071752D01*
X0071759Y0061439D01*
X0071770Y0061447D01*
X0071789Y0061454D01*
X0071807Y0061465D01*
X0071833Y0061480D01*
X0071892Y0061506D01*
X0071959Y0061532D01*
X0072033Y0061558D01*
X0072114Y0061573D01*
X0072192Y0061580D01*
X0072207D01*
X0072222Y0061576D01*
X0072244D01*
X0072270Y0061573D01*
X0072303Y0061565D01*
X0072374Y0061543D01*
X0072414Y0061528D01*
X0072459Y0061510D01*
X0072500Y0061488D01*
X0072544Y0061462D01*
X0072588Y0061428D01*
X0072629Y0061391D01*
X0072670Y0061347D01*
X0072711Y0061299D01*
X0072714Y0061295D01*
X0072718Y0061288D01*
X0072729Y0061269D01*
X0072740Y0061251D01*
X0072759Y0061221D01*
X0072774Y0061188D01*
X0072792Y0061151D01*
X0072811Y0061110D01*
X0072829Y0061062D01*
X0072848Y0061010D01*
X0072866Y0060954D01*
X0072881Y0060891D01*
X0072892Y0060828D01*
X0072903Y0060758D01*
X0072907Y0060688D01*
X0072911Y0060614D01*
Y0060610D01*
Y0060603D01*
Y0060584D01*
Y0060565D01*
X0072907Y0060540D01*
X0072903Y0060510D01*
X0072900Y0060477D01*
X0072896Y0060440D01*
X0072881Y0060362D01*
X0072863Y0060273D01*
X0072833Y0060180D01*
X0072792Y0060091D01*
X0072788Y0060088D01*
X0072785Y0060077D01*
X0072774Y0060058D01*
X0072763Y0060036D01*
X0072729Y0059988D01*
X0072688Y0059936D01*
X0072685Y0059932D01*
X0072677Y0059925D01*
X0072655Y0059903D01*
X0072622Y0059880D01*
X0072607Y0059873D01*
X0072592Y0059869D01*
X0072588D01*
X0072581Y0059873D01*
X0072566Y0059877D01*
X0072555Y0059888D01*
X0072551Y0059891D01*
X0072548Y0059899D01*
X0072544Y0059910D01*
X0072540Y0059925D01*
Y0059929D01*
X0072548Y0059947D01*
X0072563Y0059973D01*
X0072574Y0059991D01*
X0072592Y0060014D01*
X0072596Y0060017D01*
X0072607Y0060032D01*
X0072622Y0060051D01*
X0072644Y0060080D01*
X0072666Y0060114D01*
X0072692Y0060154D01*
X0072718Y0060203D01*
X0072740Y0060258D01*
X0072744Y0060266D01*
X0072751Y0060284D01*
X0072759Y0060314D01*
X0072770Y0060351D01*
X0072781Y0060395D01*
X0072792Y0060447D01*
X0072796Y0060499D01*
X0072800Y0060551D01*
Y0060554D01*
Y0060565D01*
X0072796Y0060580D01*
Y0060599D01*
X0072781Y0060647D01*
X0072774Y0060669D01*
X0072759Y0060691D01*
Y0060695D01*
X0072751Y0060699D01*
X0072733Y0060717D01*
X0072703Y0060736D01*
X0072685Y0060740D01*
X0072666Y0060743D01*
X0072651D01*
X0072637Y0060740D01*
X0072618Y0060736D01*
X0072592Y0060728D01*
X0072559Y0060714D01*
X0072526Y0060699D01*
X0072489Y0060677D01*
X0072485Y0060673D01*
X0072470Y0060662D01*
X0072448Y0060647D01*
X0072418Y0060625D01*
X0072381Y0060591D01*
X0072333Y0060554D01*
X0072281Y0060506D01*
X0072222Y0060451D01*
X0072214Y0060443D01*
X0072200Y0060428D01*
X0072170Y0060403D01*
X0072133Y0060369D01*
X0072092Y0060328D01*
X0072040Y0060284D01*
X0071985Y0060232D01*
X0071929Y0060180D01*
X0071807Y0060073D01*
X0071744Y0060021D01*
X0071685Y0059973D01*
X0071629Y0059929D01*
X0071577Y0059888D01*
X0071533Y0059854D01*
X0071492Y0059829D01*
X0071489D01*
X0071485Y0059825D01*
X0071474Y0059817D01*
X0071459Y0059810D01*
X0071422Y0059791D01*
X0071370Y0059766D01*
X0071315Y0059743D01*
X0071248Y0059725D01*
X0071181Y0059710D01*
X0071111Y0059706D01*
X0071085D01*
X0071052Y0059710D01*
X0071015Y0059717D01*
X0070966Y0059729D01*
X0070918Y0059743D01*
X0070863Y0059762D01*
X0070811Y0059791D01*
X0070803Y0059795D01*
X0070789Y0059806D01*
X0070763Y0059825D01*
X0070733Y0059854D01*
X0070696Y0059888D01*
X0070659Y0059929D01*
X0070622Y0059973D01*
X0070585Y0060028D01*
Y0060032D01*
X0070578Y0060040D01*
X0070570Y0060058D01*
X0070559Y0060080D01*
X0070544Y0060106D01*
X0070529Y0060140D01*
X0070515Y0060180D01*
X0070500Y0060221D01*
X0070485Y0060273D01*
X0070470Y0060325D01*
X0070455Y0060384D01*
X0070441Y0060443D01*
X0070429Y0060510D01*
X0070422Y0060580D01*
X0070418Y0060651D01*
X0070415Y0060728D01*
Y0060732D01*
Y0060747D01*
Y0060765D01*
X0070418Y0060791D01*
X0070422Y0060825D01*
X0070426Y0060862D01*
X0070429Y0060906D01*
X0070441Y0060954D01*
X0070463Y0061058D01*
X0070496Y0061169D01*
X0070518Y0061225D01*
X0070548Y0061284D01*
X0070578Y0061339D01*
X0070611Y0061395D01*
Y0061399D01*
X0070618Y0061402D01*
X0070633Y0061425D01*
X0070659Y0061458D01*
X0070689Y0061495D01*
X0070722Y0061532D01*
X0070759Y0061565D01*
X0070796Y0061588D01*
X0070811Y0061591D01*
X0070826Y0061595D01*
X0070829D01*
X0070841Y0061591D01*
D02*
G37*
G36*
X0071718Y0095785D02*
X0071744D01*
X0071777Y0095781D01*
X0071814Y0095774D01*
X0071855Y0095770D01*
X0071948Y0095752D01*
X0072051Y0095722D01*
X0072159Y0095685D01*
X0072266Y0095633D01*
X0072270Y0095629D01*
X0072281Y0095626D01*
X0072300Y0095615D01*
X0072326Y0095596D01*
X0072351Y0095578D01*
X0072389Y0095552D01*
X0072426Y0095522D01*
X0072463Y0095489D01*
X0072507Y0095452D01*
X0072548Y0095411D01*
X0072592Y0095367D01*
X0072637Y0095315D01*
X0072677Y0095259D01*
X0072718Y0095200D01*
X0072759Y0095137D01*
X0072792Y0095070D01*
Y0095067D01*
X0072796Y0095059D01*
X0072803Y0095044D01*
X0072811Y0095026D01*
X0072818Y0095004D01*
X0072829Y0094978D01*
X0072840Y0094948D01*
X0072851Y0094911D01*
X0072870Y0094833D01*
X0072892Y0094744D01*
X0072903Y0094644D01*
X0072911Y0094541D01*
Y0094537D01*
Y0094530D01*
Y0094515D01*
Y0094493D01*
X0072907Y0094470D01*
X0072903Y0094441D01*
X0072900Y0094407D01*
X0072896Y0094374D01*
X0072881Y0094293D01*
X0072863Y0094204D01*
X0072833Y0094111D01*
X0072792Y0094015D01*
X0072788Y0094011D01*
X0072785Y0094000D01*
X0072774Y0093978D01*
X0072759Y0093956D01*
X0072740Y0093922D01*
X0072718Y0093889D01*
X0072692Y0093848D01*
X0072663Y0093804D01*
X0072629Y0093759D01*
X0072588Y0093715D01*
X0072548Y0093667D01*
X0072500Y0093619D01*
X0072448Y0093574D01*
X0072392Y0093530D01*
X0072329Y0093485D01*
X0072266Y0093448D01*
X0072263Y0093444D01*
X0072255Y0093441D01*
X0072237Y0093433D01*
X0072218Y0093422D01*
X0072189Y0093411D01*
X0072159Y0093396D01*
X0072122Y0093382D01*
X0072081Y0093367D01*
X0072037Y0093352D01*
X0071989Y0093341D01*
X0071885Y0093315D01*
X0071770Y0093296D01*
X0071711Y0093289D01*
X0071603D01*
X0071577Y0093293D01*
X0071548Y0093296D01*
X0071518Y0093300D01*
X0071481Y0093304D01*
X0071403Y0093319D01*
X0071315Y0093341D01*
X0071222Y0093370D01*
X0071126Y0093411D01*
X0071122Y0093415D01*
X0071111Y0093419D01*
X0071089Y0093430D01*
X0071063Y0093444D01*
X0071033Y0093463D01*
X0070996Y0093485D01*
X0070959Y0093515D01*
X0070915Y0093548D01*
X0070870Y0093581D01*
X0070822Y0093622D01*
X0070774Y0093670D01*
X0070726Y0093719D01*
X0070681Y0093774D01*
X0070637Y0093833D01*
X0070592Y0093896D01*
X0070555Y0093963D01*
Y0093967D01*
X0070548Y0093974D01*
X0070544Y0093989D01*
X0070533Y0094011D01*
X0070522Y0094037D01*
X0070511Y0094067D01*
X0070500Y0094100D01*
X0070485Y0094137D01*
X0070459Y0094226D01*
X0070437Y0094322D01*
X0070422Y0094430D01*
X0070415Y0094541D01*
Y0094544D01*
Y0094555D01*
Y0094574D01*
X0070418Y0094596D01*
Y0094622D01*
X0070422Y0094659D01*
X0070429Y0094696D01*
X0070433Y0094737D01*
X0070455Y0094830D01*
X0070481Y0094933D01*
X0070522Y0095041D01*
X0070544Y0095092D01*
X0070574Y0095148D01*
X0070578Y0095152D01*
X0070585Y0095163D01*
X0070596Y0095185D01*
X0070615Y0095211D01*
X0070637Y0095241D01*
X0070663Y0095278D01*
X0070692Y0095318D01*
X0070729Y0095359D01*
X0070770Y0095404D01*
X0070815Y0095448D01*
X0070863Y0095492D01*
X0070918Y0095537D01*
X0070974Y0095581D01*
X0071037Y0095622D01*
X0071103Y0095659D01*
X0071174Y0095692D01*
X0071178D01*
X0071185Y0095696D01*
X0071196Y0095700D01*
X0071215Y0095707D01*
X0071237Y0095715D01*
X0071263Y0095722D01*
X0071326Y0095741D01*
X0071396Y0095759D01*
X0071481Y0095774D01*
X0071570Y0095785D01*
X0071663Y0095789D01*
X0071692D01*
X0071718Y0095785D01*
D02*
G37*
G36*
X0072840Y0092159D02*
X0072459Y0092011D01*
X0072451Y0092008D01*
X0072433Y0092000D01*
X0072403Y0091989D01*
X0072366Y0091974D01*
X0072318Y0091952D01*
X0072266Y0091930D01*
X0072203Y0091908D01*
X0072140Y0091878D01*
X0072003Y0091822D01*
X0071859Y0091759D01*
X0071792Y0091730D01*
X0071726Y0091704D01*
X0071663Y0091674D01*
X0071607Y0091648D01*
X0072192Y0091330D01*
X0072414Y0091211D01*
X0072559Y0091134D01*
X0072807Y0091000D01*
X0072811D01*
X0072818Y0090993D01*
X0072829Y0090989D01*
X0072844Y0090982D01*
X0072881Y0090960D01*
X0072918Y0090941D01*
X0072422Y0090686D01*
X0072418Y0090682D01*
X0072403Y0090674D01*
X0072381Y0090663D01*
X0072351Y0090648D01*
X0072311Y0090626D01*
X0072266Y0090604D01*
X0072218Y0090574D01*
X0072163Y0090545D01*
X0072103Y0090511D01*
X0072037Y0090474D01*
X0071900Y0090397D01*
X0071755Y0090315D01*
X0071607Y0090226D01*
X0071611D01*
X0071615Y0090223D01*
X0071637Y0090215D01*
X0071670Y0090200D01*
X0071718Y0090178D01*
X0071777Y0090156D01*
X0071844Y0090130D01*
X0071918Y0090097D01*
X0072000Y0090063D01*
X0072085Y0090030D01*
X0072177Y0089993D01*
X0072370Y0089915D01*
X0072563Y0089841D01*
X0072659Y0089804D01*
X0072751Y0089771D01*
X0072755D01*
X0072766Y0089767D01*
X0072777Y0089760D01*
X0072796Y0089752D01*
X0072829Y0089741D01*
X0072840Y0089734D01*
X0072851Y0089726D01*
X0072855Y0089723D01*
X0072863Y0089712D01*
X0072870Y0089693D01*
X0072874Y0089663D01*
Y0089656D01*
X0072870Y0089645D01*
X0072866Y0089623D01*
X0072855Y0089604D01*
X0072851Y0089600D01*
X0072844Y0089589D01*
X0072829Y0089582D01*
X0072811Y0089578D01*
X0072803Y0089582D01*
X0072788Y0089586D01*
X0072763Y0089597D01*
X0072744Y0089604D01*
X0072722Y0089612D01*
X0072696Y0089623D01*
X0072663Y0089637D01*
X0072629Y0089652D01*
X0072585Y0089671D01*
X0072540Y0089689D01*
X0072485Y0089715D01*
X0072259Y0089815D01*
X0070318Y0090671D01*
X0071118Y0091097D01*
X0071711Y0091430D01*
X0071229Y0091697D01*
X0070481Y0092100D01*
X0070318Y0092182D01*
X0071137Y0092515D01*
X0071852Y0092808D01*
X0071859Y0092811D01*
X0071874Y0092819D01*
X0071903Y0092830D01*
X0071940Y0092845D01*
X0071989Y0092863D01*
X0072044Y0092885D01*
X0072107Y0092911D01*
X0072174Y0092941D01*
X0072248Y0092974D01*
X0072322Y0093004D01*
X0072485Y0093078D01*
X0072651Y0093152D01*
X0072814Y0093226D01*
X0072840Y0093237D01*
Y0092159D01*
D02*
G37*
G36*
X0088715Y0053171D02*
Y0053167D01*
Y0053152D01*
Y0053130D01*
Y0053108D01*
Y0053082D01*
X0088712Y0053059D01*
Y0053041D01*
X0088708Y0053030D01*
Y0053026D01*
X0088704Y0053022D01*
X0088697Y0053008D01*
X0088678Y0052996D01*
X0088667Y0052989D01*
X0088645D01*
X0088623Y0053000D01*
X0088612Y0053008D01*
X0088604Y0053022D01*
X0088597Y0053041D01*
X0088593Y0053067D01*
Y0053078D01*
X0088604Y0053941D01*
X0088067Y0053952D01*
X0088064Y0053767D01*
X0088075Y0053159D01*
X0088078Y0053026D01*
Y0053022D01*
Y0053015D01*
Y0053000D01*
Y0052985D01*
X0088071Y0052956D01*
X0088067Y0052941D01*
X0088064Y0052930D01*
X0088060Y0052926D01*
X0088052Y0052915D01*
X0088038Y0052908D01*
X0088015Y0052904D01*
X0088004D01*
X0087993Y0052911D01*
X0087982Y0052919D01*
X0087971Y0052934D01*
X0087960Y0052952D01*
X0087952Y0052982D01*
X0087949Y0053019D01*
X0087952Y0053156D01*
X0087960Y0053952D01*
X0087660D01*
X0086471Y0053941D01*
X0086475Y0053356D01*
X0086482Y0052941D01*
Y0052937D01*
Y0052926D01*
X0086479Y0052908D01*
X0086475Y0052889D01*
X0086467Y0052871D01*
X0086456Y0052852D01*
X0086441Y0052841D01*
X0086419Y0052837D01*
X0086412D01*
X0086393Y0052845D01*
X0086371Y0052859D01*
X0086364Y0052871D01*
X0086360Y0052889D01*
Y0052893D01*
Y0052900D01*
Y0052911D01*
Y0052930D01*
Y0052956D01*
Y0052989D01*
Y0053034D01*
Y0054996D01*
X0086449D01*
X0087023Y0054993D01*
X0087641Y0054985D01*
X0088715Y0054996D01*
Y0053171D01*
D02*
G37*
G36*
X0121345Y0085719D02*
X0121387Y0085701D01*
X0121447Y0085671D01*
X0121453Y0085665D01*
X0121472Y0085659D01*
X0121508Y0085635D01*
X0121538Y0085623D01*
X0121568Y0085605D01*
X0121604Y0085581D01*
X0121652Y0085557D01*
X0121706Y0085526D01*
X0121766Y0085490D01*
X0121839Y0085448D01*
X0121917Y0085400D01*
X0122007Y0085352D01*
X0122103Y0085292D01*
X0124962Y0083589D01*
X0125341Y0083372D01*
X0121285Y0081128D01*
Y0083077D01*
X0121796Y0083348D01*
Y0084287D01*
Y0085111D01*
Y0085250D01*
X0121460Y0085436D01*
X0121453Y0085442D01*
X0121435Y0085448D01*
X0121405Y0085466D01*
X0121375Y0085484D01*
X0121315Y0085520D01*
X0121285Y0085538D01*
X0121267Y0085557D01*
X0121261Y0085563D01*
X0121249Y0085575D01*
X0121237Y0085605D01*
X0121231Y0085635D01*
Y0085641D01*
Y0085647D01*
X0121243Y0085677D01*
X0121267Y0085713D01*
X0121285Y0085719D01*
X0121309Y0085725D01*
X0121315D01*
X0121345Y0085719D01*
D02*
G37*
G36*
X0123541Y0070219D02*
X0123596Y0070206D01*
X0123656Y0070194D01*
X0123722Y0070176D01*
X0123794Y0070146D01*
X0123866Y0070104D01*
X0123872Y0070098D01*
X0123896Y0070080D01*
X0123933Y0070056D01*
X0123981Y0070014D01*
X0124029Y0069972D01*
X0124083Y0069912D01*
X0124137Y0069845D01*
X0124191Y0069767D01*
Y0069761D01*
X0124203Y0069749D01*
X0124215Y0069731D01*
X0124227Y0069701D01*
X0124245Y0069665D01*
X0124264Y0069629D01*
X0124282Y0069581D01*
X0124306Y0069527D01*
X0124348Y0069400D01*
X0124384Y0069262D01*
X0124408Y0069105D01*
X0124420Y0068937D01*
Y0068931D01*
Y0068919D01*
Y0068901D01*
Y0068877D01*
X0124414Y0068847D01*
Y0068804D01*
X0124402Y0068714D01*
X0124384Y0068606D01*
X0124354Y0068480D01*
X0124318Y0068347D01*
X0124270Y0068203D01*
Y0068197D01*
X0124264Y0068191D01*
X0124252Y0068155D01*
X0124227Y0068106D01*
X0124197Y0068052D01*
X0124161Y0067998D01*
X0124119Y0067950D01*
X0124071Y0067914D01*
X0124047Y0067908D01*
X0124023Y0067902D01*
X0124017D01*
X0123999Y0067908D01*
X0123975Y0067914D01*
X0123945Y0067938D01*
X0123939Y0067944D01*
X0123933Y0067962D01*
X0123921Y0067986D01*
X0123915Y0068022D01*
Y0068034D01*
X0123921Y0068046D01*
X0123927Y0068064D01*
X0123939Y0068094D01*
X0123957Y0068131D01*
X0123981Y0068173D01*
X0124017Y0068221D01*
Y0068227D01*
X0124029Y0068233D01*
X0124035Y0068251D01*
X0124053Y0068275D01*
X0124083Y0068335D01*
X0124125Y0068413D01*
X0124167Y0068510D01*
X0124197Y0068618D01*
X0124221Y0068738D01*
X0124233Y0068871D01*
Y0068877D01*
Y0068889D01*
Y0068913D01*
X0124227Y0068937D01*
X0124215Y0068997D01*
X0124191Y0069057D01*
X0124185Y0069069D01*
X0124161Y0069087D01*
X0124125Y0069105D01*
X0124071Y0069117D01*
X0124053D01*
X0124035Y0069111D01*
X0124005Y0069105D01*
X0123969Y0069087D01*
X0123927Y0069069D01*
X0123884Y0069039D01*
X0123830Y0069003D01*
X0123824Y0068997D01*
X0123800Y0068979D01*
X0123764Y0068949D01*
X0123716Y0068901D01*
X0123644Y0068835D01*
X0123560Y0068756D01*
X0123457Y0068654D01*
X0123337Y0068528D01*
X0123331Y0068522D01*
X0123325Y0068510D01*
X0123307Y0068498D01*
X0123283Y0068474D01*
X0123223Y0068413D01*
X0123156Y0068341D01*
X0123078Y0068269D01*
X0123006Y0068197D01*
X0122940Y0068131D01*
X0122916Y0068106D01*
X0122892Y0068088D01*
X0122886Y0068082D01*
X0122874Y0068070D01*
X0122849Y0068052D01*
X0122825Y0068028D01*
X0122789Y0067998D01*
X0122747Y0067968D01*
X0122651Y0067902D01*
X0122639Y0067896D01*
X0122609Y0067878D01*
X0122561Y0067854D01*
X0122500Y0067824D01*
X0122422Y0067800D01*
X0122338Y0067776D01*
X0122242Y0067757D01*
X0122139Y0067751D01*
X0122097D01*
X0122067Y0067757D01*
X0122031Y0067763D01*
X0121989Y0067776D01*
X0121893Y0067806D01*
X0121833Y0067824D01*
X0121778Y0067854D01*
X0121718Y0067890D01*
X0121664Y0067926D01*
X0121604Y0067980D01*
X0121550Y0068034D01*
X0121496Y0068100D01*
X0121441Y0068173D01*
Y0068179D01*
X0121429Y0068191D01*
X0121423Y0068209D01*
X0121405Y0068233D01*
X0121393Y0068269D01*
X0121375Y0068305D01*
X0121351Y0068353D01*
X0121333Y0068407D01*
X0121291Y0068528D01*
X0121261Y0068672D01*
X0121237Y0068835D01*
X0121225Y0069015D01*
Y0069021D01*
Y0069039D01*
Y0069069D01*
X0121231Y0069111D01*
Y0069159D01*
X0121237Y0069214D01*
X0121243Y0069280D01*
X0121255Y0069346D01*
X0121285Y0069502D01*
X0121327Y0069665D01*
X0121387Y0069839D01*
X0121466Y0070002D01*
X0121472Y0070008D01*
X0121478Y0070020D01*
X0121496Y0070044D01*
X0121514Y0070068D01*
X0121550Y0070128D01*
X0121574Y0070152D01*
X0121592Y0070176D01*
X0121598Y0070182D01*
X0121622Y0070194D01*
X0121658Y0070213D01*
X0121694Y0070219D01*
X0121712D01*
X0121748Y0070206D01*
X0121766Y0070194D01*
X0121784Y0070170D01*
X0121796Y0070146D01*
X0121802Y0070110D01*
Y0070098D01*
X0121790Y0070074D01*
X0121766Y0070026D01*
X0121748Y0069996D01*
X0121718Y0069966D01*
X0121712Y0069960D01*
X0121694Y0069942D01*
X0121670Y0069906D01*
X0121640Y0069864D01*
X0121604Y0069809D01*
X0121568Y0069737D01*
X0121526Y0069659D01*
X0121490Y0069569D01*
Y0069563D01*
X0121484Y0069557D01*
X0121478Y0069527D01*
X0121460Y0069472D01*
X0121447Y0069412D01*
X0121429Y0069334D01*
X0121411Y0069256D01*
X0121405Y0069165D01*
X0121399Y0069081D01*
Y0069075D01*
Y0069063D01*
Y0069045D01*
X0121405Y0069021D01*
X0121411Y0068973D01*
X0121429Y0068925D01*
X0121435Y0068919D01*
X0121460Y0068895D01*
X0121490Y0068877D01*
X0121538Y0068871D01*
X0121550D01*
X0121580Y0068877D01*
X0121634Y0068901D01*
X0121664Y0068919D01*
X0121694Y0068943D01*
X0121700Y0068949D01*
X0121712Y0068955D01*
X0121736Y0068979D01*
X0121778Y0069009D01*
X0121827Y0069051D01*
X0121887Y0069105D01*
X0121965Y0069178D01*
X0122055Y0069262D01*
X0122061Y0069268D01*
X0122085Y0069286D01*
X0122115Y0069322D01*
X0122158Y0069358D01*
X0122212Y0069412D01*
X0122272Y0069466D01*
X0122338Y0069527D01*
X0122410Y0069593D01*
X0122561Y0069725D01*
X0122705Y0069851D01*
X0122777Y0069912D01*
X0122843Y0069966D01*
X0122904Y0070014D01*
X0122958Y0070050D01*
X0122964D01*
X0122970Y0070056D01*
X0123006Y0070074D01*
X0123054Y0070104D01*
X0123120Y0070134D01*
X0123198Y0070170D01*
X0123283Y0070194D01*
X0123373Y0070219D01*
X0123463Y0070225D01*
X0123499D01*
X0123541Y0070219D01*
D02*
G37*
G36*
X0124348Y0079443D02*
X0123951D01*
Y0079437D01*
X0123963Y0079431D01*
X0123975Y0079413D01*
X0123987Y0079389D01*
X0124029Y0079329D01*
X0124083Y0079244D01*
X0124137Y0079154D01*
X0124197Y0079046D01*
X0124252Y0078932D01*
X0124300Y0078817D01*
Y0078811D01*
X0124306Y0078805D01*
X0124312Y0078787D01*
X0124318Y0078763D01*
X0124336Y0078703D01*
X0124360Y0078625D01*
X0124384Y0078528D01*
X0124402Y0078426D01*
X0124414Y0078312D01*
X0124420Y0078197D01*
Y0078191D01*
Y0078179D01*
Y0078149D01*
X0124414Y0078119D01*
Y0078077D01*
X0124408Y0078035D01*
X0124390Y0077927D01*
X0124366Y0077806D01*
X0124324Y0077680D01*
X0124264Y0077554D01*
X0124185Y0077439D01*
X0124179Y0077433D01*
X0124167Y0077421D01*
X0124143Y0077397D01*
X0124113Y0077373D01*
X0124071Y0077337D01*
X0124023Y0077307D01*
X0123963Y0077271D01*
X0123890Y0077235D01*
X0123896Y0077229D01*
X0123903Y0077217D01*
X0123915Y0077199D01*
X0123939Y0077174D01*
X0123957Y0077138D01*
X0123987Y0077102D01*
X0124047Y0077012D01*
X0124113Y0076910D01*
X0124179Y0076795D01*
X0124239Y0076681D01*
X0124294Y0076561D01*
Y0076555D01*
X0124300Y0076549D01*
X0124306Y0076531D01*
X0124312Y0076507D01*
X0124336Y0076440D01*
X0124360Y0076356D01*
X0124378Y0076260D01*
X0124402Y0076146D01*
X0124414Y0076019D01*
X0124420Y0075893D01*
Y0075887D01*
Y0075863D01*
Y0075833D01*
X0124414Y0075790D01*
X0124408Y0075736D01*
X0124396Y0075676D01*
X0124366Y0075538D01*
X0124348Y0075466D01*
X0124318Y0075393D01*
X0124288Y0075315D01*
X0124245Y0075243D01*
X0124197Y0075171D01*
X0124143Y0075105D01*
X0124077Y0075050D01*
X0124005Y0074996D01*
X0123999Y0074990D01*
X0123981Y0074984D01*
X0123957Y0074972D01*
X0123927Y0074954D01*
X0123884Y0074942D01*
X0123836Y0074924D01*
X0123722Y0074900D01*
X0123716D01*
X0123692Y0074894D01*
X0123656Y0074888D01*
X0123602Y0074882D01*
X0123535D01*
X0123451Y0074876D01*
X0123355Y0074870D01*
X0123241D01*
X0122507Y0074876D01*
X0122332D01*
X0121399Y0074858D01*
X0121285D01*
Y0076296D01*
X0122170Y0076290D01*
X0123060Y0076272D01*
X0123421Y0076278D01*
X0123728D01*
X0123776Y0076284D01*
X0123878Y0076296D01*
X0123927Y0076308D01*
X0123963Y0076326D01*
X0123969D01*
X0123975Y0076338D01*
X0123987Y0076350D01*
X0124005Y0076368D01*
X0124023Y0076392D01*
X0124035Y0076422D01*
X0124041Y0076458D01*
X0124047Y0076507D01*
Y0076513D01*
Y0076531D01*
X0124041Y0076561D01*
X0124035Y0076597D01*
X0124029Y0076645D01*
X0124011Y0076693D01*
X0123993Y0076753D01*
X0123963Y0076813D01*
X0123957Y0076819D01*
X0123951Y0076844D01*
X0123927Y0076880D01*
X0123903Y0076922D01*
X0123866Y0076976D01*
X0123824Y0077036D01*
X0123776Y0077102D01*
X0123716Y0077174D01*
X0123698D01*
X0123674Y0077168D01*
X0123590D01*
X0123541Y0077162D01*
X0122699D01*
X0121911Y0077168D01*
X0121706D01*
X0121610Y0077162D01*
X0121502D01*
X0121285Y0077156D01*
Y0078595D01*
X0121893Y0078589D01*
X0123211Y0078576D01*
X0123541D01*
X0123674Y0078583D01*
X0123788D01*
X0123836Y0078589D01*
X0123909D01*
X0123927Y0078595D01*
X0123933D01*
X0123945Y0078601D01*
X0123969Y0078613D01*
X0123993Y0078631D01*
X0124011Y0078655D01*
X0124035Y0078691D01*
X0124047Y0078739D01*
X0124053Y0078799D01*
Y0078805D01*
Y0078823D01*
X0124047Y0078847D01*
X0124041Y0078883D01*
X0124035Y0078925D01*
X0124017Y0078974D01*
X0123999Y0079028D01*
X0123969Y0079088D01*
X0123963Y0079094D01*
X0123957Y0079118D01*
X0123933Y0079148D01*
X0123909Y0079190D01*
X0123878Y0079244D01*
X0123836Y0079305D01*
X0123788Y0079371D01*
X0123728Y0079443D01*
X0122543Y0079455D01*
X0121285Y0079443D01*
Y0080875D01*
X0121905D01*
X0122603Y0080869D01*
X0123271D01*
X0124348Y0080875D01*
Y0079443D01*
D02*
G37*
G36*
Y0072818D02*
X0123975Y0072830D01*
Y0072824D01*
X0123987Y0072818D01*
X0124017Y0072782D01*
X0124059Y0072728D01*
X0124107Y0072662D01*
X0124167Y0072577D01*
X0124221Y0072493D01*
X0124276Y0072403D01*
X0124318Y0072313D01*
X0124324Y0072300D01*
X0124336Y0072270D01*
X0124348Y0072222D01*
X0124372Y0072156D01*
X0124390Y0072078D01*
X0124402Y0071988D01*
X0124414Y0071891D01*
X0124420Y0071789D01*
Y0071783D01*
Y0071765D01*
Y0071735D01*
X0124414Y0071693D01*
X0124408Y0071645D01*
X0124396Y0071584D01*
X0124384Y0071518D01*
X0124366Y0071452D01*
X0124342Y0071380D01*
X0124312Y0071302D01*
X0124282Y0071223D01*
X0124239Y0071145D01*
X0124185Y0071067D01*
X0124131Y0070989D01*
X0124065Y0070917D01*
X0123987Y0070844D01*
X0123981Y0070838D01*
X0123969Y0070832D01*
X0123945Y0070814D01*
X0123915Y0070790D01*
X0123878Y0070766D01*
X0123830Y0070742D01*
X0123776Y0070712D01*
X0123716Y0070676D01*
X0123650Y0070646D01*
X0123572Y0070616D01*
X0123493Y0070592D01*
X0123403Y0070568D01*
X0123217Y0070525D01*
X0123108Y0070519D01*
X0123000Y0070513D01*
X0122940D01*
X0122892Y0070519D01*
X0122837Y0070525D01*
X0122777Y0070531D01*
X0122705Y0070543D01*
X0122633Y0070562D01*
X0122464Y0070604D01*
X0122380Y0070634D01*
X0122290Y0070670D01*
X0122200Y0070712D01*
X0122115Y0070766D01*
X0122031Y0070820D01*
X0121953Y0070886D01*
X0121947Y0070892D01*
X0121935Y0070904D01*
X0121917Y0070923D01*
X0121893Y0070947D01*
X0121869Y0070983D01*
X0121833Y0071025D01*
X0121802Y0071073D01*
X0121766Y0071127D01*
X0121730Y0071187D01*
X0121700Y0071253D01*
X0121640Y0071398D01*
X0121616Y0071482D01*
X0121598Y0071566D01*
X0121586Y0071657D01*
X0121580Y0071753D01*
Y0071765D01*
Y0071801D01*
X0121586Y0071855D01*
X0121592Y0071921D01*
X0121604Y0072006D01*
X0121628Y0072096D01*
X0121652Y0072192D01*
X0121688Y0072294D01*
X0121694Y0072307D01*
X0121712Y0072343D01*
X0121736Y0072391D01*
X0121772Y0072457D01*
X0121821Y0072541D01*
X0121881Y0072631D01*
X0121953Y0072728D01*
X0122031Y0072824D01*
X0121562D01*
X0121267Y0072818D01*
X0121159Y0072812D01*
Y0074244D01*
X0121953D01*
X0122699Y0074238D01*
X0124245Y0074244D01*
X0124348D01*
Y0072818D01*
D02*
G37*
G36*
X0088812Y0059737D02*
X0088808Y0059733D01*
X0088800Y0059722D01*
X0088793Y0059707D01*
X0088782Y0059688D01*
X0088767Y0059666D01*
X0088749Y0059640D01*
X0088730Y0059607D01*
X0088712Y0059574D01*
X0088686Y0059533D01*
X0088660Y0059492D01*
X0088634Y0059444D01*
X0088601Y0059392D01*
X0088567Y0059337D01*
X0088534Y0059274D01*
X0088493Y0059211D01*
X0088452Y0059140D01*
X0088412Y0059070D01*
X0088367Y0058992D01*
X0088319Y0058911D01*
X0088267Y0058826D01*
X0088215Y0058733D01*
X0088164Y0058640D01*
X0088104Y0058540D01*
X0088045Y0058437D01*
X0087986Y0058329D01*
X0087923Y0058218D01*
X0087856Y0058100D01*
X0087789Y0057981D01*
X0087719Y0057855D01*
X0087645Y0057726D01*
X0087571Y0057592D01*
X0087856D01*
X0088315Y0057600D01*
X0088523Y0057603D01*
X0088667D01*
X0088682Y0057600D01*
X0088701Y0057596D01*
X0088719Y0057589D01*
X0088734Y0057578D01*
X0088745Y0057563D01*
X0088749Y0057540D01*
Y0057533D01*
X0088745Y0057518D01*
X0088741Y0057503D01*
X0088726Y0057489D01*
X0088723Y0057485D01*
X0088708Y0057478D01*
X0088682Y0057474D01*
X0088645Y0057470D01*
X0088589D01*
X0088575Y0057474D01*
X0088501D01*
X0087919Y0057478D01*
X0087386Y0057481D01*
X0086823Y0057478D01*
X0086264Y0057470D01*
X0086267Y0057474D01*
X0086275Y0057485D01*
X0086286Y0057507D01*
X0086304Y0057537D01*
X0086327Y0057574D01*
X0086356Y0057618D01*
X0086386Y0057674D01*
X0086423Y0057737D01*
X0086464Y0057803D01*
X0086512Y0057881D01*
X0086564Y0057970D01*
X0086616Y0058063D01*
X0086675Y0058163D01*
X0086738Y0058274D01*
X0086808Y0058389D01*
X0086878Y0058514D01*
Y0058518D01*
X0086882Y0058522D01*
X0086897Y0058544D01*
X0086915Y0058581D01*
X0086945Y0058629D01*
X0086975Y0058685D01*
X0087015Y0058755D01*
X0087056Y0058829D01*
X0087104Y0058911D01*
X0087153Y0058996D01*
X0087201Y0059085D01*
X0087304Y0059270D01*
X0087404Y0059451D01*
X0087452Y0059540D01*
X0087497Y0059622D01*
X0087412D01*
X0086519Y0059603D01*
X0086401Y0059600D01*
X0086390D01*
X0086364Y0059607D01*
X0086349Y0059618D01*
X0086338Y0059629D01*
X0086330Y0059648D01*
X0086327Y0059670D01*
Y0059674D01*
Y0059681D01*
X0086330Y0059692D01*
X0086338Y0059703D01*
X0086349Y0059718D01*
X0086364Y0059729D01*
X0086386Y0059737D01*
X0086416Y0059740D01*
X0086538D01*
X0086730Y0059737D01*
X0087619Y0059729D01*
X0088812Y0059740D01*
Y0059737D01*
D02*
G37*
G36*
X0086716Y0057185D02*
X0086727Y0057181D01*
X0086741Y0057174D01*
X0086745Y0057170D01*
X0086753Y0057163D01*
X0086756Y0057148D01*
X0086760Y0057129D01*
Y0057126D01*
X0086753Y0057111D01*
X0086741Y0057089D01*
X0086727Y0057074D01*
X0086712Y0057059D01*
X0086704Y0057052D01*
X0086690Y0057037D01*
X0086664Y0057007D01*
X0086630Y0056970D01*
X0086593Y0056926D01*
X0086556Y0056870D01*
X0086519Y0056807D01*
X0086486Y0056741D01*
Y0056737D01*
X0086482Y0056733D01*
X0086479Y0056722D01*
X0086471Y0056707D01*
X0086460Y0056670D01*
X0086445Y0056622D01*
X0086427Y0056567D01*
X0086416Y0056504D01*
X0086404Y0056437D01*
X0086401Y0056370D01*
Y0056367D01*
Y0056363D01*
X0086404Y0056337D01*
X0086408Y0056307D01*
X0086416Y0056267D01*
X0086430Y0056229D01*
X0086453Y0056200D01*
X0086482Y0056174D01*
X0086501Y0056170D01*
X0086523Y0056167D01*
X0086538D01*
X0086553Y0056170D01*
X0086575Y0056174D01*
X0086601Y0056185D01*
X0086630Y0056196D01*
X0086664Y0056215D01*
X0086697Y0056237D01*
X0086701Y0056241D01*
X0086716Y0056252D01*
X0086745Y0056274D01*
X0086782Y0056307D01*
X0086838Y0056352D01*
X0086867Y0056378D01*
X0086904Y0056411D01*
X0086941Y0056444D01*
X0086986Y0056485D01*
X0087034Y0056529D01*
X0087086Y0056578D01*
X0087090Y0056581D01*
X0087101Y0056592D01*
X0087119Y0056611D01*
X0087145Y0056633D01*
X0087175Y0056659D01*
X0087212Y0056689D01*
X0087290Y0056759D01*
X0087375Y0056833D01*
X0087467Y0056907D01*
X0087549Y0056974D01*
X0087590Y0057003D01*
X0087623Y0057026D01*
X0087627D01*
X0087634Y0057033D01*
X0087645Y0057041D01*
X0087664Y0057048D01*
X0087682Y0057059D01*
X0087708Y0057074D01*
X0087767Y0057100D01*
X0087834Y0057126D01*
X0087908Y0057152D01*
X0087989Y0057166D01*
X0088067Y0057174D01*
X0088082D01*
X0088097Y0057170D01*
X0088119D01*
X0088145Y0057166D01*
X0088178Y0057159D01*
X0088249Y0057137D01*
X0088289Y0057122D01*
X0088334Y0057103D01*
X0088375Y0057081D01*
X0088419Y0057055D01*
X0088463Y0057022D01*
X0088504Y0056985D01*
X0088545Y0056941D01*
X0088586Y0056892D01*
X0088589Y0056889D01*
X0088593Y0056881D01*
X0088604Y0056863D01*
X0088615Y0056844D01*
X0088634Y0056815D01*
X0088649Y0056781D01*
X0088667Y0056744D01*
X0088686Y0056704D01*
X0088704Y0056655D01*
X0088723Y0056604D01*
X0088741Y0056548D01*
X0088756Y0056485D01*
X0088767Y0056422D01*
X0088778Y0056352D01*
X0088782Y0056281D01*
X0088786Y0056207D01*
Y0056204D01*
Y0056196D01*
Y0056178D01*
Y0056159D01*
X0088782Y0056133D01*
X0088778Y0056104D01*
X0088775Y0056070D01*
X0088771Y0056033D01*
X0088756Y0055955D01*
X0088738Y0055867D01*
X0088708Y0055774D01*
X0088667Y0055685D01*
X0088663Y0055681D01*
X0088660Y0055670D01*
X0088649Y0055652D01*
X0088638Y0055630D01*
X0088604Y0055581D01*
X0088563Y0055530D01*
X0088560Y0055526D01*
X0088552Y0055518D01*
X0088530Y0055496D01*
X0088497Y0055474D01*
X0088482Y0055467D01*
X0088467Y0055463D01*
X0088463D01*
X0088456Y0055467D01*
X0088441Y0055470D01*
X0088430Y0055481D01*
X0088426Y0055485D01*
X0088423Y0055493D01*
X0088419Y0055504D01*
X0088415Y0055518D01*
Y0055522D01*
X0088423Y0055541D01*
X0088438Y0055567D01*
X0088449Y0055585D01*
X0088467Y0055607D01*
X0088471Y0055611D01*
X0088482Y0055626D01*
X0088497Y0055644D01*
X0088519Y0055674D01*
X0088541Y0055707D01*
X0088567Y0055748D01*
X0088593Y0055796D01*
X0088615Y0055852D01*
X0088619Y0055859D01*
X0088626Y0055878D01*
X0088634Y0055907D01*
X0088645Y0055944D01*
X0088656Y0055989D01*
X0088667Y0056041D01*
X0088671Y0056092D01*
X0088675Y0056144D01*
Y0056148D01*
Y0056159D01*
X0088671Y0056174D01*
Y0056192D01*
X0088656Y0056241D01*
X0088649Y0056263D01*
X0088634Y0056285D01*
Y0056289D01*
X0088626Y0056292D01*
X0088608Y0056311D01*
X0088578Y0056329D01*
X0088560Y0056333D01*
X0088541Y0056337D01*
X0088526D01*
X0088512Y0056333D01*
X0088493Y0056329D01*
X0088467Y0056322D01*
X0088434Y0056307D01*
X0088401Y0056292D01*
X0088364Y0056270D01*
X0088360Y0056267D01*
X0088345Y0056255D01*
X0088323Y0056241D01*
X0088293Y0056218D01*
X0088256Y0056185D01*
X0088208Y0056148D01*
X0088156Y0056100D01*
X0088097Y0056044D01*
X0088089Y0056037D01*
X0088075Y0056022D01*
X0088045Y0055996D01*
X0088008Y0055963D01*
X0087967Y0055922D01*
X0087915Y0055878D01*
X0087860Y0055826D01*
X0087804Y0055774D01*
X0087682Y0055667D01*
X0087619Y0055615D01*
X0087560Y0055567D01*
X0087504Y0055522D01*
X0087452Y0055481D01*
X0087408Y0055448D01*
X0087367Y0055422D01*
X0087364D01*
X0087360Y0055418D01*
X0087349Y0055411D01*
X0087334Y0055404D01*
X0087297Y0055385D01*
X0087245Y0055359D01*
X0087190Y0055337D01*
X0087123Y0055318D01*
X0087056Y0055304D01*
X0086986Y0055300D01*
X0086960D01*
X0086927Y0055304D01*
X0086890Y0055311D01*
X0086841Y0055322D01*
X0086793Y0055337D01*
X0086738Y0055356D01*
X0086686Y0055385D01*
X0086678Y0055389D01*
X0086664Y0055400D01*
X0086638Y0055418D01*
X0086608Y0055448D01*
X0086571Y0055481D01*
X0086534Y0055522D01*
X0086497Y0055567D01*
X0086460Y0055622D01*
Y0055626D01*
X0086453Y0055633D01*
X0086445Y0055652D01*
X0086434Y0055674D01*
X0086419Y0055700D01*
X0086404Y0055733D01*
X0086390Y0055774D01*
X0086375Y0055815D01*
X0086360Y0055867D01*
X0086345Y0055918D01*
X0086330Y0055978D01*
X0086316Y0056037D01*
X0086304Y0056104D01*
X0086297Y0056174D01*
X0086293Y0056244D01*
X0086290Y0056322D01*
Y0056326D01*
Y0056341D01*
Y0056359D01*
X0086293Y0056385D01*
X0086297Y0056418D01*
X0086301Y0056455D01*
X0086304Y0056500D01*
X0086316Y0056548D01*
X0086338Y0056652D01*
X0086371Y0056763D01*
X0086393Y0056818D01*
X0086423Y0056878D01*
X0086453Y0056933D01*
X0086486Y0056989D01*
Y0056992D01*
X0086493Y0056996D01*
X0086508Y0057018D01*
X0086534Y0057052D01*
X0086564Y0057089D01*
X0086597Y0057126D01*
X0086634Y0057159D01*
X0086671Y0057181D01*
X0086686Y0057185D01*
X0086701Y0057189D01*
X0086704D01*
X0086716Y0057185D01*
D02*
G37*
G36*
X0088715Y0060244D02*
Y0060240D01*
Y0060225D01*
Y0060203D01*
Y0060181D01*
Y0060155D01*
X0088712Y0060133D01*
Y0060114D01*
X0088708Y0060103D01*
Y0060099D01*
X0088704Y0060096D01*
X0088697Y0060081D01*
X0088678Y0060070D01*
X0088667Y0060062D01*
X0088645D01*
X0088623Y0060074D01*
X0088612Y0060081D01*
X0088604Y0060096D01*
X0088597Y0060114D01*
X0088593Y0060140D01*
Y0060151D01*
X0088604Y0061014D01*
X0088067Y0061025D01*
X0088064Y0060840D01*
X0088075Y0060233D01*
X0088078Y0060099D01*
Y0060096D01*
Y0060088D01*
Y0060074D01*
Y0060059D01*
X0088071Y0060029D01*
X0088067Y0060014D01*
X0088064Y0060003D01*
X0088060Y0059999D01*
X0088052Y0059988D01*
X0088038Y0059981D01*
X0088015Y0059977D01*
X0088004D01*
X0087993Y0059985D01*
X0087982Y0059992D01*
X0087971Y0060007D01*
X0087960Y0060025D01*
X0087952Y0060055D01*
X0087949Y0060092D01*
X0087952Y0060229D01*
X0087960Y0061025D01*
X0087660D01*
X0086471Y0061014D01*
X0086475Y0060429D01*
X0086482Y0060014D01*
Y0060011D01*
Y0059999D01*
X0086479Y0059981D01*
X0086475Y0059962D01*
X0086467Y0059944D01*
X0086456Y0059925D01*
X0086441Y0059914D01*
X0086419Y0059911D01*
X0086412D01*
X0086393Y0059918D01*
X0086371Y0059933D01*
X0086364Y0059944D01*
X0086360Y0059962D01*
Y0059966D01*
Y0059974D01*
Y0059985D01*
Y0060003D01*
Y0060029D01*
Y0060062D01*
Y0060107D01*
Y0062070D01*
X0086449D01*
X0087023Y0062066D01*
X0087641Y0062059D01*
X0088715Y0062070D01*
Y0060244D01*
D02*
G37*
G36*
X0086716Y0064258D02*
X0086727Y0064255D01*
X0086741Y0064247D01*
X0086745Y0064243D01*
X0086753Y0064236D01*
X0086756Y0064221D01*
X0086760Y0064203D01*
Y0064199D01*
X0086753Y0064184D01*
X0086741Y0064162D01*
X0086727Y0064147D01*
X0086712Y0064132D01*
X0086704Y0064125D01*
X0086690Y0064110D01*
X0086664Y0064081D01*
X0086630Y0064044D01*
X0086593Y0063999D01*
X0086556Y0063944D01*
X0086519Y0063881D01*
X0086486Y0063814D01*
Y0063810D01*
X0086482Y0063806D01*
X0086479Y0063795D01*
X0086471Y0063781D01*
X0086460Y0063744D01*
X0086445Y0063695D01*
X0086427Y0063640D01*
X0086416Y0063577D01*
X0086404Y0063510D01*
X0086401Y0063444D01*
Y0063440D01*
Y0063436D01*
X0086404Y0063410D01*
X0086408Y0063381D01*
X0086416Y0063340D01*
X0086430Y0063303D01*
X0086453Y0063273D01*
X0086482Y0063247D01*
X0086501Y0063244D01*
X0086523Y0063240D01*
X0086538D01*
X0086553Y0063244D01*
X0086575Y0063247D01*
X0086601Y0063258D01*
X0086630Y0063270D01*
X0086664Y0063288D01*
X0086697Y0063310D01*
X0086701Y0063314D01*
X0086716Y0063325D01*
X0086745Y0063347D01*
X0086782Y0063381D01*
X0086838Y0063425D01*
X0086867Y0063451D01*
X0086904Y0063484D01*
X0086941Y0063518D01*
X0086986Y0063558D01*
X0087034Y0063603D01*
X0087086Y0063651D01*
X0087090Y0063655D01*
X0087101Y0063666D01*
X0087119Y0063684D01*
X0087145Y0063707D01*
X0087175Y0063732D01*
X0087212Y0063762D01*
X0087290Y0063832D01*
X0087375Y0063906D01*
X0087467Y0063981D01*
X0087549Y0064047D01*
X0087590Y0064077D01*
X0087623Y0064099D01*
X0087627D01*
X0087634Y0064106D01*
X0087645Y0064114D01*
X0087664Y0064121D01*
X0087682Y0064132D01*
X0087708Y0064147D01*
X0087767Y0064173D01*
X0087834Y0064199D01*
X0087908Y0064225D01*
X0087989Y0064240D01*
X0088067Y0064247D01*
X0088082D01*
X0088097Y0064243D01*
X0088119D01*
X0088145Y0064240D01*
X0088178Y0064232D01*
X0088249Y0064210D01*
X0088289Y0064195D01*
X0088334Y0064177D01*
X0088375Y0064155D01*
X0088419Y0064129D01*
X0088463Y0064095D01*
X0088504Y0064058D01*
X0088545Y0064014D01*
X0088586Y0063966D01*
X0088589Y0063962D01*
X0088593Y0063955D01*
X0088604Y0063936D01*
X0088615Y0063918D01*
X0088634Y0063888D01*
X0088649Y0063855D01*
X0088667Y0063818D01*
X0088686Y0063777D01*
X0088704Y0063729D01*
X0088723Y0063677D01*
X0088741Y0063621D01*
X0088756Y0063558D01*
X0088767Y0063495D01*
X0088778Y0063425D01*
X0088782Y0063355D01*
X0088786Y0063281D01*
Y0063277D01*
Y0063270D01*
Y0063251D01*
Y0063232D01*
X0088782Y0063207D01*
X0088778Y0063177D01*
X0088775Y0063144D01*
X0088771Y0063107D01*
X0088756Y0063029D01*
X0088738Y0062940D01*
X0088708Y0062847D01*
X0088667Y0062758D01*
X0088663Y0062755D01*
X0088660Y0062744D01*
X0088649Y0062725D01*
X0088638Y0062703D01*
X0088604Y0062655D01*
X0088563Y0062603D01*
X0088560Y0062599D01*
X0088552Y0062592D01*
X0088530Y0062570D01*
X0088497Y0062547D01*
X0088482Y0062540D01*
X0088467Y0062536D01*
X0088463D01*
X0088456Y0062540D01*
X0088441Y0062544D01*
X0088430Y0062555D01*
X0088426Y0062558D01*
X0088423Y0062566D01*
X0088419Y0062577D01*
X0088415Y0062592D01*
Y0062596D01*
X0088423Y0062614D01*
X0088438Y0062640D01*
X0088449Y0062658D01*
X0088467Y0062681D01*
X0088471Y0062684D01*
X0088482Y0062699D01*
X0088497Y0062718D01*
X0088519Y0062747D01*
X0088541Y0062781D01*
X0088567Y0062821D01*
X0088593Y0062870D01*
X0088615Y0062925D01*
X0088619Y0062933D01*
X0088626Y0062951D01*
X0088634Y0062981D01*
X0088645Y0063018D01*
X0088656Y0063062D01*
X0088667Y0063114D01*
X0088671Y0063166D01*
X0088675Y0063218D01*
Y0063221D01*
Y0063232D01*
X0088671Y0063247D01*
Y0063266D01*
X0088656Y0063314D01*
X0088649Y0063336D01*
X0088634Y0063358D01*
Y0063362D01*
X0088626Y0063366D01*
X0088608Y0063384D01*
X0088578Y0063403D01*
X0088560Y0063407D01*
X0088541Y0063410D01*
X0088526D01*
X0088512Y0063407D01*
X0088493Y0063403D01*
X0088467Y0063395D01*
X0088434Y0063381D01*
X0088401Y0063366D01*
X0088364Y0063344D01*
X0088360Y0063340D01*
X0088345Y0063329D01*
X0088323Y0063314D01*
X0088293Y0063292D01*
X0088256Y0063258D01*
X0088208Y0063221D01*
X0088156Y0063173D01*
X0088097Y0063118D01*
X0088089Y0063110D01*
X0088075Y0063095D01*
X0088045Y0063070D01*
X0088008Y0063036D01*
X0087967Y0062995D01*
X0087915Y0062951D01*
X0087860Y0062899D01*
X0087804Y0062847D01*
X0087682Y0062740D01*
X0087619Y0062688D01*
X0087560Y0062640D01*
X0087504Y0062596D01*
X0087452Y0062555D01*
X0087408Y0062521D01*
X0087367Y0062496D01*
X0087364D01*
X0087360Y0062492D01*
X0087349Y0062484D01*
X0087334Y0062477D01*
X0087297Y0062458D01*
X0087245Y0062433D01*
X0087190Y0062410D01*
X0087123Y0062392D01*
X0087056Y0062377D01*
X0086986Y0062373D01*
X0086960D01*
X0086927Y0062377D01*
X0086890Y0062384D01*
X0086841Y0062396D01*
X0086793Y0062410D01*
X0086738Y0062429D01*
X0086686Y0062458D01*
X0086678Y0062462D01*
X0086664Y0062473D01*
X0086638Y0062492D01*
X0086608Y0062521D01*
X0086571Y0062555D01*
X0086534Y0062596D01*
X0086497Y0062640D01*
X0086460Y0062695D01*
Y0062699D01*
X0086453Y0062707D01*
X0086445Y0062725D01*
X0086434Y0062747D01*
X0086419Y0062773D01*
X0086404Y0062807D01*
X0086390Y0062847D01*
X0086375Y0062888D01*
X0086360Y0062940D01*
X0086345Y0062992D01*
X0086330Y0063051D01*
X0086316Y0063110D01*
X0086304Y0063177D01*
X0086297Y0063247D01*
X0086293Y0063318D01*
X0086290Y0063395D01*
Y0063399D01*
Y0063414D01*
Y0063432D01*
X0086293Y0063458D01*
X0086297Y0063492D01*
X0086301Y0063529D01*
X0086304Y0063573D01*
X0086316Y0063621D01*
X0086338Y0063725D01*
X0086371Y0063836D01*
X0086393Y0063892D01*
X0086423Y0063951D01*
X0086453Y0064006D01*
X0086486Y0064062D01*
Y0064066D01*
X0086493Y0064069D01*
X0086508Y0064092D01*
X0086534Y0064125D01*
X0086564Y0064162D01*
X0086597Y0064199D01*
X0086634Y0064232D01*
X0086671Y0064255D01*
X0086686Y0064258D01*
X0086701Y0064262D01*
X0086704D01*
X0086716Y0064258D01*
D02*
G37*
%LPC*%
G36*
X0071670Y0094685D02*
X0070737Y0094678D01*
X0070526Y0094674D01*
Y0094670D01*
Y0094663D01*
X0070522Y0094652D01*
Y0094641D01*
X0070518Y0094604D01*
Y0094563D01*
Y0094559D01*
Y0094544D01*
Y0094526D01*
X0070522Y0094500D01*
X0070526Y0094467D01*
X0070529Y0094426D01*
X0070537Y0094385D01*
X0070544Y0094337D01*
X0070570Y0094230D01*
X0070607Y0094118D01*
X0070629Y0094059D01*
X0070659Y0094000D01*
X0070689Y0093941D01*
X0070726Y0093885D01*
X0070729Y0093881D01*
X0070733Y0093874D01*
X0070744Y0093859D01*
X0070763Y0093841D01*
X0070781Y0093819D01*
X0070803Y0093793D01*
X0070829Y0093763D01*
X0070863Y0093733D01*
X0070933Y0093667D01*
X0071018Y0093604D01*
X0071118Y0093541D01*
X0071226Y0093489D01*
X0071229D01*
X0071237Y0093485D01*
X0071248Y0093482D01*
X0071263Y0093474D01*
X0071281Y0093467D01*
X0071303Y0093459D01*
X0071359Y0093444D01*
X0071426Y0093430D01*
X0071500Y0093415D01*
X0071577Y0093404D01*
X0071663Y0093400D01*
X0071692D01*
X0071715Y0093404D01*
X0071740D01*
X0071774Y0093407D01*
X0071807Y0093411D01*
X0071848Y0093419D01*
X0071933Y0093437D01*
X0072026Y0093463D01*
X0072126Y0093500D01*
X0072222Y0093548D01*
X0072226Y0093552D01*
X0072237Y0093556D01*
X0072251Y0093567D01*
X0072274Y0093581D01*
X0072300Y0093600D01*
X0072329Y0093619D01*
X0072363Y0093644D01*
X0072400Y0093674D01*
X0072437Y0093707D01*
X0072477Y0093744D01*
X0072555Y0093830D01*
X0072629Y0093930D01*
X0072663Y0093985D01*
X0072692Y0094044D01*
Y0094048D01*
X0072696Y0094056D01*
X0072703Y0094067D01*
X0072711Y0094085D01*
X0072718Y0094107D01*
X0072729Y0094133D01*
X0072740Y0094163D01*
X0072751Y0094196D01*
X0072770Y0094274D01*
X0072788Y0094359D01*
X0072803Y0094452D01*
X0072807Y0094552D01*
Y0094555D01*
Y0094563D01*
Y0094574D01*
Y0094589D01*
X0072803Y0094630D01*
X0072796Y0094674D01*
X0071670Y0094685D01*
D02*
G37*
G36*
X0122001Y0085123D02*
X0121983Y0084287D01*
X0122001Y0083456D01*
X0123487Y0084245D01*
X0122669Y0084732D01*
X0122001Y0085123D01*
D02*
G37*
G36*
X0123722Y0072824D02*
X0122254D01*
X0122248Y0072812D01*
X0122224Y0072788D01*
X0122188Y0072752D01*
X0122151Y0072704D01*
X0122103Y0072643D01*
X0122055Y0072583D01*
X0122013Y0072517D01*
X0121971Y0072457D01*
X0121965Y0072451D01*
X0121959Y0072427D01*
X0121941Y0072397D01*
X0121923Y0072361D01*
X0121893Y0072270D01*
X0121881Y0072222D01*
X0121875Y0072174D01*
Y0072168D01*
Y0072156D01*
X0121887Y0072114D01*
X0121899Y0072090D01*
X0121923Y0072072D01*
X0121947Y0072054D01*
X0121983Y0072042D01*
X0122013D01*
X0122043Y0072036D01*
X0122200D01*
X0122248Y0072030D01*
X0123909D01*
X0123957Y0072036D01*
X0123999D01*
X0124023Y0072042D01*
X0124029D01*
X0124041Y0072048D01*
X0124083Y0072066D01*
X0124107Y0072078D01*
X0124125Y0072102D01*
X0124137Y0072126D01*
X0124143Y0072162D01*
Y0072168D01*
Y0072186D01*
X0124137Y0072210D01*
X0124131Y0072246D01*
X0124113Y0072294D01*
X0124095Y0072343D01*
X0124065Y0072403D01*
X0124029Y0072469D01*
X0124023Y0072475D01*
X0124011Y0072499D01*
X0123981Y0072535D01*
X0123951Y0072583D01*
X0123903Y0072637D01*
X0123854Y0072698D01*
X0123788Y0072758D01*
X0123722Y0072824D01*
D02*
G37*
%LPD*%
D14*
X0129540Y0088900D02*
D03*
Y0063500D02*
D03*
D15*
X0080010Y0058420D02*
D03*
Y0093980D02*
D03*
D16*
X0063060Y0055700D02*
D03*
X0135060D02*
D03*
Y0096700D02*
D03*
X0063060D02*
D03*
M02*
