G04 Layer_Color=16711935*
%FSAX43Y43*%
%MOMM*%
G71*
G01*
G75*
%ADD13C,0.254*%
D13*
X0117775Y0053200D02*
G03*
X0118775Y0054200I0000000J0001000D01*
G01*
Y0098200D02*
G03*
X0117775Y0099200I-0001000J0000000D01*
G01*
X0090775Y0054200D02*
G03*
X0091775Y0053200I0001000J0000000D01*
G01*
Y0099200D02*
G03*
X0090775Y0098200I0000000J-0001000D01*
G01*
X0063060Y0100700D02*
G03*
X0059060Y0096700I0000000J-0004000D01*
G01*
X0139060D02*
G03*
X0135060Y0100700I-0004000J0000000D01*
G01*
Y0051700D02*
G03*
X0139060Y0055700I0000000J0004000D01*
G01*
X0059060D02*
G03*
X0063060Y0051700I0004000J0000000D01*
G01*
X0087510Y0076200D02*
G03*
X0087510Y0076200I-0007500J0000000D01*
G01*
X0104775Y0053200D02*
X0117775D01*
X0118775Y0054200D02*
Y0076200D01*
X0104775Y0099200D02*
X0117775D01*
X0118775Y0076200D02*
Y0098200D01*
X0091775Y0053200D02*
X0104775D01*
X0090775Y0054200D02*
Y0076200D01*
Y0098200D01*
X0091775Y0099200D02*
X0104775D01*
X0139060Y0055700D02*
Y0096700D01*
X0063060Y0100700D02*
X0135060D01*
X0063060Y0051700D02*
X0135060D01*
X0059060Y0055700D02*
Y0096700D01*
M02*
