999
DXF file: 18518.dxf
999
Pro/ENGINEER 2005030 by Parametric Technology Corporation
0
SECTION
2
HEADER
9
$ACADVER
1
AC1014
9
$HANDSEED
5
       2D3
9
$EXTMAX
10
69.8500000000
20
53.9750000000
9
$EXTMIN
10
0.0000000000
20
0.0000000000
9
$LIMMIN
10
0.0000000000
20
0.0000000000
9
$LIMMAX
10
69.8500000000
20
53.9750000000
9
$VIEWCTR
10
34.9250000000
20
26.9875000000
9
$VIEWSIZE
40
53.9750000000
9
$CLAYER
8
0
9
$LTSCALE
40
3.8417500000
9
$CELTYPE
6
BYLAYER
9
$DIMSCALE
40
1
9
$DIMASZ
40
0.1875000000
9
$DIMEXO
40
0.4365625000
9
$DIMDLI
40
2.6543000000
9
$DIMEXE
40
1.2573000000
9
$DIMCEN
40
0.6286500000
9
$DIMLFAC
40
1.0000000000
9
$DIMTXT
40
0.4000000000
9
$DIMTOL
70
0
9
$DIMLIM
70
0
9
$DIMTFAC
40
1.0000000000
9
$MEASUREMENT
70
1
0
ENDSEC
0
SECTION
2
CLASSES
0
ENDSEC
0
SECTION
2
TABLES
0
TABLE
2
VPORT
5
8
100
AcDbSymbolTable
70
2
0
VPORT
5
1F4
100
AcDbSymbolTableRecord
100
AcDbViewportTableRecord
2
*ACTIVE
70
0
10
0.0
20
0.0
11
1.0
21
1.0
12
34.9250000000
22
26.9875000000
13
0.0
23
0.0
14
1.0
24
1.0
15
0.0
25
0.0
16
0.0
26
0.0
36
1.0
17
0.0
27
0.0
37
0.0
40
53.9750000000
41
1.2941176471
42
50.0
43
0.0
44
0.0
50
0.0
51
0.0
71
0
72
100
73
1
74
1
75
0
76
0
77
0
78
0
0
ENDTAB
0
TABLE
2
LTYPE
5
5
100
AcDbSymbolTable
70
6
0
LTYPE
5
14
100
AcDbSymbolTableRecord
100
AcDbLinetypeTableRecord
2
BYBLOCK
70
0
3

72
65
73
0
40
0.0
0
LTYPE
5
15
100
AcDbSymbolTableRecord
100
AcDbLinetypeTableRecord
2
BYLAYER
70
0
3

72
65
73
0
40
0.0
0
LTYPE
5
16
100
AcDbSymbolTableRecord
100
AcDbLinetypeTableRecord
2
CONTINUOUS
70
64
3
Solid line
72
65
73
0
40
0
0
LTYPE
5
1F5
100
AcDbSymbolTableRecord
100
AcDbLinetypeTableRecord
2
CENTER
70
64
3
____ _ ____ _ ____ _ ____ _ ____ _ ____ _ ____
72
65
73
4
40
0.6
49
0.375
74
0
49
-0.075
74
0
49
0.075
74
0
49
-0.075
74
0
0
LTYPE
5
1F6
100
AcDbSymbolTableRecord
100
AcDbLinetypeTableRecord
2
HIDDEN
70
64
3
- - - - - - - - - - - - - - - - - - - -
72
65
73
2
40
0.2
49
0.1
74
0
49
-0.1
74
0
0
LTYPE
5
1F7
100
AcDbSymbolTableRecord
100
AcDbLinetypeTableRecord
2
PHANTOM
70
64
3
_____ _ _ _____ _ _ _____ _ _ _____
72
65
73
6
40
0.8
49
0.45
74
0
49
-0.05
74
0
49
0.1
74
0
49
-0.05
74
0
49
0.1
74
0
49
-0.05
74
0
0
LTYPE
5
1F8
100
AcDbSymbolTableRecord
100
AcDbLinetypeTableRecord
2
DOT
70
64
3
. . . . . . . . . . . . . . . . . . . .
72
65
73
2
40
0.2
49
0.1
74
0
49
-0.1
74
0
0
LTYPE
5
1F9
100
AcDbSymbolTableRecord
100
AcDbLinetypeTableRecord
2
DASHED
70
64
3
- - - - - - - - - - - - - - - - - - - -
72
65
73
2
40
0.2
49
0.1
74
0
49
-0.1
74
0
0
ENDTAB
0
TABLE
2
LAYER
5
2
100
AcDbSymbolTable
70
36
0
LAYER
5
10
100
AcDbSymbolTableRecord
100
AcDbLayerTableRecord
2
0
70
0
62
7
6
CONTINUOUS
0
LAYER
5
1FA
100
AcDbSymbolTableRecord
100
AcDbLayerTableRecord
2
DEFAULT_1
70
0
62
7
6
CENTER
0
LAYER
5
1FB
100
AcDbSymbolTableRecord
100
AcDbLayerTableRecord
2
DEFAULT_2
70
0
62
8
6
HIDDEN
0
LAYER
5
1FC
100
AcDbSymbolTableRecord
100
AcDbLayerTableRecord
2
DEFAULT_3
70
0
62
7
6
PHANTOM
0
LAYER
5
1FD
100
AcDbSymbolTableRecord
100
AcDbLayerTableRecord
2
LAYER_DETAIL_ITEM
70
0
62
7
6
CONTINUOUS
0
LAYER
5
1FE
100
AcDbSymbolTableRecord
100
AcDbLayerTableRecord
2
LAYER_NOTE
70
0
62
7
6
CONTINUOUS
0
ENDTAB
0
TABLE
2
STYLE
5
3
100
AcDbSymbolTable
70
1
0
STYLE
5
11
100
AcDbSymbolTableRecord
100
AcDbTextStyleTableRecord
2
STANDARD
70
0
40
0.0
41
0.8000000000
50
0.0
71
0
42
0.2
3
txt
4

0
ENDTAB
0
TABLE
2
VIEW
5
6
100
AcDbSymbolTable
70
0
0
ENDTAB
0
TABLE
2
UCS
5
7
100
AcDbSymbolTable
70
0
0
ENDTAB
0
TABLE
2
APPID
5
9
100
AcDbSymbolTable
70
1
0
APPID
5
1FF
100
AcDbSymbolTableRecord
100
AcDbRegAppTableRecord
2
ACAD
70
0
0
ENDTAB
0
TABLE
2
DIMSTYLE
5
A
100
AcDbSymbolTable
70
1
0
DIMSTYLE
105
200
100
AcDbSymbolTableRecord
100
AcDbDimStyleTableRecord
2
STANDARD
70
0
3

4

5

6

7

40
1.0
41
0.1875000000
42
0.0625
43
0.38
44
0.18
45
0.0
46
0.0
47
0.0100000000
48
0.0100000000
140
0.4000000000
141
0.09
142
0.0
143
25.4
144
1.0000000000
145
0.0
146
1.0000000000
147
0.09
71
0
72
0
73
1
74
1
75
0
76
0
77
0
78
8
170
0
171
2
172
0
173
0
174
0
175
0
176
0
177
0
178
0
270
2
271
2
272
2
273
2
274
2
340
11
275
0
280
0
281
0
282
0
283
1
284
8
285
0
286
0
287
3
288
0
0
ENDTAB
0
TABLE
2
BLOCK_RECORD
5
1
100
AcDbSymbolTable
70
0
0
BLOCK_RECORD
5
1B
100
AcDbSymbolTableRecord
100
AcDbBlockTableRecord
2
*MODEL_SPACE
0
BLOCK_RECORD
5
1C
100
AcDbSymbolTableRecord
100
AcDbBlockTableRecord
2
*PAPER_SPACE
0
ENDTAB
0
ENDSEC
0
SECTION
2
BLOCKS
0
BLOCK
5
1E
100
AcDbEntity
8
0
100
AcDbBlockBegin
2
*MODEL_SPACE
70
0
10
0.0
20
0.0
30
0.0
3
*MODEL_SPACE
1

0
ENDBLK
5
1F
100
AcDbEntity
8
0
100
AcDbBlockEnd
0
BLOCK
5
20
100
AcDbEntity
8
0
100
AcDbBlockBegin
2
*PAPER_SPACE
70
0
10
0.0
20
0.0
30
0.0
3
*PAPER_SPACE
1

0
ENDBLK
5
21
100
AcDbEntity
8
0
100
AcDbBlockEnd
0
ENDSEC
0
SECTION
2
ENTITIES
0
TEXT
5
201
100
AcDbEntity
8
LAYER_DETAIL_ITEM
100
AcDbText
62
2
6
CONTINUOUS
10
54.4070242079
20
7.0405932731
7
STANDARD
40
1.0160000000
1
UNIT: mm
41
0.8000000000
72
0
100
AcDbText
0
TEXT
5
202
100
AcDbEntity
8
LAYER_DETAIL_ITEM
100
AcDbText
62
2
6
CONTINUOUS
10
54.2937418618
20
4.3218169672
7
STANDARD
40
1.0160000000
1
SCALE: 1:1.00
41
0.8000000000
72
0
100
AcDbText
0
LINE
5
203
100
AcDbEntity
8
0
100
AcDbLine
62
7
6
CONTINUOUS
10
0.0000000000
20
0.0000000000
11
0.0000000000
21
53.9750000000
0
LINE
5
204
100
AcDbEntity
8
0
100
AcDbLine
62
7
6
CONTINUOUS
10
0.0000000000
20
0.0000000000
11
69.8500000000
21
0.0000000000
0
LINE
5
205
100
AcDbEntity
8
0
100
AcDbLine
62
7
6
CONTINUOUS
10
0.0000000000
20
53.9750000000
11
69.8500000000
21
53.9750000000
0
LINE
5
206
100
AcDbEntity
8
0
100
AcDbLine
62
7
6
CONTINUOUS
10
69.8500000000
20
0.0000000000
11
69.8500000000
21
53.9750000000
0
LINE
5
207
100
AcDbEntity
8
0
100
AcDbLine
62
7
6
CONTINUOUS
10
18.0298753114
20
32.1572841567
11
18.0298753114
21
20.1572841567
0
LINE
5
208
100
AcDbEntity
8
0
100
AcDbLine
62
7
6
CONTINUOUS
10
18.0298753114
20
20.1572841567
11
29.0298753128
21
20.1572841567
0
LINE
5
209
100
AcDbEntity
8
0
100
AcDbLine
62
7
6
CONTINUOUS
10
29.0298753128
20
21.6572841567
11
30.0298753113
21
21.6572841567
0
LINE
5
20A
100
AcDbEntity
8
0
100
AcDbLine
62
7
6
CONTINUOUS
10
32.0298753114
20
23.1572841567
11
30.0298753104
21
23.1572841567
0
LINE
5
20B
100
AcDbEntity
8
0
100
AcDbLine
62
7
6
CONTINUOUS
10
32.0798753114
20
23.6572841567
11
32.0298753114
21
23.6572841567
0
LINE
5
20C
100
AcDbEntity
8
0
100
AcDbLine
62
7
6
CONTINUOUS
10
29.0298753128
20
24.4989717600
11
30.0298753113
21
24.4989717600
0
LINE
5
20D
100
AcDbEntity
8
0
100
AcDbLine
62
7
6
CONTINUOUS
10
30.0298753113
20
27.8155965532
11
29.0298753128
21
27.8155965532
0
LINE
5
20E
100
AcDbEntity
8
0
100
AcDbLine
62
7
6
CONTINUOUS
10
32.0798753114
20
28.6572841567
11
32.0298753114
21
28.6572841567
0
LINE
5
20F
100
AcDbEntity
8
0
100
AcDbLine
62
7
6
CONTINUOUS
10
32.0298753114
20
29.1572841567
11
30.0298753104
21
29.1572841567
0
LINE
5
210
100
AcDbEntity
8
0
100
AcDbLine
62
7
6
CONTINUOUS
10
29.0298753128
20
20.1572841567
11
29.0298753128
21
21.6572841567
0
LINE
5
211
100
AcDbEntity
8
0
100
AcDbLine
62
7
6
CONTINUOUS
10
29.0298753114
20
24.4989717618
11
29.0298753114
21
27.8155965516
0
LINE
5
212
100
AcDbEntity
8
0
100
AcDbLine
62
7
6
CONTINUOUS
10
29.0298753128
20
30.6572841567
11
29.0298753128
21
32.1572841567
0
LINE
5
213
100
AcDbEntity
8
0
100
AcDbLine
62
7
6
CONTINUOUS
10
30.0298753114
20
21.6572841567
11
30.0298753114
21
24.4989717615
0
LINE
5
214
100
AcDbEntity
8
0
100
AcDbLine
62
7
6
CONTINUOUS
10
30.0298753113
20
27.8155965532
11
30.0298753113
21
30.6572841567
0
LINE
5
215
100
AcDbEntity
8
0
100
AcDbLine
62
7
6
CONTINUOUS
10
30.0298753113
20
30.6572841567
11
29.0298753128
21
30.6572841567
0
LINE
5
216
100
AcDbEntity
8
0
100
AcDbLine
62
7
6
CONTINUOUS
10
29.0298753128
20
32.1572841567
11
18.0298753114
21
32.1572841567
0
LINE
5
217
100
AcDbEntity
8
0
100
AcDbLine
62
7
6
CONTINUOUS
10
32.0298753114
20
29.1572357727
11
32.0298753114
21
23.1573325407
0
LINE
5
218
100
AcDbEntity
8
0
100
AcDbLine
62
7
6
CONTINUOUS
10
32.0798753114
20
28.6572807611
11
32.0798753114
21
23.6572875523
0
LINE
5
219
100
AcDbEntity
8
0
100
AcDbLine
62
7
6
CONTINUOUS
10
18.0298753114
20
44.6479988697
11
18.0298753114
21
39.6479988697
0
LINE
5
21A
100
AcDbEntity
8
0
100
AcDbLine
62
7
6
CONTINUOUS
10
20.0298753121
20
47.4479988759
11
20.0298753121
21
44.6479988697
0
LINE
5
21B
100
AcDbEntity
8
0
100
AcDbLine
62
7
6
CONTINUOUS
10
32.0298753114
20
39.1479988697
11
29.0298753114
21
39.1479988697
0
LINE
5
21C
100
AcDbEntity
8
0
100
AcDbLine
62
7
6
CONTINUOUS
10
21.0298753114
20
47.4479988701
11
21.0298753114
21
44.6479988697
0
LINE
5
21D
100
AcDbEntity
8
0
100
AcDbLine
62
7
6
CONTINUOUS
10
32.0798753114
20
39.6479988697
11
32.0298753114
21
39.6479988697
0
LINE
5
21E
100
AcDbEntity
8
0
100
AcDbLine
62
7
6
CONTINUOUS
10
30.0298753113
20
39.6479988697
11
18.0298753114
21
39.6479988697
0
LINE
5
21F
100
AcDbEntity
8
0
100
AcDbLine
62
7
6
CONTINUOUS
10
25.0298753114
20
45.6479988697
11
25.0298753114
21
44.6479988697
0
LINE
5
220
100
AcDbEntity
8
0
100
AcDbLine
62
7
6
CONTINUOUS
10
25.4298753114
20
45.6479988697
11
25.4298753114
21
47.9479960054
0
LINE
5
221
100
AcDbEntity
8
0
100
AcDbLine
62
7
6
CONTINUOUS
10
25.6298753114
20
47.9479960054
11
25.6298753114
21
45.6479988697
0
LINE
5
222
100
AcDbEntity
8
0
100
AcDbLine
62
7
6
CONTINUOUS
10
26.0298753114
20
45.6479988697
11
26.0298753114
21
44.6479988697
0
LINE
5
223
100
AcDbEntity
8
0
100
AcDbLine
62
7
6
CONTINUOUS
10
32.0798753114
20
44.6479988697
11
32.0298753114
21
44.6479988697
0
LINE
5
224
100
AcDbEntity
8
0
100
AcDbLine
62
7
6
CONTINUOUS
10
18.0298753114
20
44.6479988697
11
30.0298753113
21
44.6479988697
0
LINE
5
225
100
AcDbEntity
8
0
100
AcDbLine
62
7
6
CONTINUOUS
10
32.0298753114
20
45.1479988697
11
29.0298753114
21
45.1479988697
0
LINE
5
226
100
AcDbEntity
8
0
100
AcDbLine
62
7
6
CONTINUOUS
10
25.0298753114
20
45.6479988697
11
26.0298753114
21
45.6479988697
0
LINE
5
227
100
AcDbEntity
8
0
100
AcDbLine
62
7
6
CONTINUOUS
10
27.5298753114
20
45.6479988697
11
28.5298753114
21
45.6479988697
0
LINE
5
228
100
AcDbEntity
8
0
100
AcDbLine
62
7
6
CONTINUOUS
10
27.5298753114
20
45.6479988697
11
27.5298753114
21
44.6479988697
0
LINE
5
229
100
AcDbEntity
8
0
100
AcDbLine
62
7
6
CONTINUOUS
10
28.5298753114
20
45.6479988697
11
28.5298753114
21
44.6479988697
0
LINE
5
22A
100
AcDbEntity
8
0
100
AcDbLine
62
7
6
CONTINUOUS
10
25.4298753114
20
47.4479988702
11
25.6298753114
21
47.4479988702
0
LINE
5
22B
100
AcDbEntity
8
0
100
AcDbLine
62
7
6
CONTINUOUS
10
29.0298753114
20
39.1479988697
11
29.0298753114
21
45.1479988697
0
LINE
5
22C
100
AcDbEntity
8
0
100
AcDbLine
62
7
6
CONTINUOUS
10
25.6298753114
20
47.9479988697
11
25.4298753114
21
47.9479988697
0
LINE
5
22D
100
AcDbEntity
8
0
100
AcDbLine
62
7
6
CONTINUOUS
10
30.0298753114
20
39.6479988696
11
30.0298753114
21
44.6479988697
0
LINE
5
22E
100
AcDbEntity
8
0
100
AcDbLine
62
7
6
CONTINUOUS
10
32.0298753114
20
45.1479988697
11
32.0298753114
21
39.1479988697
0
LINE
5
22F
100
AcDbEntity
8
0
100
AcDbLine
62
7
6
CONTINUOUS
10
32.0798753114
20
44.6479988697
11
32.0798753114
21
39.6479988697
0
LINE
5
230
100
AcDbEntity
8
0
100
AcDbLine
62
7
6
CONTINUOUS
10
18.0298753114
20
7.6879282692
11
18.0298753114
21
12.6879282692
0
LINE
5
231
100
AcDbEntity
8
0
100
AcDbLine
62
7
6
CONTINUOUS
10
20.0298753114
20
4.8879282689
11
20.0298753114
21
7.6879282692
0
LINE
5
232
100
AcDbEntity
8
0
100
AcDbLine
62
7
6
CONTINUOUS
10
25.6298753114
20
4.3879282692
11
25.4298753114
21
4.3879282692
0
LINE
5
233
100
AcDbEntity
8
0
100
AcDbLine
62
7
6
CONTINUOUS
10
21.0298753114
20
4.8879282681
11
21.0298753114
21
7.6879282692
0
LINE
5
234
100
AcDbEntity
8
0
100
AcDbLine
62
7
6
CONTINUOUS
10
25.6298753114
20
4.8879282688
11
25.4298753114
21
4.8879282688
0
LINE
5
235
100
AcDbEntity
8
0
100
AcDbLine
62
7
6
CONTINUOUS
10
28.5298753114
20
6.6879282692
11
27.5298753114
21
6.6879282692
0
LINE
5
236
100
AcDbEntity
8
0
100
AcDbLine
62
7
6
CONTINUOUS
10
26.0298753114
20
6.6879282692
11
25.0298753114
21
6.6879282692
0
LINE
5
237
100
AcDbEntity
8
0
100
AcDbLine
62
7
6
CONTINUOUS
10
32.0298753114
20
7.1879282692
11
29.0298753114
21
7.1879282692
0
LINE
5
238
100
AcDbEntity
8
0
100
AcDbLine
62
7
6
CONTINUOUS
10
32.0798753114
20
7.6879282692
11
32.0298753114
21
7.6879282692
0
LINE
5
239
100
AcDbEntity
8
0
100
AcDbLine
62
7
6
CONTINUOUS
10
30.0298753113
20
7.6879282692
11
18.0298753114
21
7.6879282692
0
LINE
5
23A
100
AcDbEntity
8
0
100
AcDbLine
62
7
6
CONTINUOUS
10
25.0298753114
20
6.6879282692
11
25.0298753114
21
7.6879282692
0
LINE
5
23B
100
AcDbEntity
8
0
100
AcDbLine
62
7
6
CONTINUOUS
10
25.4298753114
20
4.3879311335
11
25.4298753114
21
6.6879282692
0
LINE
5
23C
100
AcDbEntity
8
0
100
AcDbLine
62
7
6
CONTINUOUS
10
25.6298753114
20
4.3879311335
11
25.6298753114
21
6.6879282692
0
LINE
5
23D
100
AcDbEntity
8
0
100
AcDbLine
62
7
6
CONTINUOUS
10
26.0298753114
20
6.6879282692
11
26.0298753114
21
7.6879282692
0
LINE
5
23E
100
AcDbEntity
8
0
100
AcDbLine
62
7
6
CONTINUOUS
10
27.5298753114
20
6.6879282692
11
27.5298753114
21
7.6879282692
0
LINE
5
23F
100
AcDbEntity
8
0
100
AcDbLine
62
7
6
CONTINUOUS
10
28.5298753114
20
6.6879282692
11
28.5298753114
21
7.6879282692
0
LINE
5
240
100
AcDbEntity
8
0
100
AcDbLine
62
7
6
CONTINUOUS
10
32.0798753114
20
12.6879282692
11
32.0298753114
21
12.6879282692
0
LINE
5
241
100
AcDbEntity
8
0
100
AcDbLine
62
7
6
CONTINUOUS
10
18.0298753114
20
12.6879282692
11
30.0298753113
21
12.6879282692
0
LINE
5
242
100
AcDbEntity
8
0
100
AcDbLine
62
7
6
CONTINUOUS
10
29.0298753114
20
7.1879282692
11
29.0298753114
21
13.1879282692
0
LINE
5
243
100
AcDbEntity
8
0
100
AcDbLine
62
7
6
CONTINUOUS
10
32.0298753114
20
13.1879282692
11
29.0298753114
21
13.1879282692
0
LINE
5
244
100
AcDbEntity
8
0
100
AcDbLine
62
7
6
CONTINUOUS
10
30.0298753114
20
7.6879282692
11
30.0298753114
21
12.6879282693
0
LINE
5
245
100
AcDbEntity
8
0
100
AcDbLine
62
7
6
CONTINUOUS
10
32.0298753114
20
13.1879282692
11
32.0298753114
21
7.1879282692
0
LINE
5
246
100
AcDbEntity
8
0
100
AcDbLine
62
7
6
CONTINUOUS
10
32.0798753114
20
12.6879282692
11
32.0798753114
21
7.6879282692
0
LINE
5
247
100
AcDbEntity
8
0
100
AcDbLine
62
7
6
CONTINUOUS
10
7.7013878661
20
20.1572841567
11
12.7013878661
21
20.1572841567
0
LINE
5
248
100
AcDbEntity
8
0
100
AcDbLine
62
7
6
CONTINUOUS
10
6.7013878661
20
20.6572841567
11
7.7013878661
21
20.6572841567
0
LINE
5
249
100
AcDbEntity
8
0
100
AcDbLine
62
7
6
CONTINUOUS
10
4.4013878661
20
21.0322841567
11
7.7013878661
21
21.0322841573
0
LINE
5
24A
100
AcDbEntity
8
0
100
AcDbLine
62
7
6
CONTINUOUS
10
4.4013878661
20
31.2572841567
11
4.4013878661
21
31.0572841567
0
LINE
5
24B
100
AcDbEntity
8
0
100
AcDbLine
62
7
6
CONTINUOUS
10
4.4013878661
20
28.8072841567
11
4.4013878661
21
28.5072841567
0
LINE
5
24C
100
AcDbEntity
8
0
100
AcDbLine
62
7
6
CONTINUOUS
10
4.4013878661
20
23.8072841567
11
4.4013878661
21
23.5072841567
0
LINE
5
24D
100
AcDbEntity
8
0
100
AcDbLine
62
7
6
CONTINUOUS
10
4.4013878661
20
21.2822841567
11
4.4013878661
21
21.0322841567
0
LINE
5
24E
100
AcDbEntity
8
0
100
AcDbLine
62
7
6
CONTINUOUS
10
4.4013878661
20
21.2822841567
11
7.7013878661
21
21.2822841567
0
LINE
5
24F
100
AcDbEntity
8
0
100
AcDbLine
62
7
6
CONTINUOUS
10
6.7013878661
20
21.6572841567
11
7.7013878661
21
21.6572841567
0
LINE
5
250
100
AcDbEntity
8
0
100
AcDbLine
62
7
6
CONTINUOUS
10
4.9013878658
20
21.0322841573
11
4.9013878658
21
21.2822841567
0
LINE
5
251
100
AcDbEntity
8
0
100
AcDbLine
62
7
6
CONTINUOUS
10
4.9013878658
20
23.5072841573
11
4.9013878658
21
23.8072841573
0
LINE
5
252
100
AcDbEntity
8
0
100
AcDbLine
62
7
6
CONTINUOUS
10
4.9013878657
20
28.5072841560
11
4.9013878657
21
28.8072841560
0
LINE
5
253
100
AcDbEntity
8
0
100
AcDbLine
62
7
6
CONTINUOUS
10
4.9013878658
20
31.0572841560
11
4.9013878658
21
31.2572841567
0
LINE
5
254
100
AcDbEntity
8
0
100
AcDbLine
62
7
6
CONTINUOUS
10
7.7013878661
20
23.5072841567
11
4.4013878661
21
23.5072841567
0
LINE
5
255
100
AcDbEntity
8
0
100
AcDbLine
62
7
6
CONTINUOUS
10
6.7013878661
20
20.6572870210
11
6.7013878661
21
21.0322841573
0
LINE
5
256
100
AcDbEntity
8
0
100
AcDbLine
62
7
6
CONTINUOUS
10
6.7013878661
20
21.2822841567
11
6.7013878661
21
21.6572812924
0
LINE
5
257
100
AcDbEntity
8
0
100
AcDbLine
62
7
6
CONTINUOUS
10
6.7013878661
20
25.6572870210
11
6.7013878661
21
26.6572812924
0
LINE
5
258
100
AcDbEntity
8
0
100
AcDbLine
62
7
6
CONTINUOUS
10
6.7013878661
20
30.6572870210
11
6.7013878661
21
31.0572841567
0
LINE
5
259
100
AcDbEntity
8
0
100
AcDbLine
62
7
6
CONTINUOUS
10
6.7013878661
20
31.2572841567
11
6.7013878661
21
31.6572812924
0
LINE
5
25A
100
AcDbEntity
8
0
100
AcDbLine
62
7
6
CONTINUOUS
10
4.4013878661
20
23.8072841567
11
7.7013878661
21
23.8072841567
0
LINE
5
25B
100
AcDbEntity
8
0
100
AcDbLine
62
7
6
CONTINUOUS
10
7.7013878661
20
20.1572841567
11
7.7013878661
21
32.1572841567
0
LINE
5
25C
100
AcDbEntity
8
0
100
AcDbLine
62
7
6
CONTINUOUS
10
4.9013878650
20
25.6572841567
11
7.7013878661
21
25.6572841567
0
LINE
5
25D
100
AcDbEntity
8
0
100
AcDbLine
62
7
6
CONTINUOUS
10
4.9013878650
20
26.6572841567
11
7.7013878661
21
26.6572841567
0
LINE
5
25E
100
AcDbEntity
8
0
100
AcDbLine
62
7
6
CONTINUOUS
10
7.7013878661
20
28.5072841567
11
4.4013907304
21
28.5072841567
0
LINE
5
25F
100
AcDbEntity
8
0
100
AcDbLine
62
7
6
CONTINUOUS
10
4.4013907304
20
28.8072841567
11
7.7013878661
21
28.8072841567
0
LINE
5
260
100
AcDbEntity
8
0
100
AcDbLine
62
7
6
CONTINUOUS
10
12.7013878661
20
32.1572841567
11
12.7013878661
21
20.1572841567
0
LINE
5
261
100
AcDbEntity
8
0
100
AcDbLine
62
7
6
CONTINUOUS
10
6.7013878661
20
30.6572841567
11
7.7013878661
21
30.6572841567
0
LINE
5
262
100
AcDbEntity
8
0
100
AcDbLine
62
7
6
CONTINUOUS
10
7.7013878661
20
31.0572841567
11
4.4013878661
21
31.0572841567
0
LINE
5
263
100
AcDbEntity
8
0
100
AcDbLine
62
7
6
CONTINUOUS
10
4.4013878661
20
31.2572841567
11
7.7013878661
21
31.2572841567
0
LINE
5
264
100
AcDbEntity
8
0
100
AcDbLine
62
7
6
CONTINUOUS
10
6.7013878661
20
31.6572841567
11
7.7013878661
21
31.6572841567
0
LINE
5
265
100
AcDbEntity
8
0
100
AcDbLine
62
7
6
CONTINUOUS
10
7.7013878661
20
32.1572841567
11
12.7013878661
21
32.1572841567
0
LINE
5
266
100
AcDbEntity
8
0
100
AcDbLine
62
7
6
CONTINUOUS
10
42.5061248129
20
20.1572841567
11
37.5061248129
21
20.1572841567
0
LINE
5
267
100
AcDbEntity
8
0
100
AcDbLine
62
7
6
CONTINUOUS
10
43.5061248129
20
20.6572841567
11
42.5061248129
21
20.6572841567
0
LINE
5
268
100
AcDbEntity
8
0
100
AcDbLine
62
7
6
CONTINUOUS
10
45.8061248129
20
21.0322841567
11
43.5061248129
21
21.0322841567
0
LINE
5
269
100
AcDbEntity
8
0
100
AcDbLine
62
7
6
CONTINUOUS
10
43.5061248129
20
21.2822841567
11
45.8061248129
21
21.2822841567
0
LINE
5
26A
100
AcDbEntity
8
0
100
AcDbLine
62
7
6
CONTINUOUS
10
43.5061248129
20
21.6572841567
11
37.5061248129
21
21.6572841567
0
LINE
5
26B
100
AcDbEntity
8
0
100
AcDbLine
62
7
6
CONTINUOUS
10
37.5061248129
20
20.1572841567
11
37.5061248129
21
24.4989717615
0
LINE
5
26C
100
AcDbEntity
8
0
100
AcDbLine
62
7
6
CONTINUOUS
10
37.5061248129
20
27.8155965532
11
37.5061248129
21
32.1572841567
0
LINE
5
26D
100
AcDbEntity
8
0
100
AcDbLine
62
7
6
CONTINUOUS
10
45.8061248129
20
23.5072841567
11
42.5061248129
21
23.5072841573
0
LINE
5
26E
100
AcDbEntity
8
0
100
AcDbLine
62
7
6
CONTINUOUS
10
42.5061248129
20
23.8072841573
11
45.8061248129
21
23.8072841567
0
LINE
5
26F
100
AcDbEntity
8
0
100
AcDbLine
62
7
6
CONTINUOUS
10
45.3061248133
20
25.6572841567
11
42.9638303406
21
25.6572841567
0
LINE
5
270
100
AcDbEntity
8
0
100
AcDbLine
62
7
6
CONTINUOUS
10
45.3061248140
20
26.6572841567
11
42.9635778589
21
26.6572841567
0
LINE
5
271
100
AcDbEntity
8
0
100
AcDbLine
62
7
6
CONTINUOUS
10
42.5061248129
20
32.1572841567
11
42.5061248129
21
27.8155965529
0
LINE
5
272
100
AcDbEntity
8
0
100
AcDbLine
62
7
6
CONTINUOUS
10
42.5061248129
20
24.4989717605
11
42.5061248129
21
20.1572841567
0
LINE
5
273
100
AcDbEntity
8
0
100
AcDbLine
62
7
6
CONTINUOUS
10
43.5061248129
20
31.6572812924
11
43.5061248129
21
30.6572870210
0
LINE
5
274
100
AcDbEntity
8
0
100
AcDbLine
62
7
6
CONTINUOUS
10
43.5061248129
20
21.6572812924
11
43.5061248129
21
20.6572870210
0
LINE
5
275
100
AcDbEntity
8
0
100
AcDbLine
62
7
6
CONTINUOUS
10
45.8061219486
20
28.5072841567
11
42.5061248129
21
28.5072841567
0
LINE
5
276
100
AcDbEntity
8
0
100
AcDbLine
62
7
6
CONTINUOUS
10
42.5061248129
20
28.8072841560
11
45.8061219486
21
28.8072841567
0
LINE
5
277
100
AcDbEntity
8
0
100
AcDbLine
62
7
6
CONTINUOUS
10
45.3061248133
20
31.2572841567
11
45.3061248133
21
31.0572841560
0
LINE
5
278
100
AcDbEntity
8
0
100
AcDbLine
62
7
6
CONTINUOUS
10
45.3061248133
20
28.8072841560
11
45.3061248133
21
28.5072841560
0
LINE
5
279
100
AcDbEntity
8
0
100
AcDbLine
62
7
6
CONTINUOUS
10
45.3061248133
20
23.8072841573
11
45.3061248133
21
23.5072841573
0
LINE
5
27A
100
AcDbEntity
8
0
100
AcDbLine
62
7
6
CONTINUOUS
10
45.3061248133
20
21.2822841567
11
45.3061248133
21
21.0322841573
0
LINE
5
27B
100
AcDbEntity
8
0
100
AcDbLine
62
7
6
CONTINUOUS
10
45.8061248129
20
31.2572841567
11
45.8061248129
21
31.0572841567
0
LINE
5
27C
100
AcDbEntity
8
0
100
AcDbLine
62
7
6
CONTINUOUS
10
45.8061248129
20
28.8072841567
11
45.8061248129
21
28.5072841567
0
LINE
5
27D
100
AcDbEntity
8
0
100
AcDbLine
62
7
6
CONTINUOUS
10
45.8061248129
20
23.8072841567
11
45.8061248129
21
23.5072841567
0
LINE
5
27E
100
AcDbEntity
8
0
100
AcDbLine
62
7
6
CONTINUOUS
10
45.8061248129
20
21.2822841567
11
45.8061248129
21
21.0322841567
0
LINE
5
27F
100
AcDbEntity
8
0
100
AcDbLine
62
7
6
CONTINUOUS
10
37.5061248128
20
30.6572841567
11
43.5061248129
21
30.6572841567
0
LINE
5
280
100
AcDbEntity
8
0
100
AcDbLine
62
7
6
CONTINUOUS
10
45.8061248129
20
31.0572841567
11
43.5061248129
21
31.0572841560
0
LINE
5
281
100
AcDbEntity
8
0
100
AcDbLine
62
7
6
CONTINUOUS
10
43.5061248129
20
31.2572841567
11
45.8061248129
21
31.2572841567
0
LINE
5
282
100
AcDbEntity
8
0
100
AcDbLine
62
7
6
CONTINUOUS
10
43.5061248129
20
31.6572841567
11
42.5061248129
21
31.6572841567
0
LINE
5
283
100
AcDbEntity
8
0
100
AcDbLine
62
7
6
CONTINUOUS
10
37.5061248129
20
32.1572841567
11
42.5061248129
21
32.1572841567
0
LINE
5
284
100
AcDbEntity
8
0
100
AcDbLine
62
7
6
CONTINUOUS
10
50.9164617975
20
47.3336807007
11
49.7061301804
21
43.4170461526
0
LINE
5
285
100
AcDbEntity
8
0
100
AcDbLine
62
7
6
CONTINUOUS
10
49.7061301804
20
43.4170461526
11
53.3666325800
21
35.9577265333
0
LINE
5
286
100
AcDbEntity
8
0
100
AcDbLine
62
7
6
CONTINUOUS
10
53.3666325800
20
35.9577265333
11
63.4983035153
21
35.9577265333
0
LINE
5
287
100
AcDbEntity
8
0
100
AcDbLine
62
7
6
CONTINUOUS
10
53.7109071731
20
48.9675470810
11
53.2060042740
21
47.3336807007
0
LINE
5
288
100
AcDbEntity
8
0
100
AcDbLine
62
7
6
CONTINUOUS
10
63.0407407153
20
36.8901414857
11
63.9618017080
21
36.8901414857
0
LINE
5
289
100
AcDbEntity
8
0
100
AcDbLine
62
7
6
CONTINUOUS
10
54.6319681651
20
48.9675470765
11
54.1270652674
21
47.3336807007
0
LINE
5
28A
100
AcDbEntity
8
0
100
AcDbLine
62
7
6
CONTINUOUS
10
54.6929765386
20
48.8432250824
11
54.2264920428
21
47.3336807007
0
LINE
5
28B
100
AcDbEntity
8
0
100
AcDbLine
62
7
6
CONTINUOUS
10
54.4582597463
20
47.4446026588
11
54.4239822688
21
47.3336807007
0
LINE
5
28C
100
AcDbEntity
8
0
100
AcDbLine
62
7
6
CONTINUOUS
10
55.3793207385
20
47.4446026538
11
55.3450432625
21
47.3336807007
0
LINE
5
28D
100
AcDbEntity
8
0
100
AcDbLine
62
7
6
CONTINUOUS
10
65.0364011048
20
38.6457036170
11
63.1942791159
21
38.6457036170
0
LINE
5
28E
100
AcDbEntity
8
0
100
AcDbLine
62
7
6
CONTINUOUS
10
62.1739070244
20
38.6565628267
11
63.0949680171
21
38.6565628267
0
LINE
5
28F
100
AcDbEntity
8
0
100
AcDbLine
62
7
6
CONTINUOUS
10
63.1946193804
20
38.6457658329
11
63.0949680168
21
38.6565628275
0
LINE
5
290
100
AcDbEntity
8
0
100
AcDbLine
62
7
6
CONTINUOUS
10
57.8938170204
20
47.6430213278
11
57.7982235366
21
47.3336807007
0
LINE
5
291
100
AcDbEntity
8
0
100
AcDbLine
62
7
6
CONTINUOUS
10
62.0832585992
20
40.7182098591
11
61.1621976066
21
40.7182098591
0
LINE
5
292
100
AcDbEntity
8
0
100
AcDbLine
62
7
6
CONTINUOUS
10
58.8492378647
20
47.3477739563
11
58.8448827193
21
47.3336807007
0
LINE
5
293
100
AcDbEntity
8
0
100
AcDbLine
62
7
6
CONTINUOUS
10
61.2164249083
20
42.4846312002
11
60.2953639157
21
42.4846312002
0
LINE
5
294
100
AcDbEntity
8
0
100
AcDbLine
62
7
6
CONTINUOUS
10
54.6319681651
20
48.9675470765
11
54.6929765386
21
48.8432250824
0
LINE
5
295
100
AcDbEntity
8
0
100
AcDbLine
62
7
6
CONTINUOUS
10
55.3793207385
20
47.4446026538
11
55.4337533271
21
47.3336807007
0
LINE
5
296
100
AcDbEntity
8
0
100
AcDbLine
62
7
6
CONTINUOUS
10
54.6203034947
20
49.1878184307
11
54.6813118680
21
49.0634964370
0
LINE
5
297
100
AcDbEntity
8
0
100
AcDbLine
62
7
6
CONTINUOUS
10
55.3676560680
20
47.6648740084
11
55.4591686280
21
47.4783910179
0
LINE
5
298
100
AcDbEntity
8
0
100
AcDbLine
62
7
6
CONTINUOUS
10
60.1964695054
20
47.6430213278
11
60.1008760216
21
47.3336807007
0
LINE
5
299
100
AcDbEntity
8
0
100
AcDbLine
62
7
6
CONTINUOUS
10
59.8378011157
20
43.4170461526
11
49.7061301804
21
43.4170461526
0
LINE
5
29A
100
AcDbEntity
8
0
100
AcDbLine
62
7
6
CONTINUOUS
10
59.8378011145
20
43.4170461526
11
61.0481327315
21
47.3336807007
0
LINE
5
29B
100
AcDbEntity
8
0
100
AcDbLine
62
7
6
CONTINUOUS
10
61.1518903497
20
47.3477739563
11
61.1091261934
21
47.2093890959
0
LINE
5
29C
100
AcDbEntity
8
0
100
AcDbLine
62
7
6
CONTINUOUS
10
65.0364011048
20
44.6457036170
11
63.1942791159
21
44.6457036170
0
LINE
5
29D
100
AcDbEntity
8
0
100
AcDbLine
62
7
6
CONTINUOUS
10
63.4983035153
20
35.9577265333
11
63.0407407153
21
36.8901414857
0
LINE
5
29E
100
AcDbEntity
8
0
100
AcDbLine
62
7
6
CONTINUOUS
10
60.2953639157
20
42.4846312002
11
59.8378011157
21
43.4170461526
0
LINE
5
29F
100
AcDbEntity
8
0
100
AcDbLine
62
7
6
CONTINUOUS
10
60.2953639144
20
42.4846312002
11
61.5056955315
21
46.4012657483
0
LINE
5
2A0
100
AcDbEntity
8
0
100
AcDbLine
62
7
6
CONTINUOUS
10
63.9618017081
20
36.8901414857
11
63.0949680168
21
38.6565628275
0
LINE
5
2A1
100
AcDbEntity
8
0
100
AcDbLine
62
7
6
CONTINUOUS
10
62.0832585992
20
40.7182098591
11
61.2164249083
21
42.4846312002
0
LINE
5
2A2
100
AcDbEntity
8
0
100
AcDbLine
62
7
6
CONTINUOUS
10
61.2164249084
20
42.4846312001
11
62.4267565254
21
46.4012657483
0
LINE
5
2A3
100
AcDbEntity
8
0
100
AcDbLine
62
7
6
CONTINUOUS
10
61.5056955327
20
46.4012657483
11
62.4267565253
21
46.4012657483
0
LINE
5
2A4
100
AcDbEntity
8
0
100
AcDbLine
62
7
6
CONTINUOUS
10
50.9164617975
20
47.3336807007
11
61.0481327327
21
47.3336807007
0
LINE
5
2A5
100
AcDbEntity
8
0
100
AcDbLine
62
7
6
CONTINUOUS
10
61.0481327327
20
47.3336807007
11
61.5056955327
21
46.4012657483
0
LINE
5
2A6
100
AcDbEntity
8
0
100
AcDbLine
62
7
6
CONTINUOUS
10
62.4267565253
20
46.4012657483
11
63.2882612901
21
44.6457036170
0
LINE
5
2A7
100
AcDbEntity
8
0
100
AcDbLine
62
7
6
CONTINUOUS
10
63.7864415273
20
36.8901414857
11
63.4983035141
21
35.9577265333
0
LINE
5
2A8
100
AcDbEntity
8
0
100
AcDbLine
62
7
6
CONTINUOUS
10
64.5043114386
20
38.6457036170
11
63.9618017081
21
36.8901414857
0
ARC
5
2A9
100
AcDbEntity
8
0
100
AcDbCircle
62
7
6
CONTINUOUS
10
20.5298753114
20
47.4479988697
40
0.5000000000
100
AcDbArc
50
0.0000001260
51
179.9999992954
0
ARC
5
2AA
100
AcDbEntity
8
0
100
AcDbCircle
62
7
6
CONTINUOUS
10
20.5298753114
20
4.8879282692
40
0.5000000000
100
AcDbArc
50
180.0000007046
51
359.9999998740
0
ARC
5
2AB
100
AcDbEntity
8
0
100
AcDbCircle
62
7
6
CONTINUOUS
10
10.2013878661
20
26.1572841567
40
3.0000000000
100
AcDbArc
50
146.4426902381
51
170.3930448788
0
ARC
5
2AC
100
AcDbEntity
8
0
100
AcDbCircle
62
7
6
CONTINUOUS
10
4.9013878661
20
26.1572841567
40
0.5000000000
100
AcDbArc
50
90.0000001260
51
269.9999998740
0
ARC
5
2AD
100
AcDbEntity
8
0
100
AcDbCircle
62
7
6
CONTINUOUS
10
10.2013878661
20
26.1572841567
40
3.0000000000
100
AcDbArc
50
326.4426902445
51
33.5573097555
0
ARC
5
2AE
100
AcDbEntity
8
0
100
AcDbCircle
62
7
6
CONTINUOUS
10
10.2013878661
20
26.1572841567
40
3.0000000000
100
AcDbArc
50
189.6069551212
51
213.5573097619
0
CIRCLE
5
2AF
100
AcDbEntity
8
0
100
AcDbCircle
62
7
6
CONTINUOUS
10
40.0061248129
20
26.1572841567
40
1.8000000000
0
CIRCLE
5
2B0
100
AcDbEntity
8
0
100
AcDbCircle
62
7
6
CONTINUOUS
10
40.0061248129
20
26.1572841567
40
2.5000000000
0
CIRCLE
5
2B1
100
AcDbEntity
8
0
100
AcDbCircle
62
7
6
CONTINUOUS
10
40.0061248129
20
26.1572841567
40
3.0000000000
0
ARC
5
2B2
100
AcDbEntity
8
0
100
AcDbCircle
62
7
6
CONTINUOUS
10
45.3061248129
20
26.1572841567
40
0.5000000000
100
AcDbArc
50
270.0000001260
51
89.9999998740
0
SPLINE
5
2B3
100
AcDbEntity
8
0
100
AcDbSpline
62
7
6
CONTINUOUS
70
0
71
3
72
21
73
17
74
15
42
0.0000001000
43
0.0000001000
44
0.0000000001
12
-1.5431055188
22
3.1445184317
32
0.0000000000
13
3.5359889563
23
-0.0111923954
33
0.0000000000
40
0.0000000000
40
0.0000000000
40
0.0000000000
40
0.0000000000
40
0.0707296415
40
0.1507221408
40
0.2379861955
40
0.3296592445
40
0.4244051350
40
0.5190471548
40
0.6105268434
40
0.6962022444
40
0.7738861162
40
0.8419266010
40
0.8994276056
40
0.9467256039
40
0.9861732903
40
1.0000000000
40
1.0000000000
40
1.0000000000
40
1.0000000000
10
64.6467347724
20
40.2357151797
30
0.0000000000
10
64.6103536723
20
40.3098520668
30
0.0000000000
10
64.5452278646
20
40.4739756958
30
0.0000000000
10
64.4716567575
20
40.7423258331
30
0.0000000000
10
64.4182116705
20
41.0402608126
30
0.0000000000
10
64.3865254764
20
41.3585236577
30
0.0000000000
10
64.3777404864
20
41.6868492518
30
0.0000000000
10
64.3923589653
20
42.0147436014
30
0.0000000000
10
64.4299093576
20
42.3301735544
30
0.0000000000
10
64.4889591745
20
42.6221802501
30
0.0000000000
10
64.5673777898
20
42.8812326411
30
0.0000000000
10
64.6625122576
20
43.0993755019
30
0.0000000000
10
64.7717774779
20
43.2703884905
30
0.0000000000
10
64.8932683227
20
43.3899491318
30
0.0000000000
10
65.0033910844
20
43.4403339870
30
0.0000000000
10
65.0661099347
20
43.4455016887
30
0.0000000000
10
65.0824069657
20
43.4454501040
30
0.0000000000
11
64.6467347724
21
40.2357151797
31
0.0000000000
11
64.5533112088
21
40.4651728011
31
0.0000000000
11
64.4778349633
21
40.7350085026
31
0.0000000000
11
64.4229786905
21
41.0357088721
31
0.0000000000
11
64.3906915058
21
41.3551881515
31
0.0000000000
11
64.3816857651
21
41.6869359324
31
0.0000000000
11
64.3966675252
21
42.0181033867
31
0.0000000000
11
64.4351308034
21
42.3362158548
31
0.0000000000
11
64.4956266011
21
42.6301534978
31
0.0000000000
11
64.5759977378
21
42.8901194095
31
0.0000000000
11
64.6734957527
21
43.1075920659
31
0.0000000000
11
64.7848550887
21
43.2754177545
31
0.0000000000
11
64.9063975522
21
43.3880001667
31
0.0000000000
11
65.0338495400
21
43.4413695621
31
0.0000000000
11
65.0824069657
21
43.4454501040
31
0.0000000000
0
SPLINE
5
2B4
100
AcDbEntity
8
0
100
AcDbSpline
62
7
6
CONTINUOUS
70
0
71
3
72
11
73
7
74
5
42
0.0000001000
43
0.0000001000
44
0.0000000001
12
-0.3745838079
22
0.7633215456
32
0.0000000000
13
-0.8549997252
23
0.0032737034
33
0.0000000000
40
0.0000000000
40
0.0000000000
40
0.0000000000
40
0.0000000000
40
0.3275031027
40
0.6018538471
40
0.8297420803
40
1.0000000000
40
1.0000000000
40
1.0000000000
40
1.0000000000
10
65.6876199630
20
43.6040208911
30
0.0000000000
10
65.6467275099
20
43.6873509493
30
0.0000000000
10
65.5616578563
20
43.8361915175
30
0.0000000000
10
65.4072448582
20
44.0160269391
30
0.0000000000
10
65.2448083914
20
44.1229109690
30
0.0000000000
10
65.1309725900
20
44.1454428393
30
0.0000000000
10
65.0824490985
20
44.1456286306
30
0.0000000000
11
65.6876199630
21
43.6040208911
31
0.0000000000
11
65.5461696652
21
43.8438888445
31
0.0000000000
11
65.3902890390
21
44.0174347669
31
0.0000000000
11
65.2251004379
21
44.1187210292
31
0.0000000000
11
65.0824490985
21
44.1456286306
31
0.0000000000
0
SPLINE
5
2B5
100
AcDbEntity
8
0
100
AcDbSpline
62
7
6
CONTINUOUS
70
0
71
3
72
12
73
8
74
6
42
0.0000001000
43
0.0000001000
44
0.0000000001
12
-0.4496829671
22
0.9163575418
32
0.0000000000
13
-1.0253622268
23
-0.0015825050
33
0.0000000000
40
0.0000000000
40
0.0000000000
40
0.0000000000
40
0.0000000000
40
0.3114697417
40
0.5751913228
40
0.7960422634
40
0.9887266089
40
1.0000000000
40
1.0000000000
40
1.0000000000
40
1.0000000000
10
65.7626000750
20
43.9956843459
30
0.0000000000
10
65.7159125291
20
44.0908235615
30
0.0000000000
10
65.6188595548
20
44.2617661636
30
0.0000000000
10
65.4444149013
20
44.4713990911
30
0.0000000000
10
65.2542103626
20
44.6078895269
30
0.0000000000
10
65.1100476612
20
44.6448807523
30
0.0000000000
10
65.0403445858
20
44.6456950594
30
0.0000000000
10
65.0364914826
20
44.6456891127
30
0.0000000000
11
65.7626000750
21
43.9956843459
31
0.0000000000
11
65.6023009224
21
44.2702475577
31
0.0000000000
11
65.4261638402
21
44.4738174698
31
0.0000000000
11
65.2393984092
21
44.6000662483
31
0.0000000000
11
65.0480485146
21
44.6455532693
31
0.0000000000
11
65.0364914826
21
44.6456891127
31
0.0000000000
0
SPLINE
5
2B6
100
AcDbEntity
8
0
100
AcDbSpline
62
7
6
CONTINUOUS
70
0
71
3
72
11
73
7
74
5
42
0.0000001000
43
0.0000001000
44
0.0000000001
12
-0.6517901034
22
1.3282085831
32
0.0000000000
13
-0.1858184840
23
1.4678010322
33
0.0000000000
40
0.0000000000
40
0.0000000000
40
0.0000000000
40
0.0000000000
40
0.2181237284
40
0.4598942888
40
0.7219246844
40
1.0000000000
40
1.0000000000
40
1.0000000000
40
1.0000000000
10
61.5470191526
20
39.2957228881
30
0.0000000000
10
61.4996288567
20
39.3922941576
30
0.0000000000
10
61.4123080514
20
39.6021670895
30
0.0000000000
10
61.3064966658
20
39.9425062433
30
0.0000000000
10
61.2208474620
20
40.3188180118
30
0.0000000000
10
61.1794214503
20
40.5821567796
30
0.0000000000
10
61.1621976058
20
40.7182098580
30
0.0000000000
11
61.5470191526
21
39.2957228881
31
0.0000000000
11
61.4212777858
21
39.5929362133
31
0.0000000000
11
61.3137619406
21
39.9340991072
31
0.0000000000
11
61.2267802224
21
40.3118934858
31
0.0000000000
11
61.1621976058
21
40.7182098580
31
0.0000000000
0
SPLINE
5
2B7
100
AcDbEntity
8
0
100
AcDbSpline
62
7
6
CONTINUOUS
70
0
71
3
72
18
73
14
74
12
42
0.0000001000
43
0.0000001000
44
0.0000000001
12
0.3252185519
22
1.0604858930
32
0.0000000000
13
0.4859554282
23
-0.9902730455
33
0.0000000000
40
0.0000000000
40
0.0000000000
40
0.0000000000
40
0.0000000000
40
0.0076304862
40
0.0770024256
40
0.1548607711
40
0.2457200384
40
0.3488092137
40
0.4611493730
40
0.5785998574
40
0.6958486103
40
0.8084428529
40
0.9109802677
40
1.0000000000
40
1.0000000000
40
1.0000000000
40
1.0000000000
10
60.1965077899
20
47.6430923107
30
0.0000000000
10
60.1973349818
20
47.6457896517
30
0.0000000000
10
60.2063997324
20
47.6727787499
30
0.0000000000
10
60.2393633385
20
47.7215806368
30
0.0000000000
10
60.3139311023
20
47.7704758152
30
0.0000000000
10
60.4104078749
20
47.8000354563
30
0.0000000000
10
60.5232937469
20
47.8096151258
30
0.0000000000
10
60.6457442499
20
47.7989234488
30
0.0000000000
10
60.7701774979
20
47.7686064461
30
0.0000000000
10
60.8889287765
20
47.7203939591
30
0.0000000000
10
60.9941766188
20
47.6571223087
30
0.0000000000
10
61.0786722644
20
47.5828822422
30
0.0000000000
10
61.1202905505
20
47.5247822559
30
0.0000000000
10
61.1347104245
20
47.4953976421
30
0.0000000000
11
60.1965077899
21
47.6430923107
31
0.0000000000
11
60.1992034467
21
47.6511118335
31
0.0000000000
11
60.2408364580
21
47.7153182905
31
0.0000000000
11
60.3113595147
21
47.7643346655
31
0.0000000000
11
60.4066464093
21
47.7954076709
31
0.0000000000
11
60.5198492495
21
47.8061984209
31
0.0000000000
11
60.6433538926
21
47.7960537419
31
0.0000000000
11
60.7692727990
21
47.7655639597
31
0.0000000000
11
60.8890079885
21
47.7166653745
31
0.0000000000
11
60.9950722511
21
47.6520416491
31
0.0000000000
11
61.0791044828
21
47.5763326401
31
0.0000000000
11
61.1347104245
21
47.4953976421
31
0.0000000000
0
SPLINE
5
2B8
100
AcDbEntity
8
0
100
AcDbSpline
62
7
6
CONTINUOUS
70
0
71
3
72
18
73
14
74
12
42
0.0000001000
43
0.0000001000
44
0.0000000001
12
0.3252185519
22
1.0604858930
32
0.0000000000
13
0.4859554282
23
-0.9902730455
33
0.0000000000
40
0.0000000000
40
0.0000000000
40
0.0000000000
40
0.0000000000
40
0.0076304862
40
0.0770024256
40
0.1548607711
40
0.2457200384
40
0.3488092137
40
0.4611493730
40
0.5785998574
40
0.6958486103
40
0.8084428529
40
0.9109802677
40
1.0000000000
40
1.0000000000
40
1.0000000000
40
1.0000000000
10
57.8938553049
20
47.6430923107
30
0.0000000000
10
57.8946824968
20
47.6457896517
30
0.0000000000
10
57.9037472474
20
47.6727787499
30
0.0000000000
10
57.9367108535
20
47.7215806368
30
0.0000000000
10
58.0112786173
20
47.7704758152
30
0.0000000000
10
58.1077553899
20
47.8000354563
30
0.0000000000
10
58.2206412619
20
47.8096151258
30
0.0000000000
10
58.3430917648
20
47.7989234488
30
0.0000000000
10
58.4675250129
20
47.7686064461
30
0.0000000000
10
58.5862762915
20
47.7203939591
30
0.0000000000
10
58.6915241338
20
47.6571223087
30
0.0000000000
10
58.7760197794
20
47.5828822422
30
0.0000000000
10
58.8176380655
20
47.5247822559
30
0.0000000000
10
58.8320579395
20
47.4953976421
30
0.0000000000
11
57.8938553049
21
47.6430923107
31
0.0000000000
11
57.8965509617
21
47.6511118335
31
0.0000000000
11
57.9381839730
21
47.7153182905
31
0.0000000000
11
58.0087070297
21
47.7643346655
31
0.0000000000
11
58.1039939243
21
47.7954076709
31
0.0000000000
11
58.2171967644
21
47.8061984209
31
0.0000000000
11
58.3407014076
21
47.7960537419
31
0.0000000000
11
58.4666203140
21
47.7655639597
31
0.0000000000
11
58.5863555035
21
47.7166653745
31
0.0000000000
11
58.6924197661
21
47.6520416491
31
0.0000000000
11
58.7764519978
21
47.5763326401
31
0.0000000000
11
58.8320579395
21
47.4953976421
31
0.0000000000
0
SPLINE
5
2B9
100
AcDbEntity
8
0
100
AcDbSpline
62
7
6
CONTINUOUS
70
0
71
3
72
10
73
6
74
4
42
0.0000001000
43
0.0000001000
44
0.0000000001
12
0.0997849878
22
-0.2028859304
32
0.0000000000
13
-0.0664019342
23
-0.2148767384
33
0.0000000000
40
0.0000000000
40
0.0000000000
40
0.0000000000
40
0.0000000000
40
0.1163697120
40
0.5427300473
40
1.0000000000
40
1.0000000000
40
1.0000000000
40
1.0000000000
10
54.6813205875
20
49.0634070742
30
0.0000000000
10
54.6851912376
20
49.0555371484
30
0.0000000000
10
54.7013957382
20
49.0179421801
30
0.0000000000
10
54.7142417330
20
48.9425131259
30
0.0000000000
10
54.7030977417
20
48.8759773088
30
0.0000000000
10
54.6929765386
20
48.8432250834
30
0.0000000000
11
54.6813205875
21
49.0634070742
31
0.0000000000
11
54.6917157693
21
49.0392615889
31
0.0000000000
11
54.7086074538
21
48.9448715179
31
0.0000000000
11
54.6929765386
21
48.8432250834
31
0.0000000000
0
SPLINE
5
2BA
100
AcDbEntity
8
0
100
AcDbSpline
62
7
6
CONTINUOUS
70
0
71
3
72
11
73
7
74
5
42
0.0000001000
43
0.0000001000
44
0.0000000001
12
-0.1723909174
22
0.3505117020
32
0.0000000000
13
-0.3885481874
23
-0.0000000000
33
0.0000000000
40
0.0000000000
40
0.0000000000
40
0.0000000000
40
0.0000000000
40
0.1748074206
40
0.4273346949
40
0.7010670700
40
1.0000000000
40
1.0000000000
40
1.0000000000
40
1.0000000000
10
54.6203123055
20
49.1877288519
30
0.0000000000
10
54.6102672349
20
49.2081528674
30
0.0000000000
10
54.5791886114
20
49.2549365066
30
0.0000000000
10
54.5068937231
20
49.3126752164
30
0.0000000000
10
54.4057544993
20
49.3512770036
30
0.0000000000
10
54.3311874457
20
49.3592105310
30
0.0000000000
10
54.2924708297
20
49.3592105310
30
0.0000000000
11
54.6203123055
21
49.1877288519
31
0.0000000000
11
54.5826674777
21
49.2444886703
31
0.0000000000
11
54.5067243735
21
49.3066174557
31
0.0000000000
11
54.4078427434
21
49.3457900713
31
0.0000000000
11
54.2924708297
21
49.3592105310
31
0.0000000000
0
SPLINE
5
2BB
100
AcDbEntity
8
0
100
AcDbSpline
62
7
6
CONTINUOUS
70
0
71
3
72
10
73
6
74
4
42
0.0000001000
43
0.0000001000
44
0.0000000001
12
0.0658229227
22
-0.1337683303
32
0.0000000000
13
-0.0117083986
23
-0.1485528800
33
0.0000000000
40
0.0000000000
40
0.0000000000
40
0.0000000000
40
0.0000000000
40
0.1668827862
40
0.8208586886
40
1.0000000000
40
1.0000000000
40
1.0000000000
40
1.0000000000
10
55.4591692432
20
47.4783213246
30
0.0000000000
10
55.4628308141
20
47.4708801141
30
0.0000000000
10
55.4790959738
20
47.4334375040
30
0.0000000000
10
55.4877273643
20
47.3837015504
30
0.0000000000
10
55.4862134913
20
47.3423068405
30
0.0000000000
10
55.4855143387
20
47.3334361880
30
0.0000000000
11
55.4591692432
21
47.4783213246
31
0.0000000000
11
55.4690648879
21
47.4555158967
31
0.0000000000
11
55.4864620576
21
47.3601105671
31
0.0000000000
11
55.4855143387
21
47.3334361880
31
0.0000000000
0
SPLINE
5
2BC
100
AcDbEntity
8
0
100
AcDbSpline
62
7
6
CONTINUOUS
70
0
71
3
72
17
73
13
74
11
42
0.0000001000
43
0.0000001000
44
0.0000000001
12
-0.5024257427
22
1.0212260038
32
0.0000000000
13
-0.3342515303
23
-1.0816383447
33
0.0000000000
40
0.0000000000
40
0.0000000000
40
0.0000000000
40
0.0000000000
40
0.0601961508
40
0.1463534722
40
0.2399287701
40
0.3415994935
40
0.4503721499
40
0.5640531860
40
0.6791268699
40
0.7927120090
40
0.9006542102
40
1.0000000000
40
1.0000000000
40
1.0000000000
40
1.0000000000
10
55.3676539039
20
47.6648088937
30
0.0000000000
10
55.3575725387
20
47.6853001853
30
0.0000000000
10
55.3265306632
20
47.7319698857
30
0.0000000000
10
55.2544808600
20
47.7895455214
30
0.0000000000
10
55.1540060812
20
47.8280510646
30
0.0000000000
10
55.0389018819
20
47.8406334916
30
0.0000000000
10
54.9164681316
20
47.8271337576
30
0.0000000000
10
54.7942673370
20
47.7885715840
30
0.0000000000
10
54.6797481065
20
47.7271857291
30
0.0000000000
10
54.5804897150
20
47.6465798226
30
0.0000000000
10
54.5035139241
20
47.5519464617
30
0.0000000000
10
54.4693285738
20
47.4804213973
30
0.0000000000
10
54.4582597463
20
47.4446026588
30
0.0000000000
11
55.3676539039
21
47.6648088937
31
0.0000000000
11
55.3298534656
21
47.7217374666
31
0.0000000000
11
55.2543645413
21
47.7835058542
31
0.0000000000
11
55.1559296288
21
47.8226627572
31
0.0000000000
11
55.0416335737
21
47.8362608095
31
0.0000000000
11
54.9191566921
21
47.8234769089
31
0.0000000000
11
54.7963267173
21
47.7850549593
31
0.0000000000
11
54.6815454623
21
47.7234350055
31
0.0000000000
11
54.5820282540
21
47.6419988872
31
0.0000000000
11
54.5056661308
21
47.5465935576
31
0.0000000000
11
54.4582597463
21
47.4446026588
31
0.0000000000
0
SPLINE
5
2BD
100
AcDbEntity
8
0
100
AcDbSpline
62
7
6
CONTINUOUS
70
0
71
3
72
22
73
18
74
16
42
0.0000001000
43
0.0000001000
44
0.0000000001
12
5.8654077809
22
0.0090524469
32
0.0000000000
13
-2.5723338593
23
5.2418652797
33
0.0000000000
40
0.0000000000
40
0.0000000000
40
0.0000000000
40
0.0000000000
40
0.0317323921
40
0.0698327296
40
0.1151940330
40
0.1689096955
40
0.2308827815
40
0.3003352588
40
0.3760508114
40
0.4565188820
40
0.5400453479
40
0.6248184707
40
0.7087900327
40
0.7894402156
40
0.8661290315
40
0.9368219239
40
1.0000000000
40
1.0000000000
40
1.0000000000
40
1.0000000000
10
65.0363107269
20
38.6457181213
30
0.0000000000
10
65.0983518668
20
38.6458138733
30
0.0000000000
10
65.2351085969
20
38.6750976301
30
0.0000000000
10
65.4248835857
20
38.8017489700
30
0.0000000000
10
65.6015388893
20
39.0046408842
30
0.0000000000
10
65.7612183584
20
39.2758460159
30
0.0000000000
10
65.9011644785
20
39.6087812484
30
0.0000000000
10
66.0181811152
20
39.9952026760
30
0.0000000000
10
66.1093123318
20
40.4252694282
30
0.0000000000
10
66.1721660252
20
40.8879571738
30
0.0000000000
10
66.2050165087
20
41.3713720157
30
0.0000000000
10
66.2068563490
20
41.8627056216
30
0.0000000000
10
66.1775966717
20
42.3475756455
30
0.0000000000
10
66.1181104344
20
42.8138331345
30
0.0000000000
10
66.0299659225
20
43.2492980773
30
0.0000000000
10
65.9150855713
20
43.6432084067
30
0.0000000000
10
65.8167717765
20
43.8852940247
30
0.0000000000
10
65.7626000750
20
43.9956843459
30
0.0000000000
11
65.0363107269
21
38.6457181213
31
0.0000000000
11
65.2181548260
21
38.6822341888
31
0.0000000000
11
65.4066662671
21
38.8003679345
31
0.0000000000
11
65.5846266669
21
38.9965404373
31
0.0000000000
11
65.7471551200
21
39.2647913309
31
0.0000000000
11
65.8899299855
21
39.5972956454
31
0.0000000000
11
66.0092924208
21
39.9848653455
31
0.0000000000
11
66.1021924282
21
40.4170985087
31
0.0000000000
11
66.1662251212
21
40.8825687779
31
0.0000000000
11
66.1996801082
21
41.3691319685
31
0.0000000000
11
66.2015550693
21
41.8641196405
31
0.0000000000
11
66.1716733974
21
42.3535191344
31
0.0000000000
11
66.1113449526
21
42.8205561891
31
0.0000000000
11
66.0213014295
21
43.2591964050
31
0.0000000000
11
65.9039376084
21
43.6549365389
31
0.0000000000
11
65.7626000750
21
43.9956843459
31
0.0000000000
0
SPLINE
5
2BE
100
AcDbEntity
8
0
100
AcDbSpline
62
7
6
CONTINUOUS
70
0
71
3
72
22
73
18
74
16
42
0.0000001000
43
0.0000001000
44
0.0000000001
12
4.8924666151
22
-0.0187327367
32
0.0000000000
13
-2.1434378526
23
4.3678671095
33
0.0000000000
40
0.0000000000
40
0.0000000000
40
0.0000000000
40
0.0000000000
40
0.0053232627
40
0.0416102263
40
0.0839031674
40
0.1348826080
40
0.1952445644
40
0.2644939427
40
0.3414553011
40
0.4245080444
40
0.5117409098
40
0.6010552530
40
0.6901209344
40
0.7760257940
40
0.8578124005
40
0.9330800025
40
1.0000000000
40
1.0000000000
40
1.0000000000
40
1.0000000000
10
65.0824592105
20
39.1457786034
30
0.0000000000
10
65.0911405055
20
39.1457453636
30
0.0000000000
10
65.1589604217
20
39.1478497875
30
0.0000000000
10
65.2927096631
20
39.1907672371
30
0.0000000000
10
65.4580330465
20
39.3255288727
30
0.0000000000
10
65.6080367477
20
39.5265046213
30
0.0000000000
10
65.7413282779
20
39.7884439748
30
0.0000000000
10
65.8550420327
20
40.1042814319
30
0.0000000000
10
65.9461122601
20
40.4652894501
30
0.0000000000
10
66.0119195085
20
40.8612427671
30
0.0000000000
10
66.0504772893
20
41.2808447629
30
0.0000000000
10
66.0605245059
20
41.7118287976
30
0.0000000000
10
66.0416875407
20
42.1403697391
30
0.0000000000
10
65.9945925755
20
42.5544614697
30
0.0000000000
10
65.9206148108
20
42.9419452811
30
0.0000000000
10
65.8216133586
20
43.2919303428
30
0.0000000000
10
65.7354329150
20
43.5065883390
30
0.0000000000
10
65.6876199630
20
43.6040208911
30
0.0000000000
11
65.0824592105
21
39.1457786034
31
0.0000000000
11
65.1084687487
21
39.1465977125
31
0.0000000000
11
65.2778061610
21
39.1965534316
31
0.0000000000
11
65.4412017924
21
39.3216328404
31
0.0000000000
11
65.5933140303
21
39.5175528192
31
0.0000000000
11
65.7294946614
21
39.7777594111
31
0.0000000000
11
65.8457704488
21
40.0939892054
31
0.0000000000
11
65.9388409368
21
40.4566899472
31
0.0000000000
11
66.0060419966
21
40.8551517535
31
0.0000000000
11
66.0453966693
21
41.2777502612
31
0.0000000000
11
66.0556549438
21
41.7121834990
31
0.0000000000
11
66.0363778083
21
42.1450990037
31
0.0000000000
11
65.9885094853
21
42.5603145186
31
0.0000000000
11
65.9127721438
21
42.9509690491
31
0.0000000000
11
65.8113859762
21
43.3028654508
31
0.0000000000
11
65.6876199630
21
43.6040208911
31
0.0000000000
0
SPLINE
5
2BF
100
AcDbEntity
8
0
100
AcDbSpline
62
7
6
CONTINUOUS
70
0
71
3
72
11
73
7
74
5
42
0.0000001000
43
0.0000001000
44
0.0000000001
12
-0.6177797185
22
0.0019554458
32
0.0000000000
13
-0.2695990584
23
0.5493851185
33
0.0000000000
40
0.0000000000
40
0.0000000000
40
0.0000000000
40
0.0000000000
40
0.1312105024
40
0.3667170394
40
0.6529862326
40
1.0000000000
40
1.0000000000
40
1.0000000000
40
1.0000000000
10
65.0825013433
20
39.8459571300
30
0.0000000000
10
65.0554816142
20
39.8460426550
30
0.0000000000
10
64.9798178625
20
39.8569819759
30
0.0000000000
10
64.8618705201
20
39.9261051749
30
0.0000000000
10
64.7427906337
20
40.0595904277
30
0.0000000000
10
64.6779196340
20
40.1721671131
30
0.0000000000
10
64.6467347724
20
40.2357151797
30
0.0000000000
11
65.0825013433
21
39.8459571300
31
0.0000000000
11
65.0025435065
21
39.8574399905
31
0.0000000000
11
64.8756703346
21
39.9258113283
31
0.0000000000
11
64.7555975896
21
40.0533787920
31
0.0000000000
11
64.6467347724
21
40.2357151797
31
0.0000000000
0
SPLINE
5
2C0
100
AcDbEntity
8
0
100
AcDbSpline
62
7
6
CONTINUOUS
70
0
71
3
72
11
73
7
74
5
42
0.0000001000
43
0.0000001000
44
0.0000000001
12
-0.9006054075
22
0.1973118472
32
0.0000000000
13
-0.4061655807
23
0.8276784316
33
0.0000000000
40
0.0000000000
40
0.0000000000
40
0.0000000000
40
0.0000000000
40
0.1978330002
40
0.4251458573
40
0.6914365509
40
1.0000000000
40
1.0000000000
40
1.0000000000
40
1.0000000000
10
62.1739070226
20
38.6565628276
30
0.0000000000
10
62.1145171994
20
38.6695744258
30
0.0000000000
10
61.9919348791
20
38.7224782150
30
0.0000000000
10
61.8279484106
20
38.8606715235
30
0.0000000000
10
61.6753791417
20
39.0559254895
30
0.0000000000
10
61.5887951034
20
39.2105924509
30
0.0000000000
10
61.5470191526
20
39.2957228881
30
0.0000000000
11
62.1739070226
21
38.6565628276
31
0.0000000000
11
62.0051446809
21
38.7257534857
31
0.0000000000
11
61.8421097298
21
38.8574395124
31
0.0000000000
11
61.6883012913
21
39.0487995195
31
0.0000000000
11
61.5470191526
21
39.2957228881
31
0.0000000000
0
SPLINE
5
2C1
100
AcDbEntity
8
0
100
AcDbSpline
62
7
6
CONTINUOUS
70
0
71
3
72
13
73
9
74
7
42
0.0000001000
43
0.0000001000
44
0.0000000001
12
-0.7435812453
22
0.0000000000
32
0.0000000000
13
-0.2195404086
23
-0.7104330210
33
0.0000000000
40
0.0000000000
40
0.0000000000
40
0.0000000000
40
0.0000000000
40
0.1672755102
40
0.3409872924
40
0.5159901146
40
0.6869625517
40
0.8492874481
40
1.0000000000
40
1.0000000000
40
1.0000000000
40
1.0000000000
10
54.2924708297
20
49.3592105310
30
0.0000000000
10
54.2510098523
20
49.3592105310
30
0.0000000000
10
54.1663051934
20
49.3495329821
30
0.0000000000
10
54.0438488153
20
49.3102170907
30
0.0000000000
10
53.9299531965
20
49.2484480085
30
0.0000000000
10
53.8318485328
20
49.1681043301
30
0.0000000000
10
53.7558056211
20
49.0741948146
30
0.0000000000
10
53.7219363382
20
49.0032374722
30
0.0000000000
10
53.7109071731
20
48.9675470810
30
0.0000000000
11
54.2924708297
21
49.3592105310
31
0.0000000000
11
54.1688138090
21
49.3457920712
31
0.0000000000
11
54.0457267737
21
49.3066236318
31
0.0000000000
11
53.9313852876
21
49.2444984884
31
0.0000000000
11
53.8333276646
21
49.1635835826
31
0.0000000000
11
53.7580985040
21
49.0691935115
31
0.0000000000
11
53.7109071731
21
48.9675470810
31
0.0000000000
0
SPLINE
5
2C2
100
AcDbEntity
8
0
100
AcDbSpline
62
7
6
CONTINUOUS
70
0
71
3
72
9
73
5
74
3
42
0.0000001000
43
0.0000001000
44
0.0000000001
12
0.0666615988
22
-0.1358420559
32
0.0000000000
13
-0.0446122985
23
-0.1454735990
33
0.0000000000
40
0.0000000000
40
0.0000000000
40
0.0000000000
40
0.0000000000
40
0.5556911123
40
1.0000000000
40
1.0000000000
40
1.0000000000
40
1.0000000000
10
58.8320579395
20
47.4953976421
30
0.0000000000
10
58.8444056922
20
47.4702355677
30
0.0000000000
10
58.8604720628
20
47.4210247755
30
0.0000000000
10
58.8558067937
20
47.3692480444
30
0.0000000000
10
58.8491995801
20
47.3477029734
30
0.0000000000
11
58.8320579395
21
47.4953976421
31
0.0000000000
11
58.8558597937
21
47.4147512250
31
0.0000000000
11
58.8491995801
21
47.3477029734
31
0.0000000000
0
SPLINE
5
2C3
100
AcDbEntity
8
0
100
AcDbSpline
62
7
6
CONTINUOUS
70
0
71
3
72
9
73
5
74
3
42
0.0000001000
43
0.0000001000
44
0.0000000001
12
0.0666615988
22
-0.1358420559
32
0.0000000000
13
-0.0446122985
23
-0.1454735990
33
0.0000000000
40
0.0000000000
40
0.0000000000
40
0.0000000000
40
0.0000000000
40
0.5556911123
40
1.0000000000
40
1.0000000000
40
1.0000000000
40
1.0000000000
10
61.1347104245
20
47.4953976421
30
0.0000000000
10
61.1470581772
20
47.4702355677
30
0.0000000000
10
61.1631245478
20
47.4210247755
30
0.0000000000
10
61.1584592787
20
47.3692480444
30
0.0000000000
10
61.1518520652
20
47.3477029734
30
0.0000000000
11
61.1347104245
21
47.4953976421
31
0.0000000000
11
61.1585122787
21
47.4147512250
31
0.0000000000
11
61.1518520652
21
47.3477029734
31
0.0000000000
0
SPLINE
5
2C4
100
AcDbEntity
8
0
100
AcDbSpline
62
7
6
CONTINUOUS
70
0
71
3
72
21
73
17
74
15
42
0.0000001000
43
0.0000001000
44
0.0000000001
12
1.5431055181
22
-3.1445184321
32
0.0000000000
13
-3.5359889563
23
0.0111923954
33
0.0000000000
40
0.0000000000
40
0.0000000000
40
0.0000000000
40
0.0000000000
40
0.0707296415
40
0.1507221408
40
0.2379861955
40
0.3296592445
40
0.4244051350
40
0.5190471548
40
0.6105268434
40
0.6962022444
40
0.7738861162
40
0.8419266010
40
0.8994276056
40
0.9467256039
40
0.9861732903
40
1.0000000000
40
1.0000000000
40
1.0000000000
40
1.0000000000
10
65.5181735366
20
43.0556920543
30
0.0000000000
10
65.5545546367
20
42.9815551672
30
0.0000000000
10
65.6196804444
20
42.8174315382
30
0.0000000000
10
65.6932515515
20
42.5490814009
30
0.0000000000
10
65.7466966384
20
42.2511464214
30
0.0000000000
10
65.7783828326
20
41.9328835764
30
0.0000000000
10
65.7871678226
20
41.6045579822
30
0.0000000000
10
65.7725493437
20
41.2766636326
30
0.0000000000
10
65.7349989514
20
40.9612336796
30
0.0000000000
10
65.6759491345
20
40.6692269839
30
0.0000000000
10
65.5975305191
20
40.4101745929
30
0.0000000000
10
65.5023960514
20
40.1920317321
30
0.0000000000
10
65.3931308311
20
40.0210187435
30
0.0000000000
10
65.2716399863
20
39.9014581022
30
0.0000000000
10
65.1615172246
20
39.8510732470
30
0.0000000000
10
65.0987983743
20
39.8459055453
30
0.0000000000
10
65.0825013433
20
39.8459571300
30
0.0000000000
11
65.5181735366
21
43.0556920543
31
0.0000000000
11
65.6115971002
21
42.8262344329
31
0.0000000000
11
65.6870733457
21
42.5563987314
31
0.0000000000
11
65.7419296185
21
42.2556983619
31
0.0000000000
11
65.7742168032
21
41.9362190825
31
0.0000000000
11
65.7832225438
21
41.6044713017
31
0.0000000000
11
65.7682407838
21
41.2733038474
31
0.0000000000
11
65.7297775056
21
40.9551913792
31
0.0000000000
11
65.6692817079
21
40.6612537362
31
0.0000000000
11
65.5889105712
21
40.4012878245
31
0.0000000000
11
65.4914125563
21
40.1838151681
31
0.0000000000
11
65.3800532203
21
40.0159894795
31
0.0000000000
11
65.2585107568
21
39.9034070673
31
0.0000000000
11
65.1310587690
21
39.8500376720
31
0.0000000000
11
65.0825013433
21
39.8459571300
31
0.0000000000
0
SPLINE
5
2C5
100
AcDbEntity
8
0
100
AcDbSpline
62
7
6
CONTINUOUS
70
0
71
3
72
11
73
7
74
5
42
0.0000001000
43
0.0000001000
44
0.0000000001
12
0.6177797185
22
-0.0019554458
32
0.0000000000
13
0.2695990583
23
-0.5493851185
33
0.0000000000
40
0.0000000000
40
0.0000000000
40
0.0000000000
40
0.0000000000
40
0.1312105024
40
0.3667170394
40
0.6529862326
40
1.0000000000
40
1.0000000000
40
1.0000000000
40
1.0000000000
10
65.0824069657
20
43.4454501040
30
0.0000000000
10
65.1094266947
20
43.4453645790
30
0.0000000000
10
65.1850904465
20
43.4344252582
30
0.0000000000
10
65.3030377889
20
43.3653020591
30
0.0000000000
10
65.4221176753
20
43.2318168063
30
0.0000000000
10
65.4869886750
20
43.1192401209
30
0.0000000000
10
65.5181735366
20
43.0556920543
30
0.0000000000
11
65.0824069657
21
43.4454501040
31
0.0000000000
11
65.1623648025
21
43.4339672436
31
0.0000000000
11
65.2892379744
21
43.3655959058
31
0.0000000000
11
65.4093107194
21
43.2380284420
31
0.0000000000
11
65.5181735366
21
43.0556920543
31
0.0000000000
0
SPLINE
5
2C6
100
AcDbEntity
8
0
100
AcDbSpline
62
7
6
CONTINUOUS
70
0
71
3
72
12
73
8
74
6
42
0.0000001000
43
0.0000001000
44
0.0000000001
12
0.4496829673
22
-0.9163575417
32
0.0000000000
13
1.0253622268
23
0.0015825050
33
0.0000000000
40
0.0000000000
40
0.0000000000
40
0.0000000000
40
0.0000000000
40
0.3114697417
40
0.5751913228
40
0.7960422634
40
0.9887266089
40
1.0000000000
40
1.0000000000
40
1.0000000000
40
1.0000000000
10
64.3102021346
20
39.2957228881
30
0.0000000000
10
64.3568896805
20
39.2005836725
30
0.0000000000
10
64.4539426548
20
39.0296410705
30
0.0000000000
10
64.6283873083
20
38.8200081429
30
0.0000000000
10
64.8185918470
20
38.6835177071
30
0.0000000000
10
64.9627545484
20
38.6465264817
30
0.0000000000
10
65.0324576238
20
38.6457121746
30
0.0000000000
10
65.0363107269
20
38.6457181213
30
0.0000000000
11
64.3102021346
21
39.2957228881
31
0.0000000000
11
64.4705012872
21
39.0211596764
31
0.0000000000
11
64.6466383694
21
38.8175897643
31
0.0000000000
11
64.8334038004
21
38.6913409858
31
0.0000000000
11
65.0247536950
21
38.6458539648
31
0.0000000000
11
65.0363107269
21
38.6457181213
31
0.0000000000
0
SPLINE
5
2C7
100
AcDbEntity
8
0
100
AcDbSpline
62
7
6
CONTINUOUS
70
0
71
3
72
22
73
18
74
16
42
0.0000001000
43
0.0000001000
44
0.0000000001
12
-5.8654077809
22
-0.0090524469
32
0.0000000000
13
2.5723338605
23
-5.2418652791
33
0.0000000000
40
0.0000000000
40
0.0000000000
40
0.0000000000
40
0.0000000000
40
0.0317323921
40
0.0698327296
40
0.1151940330
40
0.1689096955
40
0.2308827815
40
0.3003352588
40
0.3760508114
40
0.4565188820
40
0.5400453479
40
0.6248184707
40
0.7087900327
40
0.7894402156
40
0.8661290315
40
0.9368219239
40
1.0000000000
40
1.0000000000
40
1.0000000000
40
1.0000000000
10
65.0364914826
20
44.6456891127
30
0.0000000000
10
64.9744503428
20
44.6455933608
30
0.0000000000
10
64.8376936127
20
44.6163096039
30
0.0000000000
10
64.6479186239
20
44.4896582640
30
0.0000000000
10
64.4712633203
20
44.2867663499
30
0.0000000000
10
64.3115838512
20
44.0155612181
30
0.0000000000
10
64.1716377311
20
43.6826259857
30
0.0000000000
10
64.0546210944
20
43.2962045580
30
0.0000000000
10
63.9634898778
20
42.8661378058
30
0.0000000000
10
63.9006361843
20
42.4034500602
30
0.0000000000
10
63.8677857008
20
41.9200352183
30
0.0000000000
10
63.8659458605
20
41.4287016125
30
0.0000000000
10
63.8952055379
20
40.9438315886
30
0.0000000000
10
63.9546917752
20
40.4775740995
30
0.0000000000
10
64.0428362870
20
40.0421091567
30
0.0000000000
10
64.1577166383
20
39.6481988273
30
0.0000000000
10
64.2560304331
20
39.4061132093
30
0.0000000000
10
64.3102021346
20
39.2957228881
30
0.0000000000
11
65.0364914826
21
44.6456891127
31
0.0000000000
11
64.8546473836
21
44.6091730452
31
0.0000000000
11
64.6661359425
21
44.4910392996
31
0.0000000000
11
64.4881755427
21
44.2948667967
31
0.0000000000
11
64.3256470896
21
44.0266159031
31
0.0000000000
11
64.1828722241
21
43.6941115886
31
0.0000000000
11
64.0635097888
21
43.3065418885
31
0.0000000000
11
63.9706097814
21
42.8743087254
31
0.0000000000
11
63.9065770884
21
42.4088384561
31
0.0000000000
11
63.8731221014
21
41.9222752656
31
0.0000000000
11
63.8712471403
21
41.4272875936
31
0.0000000000
11
63.9011288122
21
40.9378880997
31
0.0000000000
11
63.9614572570
21
40.4708510449
31
0.0000000000
11
64.0515007801
21
40.0322108291
31
0.0000000000
11
64.1688646012
21
39.6364706952
31
0.0000000000
11
64.3102021346
21
39.2957228881
31
0.0000000000
0
SPLINE
5
2C8
100
AcDbEntity
8
0
100
AcDbSpline
62
7
6
CONTINUOUS
70
0
71
3
72
19
73
15
74
13
42
0.0000001000
43
0.0000001000
44
0.0000000001
12
-0.5474838331
22
4.3246361611
32
0.0000000000
13
4.3994969738
23
0.0045800742
33
0.0000000000
40
0.0000000000
40
0.0000000000
40
0.0000000000
40
0.0000000000
40
0.1104843517
40
0.2232151911
40
0.3356396723
40
0.4452247288
40
0.5495525836
40
0.6464334503
40
0.7340186887
40
0.8109662474
40
0.8766952693
40
0.9318212003
40
0.9788806385
40
1.0000000000
40
1.0000000000
40
1.0000000000
40
1.0000000000
10
62.0832585998
20
40.7182098582
30
0.0000000000
10
62.0630958010
20
40.8774780657
30
0.0000000000
10
62.0336940914
20
41.2007752790
30
0.0000000000
10
62.0209586487
20
41.6886198544
30
0.0000000000
10
62.0390927902
20
42.1750131334
30
0.0000000000
10
62.0875460148
20
42.6470714488
30
0.0000000000
10
62.1649541041
20
43.0924007263
30
0.0000000000
10
62.2691921099
20
43.4994000874
30
0.0000000000
10
62.3974743202
20
43.8576392719
30
0.0000000000
10
62.5465616329
20
44.1582610499
30
0.0000000000
10
62.7132768970
20
44.3942551999
30
0.0000000000
10
62.8956454006
20
44.5604248738
30
0.0000000000
10
63.0628569678
20
44.6355253728
30
0.0000000000
10
63.1629675062
20
44.6454406432
30
0.0000000000
10
63.1939390285
20
44.6454728860
30
0.0000000000
11
62.0832585998
21
40.7182098582
31
0.0000000000
11
62.0391182139
21
41.1978010693
31
0.0000000000
11
62.0261463332
21
41.6890408263
31
0.0000000000
11
62.0446153424
21
42.1787682256
31
0.0000000000
11
62.0939736120
21
42.6539094534
31
0.0000000000
11
62.1728608174
21
43.1017963339
31
0.0000000000
11
62.2791508178
21
43.5105204266
31
0.0000000000
11
62.4100025105
21
43.8691945726
31
0.0000000000
11
62.5619328603
21
44.1682395551
31
0.0000000000
11
62.7309089981
21
44.3996319118
31
0.0000000000
11
62.9124358401
21
44.5570905993
31
0.0000000000
11
63.1016806210
21
44.6362647446
31
0.0000000000
11
63.1939390285
21
44.6454728860
31
0.0000000000
0
SPLINE
5
2C9
100
AcDbEntity
8
0
100
AcDbSpline
62
7
6
CONTINUOUS
70
0
71
3
72
11
73
7
74
5
42
0.0000001000
43
0.0000001000
44
0.0000000001
12
-0.8551092556
22
0.0032746741
32
0.0000000000
13
-0.3745932954
23
0.7633408786
33
0.0000000000
40
0.0000000000
40
0.0000000000
40
0.0000000000
40
0.0000000000
40
0.1682258079
40
0.3958840354
40
0.6707448921
40
1.0000000000
40
1.0000000000
40
1.0000000000
40
1.0000000000
10
65.0364339962
20
39.1457851672
30
0.0000000000
10
64.9884835144
20
39.1459687955
30
0.0000000000
10
64.8752779451
20
39.1680588096
30
0.0000000000
10
64.7128811129
20
39.2741608217
30
0.0000000000
10
64.5577913614
20
39.4542214432
30
0.0000000000
10
64.4723475482
20
39.6036083818
30
0.0000000000
10
64.4312352963
20
39.6873863429
30
0.0000000000
11
65.0364339962
21
39.1457851672
31
0.0000000000
11
64.8954071042
21
39.1720616405
31
0.0000000000
11
64.7300498906
21
39.2727061584
31
0.0000000000
11
64.5735636151
21
39.4462985458
31
0.0000000000
11
64.4312352963
21
39.6873863429
31
0.0000000000
0
SPLINE
5
2CA
100
AcDbEntity
8
0
100
AcDbSpline
62
7
6
CONTINUOUS
70
0
71
3
72
10
73
6
74
4
42
0.0000001000
43
0.0000001000
44
0.0000000001
12
0.0664091158
22
0.2148999776
32
0.0000000000
13
-0.0998219796
23
0.2028972496
33
0.0000000000
40
0.0000000000
40
0.0000000000
40
0.0000000000
40
0.0000000000
40
0.4571365994
40
0.8844119391
40
1.0000000000
40
1.0000000000
40
1.0000000000
40
1.0000000000
10
55.3793207385
20
47.4446026548
30
0.0000000000
10
55.3894400843
20
47.4773488698
30
0.0000000000
10
55.4005976483
20
47.5439486612
30
0.0000000000
10
55.3877269311
20
47.6193905215
30
0.0000000000
10
55.3714999803
20
47.6569913939
30
0.0000000000
10
55.3676539039
20
47.6648088937
30
0.0000000000
11
55.3793207385
21
47.4446026548
31
0.0000000000
11
55.3949522731
21
47.5462298998
31
0.0000000000
11
55.3779912577
21
47.6408271724
31
0.0000000000
11
55.3676539039
21
47.6648088937
31
0.0000000000
0
SPLINE
5
2CB
100
AcDbEntity
8
0
100
AcDbSpline
62
7
6
CONTINUOUS
70
0
71
3
72
22
73
18
74
16
42
0.0000001000
43
0.0000001000
44
0.0000000001
12
-4.8924666151
22
0.0187327367
32
0.0000000000
13
2.1434378536
23
-4.3678671090
33
0.0000000000
40
0.0000000000
40
0.0000000000
40
0.0000000000
40
0.0000000000
40
0.0053232627
40
0.0416102263
40
0.0839031674
40
0.1348826080
40
0.1952445644
40
0.2644939427
40
0.3414553011
40
0.4245080444
40
0.5117409098
40
0.6010552530
40
0.6901209344
40
0.7760257940
40
0.8578124005
40
0.9330800025
40
1.0000000000
40
1.0000000000
40
1.0000000000
40
1.0000000000
10
65.0824490985
20
44.1456286306
30
0.0000000000
10
65.0737678035
20
44.1456618704
30
0.0000000000
10
65.0059478873
20
44.1435574466
30
0.0000000000
10
64.8721986459
20
44.1006399970
30
0.0000000000
10
64.7068752625
20
43.9658783613
30
0.0000000000
10
64.5568715613
20
43.7649026127
30
0.0000000000
10
64.4235800311
20
43.5029632593
30
0.0000000000
10
64.3098662763
20
43.1871258021
30
0.0000000000
10
64.2187960489
20
42.8261177840
30
0.0000000000
10
64.1529888005
20
42.4301644669
30
0.0000000000
10
64.1144310197
20
42.0105624711
30
0.0000000000
10
64.1043838031
20
41.5795784365
30
0.0000000000
10
64.1232207683
20
41.1510374949
30
0.0000000000
10
64.1703157335
20
40.7369457643
30
0.0000000000
10
64.2442934982
20
40.3494619529
30
0.0000000000
10
64.3432949504
20
39.9994768912
30
0.0000000000
10
64.4294753940
20
39.7848188950
30
0.0000000000
10
64.4772883460
20
39.6873863429
30
0.0000000000
11
65.0824490985
21
44.1456286306
31
0.0000000000
11
65.0564395603
21
44.1448095215
31
0.0000000000
11
64.8871021480
21
44.0948538024
31
0.0000000000
11
64.7237065165
21
43.9697743936
31
0.0000000000
11
64.5715942786
21
43.7738544148
31
0.0000000000
11
64.4354136475
21
43.5136478230
31
0.0000000000
11
64.3191378602
21
43.1974180287
31
0.0000000000
11
64.2260673722
21
42.8347172868
31
0.0000000000
11
64.1588663124
21
42.4362554805
31
0.0000000000
11
64.1195116396
21
42.0136569728
31
0.0000000000
11
64.1092533652
21
41.5792237350
31
0.0000000000
11
64.1285305006
21
41.1463082303
31
0.0000000000
11
64.1763988237
21
40.7310927154
31
0.0000000000
11
64.2521361652
21
40.3404381849
31
0.0000000000
11
64.3535223328
21
39.9885417832
31
0.0000000000
11
64.4772883460
21
39.6873863429
31
0.0000000000
0
SPLINE
5
2CC
100
AcDbEntity
8
0
100
AcDbSpline
62
7
6
CONTINUOUS
70
0
71
3
72
10
73
6
74
4
42
0.0000001000
43
0.0000001000
44
0.0000000001
12
0.0664018975
22
0.2148766197
32
0.0000000000
13
-0.0997846974
23
0.2028860027
33
0.0000000000
40
0.0000000000
40
0.0000000000
40
0.0000000000
40
0.0000000000
40
0.4572375506
40
0.8835808716
40
1.0000000000
40
1.0000000000
40
1.0000000000
40
1.0000000000
10
54.6319681653
20
48.9675470771
30
0.0000000000
10
54.6420886456
20
49.0002969635
30
0.0000000000
10
54.6532326049
20
49.0668287070
30
0.0000000000
10
54.6403892410
20
49.1422579861
30
0.0000000000
10
54.6241845880
20
49.1798555814
30
0.0000000000
10
54.6203123055
20
49.1877288519
30
0.0000000000
11
54.6319681653
21
48.9675470771
31
0.0000000000
11
54.6475991333
21
49.0691860730
31
0.0000000000
11
54.6307113575
21
49.1635729023
31
0.0000000000
11
54.6203123055
21
49.1877288519
31
0.0000000000
0
SPLINE
5
2CD
100
AcDbEntity
8
0
100
AcDbSpline
62
7
6
CONTINUOUS
70
0
71
3
72
11
73
7
74
5
42
0.0000001000
43
0.0000001000
44
0.0000000001
12
0.3745838081
22
-0.7633215455
32
0.0000000000
13
0.8549997252
23
-0.0032737034
33
0.0000000000
40
0.0000000000
40
0.0000000000
40
0.0000000000
40
0.0000000000
40
0.3275031027
40
0.6018538471
40
0.8297420803
40
1.0000000000
40
1.0000000000
40
1.0000000000
40
1.0000000000
10
64.4772883460
20
39.6873863429
30
0.0000000000
10
64.5181807991
20
39.6040562848
30
0.0000000000
10
64.6032504526
20
39.4552157165
30
0.0000000000
10
64.7576634508
20
39.2753802949
30
0.0000000000
10
64.9200999176
20
39.1684962650
30
0.0000000000
10
65.0339357189
20
39.1459643947
30
0.0000000000
10
65.0824592105
20
39.1457786034
30
0.0000000000
11
64.4772883460
21
39.6873863429
31
0.0000000000
11
64.6187386438
21
39.4475183895
31
0.0000000000
11
64.7746192700
21
39.2739724671
31
0.0000000000
11
64.9398078711
21
39.1726862048
31
0.0000000000
11
65.0824592105
21
39.1457786034
31
0.0000000000
0
SPLINE
5
2CE
100
AcDbEntity
8
0
100
AcDbSpline
62
7
6
CONTINUOUS
70
0
71
3
72
22
73
18
74
16
42
0.0000001000
43
0.0000001000
44
0.0000000001
12
-2.1434393955
22
4.3678702512
32
0.0000000000
13
4.8929729613
23
-0.0187378302
33
0.0000000000
40
0.0000000000
40
0.0000000000
40
0.0000000000
40
0.0000000000
40
0.0665034985
40
0.1414651912
40
0.2231452852
40
0.3091889103
40
0.3986488667
40
0.4884977877
40
0.5762113530
40
0.6595286394
40
0.7364977446
40
0.8055487603
40
0.8655833875
40
0.9162217678
40
0.9582654962
40
0.9944099057
40
1.0000000000
40
1.0000000000
40
1.0000000000
40
1.0000000000
10
64.4312352963
20
39.6873863429
30
0.0000000000
10
64.3837198901
20
39.7842125605
30
0.0000000000
10
64.2978856095
20
39.9977353126
30
0.0000000000
10
64.1989912936
20
40.3463515596
30
0.0000000000
10
64.1248001417
20
40.7333428987
30
0.0000000000
10
64.0773660244
20
41.1480951698
30
0.0000000000
10
64.0582926511
20
41.5783636285
30
0.0000000000
10
64.0683828452
20
42.0116392825
30
0.0000000000
10
64.1072893026
20
42.4332998622
30
0.0000000000
10
64.1736060980
20
42.8304120491
30
0.0000000000
10
64.2651179918
20
43.1914361729
30
0.0000000000
10
64.3789980267
20
43.5063226117
30
0.0000000000
10
64.5120575676
20
43.7667958058
30
0.0000000000
10
64.6614264027
20
43.9663690415
30
0.0000000000
10
64.8258220324
20
44.1002917103
30
0.0000000000
10
64.9592239936
20
44.1434335356
30
0.0000000000
10
65.0272508199
20
44.1456569822
30
0.0000000000
10
65.0363682134
20
44.1456220668
30
0.0000000000
11
64.4312352963
21
39.6873863429
31
0.0000000000
11
64.3081313777
21
39.9866232013
31
0.0000000000
11
64.2069004360
21
40.3370155675
31
0.0000000000
11
64.1309580322
21
40.7271026302
31
0.0000000000
11
64.0827442808
21
41.1429581659
31
0.0000000000
11
64.0632153797
21
41.5777829666
31
0.0000000000
11
64.0735259308
21
42.0148169705
31
0.0000000000
11
64.1132652544
21
42.4397288723
31
0.0000000000
11
64.1810039503
21
42.8394054644
31
0.0000000000
11
64.2745109788
21
43.2020331110
31
0.0000000000
11
64.3909136693
21
43.5171878232
31
0.0000000000
11
64.5267557642
21
43.7757739063
31
0.0000000000
11
64.6780780775
21
43.9702063518
31
0.0000000000
11
64.8404992871
21
44.0945641290
31
0.0000000000
11
65.0090554275
21
44.1447156613
31
0.0000000000
11
65.0363682134
21
44.1456220668
31
0.0000000000
0
ENDSEC
0
SECTION
2
OBJECTS
0
DICTIONARY
5
2CF
100
AcDbDictionary
3
ACAD_GROUP
350
2D0
3
ACAD_MLINESTYLE
350
2D1
0
DICTIONARY
5
2D0
102
{ACAD_REACTORS
330
2CF
102
}
100
AcDbDictionary
0
DICTIONARY
5
2D1
102
{ACAD_REACTORS
330
2CF
102
}
100
AcDbDictionary
3
STANDARD
350
2D2
0
MLINESTYLE
5
2D2
102
{ACAD_REACTORS
330
2D1
102
}
100
AcDbMlineStyle
2
STANDARD
70
0
3

62
256
51
90.0
52
90.0
71
2
49
0.5
62
256
6
BYLAYER
49
-0.5
62
256
6
BYLAYER
0
ENDSEC
0
EOF
